<svg id="aa65794a-6caf-4d34-97cb-fc3d6f1dc2b1" data-name="Layer 1" xmlns="http://www.w3.org/2000/svg" viewBox="0 0 100 100"><defs><style>.bf226702-5b5e-41b5-a9c4-e103130b5526{fill:#fff;}</style></defs><title>ICONS CITY</title><path class="bf226702-5b5e-41b5-a9c4-e103130b5526" d="M50.11,93.12h-.24a22.55,22.55,0,0,1-8.08-.94c-1,.33-1.91-.35-2.86-.51s-1.77-.65-2.68-.89A32.33,32.33,0,0,1,27,86.47a42.31,42.31,0,0,1-7.62-6.08A48.21,48.21,0,0,1,9.92,66.15a48.75,48.75,0,0,1-2.07-6.91c-.28-1-.37-2.07-.58-3.08A16.42,16.42,0,0,1,6.89,53c0-1.09,0-2.19,0-3.29a14.44,14.44,0,0,1,0-3.29c.67-2.72.39-5.65,1.8-8.19.18-2.72,1.59-5,2.72-7.35A28.93,28.93,0,0,1,15.87,24c1.31-1.45,2.33-3.18,3.72-4.55a37.28,37.28,0,0,1,4.92-4,52.41,52.41,0,0,1,6.7-4.28,41.08,41.08,0,0,1,8-2.89,22.26,22.26,0,0,1,5.5-1c.88,0,1.75-.35,2.63-.43a26.72,26.72,0,0,1,2.83,0c1.4,0,2.94-.3,4.16.19s2.8-.31,3.92.75c1.11-.33,2.05.39,3.1.51a12.81,12.81,0,0,1,2.68.9,36.32,36.32,0,0,1,7.5,3.51c1.35.89,2.8,1.63,4.09,2.62a31.89,31.89,0,0,1,6.79,6.34c1.2,1.64,2.57,3.17,3.76,4.83a44.82,44.82,0,0,1,5.62,12.75c.42,1.83.61,3.69,1,5.49a33.59,33.59,0,0,1,.3,8.77,35.78,35.78,0,0,1-1.91,9.77,28.91,28.91,0,0,1-1.87,4.87c-1.2,2.09-2.22,4.3-3.61,6.3a51.41,51.41,0,0,1-7.89,8.7,62.12,62.12,0,0,1-6,4.21c-2.42,1.7-5.28,2.43-7.92,3.62a22.91,22.91,0,0,1-4.47,1.15A30.42,30.42,0,0,1,50.11,93.12Zm-25-54.52a54,54,0,0,1-6.52-3.52,5.59,5.59,0,0,0-3.43-.87,1.08,1.08,0,0,0-1.14.92c-.5,1.76-1,3.53-1.42,5.31s-.64,3.33-1.09,5c-.63,2.34.13,3.59,2.5,3.88a6.57,6.57,0,0,0,.89,0c0,.72.36,1.34-.67,1.51-.36.06-.78.32-1.24.39a1.86,1.86,0,0,0-1.79,2.17c0,.57.4,1.12.44,1.69.19,3.06,1.58,5.85,1.93,8.87.17,1.42.91,1.73,2.34,1.89s2.6-.58,3.74-1.23c1.79-1,3.5-2.12,5.2-3.17a13.36,13.36,0,0,1,2.56,3.78c.37.71.21,1-.25,1.32-2.65,1.56-5.33,3.08-7.86,4.53a4.72,4.72,0,0,0,1.87,5c.78.65,1.46,1.42,2.18,2.15a35.61,35.61,0,0,0,12.2,8.07,34.59,34.59,0,0,0,10,2.52,38.93,38.93,0,0,0,14-.86,44.33,44.33,0,0,0,6.6-2.26c2.63-1.22,4.92-2.92,7.4-4.32,1.12-.65,1.64-2.07,3-2.43,1-2,3-3.13,4.32-4.81a2.44,2.44,0,0,0-.57-3.51c-2.3-1.16-4.42-2.61-6.65-3.86L72.21,66c1.15-1.57,1.3-3.54,3.07-4.53a17.22,17.22,0,0,0,2.84,1.76c1.84.72,3.18,2.42,5.29,2.62.43,0,.75.78,1.34.13.33-.37,1-.49,1.26-.88a2.9,2.9,0,0,0,.51-1.42c.24-2.29,1.29-4.37,1.59-6.67.21-1.52.9-3,.77-4.62-1.18-1.16-1.52-1.33-3.71-1.83V49.35H87l1.87-1.69c-.09-.89.25-1.78-.48-2.47-.1-3.07-1.46-5.87-1.91-8.88-.13-.85-.38-1.88-1.41-2.06a4.11,4.11,0,0,0-2.87.42c-1.94,1.17-3.94,2.24-5.89,3.39-.93.56-1.27.64-1.93-.21-.8-1-1.47-2.19-2.2-3.3.76-.46,1.22-1,1.77-1.35A41.5,41.5,0,0,1,79.29,30a3.67,3.67,0,0,0,2-2.49c.24-.89-.48-1.68-1.15-2.31C77.77,23,75.4,20.77,73,18.58a3.17,3.17,0,0,0-2.85-.82l-1.93,2.33c-1-.2-1.34-1-.9-1.69.64-1,.17-1.93.43-3-.82-.35-1.55-.68-2.3-1-2.53-.94-5.13-1.66-7.72-2.44a7.65,7.65,0,0,0-3.11-.34c-.65.08-1.59.2-1.6,1.41,0,.66-.87,1.3,0,2-.57.63-.39,1.4-.39,2.13,0,1.87,0,3.74,0,5.6H47.42c0-2.62-.09-5.13,0-7.64.06-1-.51-1.72-.55-2.63,0-.54-.45-.89-1.1-.94a13.54,13.54,0,0,0-5.09.82c-1.66.55-3.35,1-5,1.57-1.16.4-2.28.92-3.48,1.41.34,1.13-.26,2.12.52,3.08.41.5,0,1.25-.71,1.55l-2.3-2.3a5.09,5.09,0,0,0-1.49.14,4.51,4.51,0,0,0-1.47,1c-1.31,1.25-2.52,2.6-3.87,3.8-.8.72-1.49,1.59-2.3,2.23a9.36,9.36,0,0,0-1.95,2.7,4.67,4.67,0,0,0,2.64,2.89A35.67,35.67,0,0,1,25,32.35a34.47,34.47,0,0,1,2.87,2.26Z"/><path class="bf226702-5b5e-41b5-a9c4-e103130b5526" d="M45.15,24.45c1.74,4.5,2.81,8.8,4.55,12.9,1,2.31,1.59,4.82,2.42,7.23.89,2.61,1.67,5.26,2.49,7.9,1.14,3.69-.06,6.41-4.23,7.65-1.28-.29-2.74-.3-3.75-1.12a4.73,4.73,0,0,1-1.56-3.07,5.58,5.58,0,0,1,0-.71V25.6C45.06,25.38,45.1,25.15,45.15,24.45ZM48.6,59.19h.92a3.91,3.91,0,0,0,4.2-2.74c.41-1.17.06-3.67-.9-4.3a10.27,10.27,0,0,0-2.42-1,3.18,3.18,0,0,0-2.35.55c-1.8.89-2.95,3.89-1.13,5.77C47.47,58.08,48,58.62,48.6,59.19Z"/><path class="bf226702-5b5e-41b5-a9c4-e103130b5526" d="M62.64,68.75l1.66.5v3a23.19,23.19,0,0,0,3.37.17l.66-3.23H70v8a2.44,2.44,0,0,1,0,.47,1.28,1.28,0,0,1-1.41.87c-.73-.15-.4-1-.81-1.3,1-1.08-.19-1.92-.19-2.88H64.43V77.8l-1.32.67a5.79,5.79,0,0,0-.56-.61c-.4-.33-.65-.61-.07-1,.11-.08,0-.45,0-.69,0-.7.29-1.67-.06-2.06-.69-.76.37-1.16.09-1.79s.18-1.32-.36-2C62,70.07,62.46,69.29,62.64,68.75Z"/><path class="bf226702-5b5e-41b5-a9c4-e103130b5526" d="M36,69.26l-.62,1.24c-.73,0-1.5,0-2.27,0a2.06,2.06,0,0,0-2.06,1.58A2.76,2.76,0,0,0,30.82,74c.86,2.52.83,2.6,3.29,2.62h1.37c.07,1.53-.12,1.83-1.2,1.88a4.63,4.63,0,0,1-1.86,0c-1.26-.53-2.67-.89-3.39-2.29A5.67,5.67,0,0,1,28.76,72a5,5,0,0,1,1.32-2.24,4.6,4.6,0,0,1,2.32-1.1,13.19,13.19,0,0,1,3.19.16C35.77,68.85,35.93,69.14,36,69.26Z"/><path class="bf226702-5b5e-41b5-a9c4-e103130b5526" d="M37.84,76.74c.93-.07,1.61-.39,2.18.26a2,2,0,0,0,2.69.29,5,5,0,0,1,5.1,0,1.8,1.8,0,0,0,2.1,0,6.83,6.83,0,0,1,1.85-.62,4.25,4.25,0,0,1,2.93.46,2.2,2.2,0,0,0,2.72.16,11.2,11.2,0,0,1,1.86-.6c.1,0,.31.25.38.43a.39.39,0,0,1-.13.39c-1,.51-1.91,1-2.91,1.47-.29.13-.73,0-1.09-.12-.13,0-.21-.24-.34-.3-2.54-1.2-2.63-1.34-5,0a2.43,2.43,0,0,1-3.05-.27,2.22,2.22,0,0,0-3-.24c-1.73,1-3.4.63-5.09,0a2.13,2.13,0,0,1-.73-.49C38.07,77.4,38,77.16,37.84,76.74Z"/><path class="bf226702-5b5e-41b5-a9c4-e103130b5526" d="M50.72,70.74c-1.31.94-1.11,2.21-.74,3.5s0,2.06-1.41,1.92a1.17,1.17,0,0,1-1.12-1.61c.86-2.82.27-5.68.42-8.51,0-.76.11-1.36,1.08-1.74l1.72,2.2-.88,1a4.26,4.26,0,0,1,.8.85.92.92,0,0,1-.11.75c-1.18.17-.78.65-.28,1.17C50.37,70.39,50.53,70.56,50.72,70.74Z"/><path class="bf226702-5b5e-41b5-a9c4-e103130b5526" d="M38.25,73.66c.46.2.92.37,1.36.58a4.1,4.1,0,0,0,4.26,0c1-.69,1.94-.17,3.19-.56-.22.54-.26,1-.45,1.06-.82.32-1.73.4-2.5.78-2.4,1.17-4,.86-5.63-1a4.5,4.5,0,0,0-.52-.46Z"/><path class="bf226702-5b5e-41b5-a9c4-e103130b5526" d="M60.06,74.27c-1.65,1.19-2.92,2.08-4.63,1.89-.23,0-.6.1-.69,0-1-1.33-2.78-.84-4-1.65a2,2,0,0,1,2.7-.51c1.41.69,2.67,1.19,4.22.34C58.17,74,59,74.27,60.06,74.27Z"/><path class="bf226702-5b5e-41b5-a9c4-e103130b5526" d="M50,93.82A43.82,43.82,0,1,1,93.82,50,43.87,43.87,0,0,1,50,93.82Zm0-82.64A38.82,38.82,0,1,0,88.82,50,38.86,38.86,0,0,0,50,11.18Z"/></svg>