<svg id="abdc003d-7921-4b29-95e6-0be5d20fce10" data-name="Layer 1" xmlns="http://www.w3.org/2000/svg" viewBox="0 0 100 100"><defs><style>.b2e1db9b-87c6-4397-b6fd-3511fac01e19{fill:#fff;}</style></defs><title>ICONS CITY</title><path class="b2e1db9b-87c6-4397-b6fd-3511fac01e19" d="M46.25,70a35.16,35.16,0,0,0-.09-5.76,4,4,0,0,0-2-2.34C36.06,57.77,31.7,51.25,31.57,42.2A21.41,21.41,0,0,1,50.74,21.06c11.47-1,21.41,6.41,23.35,17.41a21.11,21.11,0,0,1-11.9,23.15c-1.86.86-2.65,1.94-2.45,3.95.13,1.37,0,2.76,0,4.43h21c.6,0,1.34-.17,1.76.11A3.44,3.44,0,0,1,84.08,72c.06.46-1,1.16-1.6,1.58-.33.21-.9.06-1.37.06H24.94c-.53,0-1.18.15-1.57-.09-.6-.37-1.44-1-1.42-1.54a2.66,2.66,0,0,1,1.33-1.81A5.64,5.64,0,0,1,25.63,70C32.39,70,39.16,70,46.25,70Zm22-27.56C68.22,33.65,61.59,26.93,53,27a15.37,15.37,0,1,0,.28,30.73A14.93,14.93,0,0,0,68.3,42.44Z"/><path class="b2e1db9b-87c6-4397-b6fd-3511fac01e19" d="M53.23,78H80.91c.53,0,1.19-.18,1.56.07a12,12,0,0,1,1.79,1.78,9.34,9.34,0,0,1-1.74,1.6,4,4,0,0,1-1.77.13q-27.78,0-55.56,0c-1.4,0-3.32.36-3.35-1.76S23.75,78,25.15,78Q39.19,78,53.23,78Z"/><path class="b2e1db9b-87c6-4397-b6fd-3511fac01e19" d="M62.69,33.3c-.94,1.31-1.81,2.68-2.84,3.92-1.51,1.8-2.83,3.61-3,6.1-.13,1.87-1.6,2.74-3.26,3a3.68,3.68,0,0,1-4.11-2.11,3.75,3.75,0,0,1,.65-4.58,3,3,0,0,1,1.64-1c3.63-.21,5.87-2.81,8.53-4.7.58-.41,1.23-.72,1.85-1.08Z"/></svg>