<svg id="ab7664ef-6251-41f1-89a3-6f44fa9581e0" data-name="Layer 1" xmlns="http://www.w3.org/2000/svg" viewBox="0 0 100 100"><defs><style>.eab1f9ba-9704-4dcf-9a6d-50daf4641789{fill:#fff;}</style></defs><title>ICONS CITY</title><path class="eab1f9ba-9704-4dcf-9a6d-50daf4641789" d="M74,16.7c2.87,9.48,8.32,17,13.5,24.71,3.59,5.34,5.41,11,3.25,17.32A17.75,17.75,0,1,1,57.09,47.39a2.82,2.82,0,0,1,3.06-2.33C70.42,44.92,76,35.7,71.61,26.43A5.29,5.29,0,0,1,71.45,23,66.53,66.53,0,0,1,74,16.7Zm8.2,47.87c-5.46,1.09-10.47.54-14.85-3s-6.26-8.19-6.46-14c-3.21,5.7-.86,13.57,4.71,17.56C70.56,68.73,79.49,68.36,82.17,64.57Z"/><path class="eab1f9ba-9704-4dcf-9a6d-50daf4641789" d="M50.42,25.64l-1.23,2.27C40.36,25.36,32,26.35,24.3,31.36A27.69,27.69,0,0,0,12.82,46.73,28.92,28.92,0,0,0,26.38,80.49c13,7.13,29.55,3.49,38.5-9.77l2.17.91C61.3,82.82,44.61,91.4,28.06,84.4A31.54,31.54,0,0,1,11.87,41.5C19.5,25.58,38.1,20.45,50.42,25.64Z"/><path class="eab1f9ba-9704-4dcf-9a6d-50daf4641789" d="M60.69,12.61c2.68,4.4,5.77,9.4,8.79,14.44,2.35,3.93,2.3,7.91-.41,11.6a9.71,9.71,0,0,1-10.71,4,10,10,0,0,1-7.93-8.28,9.68,9.68,0,0,1,1.39-7.12C54.89,22.14,58,17.06,60.69,12.61ZM53,29.73c-2,3.21-.27,8.46,3.57,10.48,3.06,1.61,7,1.29,8.38-.87C57.84,40.21,54.25,36.57,53,29.73Z"/><path class="eab1f9ba-9704-4dcf-9a6d-50daf4641789" d="M27.52,43.35c4.1,0,5.91,2.65,5.91,6.38s-1.81,6.38-5.91,6.38-5.91-2.65-5.91-6.38S23.43,43.35,27.52,43.35Zm0,9.84c1.55,0,1.55-1.92,1.55-3.46s0-3.46-1.55-3.46S26,48.18,26,49.73,26,53.19,27.52,53.19ZM41.36,42.74h3.69L31.28,67.86H27.59Zm4.1,11.76c4.09,0,5.91,2.65,5.91,6.38s-1.82,6.38-5.91,6.38-5.91-2.65-5.91-6.38S41.36,54.5,45.46,54.5Zm0,9.84C47,64.34,47,62.43,47,60.88s0-3.46-1.54-3.46-1.55,1.91-1.55,3.46S43.91,64.34,45.46,64.34Z"/></svg>