<svg id="bcc71200-507e-4f79-9411-21f1adb6659f" data-name="Layer 1" xmlns="http://www.w3.org/2000/svg" viewBox="0 0 100 100"><defs><style>.ae9b5b4c-eeb9-4be3-8a4c-79d199c66b4f{fill:#fff;}</style></defs><title>ICONS CITY</title><path class="ae9b5b4c-eeb9-4be3-8a4c-79d199c66b4f" d="M30.3,14.1,43.54,37.23A18.78,18.78,0,0,0,36.4,48.76c-.09.52-1.33,1.18-2,1.19-7.55.09-15.1,0-22.64.09-2.22,0-2.27-1.34-2.23-2.93.35-12.55,5.95-22.33,15.76-29.89,1.31-1,2.73-1.88,4.1-2.81A7,7,0,0,1,30.3,14.1Z"/><path class="ae9b5b4c-eeb9-4be3-8a4c-79d199c66b4f" d="M29.42,84.51l13.23-22.7a18,18,0,0,0,13.52.43,1.93,1.93,0,0,1,1.67.79c4.21,7.12,8.36,14.28,12.5,21.4C61.82,93,38.9,93,29.42,84.51Z"/><path class="ae9b5b4c-eeb9-4be3-8a4c-79d199c66b4f" d="M64.41,50.23c-.94-5.11-3-9.32-7.33-12.4L70.44,14.4c2.82,2,5.74,3.54,8.08,5.74C86.36,27.51,90.72,36.57,91,47.46c.06,2.16-.64,2.85-2.83,2.82C80.39,50.16,72.57,50.23,64.41,50.23Z"/><path class="ae9b5b4c-eeb9-4be3-8a4c-79d199c66b4f" d="M50.06,41.8a8,8,0,1,1,.2,16,8,8,0,0,1-.2-16Z"/></svg>