<svg id="e6aa497c-d8ec-402f-a4dc-0cbde8810e6a" data-name="Layer 1" xmlns="http://www.w3.org/2000/svg" viewBox="0 0 100 100"><defs><style>.f459886b-1f42-45a0-9fd3-f6e40ff20972{fill:#fff;}</style></defs><title>ICONS CITY</title><path class="f459886b-1f42-45a0-9fd3-f6e40ff20972" d="M12.42,70.52l31.91-31.7c-3.63-2-6.7-3.8-9.88-5.38C32,32.22,31,30.76,31.8,28.82s2.64-2.64,5.11-1.42c3.93,1.93,7.71,4.16,12,6.49,1.21-1.19,2.78-2.7,4.32-4.23,3.56-3.54,7.1-7.11,10.67-10.65,1.88-1.87,3.94-2.15,5.34-.8s1.19,3.42-.67,5.3c-4.47,4.5-9,9-13.45,13.48-.61.61-1.19,1.26-1.91,2,6.21,7.15,8.63,15.74,10.08,25H76.81c2.2,0,4.41,0,6.61,0,2.83.06,4.24,1.2,4.07,3.35-.2,2.46-1.84,3.15-4.06,3.14-5.64,0-11.29,0-16.93,0H64.09c-.67,4-1.26,7.68-2,11.37a12.82,12.82,0,0,1-1,3c-.89,1.9-2.29,3-4.44,2s-2.13-2.59-1.56-4.66c1-3.68,1.7-7.45,2.63-11.67Zm16.41-6.71H56.48c-1-7.44-3-14.22-7.76-19.82Z"/></svg>