<svg id="a350df60-8d34-44d0-b7b0-52597ea15590" data-name="Layer 1" xmlns="http://www.w3.org/2000/svg" viewBox="0 0 100 100"><defs><style>.fafb63cf-eac2-496a-819e-95c05164c2ee{fill:#fff;}</style></defs><title>ICONS CITY</title><path class="fafb63cf-eac2-496a-819e-95c05164c2ee" d="M57.73,47.85c0-5.34.05-10.68,0-16,0-1.94.67-2.81,2.68-2.8,9.65.05,19.29,0,28.94,0,1.66,0,2.76.38,2.77,2.36,0,10.77.08,21.54.21,32.31,0,2.91-1.13,3.8-4,3.74-9-.18-18.07-.15-27.1,0-2.78,0-3.62-1.09-3.58-3.62.07-5.34,0-10.67,0-16Z"/><path class="fafb63cf-eac2-496a-819e-95c05164c2ee" d="M37.5,48.84c-.23-11-3.89-20.37-12.07-27.77a5.87,5.87,0,0,1-.46-.41c-1.3-1.54-3.19-3-1.06-5.21,1.93-2,3.79-1.09,5.41.35,6.26,5.59,11,12.27,13.08,20.44,4.42,17,.13,31.6-12.43,43.8-.58.57-1.28,1.45-1.91,1.44a8,8,0,0,1-4.27-1c-.45-.3-.06-2.69.63-3.61,2.32-3.11,5.2-5.81,7.42-9C35.82,62.19,37.32,55.61,37.5,48.84Z"/><path class="fafb63cf-eac2-496a-819e-95c05164c2ee" d="M21.61,49.62a19.65,19.65,0,0,1-6.8,13.86c-.82.72-2.46.51-3.72.73.18-1.26-.09-2.88.6-3.73,7-8.56,7-16-.08-24.19-1.13-1.29-2-2.82-.43-3.86.84-.54,3,0,3.92.77C19.28,36.73,21.61,42.36,21.61,49.62Z"/></svg>