<svg id="b6e7cbc1-7731-456c-a39a-815b07461207" data-name="Layer 1" xmlns="http://www.w3.org/2000/svg" viewBox="0 0 100 100"><defs><style>.afb5eacd-0880-4e1f-9ac3-f87dde1b8f1e{fill:#fff;}</style></defs><title>ICONS CITY</title><path class="afb5eacd-0880-4e1f-9ac3-f87dde1b8f1e" d="M13.94,49.21q0-13.45,0-26.91A24.94,24.94,0,0,1,14,19.56c.2-1.78,1.08-2.9,3-2.8s2.54,1.34,2.56,2.95c.07,5.13.13,10.25,0,15.37a9.81,9.81,0,0,0,2.56,7.27c4.36,4.73,4.1,10.32-.23,15.22a9.47,9.47,0,0,0-2.22,5.32c-.29,5-.22,10.06,0,15.09.1,2.41-.83,3.94-2.92,4.61C15.44,83,14,80.55,14,78Q13.93,63.63,13.94,49.21Z"/><path class="afb5eacd-0880-4e1f-9ac3-f87dde1b8f1e" d="M44.58,85.64c-1.45-1-2.68-1.56-3.37-2.48-14.17-18.9-14.12-48,.06-66.88.43-.58.87-1.38,1.46-1.57.94-.29,2.33-.57,2.94-.1a3.42,3.42,0,0,1,1.15,2.91,24.31,24.31,0,0,1-2.57,5.12C33,41.82,33.6,60.7,45.54,79.36a7.07,7.07,0,0,1,1,3.77C46.53,83.88,45.44,84.6,44.58,85.64Z"/><path class="afb5eacd-0880-4e1f-9ac3-f87dde1b8f1e" d="M41.73,48.82a44,44,0,0,1,7.7-25,13.65,13.65,0,0,1,2.88-3.26,3.12,3.12,0,0,1,2.79-.42A4,4,0,0,1,56.55,23a5.17,5.17,0,0,1-1.24,2.66c-10.76,15.52-10.57,33.8.42,48.84,1.23,1.68,1.33,3.49-.26,4.6s-3.24.42-4.48-1.24C44.75,69.5,41.71,60.12,41.73,48.82Z"/><path class="afb5eacd-0880-4e1f-9ac3-f87dde1b8f1e" d="M52.72,50.05a36.26,36.26,0,0,1,6.79-21.3c.58-.81,1.16-1.88,2-2.21,1.13-.46,2.76-.78,3.68-.27.67.38.71,2.19.7,3.36,0,.61-.72,1.23-1.16,1.81a29.94,29.94,0,0,0,0,36.51c.17.21.5.42.5.63,0,1.59.67,3.77-.12,4.64-1.37,1.51-3.25.47-4.42-1A35.63,35.63,0,0,1,52.72,50.05Z"/><path class="afb5eacd-0880-4e1f-9ac3-f87dde1b8f1e" d="M63.81,50.24c.13-6.81,2.14-12.37,6.34-17.06,1.28-1.43,2.79-3.12,4.86-1.42s1,3.49-.3,5.06c-3.22,4-5.19,8.32-5.07,13.54a19.81,19.81,0,0,0,4.85,12.23A6.33,6.33,0,0,1,75.92,66a2.82,2.82,0,0,1-1.69,2.16,3.62,3.62,0,0,1-2.9-.79A23.62,23.62,0,0,1,63.81,50.24Z"/><path class="afb5eacd-0880-4e1f-9ac3-f87dde1b8f1e" d="M74.8,49.76c.35-4.67,2.1-8.55,6-11.27,1.5-1.06,3.2-1.7,4.64,0s.4,3-.85,4.26c-5.28,5.34-5.32,8.38-.16,13.67,1.29,1.33,2.5,2.68.93,4.46s-3.29,1-4.86-.16C76.68,58.05,75.18,54.17,74.8,49.76Z"/></svg>