<svg id="a31015c2-4331-4ca3-8397-7693d2b73033" data-name="Layer 1" xmlns="http://www.w3.org/2000/svg" viewBox="0 0 100 100"><defs><style>.bbb4242a-462f-441e-a052-428d89bf8615{fill:#fff;}</style></defs><title>ICONS CITY</title><path class="bbb4242a-462f-441e-a052-428d89bf8615" d="M51,89.69A39.7,39.7,0,0,1,17.22,29.15a1.52,1.52,0,0,1,2.58,1.6A36.66,36.66,0,1,0,32,18.63,1.53,1.53,0,0,1,30.46,16,39.7,39.7,0,1,1,51,89.69Z"/><path class="bbb4242a-462f-441e-a052-428d89bf8615" d="M51,26.42A23.58,23.58,0,1,0,74.58,50,23.58,23.58,0,0,0,51,26.42ZM69.25,52.28H63.93a1.52,1.52,0,0,1-1.4-.93l-2.17-5.2L57,57.28a1.51,1.51,0,0,1-1.29,1.08h-.17a1.53,1.53,0,0,1-1.32-.78L48.9,48.11,47.83,50.6a1.51,1.51,0,0,1-1.39.92H32a1.52,1.52,0,1,1,0-3H45.43l1.89-4.4a1.51,1.51,0,0,1,1.32-.92,1.49,1.49,0,0,1,1.4.77l5.09,9L58.67,41.2a1.52,1.52,0,0,1,2.86-.15l3.41,8.19h4.31a1.52,1.52,0,0,1,0,3Z"/></svg>