<svg id="ae4d5964-5565-4e72-8c61-61f0480318e2" data-name="Layer 1" xmlns="http://www.w3.org/2000/svg" viewBox="0 0 100 100"><defs><style>.a8091b98-e2d9-4ae3-a1eb-b91d232ec897{fill:#fff;}</style></defs><title>ICONS CITY</title><path class="a8091b98-e2d9-4ae3-a1eb-b91d232ec897" d="M48.64,45.56c-2-1.08-3.34-.55-4.29,1.28-.78,1.51-1.56,3-2.31,4.54s-1.93,1.65-3.3.9S36.36,50.71,37.29,49c1.27-2.42,2.49-4.87,3.7-7.31a3.53,3.53,0,0,1,3.54-2.16c2.51.05,5,0,7.54,0a4.69,4.69,0,0,1,4.59,2.84c1.71,3.51,4.38,5.2,8.43,4.49,2.16-.37,3.26.59,3.37,2.47s-.71,2.9-2.93,3a53.88,53.88,0,0,1-5.54,0c-2.86-.16-4-1-5.87-4-2.24,1.77-2.68,3.52-1.41,6.07,2.21,4.43,4.47,8.83,6.69,13.25,1.1,2.18.82,3.27-1.07,4.2-1.69.84-2.61.38-3.72-1.84-1.88-3.76-3.79-7.51-5.88-11.64a14.69,14.69,0,0,0-1.47,2.4c-1.09,3.06-3.2,4.19-6.38,3.77-1.52-.2-3.1,0-4.65-.06-1.93-.08-2.81-1.09-2.68-3s1.2-2.45,3-2.34c4.51.3,6.21-.82,8.07-4.93C45.92,51.33,47.28,48.48,48.64,45.56Z"/><path class="a8091b98-e2d9-4ae3-a1eb-b91d232ec897" d="M20.25,22.79a7.67,7.67,0,0,0,.84.94c2,1.51,1.67,2.89.21,4.75a37.73,37.73,0,0,0,.54,47.64c.45.57.85,1.19,1.3,1.81l-3.06,3.28C3.13,64.08,5.57,36.53,20.25,22.79Z"/><path class="a8091b98-e2d9-4ae3-a1eb-b91d232ec897" d="M79,26.11,82,23.21C97,37.46,98.16,65.1,82,81a1.23,1.23,0,0,1-.39-.16c-3-2.75-3-2.75-.44-6,10.48-13.35,10.2-33-.66-46.65C80.05,27.55,79.58,26.9,79,26.11Z"/><path class="a8091b98-e2d9-4ae3-a1eb-b91d232ec897" d="M28.65,31.64c2,1.14.92,2.19.12,3.29-5,6.91-7.33,14.59-5.08,23,1.09,4,3.39,7.77,5.4,11.51.73,1.36,1.05,2.17-.43,3C17.61,61.44,18,42.11,28.65,31.64Z"/><path class="a8091b98-e2d9-4ae3-a1eb-b91d232ec897" d="M73.47,31.64C84,41.81,84.05,61.86,73.15,72.69L71.83,71a28.22,28.22,0,0,0,6.54-12.84c1.68-8.65.29-16.58-5.33-23.55C72.11,33.46,71.56,32.53,73.47,31.64Z"/><path class="a8091b98-e2d9-4ae3-a1eb-b91d232ec897" d="M58.27,29.84a5.28,5.28,0,0,1,5.13,5.07,5,5,0,1,1-5.13-5.07Z"/></svg>