<svg id="bd01d1ea-ce0d-492f-bd25-29f23d731bfc" data-name="Layer 1" xmlns="http://www.w3.org/2000/svg" viewBox="0 0 100 100"><defs><style>.b18cccba-10bb-4c7d-8c1a-405640a8b057{fill:#fff;}</style></defs><title>ICONS CITY</title><path class="b18cccba-10bb-4c7d-8c1a-405640a8b057" d="M84.09,33.26l-32-19.35a3.29,3.29,0,0,0-3.42,0L17.88,33a3.27,3.27,0,0,0-.36,5.31h0a10.62,10.62,0,0,1,3.85,8.18V68.91a3.28,3.28,0,0,0,1.72,2.88L49.63,86.16a3.26,3.26,0,0,0,3.12,0L79.29,71.79A3.28,3.28,0,0,0,81,68.91V45.65a8.87,8.87,0,0,1,3.24-6.86l.23-.19A3.28,3.28,0,0,0,84.09,33.26ZM76.72,57.52H75L72,67.64a1,1,0,0,1-1,.74h0a1,1,0,0,1-1-.77l-2.66-10-2,3.35a1,1,0,0,1-1,.49,1,1,0,0,1-.87-.67l-2.35-6.34-2.29,5.87a1.06,1.06,0,0,1-1,.65,1,1,0,0,1-1-.75l-1.91-6.91L52.25,73.89a1,1,0,0,1-1,.9h0a1,1,0,0,1-1-1l-2.45-30.5L45.67,61a1,1,0,0,1-2.05.08l-2.07-10.6L39.09,69A1,1,0,0,1,37,69l-2.53-13.7-2,6.42a1,1,0,0,1-.93.72,1,1,0,0,1-1-.61l-2.66-6-.8.85a1,1,0,0,1,.35.77,1,1,0,0,1-1,1H24.9a1,1,0,0,1-.75-1.75l3.29-3.46a1,1,0,0,1,.93-.3,1,1,0,0,1,.77.6l2.18,4.91,2.46-7.77a1,1,0,0,1,2,.13l2.1,11.37L40.32,44a1,1,0,0,1,1-.9,1,1,0,0,1,1,.84l2,10.27L46.9,32.67a1,1,0,0,1,2.06,0l2.5,31.06,2-15.81a1.05,1.05,0,0,1,1-.9,1,1,0,0,1,1.07.76L58,56.67l2.16-5.5a1,1,0,0,1,1-.66,1.05,1.05,0,0,1,1,.68l2.55,6.87,2.18-3.59a1,1,0,0,1,1.88.27L71,63.56l2.23-7.38a1,1,0,0,1,1-.73h2.47a1,1,0,0,1,0,2.07Z"/></svg>