<svg id="b64ba2ea-0fe0-4e09-90ef-b4ccb8f5bc75" data-name="Layer 1" xmlns="http://www.w3.org/2000/svg" viewBox="0 0 100 100"><defs><style>.fe36e417-a09d-4177-86b8-2bb48af24914{fill:#fff;}</style></defs><title>ICONS CITY</title><path class="fe36e417-a09d-4177-86b8-2bb48af24914" d="M29.4,90c4.44-11.42,8.87-22.83,13.41-34.5H26.26L73,9.62l.39.21c-4,11.13-7.94,22.25-12,33.65H78.89l.45.66C63,59.65,46.44,74.94,30,90.38Z"/><path class="fe36e417-a09d-4177-86b8-2bb48af24914" d="M27.23,81.87A37.74,37.74,0,0,1,14.54,31.4C25.27,12.38,48,7.76,62.36,13.19c-1.35,2.07-2.81,3-5.73,2.46A36.25,36.25,0,0,0,17.23,35a34.11,34.11,0,0,0,9.34,41.67C28.86,78.5,28.86,78.5,27.23,81.87Z"/><path class="fe36e417-a09d-4177-86b8-2bb48af24914" d="M40.26,87.53c1.58-1.85,2.9-3.16,5.94-2.87C66.26,86.55,83.2,73.72,86,54.45c1.61-11.26-2-21.2-10.34-29.24-2.11-2-1.35-3.41-.55-5.29,11.6,7.45,20.4,27,11.94,45.57C78.08,85.1,56.12,92.07,40.26,87.53Z"/></svg>