<svg id="bb71e881-c4b3-436d-83e5-c70edb062dca" data-name="Layer 1" xmlns="http://www.w3.org/2000/svg" viewBox="0 0 100 100"><defs><style>.b48c41f0-0f29-443c-a0a3-e16c9b0ba4b9{fill:#fff;}</style></defs><title>ICONS CITY</title><path class="b48c41f0-0f29-443c-a0a3-e16c9b0ba4b9" d="M75.86,51V73.52c0,4.3-1.1,5.39-5.22,6.82-6.77,2.37-13.74,2-20.67,2-5.53,0-11-.62-16.58-1a12.31,12.31,0,0,1-2.93-.77c-4-1.34-5-2.61-5-6.84,0-8.14,0-16.28,0-24.42,0-7-.13-13.93-.16-20.89,0-4.4.93-5.5,5.17-6.82,12.75-4,25.58-3.78,38.46-.8A27.46,27.46,0,0,1,72.41,22c2.5,1,3.52,2.76,3.48,5.47C75.8,35.32,75.86,43.15,75.86,51ZM29.53,30.63a5.89,5.89,0,0,0-.31,1.14c0,2.35.07,4.71,0,7.05-.09,1.91.89,2.49,2.55,2.5a37,37,0,0,1,5.16.09c.67.09,1.7,1.06,1.69,1.62A2.49,2.49,0,0,1,37,44.81a18.16,18.16,0,0,1-4,.11c-3.74,0-3.68,0-3.92,3.79-.12,1.95.57,2.74,2.53,2.63a23.21,23.21,0,0,1,5.14.13c.75.13,1.33,1.18,2,1.81-.7.55-1.33,1.37-2.12,1.58a12.79,12.79,0,0,1-3.28.09c-4.26,0-4.26,0-4.17,4.2a3.68,3.68,0,0,1,0,.47c-.08,1.38.49,2,1.94,1.93a29.49,29.49,0,0,1,5.4.07c.79.1,1.47,1,2.2,1.55-.69.69-1.29,1.82-2.08,2a22.14,22.14,0,0,1-5.15.1c-1.79-.09-2.63.47-2.39,2.42a39,39,0,0,1,.08,4.46c0,4.09,0,4.29,4.06,5.2a76.64,76.64,0,0,0,35.54-.23c2.46-.61,3.4-1.91,3.38-4.47-.09-13,0-26-.05-39,0-.92-.08-1.83-.15-3.08A84.55,84.55,0,0,1,29.53,30.63Zm41.6-4.17c-7.39-5.23-35.85-5-41.48.28A72,72,0,0,0,71.13,26.46Z"/><path class="b48c41f0-0f29-443c-a0a3-e16c9b0ba4b9" d="M66.25,57a9.8,9.8,0,0,1-16.73,6.35c-2.83-2.92-3.81-6.53-2-10.12a122.69,122.69,0,0,1,7.38-11.92c.83-1.28,2.17-1.48,3.06-.08q3.82,6,7.38,12.2A14.09,14.09,0,0,1,66.25,57ZM56.91,45.9l-.83-.19c-1.69,2.94-3.52,5.8-5,8.83a5.52,5.52,0,0,0,2,6.82,5.69,5.69,0,0,0,7.13-.24,5.44,5.44,0,0,0,1.51-6.93C60.19,51.37,58.51,48.66,56.91,45.9Z"/></svg>