<svg id="f4c3788e-117b-4a2e-a4b2-261adefad2f1" data-name="Layer 1" xmlns="http://www.w3.org/2000/svg" viewBox="0 0 100 100"><defs><style>.b3995903-67d3-48fe-826c-54e6fcefd365{fill:#fff;}</style></defs><title>ICONS CITY</title><polygon class="b3995903-67d3-48fe-826c-54e6fcefd365" points="24.51 36.63 24.51 29.06 16.17 29.06 16.17 36.63 8.26 36.63 20.34 48.3 32.43 36.63 24.51 36.63"/><polygon class="b3995903-67d3-48fe-826c-54e6fcefd365" points="82.9 36.63 82.9 29.06 74.56 29.06 74.56 36.63 66.64 36.63 78.73 48.3 90.81 36.63 82.9 36.63"/><polygon class="b3995903-67d3-48fe-826c-54e6fcefd365" points="54.59 45.47 54.59 37.91 46.25 37.91 46.25 45.47 38.33 45.47 50.42 57.14 62.5 45.47 54.59 45.47"/><path class="b3995903-67d3-48fe-826c-54e6fcefd365" d="M71.18,52c-1.69,5-10.4,8.85-20.91,8.85S31,57,29.35,52h-18V73.18H89.19V52Z"/></svg>