<svg id="bcf7bd65-1ce1-446b-b6fa-d61fa13a17b3" data-name="Layer 1" xmlns="http://www.w3.org/2000/svg" viewBox="0 0 100 100"><defs><style>.a27971c1-b351-4123-94a0-81edfe6ce00c{fill:#fff;}</style></defs><title>ICONS CITY</title><path class="a27971c1-b351-4123-94a0-81edfe6ce00c" d="M19.59,27a2,2,0,0,1-1.53-3.28,43.49,43.49,0,0,1,66.76-.14,2,2,0,1,1-3.06,2.57,39.5,39.5,0,0,0-60.63.13A2,2,0,0,1,19.59,27Z"/><path class="a27971c1-b351-4123-94a0-81edfe6ce00c" d="M51.5,95A43.42,43.42,0,0,1,15.12,75.35a2,2,0,1,1,3.34-2.19,39.51,39.51,0,0,0,66,.12,2,2,0,1,1,3.34,2.21A43.43,43.43,0,0,1,51.5,95Z"/><path class="a27971c1-b351-4123-94a0-81edfe6ce00c" d="M30.56,44.59c-.23-1.2-1.11-4.85-5.31-4.85-4.76,0-6.28,4.62-6.28,9s1.52,9.05,6.28,9.05c3.42,0,4.71-2.36,5.36-5.5h10c0,6.65-5.4,13.72-15,13.72-10.67,0-16.72-7.53-16.72-17.27,0-10.34,6.56-17.27,16.72-17.27,9.09.05,14,4.76,14.91,13.07Z"/><path class="a27971c1-b351-4123-94a0-81edfe6ce00c" d="M60.59,31.52c10,0,16.71,7.2,16.71,17.27S70.61,66.06,60.59,66.06,43.87,58.85,43.87,48.79,50.57,31.52,60.59,31.52Zm0,26.32c2.58,0,6.55-1.71,6.55-9.05s-4-9-6.55-9S54,41.45,54,48.79,58,57.84,60.59,57.84Z"/><path class="a27971c1-b351-4123-94a0-81edfe6ce00c" d="M79.26,58.84C79,53.83,82.05,51,87,51c4.41,0,7.42,1.85,7.42,5.72,0,4.64-4.52,6.08-8,8.19v0h8.22v4.44H78.89a6.67,6.67,0,0,1,1.3-4.49c1.54-2.12,4.1-3.5,6.45-4.91.94-.57,2.45-1.33,2.45-2.64A2,2,0,0,0,86.9,55.1c-2.09,0-2.82,1.52-2.74,3.74Z"/></svg>