<?xml version="1.0" encoding="utf-8"?>
<!-- Generator: Adobe Illustrator 23.0.0, SVG Export Plug-In . SVG Version: 6.00 Build 0)  -->
<svg version="1.1" id="aa265afa-8125-44f1-9231-87bed49abfcd"
	 xmlns="http://www.w3.org/2000/svg" xmlns:xlink="http://www.w3.org/1999/xlink" x="0px" y="0px" viewBox="0 0 100 100"
	 style="enable-background:new 0 0 100 100;" xml:space="preserve">
<style type="text/css">
	.st0{fill:none;}
	.st1{fill:#FFFFFF;}
</style>
<title>ICONS CITY</title>
<path class="st0" d="M70.8,66.9L70.4,67h0.4V66.9z"/>
<path class="st1" d="M83.1,32c-5.3,0.1-4.6,0.7-4.6-4.9c0-2.3-0.6-5,2.9-4.7v-4.9c-1.1-0.1-2-0.2-3-0.2H35.4c-5.7,0-11.5,0-17.2,0.1
	c-0.8,0-2.3,0.8-2.4,1.3c-0.2,3.4-0.1,6.9-0.1,10.6c2.8-0.1,5.7-0.1,8.6,0.1c2.4,0.3,2.8-0.7,2.8-3c-0.1-3.7,0-3.8,3.5-3.7
	c0.6,0,1.2,0.1,1.7,0.1c0.2,0.3,0.3,0.5,0.3,0.7c0,16.9,0,33.8,0.1,50.7c0,1.7-0.8,2.1-2.1,2.1c-1.8,0-3.6,0-5.6,0v5.3h16.6
	c4.2,0,4.4-0.4,3.4-5.2c-1.5-0.1-3.1-0.1-4.7,0c-2.2,0.2-2.9-0.7-2.8-3.1c0.1-12.8,0.1-25.7,0-38.5c0-2.8,0.5-4,3.4-3.9
	c4.2,0.2,6.2-2,6.7-6.6c0-0.5,0.1-0.9,0.2-1.5h27.6c0,2.3-0.1,4.4,0,6.5s-0.4,3-2.4,2.8c-2.2-0.2-4.5,0-7.4,0
	c2.3,4.2,4.2,7.7,6.2,11.2c0.3,0.4,0.8,0.7,1.3,0.8c4.3,0.1,8.6,0,13.1,0c0-3.2-0.2-6.1,0-8.9S85.4,31.9,83.1,32z M80.1,41H75v-5
	h0.7l0,0H76h4L80.1,41z"/>
<path class="st0" d="M75.7,36L75.7,36H76H75.7z"/>
<path class="st1" d="M86.2,60v-8.7c-1.1-0.1-1.9-0.2-2.8-0.2c-3.2,0-6.3-0.1-9.5,0c-1.6,0.2-3.2-0.7-3.8-2.3
	c-1.3-2.7-2.7-5.3-4.2-7.8c-0.5-0.8-1.3-1.8-2.1-1.8c-3.8-0.2-7.5-0.1-11.2-0.1c-0.2,0.4-0.3,0.7-0.3,1.1c0,16.1,0,32.1-0.1,48.1
	c0,1.6,0.7,1.9,2,1.9c2.6,0,5.3-0.1,7.9,0c1.7,0.1,2.2-0.6,2.1-2.3c-0.1-2.5,0-5,0-7.6h10v9.8c3.5,0,6.7-0.1,9.8,0
	c1.8,0.1,2.2-0.7,2.2-2.5C86.1,78.5,86.2,69.2,86.2,60z M63,72h-5v-5h5V72z M60.3,56H63v5h-5v-5h1.3 M63,50h-5v-5h5V50z M72,72h-5
	v-5h3.4l0.4-0.1V67H72V72z M72,61h-5v-5h5V61z M76,67.7V67h5v5h-5v-0.8 M76,56.5V56h5v5h-5v-0.8"/>
<path class="st1" d="M58,50h5v-5h-5V50z"/>
<path class="st1" d="M67,61h5v-5h-5V61z"/>
<path class="st1" d="M58,72h5v-5h-5V72z"/>
</svg>
