<svg id="f1528dd7-e562-40a9-a0bd-1cbada610796" data-name="Layer 1" xmlns="http://www.w3.org/2000/svg" viewBox="0 0 100 100"><defs><style>.e78d5496-aad9-42a9-8e9d-d919ccdadbb5{fill:#fff;}</style></defs><title>ICONS CITY</title><path class="e78d5496-aad9-42a9-8e9d-d919ccdadbb5" d="M23.91,75.56c6.56-5.4,13.15-10.33,16.41-18.47l-9.12-.91c6.11-4.25,10.55-9.32,12-16.78l-6.65-.54A95.3,95.3,0,0,0,50.71,13.45c2.14,4.66,3.89,9.15,6.2,13.33s5.1,7.86,7.87,12.06l-6.69.42c.29,4.79,4.45,9.64,14.1,16.22-1.88,1.55-6.06,2-10.11,1.11C64.83,64,70.92,67.77,77.63,71.51l-3.49.76c-9.13,2-18.22,4.36-27.43,6A40.68,40.68,0,0,1,23.91,75.56Z"/><path class="e78d5496-aad9-42a9-8e9d-d919ccdadbb5" d="M35.35,27.4c0,.1.27.51.44.94,2.33,5.87,2.33,5.87-2.48,10-.63.54-1.21,1.14-2.23,2.1,2,.26,3.42.46,4.86.61s2.79.24,4.47.38c-2.47,7-7.58,11.14-14.22,14,3.19,2.92,6.8,3.45,11.17,3.66-2.28,2.69-4.07,5-6.13,7.14S26.77,70,24.71,72c-3.13,3.12-6.39,2.73-10,.63C19.56,69,24,65,26.88,59.44l-7.11-.7-.12-.64A20.63,20.63,0,0,0,29.24,46H24.29Z"/><path class="e78d5496-aad9-42a9-8e9d-d919ccdadbb5" d="M65.75,59.3c4.6-.26,8.61-.67,11-5.06-7.41-1.48-11.82-6.55-15.62-12.33l8.46-2.64a6.33,6.33,0,0,0-.54-1c-1.48-1.25-4.22-2.53-4.2-3.74.05-2.39,1.64-4.74,2.69-7.34,1.6,3.41,2.83,6.56,4.5,9.46s3.8,5.53,5.95,8.6H72.44a22.23,22.23,0,0,0,11,11.57c-1.72,1.67-3.35,1.92-7.78,1.11,2.61,4.86,6.61,7.82,11.53,10.39-4.07,1.13-7.57,2.17-11.29-.26A43.17,43.17,0,0,1,65.75,59.3Z"/><path class="e78d5496-aad9-42a9-8e9d-d919ccdadbb5" d="M45.23,87c.79-1.86,1.45-3.62,2.28-5.31A4.23,4.23,0,0,1,49,80.44a2.35,2.35,0,0,1,.9-.25c5.76-1.13,5.71-1.11,7.19,4.53.45,1.7-.14,2.47-1.62,3C53,88.71,48.18,88.43,45.23,87Z"/><path class="e78d5496-aad9-42a9-8e9d-d919ccdadbb5" d="M63.78,80.18c1-3.19,3.71-5.31,6.46-4.68.8.18,1.41,2,1.72,3.09a2.19,2.19,0,0,1-1,1.9C68.63,81.5,66.26,81.15,63.78,80.18Z"/><path class="e78d5496-aad9-42a9-8e9d-d919ccdadbb5" d="M34.22,80.55c1.5.18,2.83.28,4.13.51.45.08,1.23.58,1.2.74-.12.54-.52,1.41-.85,1.43-2.36.15-4.72.14-7.09.08-.19,0-.61-.84-.49-1.06a4.23,4.23,0,0,1,1.43-1.64C33,80.34,33.77,80.55,34.22,80.55Z"/></svg>