<svg id="f9f5688e-2e0b-4f74-8ba1-9422055f4210" data-name="Layer 1" xmlns="http://www.w3.org/2000/svg" viewBox="0 0 100 100"><defs><style>.a99e128c-dc76-4968-b626-82f02ea2485d{fill:#fff;}</style></defs><title>ICONS CITY</title><path class="a99e128c-dc76-4968-b626-82f02ea2485d" d="M44.59,26l-13,4.74c-3.25,1.18-6.53,2.29-9.72,3.6-.74.3-1.71,1.29-1.72,2-.1,10.31-.05,20.63,0,31,0,.13.12.26,0,.08,4.58-1.19,9-2.52,13.58-3.48a64.11,64.11,0,0,1,9.39-1.06,3.08,3.08,0,0,1,2.23,1.3c.89,1.33,1.37,2.93,2.21,4.3a14,14,0,0,0,2.08,2.21,15,15,0,0,0,2.26-2.32,24.64,24.64,0,0,0,1.94-3.92,2.51,2.51,0,0,1,2.88-1.7c6.52.59,13,1.39,19.15,3.79a19.6,19.6,0,0,1,4.79,2.69c3,2.34,3.06,5.3-.21,7.32a30.91,30.91,0,0,1-9,4c-15.38,3.58-30.77,3.67-46-.74a18.89,18.89,0,0,1-3-1.1c-3.73-1.81-6.08-4.11-6-9,.32-16.47.12-32.95.12-49.43,0-4,.62-4.39,4.3-3l21.4,7.88C42.87,25.3,43.47,25.57,44.59,26Zm22.87,42.1a44.35,44.35,0,0,0-6.52,2c-1.9.9-1.79,2.53-.07,3.77,2.93,2.1,9.86,2,12.73-.1,1.55-1.15,1.7-2.57,0-3.46A43.94,43.94,0,0,0,67.46,68.13Z"/><path class="a99e128c-dc76-4968-b626-82f02ea2485d" d="M49.32,69.23c-1.4-2.8-2.74-5.62-4.22-8.36a11.88,11.88,0,0,0-2.29-3.09c-4.68-4.35-5-11.19-.72-15.64a10.56,10.56,0,0,1,15.25,0c4.37,4.61,3.9,11.17-.63,15.67-1.88,1.86-2.93,4.56-4.29,6.93-.83,1.44-1.51,3-2.26,4.44Zm9.24-19.72a8.54,8.54,0,0,0-8.71-8.74c-5.31,0-8.92,3.65-8.92,9a8.82,8.82,0,1,0,17.63-.26Z"/><path class="a99e128c-dc76-4968-b626-82f02ea2485d" d="M57.26,48.22c.64,3.56-.56,6.44-3.24,8.16a8.06,8.06,0,0,1-8.7-.1,7.33,7.33,0,0,1-3.09-7.94C48.26,54.39,51.76,54.41,57.26,48.22Z"/></svg>