<svg id="e3029875-f7b2-4af1-a3a9-393723ae574f" data-name="Layer 1" xmlns="http://www.w3.org/2000/svg" viewBox="0 0 100 100"><defs><style>.b4574837-c843-4b0e-8a70-029682a814cb{fill:#fff;}</style></defs><title>ICONS CITY</title><path class="b4574837-c843-4b0e-8a70-029682a814cb" d="M37,17.56a40.68,40.68,0,0,0,0,4.91,5.88,5.88,0,0,0,1.12,2.81,2.46,2.46,0,0,0,2.13.8,2.56,2.56,0,0,0,1.22-1.94,62.8,62.8,0,0,0,.06-6.86,3.45,3.45,0,0,1,2.07-3.7l.2-.11c1.92-1.23,3.43-3.76,6.11-2.84A23.17,23.17,0,0,1,55.72,14a4,4,0,0,1,1.41,2.61c.2,2.27,0,4.57.08,6.85,0,1.38.28,2.73,2,2.8s2.43-1.17,2.53-2.65c.12-1.81,0-3.63,0-5.9a9.71,9.71,0,0,1,1.47,1A21.4,21.4,0,0,1,68.78,29a14.13,14.13,0,0,0,2.39,4.8c1.14,1.54,1.06,2.51-.53,3.53a30.75,30.75,0,0,1-12.45,4.24,61.09,61.09,0,0,1-24.27-1.33,21.06,21.06,0,0,1-6-3.11c-1.27-.85-1.48-2-.14-3.4a10.4,10.4,0,0,0,1.89-4.5C30.8,24.69,32.77,20.73,37,17.56Z"/><path class="b4574837-c843-4b0e-8a70-029682a814cb" d="M71.88,39.89c.15,1.48.25,2.6.37,3.72.2,1.85-.44,2.75-2.46,3-3.33.38-5.23,5.09-3.14,7.63,1.3,1.58,1.17,2.85-.26,4.15l-1.66,1.57C63.49,61.11,62.22,61.4,61,60s-2.41-1.3-3.9-.56c-1.67.83-3.82,1.09-3.7,3.68.08,1.81-.92,2.43-2.57,2.41-1,0-2,0-3,0a2.27,2.27,0,0,1-2.42-2.2c-.59-3.41-4.9-5.26-7.58-3.23-1.34,1-2.45,1-3.62-.16-.69-.7-1.45-1.34-2.12-2.07-1.06-1.16-1.32-2.34-.06-3.6.93-.93,1.8-2,.93-3.42-1.06-1.8-1.15-4.41-4.19-4.5-.73,0-2-.93-2-1.52a18.12,18.12,0,0,1,.5-4.6,3.48,3.48,0,0,1,1.38.11c1.33.5,2.6,1.21,3.95,1.63a5.83,5.83,0,0,1,4.26,4.28,13,13,0,0,0,25.15,0,5.08,5.08,0,0,1,4.3-4.06C68.08,41.84,69.76,40.8,71.88,39.89Z"/><path class="b4574837-c843-4b0e-8a70-029682a814cb" d="M77.67,58.52,74.2,64.85l.54.36c1.41-2,2.92-3.93,4.17-6a3.26,3.26,0,0,0-.18-2.37c-1.32-3.51.25-6.59.92-9.8l.68-.12c.34.59.93,1.17,1,1.79.4,5,.61,9.76-1.54,14.74C77.33,69.11,73.9,73.26,68.49,76c-1.28.65-2.43,1.57-3.66,2.33a5.48,5.48,0,0,0-2.91,4.87c0,2.23-1.18,2.93-3.19,2.85a43.79,43.79,0,0,1-5.26-.13c-.82-.13-2.07-1.07-2.15-1.75-.6-5.38.25-10.51,4.64-14.14a16.85,16.85,0,0,1,7-3.4,12.79,12.79,0,0,0,7.43-4,33.37,33.37,0,0,1,4.21-3.84,8.94,8.94,0,0,1,2.35-1Z"/><path class="b4574837-c843-4b0e-8a70-029682a814cb" d="M19.26,47c.64,3.47,2.42,6.82.63,10.54a2.05,2.05,0,0,0-.06,1.71c1.46,2.14,3.06,4.19,4.61,6.27l.56-.4L21,58.5l.64-.6a16.7,16.7,0,0,1,2,.56,3.35,3.35,0,0,1,1.06.86c3.9,4,8.15,7.1,14,8.21,4.84.92,8.59,7,8.8,12,.28,6.56.28,6.57-6.27,6.54-.76,0-1.67.21-2.24-.13-.8-.48-1.84-1.34-1.91-2.12a7.7,7.7,0,0,0-3.74-6,56.49,56.49,0,0,0-5.61-3.51c-3.68-1.85-5.86-4.74-7.52-8.48-2.23-5-4.14-10-2.9-15.57.24-1.12.6-2.21.91-3.31Z"/></svg>