<svg id="a2134435-551b-40e4-895b-c0564c49f6ed" data-name="Layer 1" xmlns="http://www.w3.org/2000/svg" viewBox="0 0 100 100"><defs><style>.bb3cdd2d-6cdf-48c6-859c-a5937e0b0ced{fill:#fff;}</style></defs><title>ICONS CITY</title><path class="bb3cdd2d-6cdf-48c6-859c-a5937e0b0ced" d="M82.15,22.64c-.28.56-.49,1.05-.76,1.5s-.45.6-.65.91a12.27,12.27,0,0,0-1.94,7,39,39,0,0,0,.69,8.22c.2.93.22,1.9.35,2.84.16,1.18.37,2.35.53,3.53s.35,2.36.43,3.54c.18,2.75.39,5.5.42,8.25a21.67,21.67,0,0,1-.47,5,19.76,19.76,0,0,1-1.61,4.05,15.43,15.43,0,0,1-3.3,4.51c-1.3,1.25-2.63,2.47-4,3.61A45.12,45.12,0,0,1,68,78.23c-1.26.82-2.57,1.56-3.87,2.31-1.57.9-3.17,1.77-4.74,2.67-1.3.75-2.59,1.53-3.89,2.28a15.58,15.58,0,0,0-4.91,4.29c-.73,1-1.57,1-2.3,0a16.52,16.52,0,0,0-5.08-4.4c-2-1.18-4-2.41-6.1-3.58-1.42-.82-2.89-1.55-4.3-2.39s-2.59-1.65-3.86-2.52c-1.12-.78-2.25-1.56-3.29-2.44a25.45,25.45,0,0,1-5.76-6.56,19.14,19.14,0,0,1-2.37-11.58c.24-2.85.42-5.7.7-8.54.16-1.59.51-3.16.72-4.74.35-2.66.68-5.33,1-8,.11-.94,0-1.9.08-2.85a13.91,13.91,0,0,0-1.1-5.67,8.11,8.11,0,0,0-1.34-2.16c-1-1.27-1.06-2.35.1-3.52,1.88-1.9,3.8-3.75,5.69-5.64a2,2,0,0,1,2.34-.61A3.83,3.83,0,0,1,27,15.85a12.91,12.91,0,0,0,6.18,4.39,12.52,12.52,0,0,0,5.1.59c.55,0,1.1-.11,1.64-.2a12.78,12.78,0,0,0,7.39-4.12c.4-.42.78-.86,1.2-1.26a1.12,1.12,0,0,1,1.78,0c.91.88,1.74,1.85,2.7,2.66a12.15,12.15,0,0,0,5.49,2.66,14.47,14.47,0,0,0,6.45-.16,16.8,16.8,0,0,0,3.37-1.49,16.22,16.22,0,0,0,4.06-3.69,1.82,1.82,0,0,1,2.94-.11c1.63,1.52,3.19,3.1,4.78,4.67a13.72,13.72,0,0,1,1.36,1.39A9.35,9.35,0,0,1,82.15,22.64Zm-62,33.09c.1,3.82-.38,4.35.88,8.17a15.39,15.39,0,0,0,2.6,4.69A22.09,22.09,0,0,0,28,72.9c1.59,1.17,3.18,2.35,4.84,3.43,1.38.88,2.86,1.61,4.28,2.43,2.08,1.19,4.13,2.42,6.22,3.59a25.83,25.83,0,0,1,5.24,3.73,1.18,1.18,0,0,0,1.72,0,12,12,0,0,1,1.62-1.41c1.78-1.14,3.6-2.24,5.42-3.32,2.09-1.23,4.19-2.46,6.31-3.64a49.11,49.11,0,0,0,7.39-5,21.29,21.29,0,0,0,6-7,14.22,14.22,0,0,0,1.63-5.94c0-.68,0-1.36,0-2,.12-3.76-.68-7.44-1-11.17-.22-2.53-.69-5-1-7.57-.2-1.62-.38-3.24-.52-4.87a22.9,22.9,0,0,1,.55-6.28,10.58,10.58,0,0,1,1.8-4.17,1.32,1.32,0,0,0-.09-1.77c-1.16-1.14-2.35-2.26-3.54-3.39-.72-.68-.8-.68-1.59-.1a5.29,5.29,0,0,0-.58.58,17.65,17.65,0,0,1-3.7,2.72,16.49,16.49,0,0,1-3.55,1.37,14.63,14.63,0,0,1-7.74.13,14.39,14.39,0,0,1-2.92-1A15,15,0,0,1,50.1,19a1.13,1.13,0,0,0-1.49,0c-.78.65-1.56,1.31-2.37,1.93a14.7,14.7,0,0,1-5.84,2.44,13.7,13.7,0,0,1-5.45.09,16.5,16.5,0,0,1-3.85-1.11A13.54,13.54,0,0,1,27,19.77c-.58-.56-1.23-1.06-1.84-1.61-.37-.33-.65-.35-1,.05-1.14,1.16-2.33,2.29-3.52,3.42a1.45,1.45,0,0,0-.28,2.07,10.88,10.88,0,0,1,1.89,4.9c.06.61.21,1.21.26,1.82a20.67,20.67,0,0,1,.12,3,104.85,104.85,0,0,1-1.37,11.85c-.31,1.6-.37,3.24-.55,4.86Z"/><path class="bb3cdd2d-6cdf-48c6-859c-a5937e0b0ced" d="M24,56.49c-.05-2.71.58-5.34.84-8,.42-4.29,1.33-8.53,1.55-12.85a39.25,39.25,0,0,0-.29-7.74c-.07-.47-.1-.95-.14-1.42-.1-1,.7-1.58,1.79-1.3a14.94,14.94,0,0,1,2,.83,4.11,4.11,0,0,0,.56.27c1.94.43,3.78,1.29,5.83,1.2a31,31,0,0,0,4.53-.23,18.13,18.13,0,0,0,6.72-2.47,4,4,0,0,1,1.28-.64,2.36,2.36,0,0,1,1.37,0c1.25.56,2.45,1.22,3.67,1.84a2.55,2.55,0,0,0,.55.27,29.72,29.72,0,0,0,5.94,1.24,23,23,0,0,0,7.92-1.17c.91-.3,1.77-.76,2.66-1.1a1.32,1.32,0,0,1,2,1.39,9.84,9.84,0,0,1-.21,1.62,26.9,26.9,0,0,0-.1,9c.16,1.18.21,2.37.35,3.55s.35,2.21.51,3.32.29,2.09.42,3.14c.28,2.4.63,4.79.81,7.19a47.08,47.08,0,0,1,.07,5.82,10,10,0,0,1-1.52,4.38,18.91,18.91,0,0,1-6,6.08c-1.77,1.23-3.55,2.44-5.39,3.55-2,1.19-4.08,2.23-6.1,3.38-1.42.81-2.8,1.71-4.2,2.56a6.32,6.32,0,0,1-1.42.81A2,2,0,0,1,48.63,81c-1.07-.54-2.06-1.23-3.09-1.83-1.51-.88-3-1.74-4.54-2.6S38.13,75,36.72,74.12s-2.6-1.64-3.89-2.49A24.1,24.1,0,0,1,26.49,66,11.41,11.41,0,0,1,24,59C24.05,58.19,24,57.34,24,56.49Zm2.85-.86c0,1.42-.07,2.72,0,4a8,8,0,0,0,.53,2.68,13,13,0,0,0,3.17,4.21,48.67,48.67,0,0,0,8.23,5.73c2.31,1.4,4.69,2.67,7,4,.45.25,1,.4,1.42.61s.7.05.76-.43a4.43,4.43,0,0,0,.06-.51c0-2.55,0-5.1,0-7.65,0-1-.38-1.43-1.4-1.56a14.19,14.19,0,0,1-3.26-.89,16.17,16.17,0,0,1-8.26-7.3,21,21,0,0,1-1.42-3.91c-1-3.25-.35-6.35.76-9.38a13.28,13.28,0,0,1,2.67-4.31A15.86,15.86,0,0,1,41,37.69a16.93,16.93,0,0,1,5.85-2.16c1.09-.16,1.23-.36,1.25-1.5,0-1.6,0-3.2,0-4.79,0-1.4-.24-1.51-1.6-1a23.61,23.61,0,0,1-3.4,1.18,35.75,35.75,0,0,1-4.49.67,18.64,18.64,0,0,1-3.08-.05,25,25,0,0,1-2.86-.43A23.78,23.78,0,0,1,30.23,29c-.67-.22-.87-.14-1,.54a3.08,3.08,0,0,0,0,.61,52.36,52.36,0,0,1-.78,12c-.44,2.16-.67,4.36-.91,6.56C27.24,51,27.08,53.39,26.89,55.63ZM69.33,34.21l.2,0V30.51c0-.3,0-.61,0-.91-.09-.76-.27-.83-1-.62-1,.28-2,.51-3,.73-.57.13-1.16.17-1.73.28a12.46,12.46,0,0,1-4.22.1c-1.29-.2-2.58-.39-3.87-.6a5.6,5.6,0,0,1-1-.28c-1-.37-2-.76-3-1.12-.83-.29-1-.21-1,.67,0,1.91,0,3.81,0,5.72a.91.91,0,0,0,.82,1c1.13.28,2.25.61,3.37.93A13,13,0,0,1,59.56,39,14.64,14.64,0,0,1,63,42.94a12.14,12.14,0,0,1,1.8,4.18A6.66,6.66,0,0,0,65,48.21c.93,3,.2,5.82-.73,8.6a13.16,13.16,0,0,1-2.53,4.28,15.66,15.66,0,0,1-9.63,5.58l-.51.11a1.06,1.06,0,0,0-.94,1,7,7,0,0,0,0,.92v6.53c0,2.17.14,1.93,1.91,1.1a43.93,43.93,0,0,0,3.85-2.15c2.53-1.5,5.05-3,7.55-4.56a21.48,21.48,0,0,0,6-5.19,8.15,8.15,0,0,0,1.82-4.12,42.35,42.35,0,0,0-.16-7.64c-.22-2.78-.67-5.53-1-8.3-.11-.91-.21-1.82-.33-2.73ZM36.16,51.16C36,58.52,42.24,64.28,49.32,64.3a13.12,13.12,0,1,0,0-26.24C42.1,38.05,36,44,36.16,51.16Z"/><path class="bb3cdd2d-6cdf-48c6-859c-a5937e0b0ced" d="M55.88,57.67c-.15,1.53-.71,2.17-2.27,1.95a5,5,0,0,1-1.42-.54c-.74-.36-1.43-.83-2.19-1.12a1.88,1.88,0,0,0-1.28.07c-.81.36-1.55.88-2.35,1.24a4.19,4.19,0,0,1-1.58.4c-1.18,0-1.83-.72-1.77-2a10,10,0,0,1,.25-2.12,3.25,3.25,0,0,0-1.34-3.75,11.77,11.77,0,0,1-1.25-1.2,1.86,1.86,0,0,1,.93-3.16c1.14-.27,2.29-.47,3.43-.71a1.67,1.67,0,0,0,1.38-1.19,11.91,11.91,0,0,1,1.18-2.37,2,2,0,0,1,2-1.07,2.16,2.16,0,0,1,1.83,1.3c.4.86.78,1.73,1.24,2.56a1.43,1.43,0,0,0,.76.61c.89.27,1.8.46,2.7.67.33.07.68.09,1,.16a1.89,1.89,0,0,1,1,3.25,19.62,19.62,0,0,1-1.9,1.86,2.12,2.12,0,0,0-.78,2.08C55.59,55.63,55.74,56.68,55.88,57.67ZM46.18,55c0,.75.39,1,1.13.67l1.31-.6a1.71,1.71,0,0,1,1.67,0,11.11,11.11,0,0,0,1.4.64c.6.25,1,0,1-.68a6.78,6.78,0,0,0-.16-1.1,2.39,2.39,0,0,1,.88-2.46,2.46,2.46,0,0,0,.44-.41c.26-.38.49-.78.73-1.17a5.5,5.5,0,0,0-1.32-.43,2.94,2.94,0,0,1-2.39-1.17A8.63,8.63,0,0,1,50.22,47a.85.85,0,0,0-1.35-.3,2.17,2.17,0,0,0-.41.8,2.74,2.74,0,0,1-2.46,2,8.31,8.31,0,0,0-1.13.13c-.61.16-.72.45-.33.94a7.89,7.89,0,0,0,1,1.12,2.15,2.15,0,0,1,.77,2C46.29,54.09,46.24,54.53,46.18,55Z"/></svg>