<svg id="a3de9255-c0c3-4196-b66b-a9817a3185d5" data-name="Layer 1" xmlns="http://www.w3.org/2000/svg" viewBox="0 0 100 100"><defs><style>.f14f7b21-7bae-44ea-8c27-f0b4320b3878{fill:#fff;}</style></defs><title>ICONS CITY</title><path class="f14f7b21-7bae-44ea-8c27-f0b4320b3878" d="M49.19,90.1l-1.26,1.26c-.1-.11-.28-.2-.29-.31a13.31,13.31,0,0,1,1.5-7.43,17.21,17.21,0,0,1,4.69-5.2C55.68,76.91,58,75.85,59,73.29v-2l-2.68-2.21H53.21a22.55,22.55,0,0,0-3.41,2.18,12.32,12.32,0,0,0-3.7,6.28c-.54,2.06-.85,4.18-1.31,6.58l-1,.8A9.13,9.13,0,0,1,43,80.65c.18-1.32,0-2.63.33-4a28.93,28.93,0,0,1,1.59-5.6,30.6,30.6,0,0,1,4.72-7.42A30.32,30.32,0,0,1,53,59.86c1.95-1.69,4-3.25,6-4.84s3.83-2.9,5.72-4.37c1.06-.83,2.12-1.66,3.09-2.58A14,14,0,0,0,72.09,40a18.23,18.23,0,0,0,0-8.15,21.29,21.29,0,0,1,0-3.36A40,40,0,0,1,74.75,35a22.26,22.26,0,0,1,.48,10.05c-.66,4.16-2.77,7.55-5,10.94a15.29,15.29,0,0,1-2,2l-5,5.2V67c.11.09.48.31.8.59.79.68,1.75,1.32,2.7.91,1.13-.49,2.44-.68,3.26-1.94a11.62,11.62,0,0,0,2-6.7,3.31,3.31,0,0,1,.09-.5l.72-.68c1,2.2.91,4.52.7,6.76a17,17,0,0,1-2.62,8,13.48,13.48,0,0,1-5.33,4.53c-3.4,1.64-6.68,3.53-10.09,5.14a13.74,13.74,0,0,0-5.3,4.84c-.37.53-.71,1.09-1,1.65C49.13,89.67,49.19,89.88,49.19,90.1Z"/><path class="f14f7b21-7bae-44ea-8c27-f0b4320b3878" d="M30.48,78.34H26.87V53.18l-2.05-1V48.84l1.91-.11v-9.6l-1.89-.71V35.25l2-.75V31.37l.72-.71H42.76l.71.7v3.12l2,.78v3.13l-1.88.77v9.56h1.84v3.5a10.46,10.46,0,0,0-3.12,2.07c-1.67,1.69-3.57,3.14-5.25,4.82a22.25,22.25,0,0,0-5.71,9.31,13.42,13.42,0,0,0-.89,4.06C30.49,74.38,30.48,76.28,30.48,78.34Z"/><path class="f14f7b21-7bae-44ea-8c27-f0b4320b3878" d="M26.89,28.19c-.56-2.68,1-5,2.14-7.23.84-1.64,2.73-2.31,4.5-3V9.38H26.19C25.1,8.06,25.1,8.06,26,6.74h9.49l.65.64v9.88l.78.78h1.87v-6.4L40,10.38H59.4l1.24,1.55v6.14h6.68v1.48c-.78.38-2-.35-2.51,1.14v9.59c1.37,1.6,1.56,2.3,1.5,5.91h-14c.28-2.63,1.59-5,1.59-7.64s0-5.36,0-7.87c-.46-1.42-1.62-.83-2.52-1.1V18.16H58V13H41.44v8.41c1.18,2.06,2.33,4.23,2,6.85L42.7,29H27.57Zm29-8.51C55,21.81,55.63,24,55.43,26c-.09.9.65,1.35.9,2.2C57.9,27,58.7,25.81,58.56,24c-.09-1.2,0-2.41,0-3.59l-.76-.77Zm4.19,1a9.07,9.07,0,0,1,.33,1.63c0,.58-.24,1.17-.27,1.76a4.46,4.46,0,0,0,.65,3.27l1.57.68.88-.76c0-1.1,0-2,0-3A20.73,20.73,0,0,0,63,21.8c-.11-.72,0-1.54-.59-2.13C61.69,19.75,60.84,19.36,60.06,20.69Z"/><path class="f14f7b21-7bae-44ea-8c27-f0b4320b3878" d="M56.25,42.74c.66,3.12-.37,5.48-1.76,7.75A79.27,79.27,0,0,1,48.09,59a73.54,73.54,0,0,0-5.83,8c-1.4,2.32-3,4.67-3,7.6,0,.79-.51,1.5-.53,2.38a23.05,23.05,0,0,0,4.69,14.17,13.43,13.43,0,0,1,.91,1.44,2.43,2.43,0,0,1,.16.67c-.2.1-.4.27-.48.22a25.12,25.12,0,0,1-6.64-5.28,22.19,22.19,0,0,1-4.69-8.42,16.22,16.22,0,0,1-.64-7,33.52,33.52,0,0,1,1.21-4.68,18.93,18.93,0,0,1,4.4-7,44.7,44.7,0,0,1,8.69-7.18,47.62,47.62,0,0,0,4.72-3.66A17.64,17.64,0,0,0,56.25,42.74Z"/><path class="f14f7b21-7bae-44ea-8c27-f0b4320b3878" d="M52,57.44c1.38-2.21,2.58-4.21,3.86-6.17C57,49.48,58,47.66,58,45.43c0-.17-.07-.4,0-.51,1.25-1.62.13-2.75-.75-3.93H55.55L53,45.08l-1.24.63-1.61-1.66.78-2,1.33-.16V38.5h14l.82,3.35,1.3.82v1.46A28,28,0,0,1,66,47.21a27,27,0,0,1-4,3.46,24.27,24.27,0,0,0-2,1.51c-.63.53-1.32,1-2,1.48C56.37,55,54.68,56.3,53,57.6,52.87,57.67,52.65,57.56,52,57.44Z"/></svg>