<?xml version="1.0" encoding="utf-8"?>
<!-- Generator: Adobe Illustrator 23.0.0, SVG Export Plug-In . SVG Version: 6.00 Build 0)  -->
<svg version="1.1" id="ee33ec15-0b72-43a1-b2ac-92f957743579"
	 xmlns="http://www.w3.org/2000/svg" xmlns:xlink="http://www.w3.org/1999/xlink" x="0px" y="0px" viewBox="0 0 100 100"
	 style="enable-background:new 0 0 100 100;" xml:space="preserve">
<style type="text/css">
	.st0{fill:#FFFFFF;}
</style>
<title>ICONS CITY</title>
<path class="st0" d="M61.4,94c-3.7-2.2-7-4.2-10.3-6.3c-7.5-4.6-15-9.3-22.5-13.8c-1.9-1.1-2.8-2.4-2.6-4.7c0.1-1.9,0.1-3.8,0-5.6
	c0-1,0.5-2.3-1-2.8c-0.2-0.1-0.2-1.2-0.2-1.8c0-4.2,0-8.5,0-13c-3.3,0-6.4,0-9.5,0c-2.9,0-3-0.1-2.5-3.3c2.9,0,5.8-0.2,8.6,0
	c2,0.1,2.5-0.7,2.6-2.6c0.1-2.9,0.4-5.8,0.5-8.8c0-2.2,1.1-4.2,2.9-5.4c5.5-3.8,10.8-7.7,16.2-11.5c3.1-2.2,5-2.2,8.2,0
	c5.3,3.8,10.7,7.6,16,11.4c1.9,1.3,3.1,3.4,3.2,5.7c0.1,3.1,0.4,6.1,0.5,9.2c0,1.4,0.5,2,1.9,1.9c3.1-0.1,6.2,0,9.2,0
	c0.6,3.2,0.6,3.3-2.2,3.3c-3,0-6,0-8.9,0c-0.8,0-1.6,0.2-2.3,0.5c-0.1,1.2,0.1,2.4,0.6,3.5c1,1.5,2.2,3,3.4,4.4
	c2.6,3.3,2.2,4.8-1.5,6.7c-0.7,0.4-1.1,1.2-1.2,2c0.1,2.5,0.2,5,0.6,7.5c0.5,4-1.8,6.8-5.8,6.7c-1.2,0-2.4,0-3.9,0L61.4,94L61.4,94z
	 M46.9,62.2c-0.1,1-0.2,2-0.3,3.1c-0.6,4.5,2.1,9,6.4,9.4c4.2,0.4,8.5,0.5,12.8,0.3c2.5-0.1,3.4-1.5,3.1-4.1
	c-0.4-3.6-0.9-7.1-1.3-10.8c1.2-0.4,2.4-0.8,3.7-1.2c1.4-0.4,1.8-1.2,0.8-2.4s-2.2-2.6-3.2-4.1c-1.3-1.9-2.7-3.1-5.1-2.5
	c-0.5,0-1,0-1.4-0.2L61.9,49c1.2-0.5,2.3-0.9,3.5-1.4c0.4-0.2,0.8-0.5,1.1-0.8c-0.4-0.3-0.8-0.8-1.2-0.8c-1.6-0.1-3.3-0.1-4.9,0
	c-7.2,0.1-5.8-1.2-8.3,5.9c-0.8,2.1-1.7,2.6-4.3,2.4c-2-0.1-1.4-1.6-1.6-2.8c-0.2-1.4-0.8-2.3-2.3-2.4c-1.2-0.2-2.3,0.6-2.6,1.8
	c0,0.1,0,0.2,0,0.2c-0.2,1.5-0.3,3-0.3,4.6c0,5.6,0,5.6,5.4,6.2C46.5,61.9,46.6,62,46.9,62.2z M44.5,16.6c-1,0.6-1.6,0.9-2.2,1.4
	c-3.8,2.7-7.5,5.7-11.6,8.1c-3.4,2.1-4.9,4.7-4.3,8.7c0,0.1,0,0.1,0,0.2c-0.2,1.8,0.7,2.3,2.3,2.3c12.1,0,24.1,0,36.2-0.1
	c4.7,0,4.1,0.8,4.2-4.4c0-1.8-0.1-3.6-1.6-4.7c-5.8-4.2-11.7-8.4-17.6-12.4c-2-1.3-3.3-0.9-4.6,0.4c0.5,0.8,0.8,1.6,1,2.5
	c0.1,2.9,0,5.7,0.1,8.6c0.1,1.5-0.8,2.9-2.3,3.3c-4.3,1.8-9.1,1.9-13.5,0.3c-0.9-0.4-1.7-0.8-2.5-1.4l0.2-0.8c0.6,0,1.3,0.1,1.9,0.2
	c4,1.7,8.5,1.8,12.5,0.3c0.9-0.3,1.5-1,1.8-1.9C44.6,23.8,44.5,20.4,44.5,16.6z M28.7,60.4c0,3.1,0.1,5.4,0,7.7
	c-0.2,1.7,0.6,3.3,2.1,4c8.7,5.2,17.4,10.6,26,15.9c0.5,0.3,1,0.5,1.5,0.7V77.3c-3.9,0.1-7.5-0.1-10.6-2.6c-3.3-2.7-3.6-6.4-3.6-9.4
	c-2.1-1.7-3.6-2.9-5.2-4.1c-0.4-0.3-0.9-0.6-1.4-0.6C34.8,60.4,31.9,60.4,28.7,60.4z"/>
<path class="st0" d="M49.2,17c1.3-0.4,1.8,0,1.7,1.2c-0.1,2.6,0,5.3,0,7.9c-0.3,1.5,0.7,2.9,2.2,3.2c4,1.3,8.4,1.1,12.3-0.5
	c0.6-0.1,1.2-0.2,1.8-0.2l0.3,0.9c-1.1,0.7-2.3,1.2-3.5,1.6c-4,1-8.1,0.8-12-0.4c-1.7-0.4-2.9-2.1-2.8-3.9L49.2,17z"/>
</svg>
