<svg id="fb2fa327-8951-4aae-9504-480e96416361" data-name="Layer 1" xmlns="http://www.w3.org/2000/svg" viewBox="0 0 100 100"><defs><style>.bd60edff-141b-4690-8170-2c2e56601fb3{fill:#fff;}</style></defs><title>ICONS CITY</title><path class="bd60edff-141b-4690-8170-2c2e56601fb3" d="M74.53,70.48c.25,2.34.06,2.79-1.69,3.65a5.93,5.93,0,0,1-2.34.8c-4.16.12-8.36.56-12.45-.62-2.91-.84-5.8-1.77-8.7-2.65a18.22,18.22,0,0,0-6.52-.73c-1.77.1-2.32.43-3.5,2.06.37.67.92.58,1.57.48a17.16,17.16,0,0,1,9,.61A41.4,41.4,0,0,0,67.5,76.59a33.24,33.24,0,0,1,4.34.3c-.5,1.12-1.39,1-2.06,1.21a82.82,82.82,0,0,0-13.73,4.74,11,11,0,0,1-7.32.52A167.73,167.73,0,0,1,29.31,77c-3.27-1.21-6.58-2.3-9.9-3.37a20,20,0,0,0-9.41-1,8.58,8.58,0,0,1-1.54-.06,9.38,9.38,0,0,1-.35-1.72c0-3.49,0-7,0-10.48,0-1.53.43-2.13,1.83-2.47q5.19-1.28,10.4-2.43c7.81-1.71,15.23-.27,22.36,3a85.61,85.61,0,0,1,7.6,4.1c3.16,1.86,6.34,3.6,10.05,4.05a21.08,21.08,0,0,0,3.17.19,17.16,17.16,0,0,1,9.13,2.36A21.18,21.18,0,0,1,74.53,70.48Z"/><path class="bd60edff-141b-4690-8170-2c2e56601fb3" d="M72.83,41.17l-2.77.2v4.85c0,1.14.06,2.28,0,3.42-.12,1.69-.82,2-2.84,1.19-.39-3,0-6.2-.25-9.43l-1.12,0c-.49,3.19.08,6.38-.36,9.34a1.65,1.65,0,0,1-2.59.09c-.39-3,0-6.13-.24-9.36l-3-.25c.8-4.34,3.09-8.27,3.1-12.89-1.06.59-1,1.54-1.16,2.26a11.63,11.63,0,0,1-4.3,7.26A4.31,4.31,0,0,0,55.74,42a69.64,69.64,0,0,1,.08,7.51,9.26,9.26,0,0,1-.36,1.66l-1.53.12c-.81-2,.21-4.16-.84-6.4-1,2.22.06,4.33-.8,6.3l-1.54.08c-.51-2-.19-4-.25-6s0-3.94,0-6.07c-.74-.78-1.46-1.65-2.3-2.41a8.62,8.62,0,0,1-2.85-4.79,11,11,0,0,0-1.48-3.62c0,.46-.1.92-.11,1.37,0,6.08,0,12.15,0,18.23,0,1-.13,1.93-.21,3.13l-2.42.17c-.11-1.06-.25-1.86-.26-2.67,0-2.65,0-5.31,0-8,0-.78.17-1.66-1-2.26A8,8,0,0,0,39.53,40c0,2.43,0,4.86,0,7.29,0,1.27-.21,2.53-.35,4h-2.5c-.08-1.05-.22-1.93-.22-2.81,0-5.92,0-11.85,0-17.77a5.42,5.42,0,0,0-.34-2.28l-2,6.24c-.92.34-1.56.43-2.09-.68a83.21,83.21,0,0,1,2.59-8.17A2.53,2.53,0,0,1,37,24.06q3.07,0,6.15,0A2.81,2.81,0,0,1,46,26.33c.61,2,1.32,3.88,1.82,5.86a7.22,7.22,0,0,0,2.92,3.93,4.83,4.83,0,0,0,5.51-.33,7.39,7.39,0,0,0,2.59-3.9c.44-1.84,1.1-3.63,1.72-5.42.68-2,1.27-2.39,3.32-2.42s4.25,0,6.66,0A7.64,7.64,0,0,1,72,26c.89,2.42,1.61,4.89,2.34,7.36a4.86,4.86,0,0,1-.07,1.39H72.49l-2.07-6.39C69.5,32.89,72.12,36.69,72.83,41.17Z"/><path class="bd60edff-141b-4690-8170-2c2e56601fb3" d="M71,66c.19-.33.23-.5.34-.56,3.68-2.12,6.25-5.44,9.2-8.35C81.63,56,82.71,55,83.86,54a3.26,3.26,0,0,1,3.42-.67,2.16,2.16,0,0,1,.08,2.89q-4.92,6.49-9.88,13C74.66,69,73.13,67,71,66Z"/><path class="bd60edff-141b-4690-8170-2c2e56601fb3" d="M91.31,55.18A2.07,2.07,0,0,1,91.44,58a39.76,39.76,0,0,1-2.75,3.91q-5.28,6-10.74,11.77A6.15,6.15,0,0,1,74.08,76a11.66,11.66,0,0,1,1-1.42A129.15,129.15,0,0,0,88.91,56.88,2.9,2.9,0,0,1,91.31,55.18Z"/><path class="bd60edff-141b-4690-8170-2c2e56601fb3" d="M43.24,19.45a3.06,3.06,0,0,1-3.1,3.17,3.28,3.28,0,0,1-3.26-3.3,3.31,3.31,0,0,1,3.29-3.07A3.08,3.08,0,0,1,43.24,19.45Z"/><path class="bd60edff-141b-4690-8170-2c2e56601fb3" d="M69.26,19.39a3,3,0,0,1-3.06,3.23A3.13,3.13,0,0,1,63,19.51a3.19,3.19,0,0,1,3.11-3.25A3,3,0,0,1,69.26,19.39Z"/><path class="bd60edff-141b-4690-8170-2c2e56601fb3" d="M50.64,32c2-2.08,3-2,4.77.18.11,2.44-.59,3.43-2.42,3.41S50.45,34.55,50.64,32Z"/></svg>