<svg id="fe88dc76-f4d0-48ba-acb5-cb51f93dff4b" data-name="Layer 1" xmlns="http://www.w3.org/2000/svg" viewBox="0 0 100 100"><defs><style>.afccf735-89b8-491c-a3ac-e94d1347113e{fill:#fff;}</style></defs><title>ICONS CITY</title><path class="afccf735-89b8-491c-a3ac-e94d1347113e" d="M50.34,8C75,8.69,92.73,27.65,92,52.42,91.29,74.4,71.34,92.75,48.91,92A42.15,42.15,0,0,1,8,48.57C8.63,26,28.12,7.32,50.34,8Zm-.28,79.75C71.5,87.66,87.85,70.87,87.8,49,87.75,28.81,70.6,12.15,50,12.2c-21.16.05-37.66,16.89-37.61,38.39C12.38,71,29.44,87.77,50.06,87.72Z"/><path class="afccf735-89b8-491c-a3ac-e94d1347113e" d="M50,74.28c-5,0-9.93,0-14.89,0a5.67,5.67,0,0,1-2.85-.59,3.25,3.25,0,0,1-1.49-2.24,3,3,0,0,1,1.53-2.16,8.6,8.6,0,0,1,3.54-.64c9.32-.05,18.64-.07,28,0a11,11,0,0,1,4.39.92c1.87.89,1.81,3,0,3.92a7.86,7.86,0,0,1-3.27.78C59.93,74.32,55,74.28,50,74.28Z"/><path class="afccf735-89b8-491c-a3ac-e94d1347113e" d="M31.44,60.17A10.21,10.21,0,1,1,41.76,50.08,10.11,10.11,0,0,1,31.44,60.17Zm6-15.87A8.17,8.17,0,0,0,25.59,44,8.39,8.39,0,0,0,37.22,56.08a7.9,7.9,0,0,0,.54-11.27c-.28.58-.55,1.11-.78,1.65a26.62,26.62,0,0,1-1.76,4c-.34.53-1.38.63-2.1.92a6.57,6.57,0,0,1-.23-2.29,4.76,4.76,0,0,1,1.36-1.81C35.27,46.22,36.35,45.27,37.41,44.3Z"/><path class="afccf735-89b8-491c-a3ac-e94d1347113e" d="M78.78,49.93A10.19,10.19,0,1,1,68.62,39.78,10,10,0,0,1,78.78,49.93ZM76.94,50a8.36,8.36,0,1,0-8.29,8.27A8.32,8.32,0,0,0,76.94,50Z"/><path class="afccf735-89b8-491c-a3ac-e94d1347113e" d="M39.9,31A10,10,0,0,1,50.23,21,10.25,10.25,0,0,1,50,41.49C44.14,41.44,39.86,37,39.9,31Zm1.85.15a8.27,8.27,0,0,0,8.08,8.5,8.41,8.41,0,0,0,.44-16.81A8.28,8.28,0,0,0,41.75,31.16Z"/><path class="afccf735-89b8-491c-a3ac-e94d1347113e" d="M73.65,44.37A47.18,47.18,0,0,1,72.13,50c-.27.7-1.4,1.07-2.14,1.59-.14-.89-.69-2-.35-2.63a47.57,47.57,0,0,1,3.53-4.88Z"/><path class="afccf735-89b8-491c-a3ac-e94d1347113e" d="M51.1,24.25a45.47,45.47,0,0,1,2.16,5.36c.18.67-.6,1.6-.95,2.41-.57-.68-1.55-1.32-1.65-2.07a43.08,43.08,0,0,1-.07-5.57Z"/></svg>