<svg id="f42198df-7959-40ad-adca-75d48e036ab1" data-name="Layer 1" xmlns="http://www.w3.org/2000/svg" viewBox="0 0 100 100"><defs><style>.bf683018-1732-4393-803a-582df74afd8b{fill:red;}</style></defs><title>ICONS CITY</title><path class="bf683018-1732-4393-803a-582df74afd8b" d="M8.42,46.12H90.2a10.1,10.1,0,0,1,.07,3,2.71,2.71,0,0,1-1.63,1.58,11.54,11.54,0,0,1-3.06.07H11.84C7.68,50.76,7.57,50.62,8.42,46.12Z"/><path class="bf683018-1732-4393-803a-582df74afd8b" d="M69.38,54.33c2.54,0,4.5-.11,6.43.06a3,3,0,0,1,2.09,1.16c4.34,7,8.58,14.09,13.13,21.63-3.89,0-7.33,0-10.76-.05a1.89,1.89,0,0,1-1.27-1C75.85,69.05,72.75,62,69.38,54.33Z"/><path class="bf683018-1732-4393-803a-582df74afd8b" d="M8.06,77.2c4.54-7.54,8.75-14.55,13-21.52a2.69,2.69,0,0,1,1.74-1.26c2.08-.16,4.19-.06,6.67-.06-.4,1.15-.62,1.94-.95,2.69C26,63,23.25,68.86,20.77,74.83a3.34,3.34,0,0,1-3.84,2.41C14.16,77.07,11.37,77.2,8.06,77.2Z"/><path class="bf683018-1732-4393-803a-582df74afd8b" d="M23.22,42.84H17.8V37c0-3,0-6,0-8.94,0-1.79,1.16-2.28,2.71-2.28,1.39,0,2.66.25,2.67,2C23.24,32.73,23.22,37.65,23.22,42.84Z"/><path class="bf683018-1732-4393-803a-582df74afd8b" d="M55.23,77.05h-11V71.66c3.27,0,6.38,0,9.48,0,.38,0,1,.68,1.06,1.11C55,74.14,55.07,75.5,55.23,77.05Z"/><path class="bf683018-1732-4393-803a-582df74afd8b" d="M44.79,66.11a13.27,13.27,0,0,1,.07-3.29,2.4,2.4,0,0,1,1.63-1.36,23,23,0,0,1,3.81-.07c4.21,0,4.38.19,3.86,4.72Z"/><path class="bf683018-1732-4393-803a-582df74afd8b" d="M80.89,39.7c.27,2,.21,3.32-2.58,3.35-3,0-2.84-1.52-2.84-3.52s-.14-3.36,2.7-3.35S81.16,37.63,80.89,39.7Z"/><path class="bf683018-1732-4393-803a-582df74afd8b" d="M49,57.74c-1.11-.49-3.66,1.19-3.38-2a2.47,2.47,0,0,1,1.54-1.67A15,15,0,0,1,50.48,54c1.57-.07,2.33.54,2.32,2.21s-1.27,1.42-2.31,1.49C50.07,57.76,49.65,57.74,49,57.74Z"/><path class="bf683018-1732-4393-803a-582df74afd8b" d="M30,34.49c1.31-5.43,1.4-5.53,4.65-5.16C33.43,34.55,33.23,34.78,30,34.49Z"/><path class="bf683018-1732-4393-803a-582df74afd8b" d="M76,34.48c1.49-5.5,1.49-5.5,4.64-5.13C79.62,34.75,79.52,34.86,76,34.48Z"/><path class="bf683018-1732-4393-803a-582df74afd8b" d="M46.05,29.52c-1.12,5.08-1.36,5.34-4.41,4.91C42.28,29.56,42.73,29,46.05,29.52Z"/><path class="bf683018-1732-4393-803a-582df74afd8b" d="M47.35,34.4c.88-5,1.16-5.31,4.21-4.93C51.42,33.82,50.48,34.92,47.35,34.4Z"/><path class="bf683018-1732-4393-803a-582df74afd8b" d="M53,34.48c1.28-5.37,1.28-5.37,4.26-5.06C57.37,33.35,56.21,34.79,53,34.48Z"/><path class="bf683018-1732-4393-803a-582df74afd8b" d="M69.17,29.33c-1.23,5.48-1.33,5.6-4.46,5.07C65.29,29.69,65.82,29.06,69.17,29.33Z"/><path class="bf683018-1732-4393-803a-582df74afd8b" d="M70.28,34.43c1.42-5.45,1.42-5.45,4.45-5C74.33,34,73.58,34.84,70.28,34.43Z"/><path class="bf683018-1732-4393-803a-582df74afd8b" d="M28.77,29.35c-.79,4.88-1.26,5.41-4.35,5.13C24.83,29.93,25.56,29,28.77,29.35Z"/><path class="bf683018-1732-4393-803a-582df74afd8b" d="M40.27,29.44c-1,5.09-1.25,5.33-4.31,5.05C36.25,30,37,29.12,40.27,29.44Z"/><path class="bf683018-1732-4393-803a-582df74afd8b" d="M59,34.41c.28-4.46,1.07-5.4,4.32-5.08C62.39,34.39,61.94,34.93,59,34.41Z"/><path class="bf683018-1732-4393-803a-582df74afd8b" d="M84.68,29.32v5.24h-3l2.1-5.43Z"/></svg>