<svg id="f3a13a39-3b30-452d-8288-f447115e2154" data-name="Layer 1" xmlns="http://www.w3.org/2000/svg" viewBox="0 0 100 100"><defs><style>.bb16bdfd-ba71-45b3-bc49-cc2f112e1b7d{fill:red;}</style></defs><title>ICONS CITY 2</title><path class="bb16bdfd-ba71-45b3-bc49-cc2f112e1b7d" d="M84.29,79.49,68.59,63.85A31,31,0,1,0,57.27,73L74,89.79a7.28,7.28,0,0,0,10.3-10.3ZM16,45A28,28,0,1,1,44,73,28,28,0,0,1,16,45ZM82.55,88.05a4.76,4.76,0,0,1-3.41,1.42,4.81,4.81,0,0,1-3.42-1.41L59.54,71.81A31.48,31.48,0,0,0,67,65.75L82.55,81.23a4.8,4.8,0,0,1,0,6.82Z"/><path class="bb16bdfd-ba71-45b3-bc49-cc2f112e1b7d" d="M61.45,44.54c-5.79-4.73-11.92-7.25-18.24-7.5-.24,0-.47,0-.71,0h-.35c-7.43,0-14.19,4-18.56,7.3a1.49,1.49,0,0,0-.38,2l.42.7a1.59,1.59,0,0,0,.36.41c5.71,4.52,11.79,6.87,18.06,7h.49c6.6,0,13.05-2.48,19.17-7.36A1.47,1.47,0,0,0,62,45,1.49,1.49,0,0,0,61.45,44.54ZM48,45.5A5.5,5.5,0,1,1,42.22,40l1.05.05A5.51,5.51,0,0,1,48,45.5ZM35.13,41.29A8.36,8.36,0,0,0,34,45.5a8.51,8.51,0,0,0,1.45,4.75,29.24,29.24,0,0,1-8.71-4.54A34.78,34.78,0,0,1,35.13,41.29Zm14.38,9a8.48,8.48,0,0,0,.4-9,30.19,30.19,0,0,1,8.36,4.52A30.44,30.44,0,0,1,49.51,50.3Z"/></svg>