<svg id="a889f34d-f9bc-4fb7-9c92-1ad33d7c11d6" data-name="Layer 1" xmlns="http://www.w3.org/2000/svg" viewBox="0 0 100 100"><defs><style>.bbf7c5f5-97cd-4bd3-9191-bde05b0d8df8{fill:red;}</style></defs><title>city_noise_level</title><path class="bbf7c5f5-97cd-4bd3-9191-bde05b0d8df8" d="M83.09,31.26l-32-19.35a3.29,3.29,0,0,0-3.42,0L16.88,31a3.27,3.27,0,0,0-.36,5.31h0a10.62,10.62,0,0,1,3.85,8.18V66.91a3.28,3.28,0,0,0,1.72,2.88L48.63,84.16a3.26,3.26,0,0,0,3.12,0L78.29,69.79A3.28,3.28,0,0,0,80,66.91V43.65a8.87,8.87,0,0,1,3.24-6.86l.23-.19A3.28,3.28,0,0,0,83.09,31.26ZM75.72,55.52H74L71,65.64a1,1,0,0,1-1,.74h0a1,1,0,0,1-1-.77l-2.66-10-2,3.35a1,1,0,0,1-1,.49,1,1,0,0,1-.87-.67l-2.35-6.34-2.29,5.87a1.06,1.06,0,0,1-1,.65,1,1,0,0,1-1-.75l-1.91-6.91L51.25,71.89a1,1,0,0,1-1,.9h0a1,1,0,0,1-1-1l-2.45-30.5L44.67,59a1,1,0,0,1-2.05.08l-2.07-10.6L38.09,67A1,1,0,0,1,36,67l-2.53-13.7-2,6.42a1,1,0,0,1-.93.72,1,1,0,0,1-1-.61l-2.66-6-.8.85a1,1,0,0,1,.35.77,1,1,0,0,1-1,1H23.9a1,1,0,0,1-.75-1.75l3.29-3.46a1,1,0,0,1,.93-.3,1,1,0,0,1,.77.6l2.18,4.91,2.46-7.77a1,1,0,0,1,2,.13l2.1,11.37L39.32,42a1,1,0,0,1,1-.9,1,1,0,0,1,1,.84l2,10.27L45.9,30.67a1,1,0,0,1,2.06,0l2.5,31.06,2-15.81a1.05,1.05,0,0,1,1-.9,1,1,0,0,1,1.07.76L57,54.67l2.16-5.5a1,1,0,0,1,1-.66,1.05,1.05,0,0,1,1,.68l2.55,6.87,2.18-3.59a1,1,0,0,1,1.88.27L70,61.56l2.23-7.38a1,1,0,0,1,1-.73h2.47a1,1,0,0,1,0,2.07Z"/></svg>