<?xml version="1.0" encoding="utf-8"?>
<!-- Generator: Adobe Illustrator 23.0.0, SVG Export Plug-In . SVG Version: 6.00 Build 0)  -->
<svg version="1.1" id="Layer_1" xmlns="http://www.w3.org/2000/svg" xmlns:xlink="http://www.w3.org/1999/xlink" x="0px" y="0px"
	 viewBox="0 0 100 100" style="enable-background:new 0 0 100 100;" xml:space="preserve">
<style type="text/css">
	.st0{fill:#FF0000;}
	.st1{fill:#FFFFFF;}
	.st2{fill:none;}
	.st3{fill:none;stroke:#000000;stroke-width:4;stroke-miterlimit:10;}
	.st4{fill:none;stroke:#000000;stroke-width:4;stroke-linecap:round;stroke-linejoin:round;stroke-miterlimit:10;}
	.st5{fill:none;stroke:#000000;stroke-width:4.7042;stroke-miterlimit:10;}
	.st6{fill:none;stroke:#000000;stroke-width:4.7042;stroke-linecap:round;stroke-linejoin:round;stroke-miterlimit:10;}
	.st7{fill:none;stroke:#000000;stroke-width:10;stroke-linecap:round;stroke-linejoin:round;stroke-miterlimit:10;}
	.st8{fill:none;stroke:#FFFFFF;stroke-width:2.5502;stroke-linecap:round;stroke-linejoin:round;stroke-miterlimit:10;}
	.st9{fill:none;stroke:#000000;stroke-width:1.2703;stroke-miterlimit:10;}
	.st10{fill:none;stroke:#000000;stroke-width:1.2703;stroke-linecap:round;stroke-linejoin:round;stroke-miterlimit:10;}
</style>
<g>
	<path class="st0" d="M25.6,96.7c5-12.9,10-25.9,15.2-39.1c-6.3,0-12.1,0-18.7,0c18-17.7,35.5-34.8,53-52c0.1,0.1,0.3,0.2,0.4,0.2
		C71,18.4,66.5,31,61.9,44c6.8,0,13.3,0,19.8,0c0.2,0.3,0.3,0.5,0.5,0.8C63.7,62.3,44.9,79.6,26.3,97.1C26.1,97,25.9,96.8,25.6,96.7
		z"/>
	<path class="st0" d="M23.2,87.5c-18-11-26.3-36.1-14.4-57.2C20.9,8.7,46.6,3.5,63,9.6c-1.5,2.4-3.2,3.4-6.5,2.8
		C38.2,8.9,19.8,18,11.8,34.3c-8,16.3-3.6,35.7,10.6,47.2C25,83.6,25,83.6,23.2,87.5z"/>
	<path class="st0" d="M37.9,93.9c1.8-2.1,3.3-3.6,6.7-3.3c22.7,2.1,41.9-12.4,45-34.2c1.8-12.8-2.2-24-11.7-33.1
		c-2.4-2.3-1.5-3.9-0.6-6c13.1,8.4,23.1,30.6,13.5,51.6C80.8,91.1,55.9,99,37.9,93.9z"/>
</g>
</svg>
