<svg id="f01c95c9-d225-4bce-80b3-cfd0a91ae53a" data-name="Layer 1" xmlns="http://www.w3.org/2000/svg" viewBox="0 0 100 100"><defs><style>.e5642e85-462a-4d6e-9136-e02f6b64a6c1{fill:red;}</style></defs><title>ICONS CITY</title><path class="e5642e85-462a-4d6e-9136-e02f6b64a6c1" d="M63.47,7.84c6,0,12,0,18,0C89,7.87,93,11.66,93,19.15q.1,18.27,0,36.53c0,7.27-3.93,11-11.17,11-8.87,0-17.74,0-26.6,0-2,0-3.89-.17-4-2.6-.1-2.82,2.14-2.68,4.1-2.68,8.44,0,16.88,0,25.31,0,5.53,0,7-1.52,7-7.08q0-17.15,0-34.29c0-5.19-1.48-6.67-6.66-6.68q-17.79,0-35.57,0c-4.69,0-5.81,1.14-5.83,5.92,0,8.44,0,16.88,0,25.32,0,.74.26,1.67-.08,2.2a23.32,23.32,0,0,1-2.64,3c-.85-1-2.34-2-2.44-3-.32-3.5-.13-7-.13-10.56,0-5.88,0-11.75,0-17.63,0-7.35,3.42-10.71,10.85-10.75C51.29,7.82,57.38,7.84,63.47,7.84Z"/><path class="e5642e85-462a-4d6e-9136-e02f6b64a6c1" d="M30.4,66.49a79.55,79.55,0,0,1-9-.11,4.17,4.17,0,0,1-3-2.32c-.41-1.9,1.09-2.77,3-2.77,5,0,10,0,15.06,0,2.29,0,3.44,1.11,3.48,3.25q.12,7.36,0,14.74c0,1.84-.65,3.46-3,3.35s-2.51-1.66-2.53-3.38c0-2.54,0-5.08,0-8.49-1.47,1.38-2.38,2.18-3.23,3C14.56,90.38,40,65,23.34,81.63l-.44.46c-1.45,1.4-3.15,2.21-4.72.52s-.56-3.06.81-4.42C29.29,68,20.34,76.88,30.62,66.62c7-7-8.75,8.74-1.73,1.71C29.25,68,29.54,67.53,30.4,66.49Z"/><path class="e5642e85-462a-4d6e-9136-e02f6b64a6c1" d="M27,94.92c-4.06,0-8.11,0-12.17,0-5.4-.08-8.58-3.14-8.65-8.54Q6,74,6.17,61.72C6.23,56.17,9.38,53,15,52.89c4.58-.12,9.18,0,13.77,0,1.92,0,3.85.35,3.83,2.81S30.7,58.42,28.7,58.4c-4.38,0-8.76,0-13.13,0-2.83,0-4.08,1.21-4.06,4,.05,7.69.06,15.37,0,23.06,0,2.88,1.29,4,4.1,4,7.57-.08,15.15,0,22.73-.05,3.79,0,4.33-.64,4.35-4.58s0-8.11,0-12.17c0-2,.08-4.12,2.84-4.06s2.51,2.09,2.51,4c0,4.69.06,9.39,0,14.09-.09,5-3.15,8.13-8.22,8.26-4.27.1-8.54,0-12.81,0Z"/><path class="e5642e85-462a-4d6e-9136-e02f6b64a6c1" d="M63.43,43.41a5.13,5.13,0,1,1-5.13,5.12A5.12,5.12,0,0,1,63.43,43.41Zm0-23.56c3.57,0,5,2.06,5,5.35a74.29,74.29,0,0,1-2,14.14c-.37,1.64-1,2.38-2.93,2.38S60.87,41,60.5,39.34A74.46,74.46,0,0,1,58.44,25.2C58.44,21.91,59.86,19.85,63.43,19.85Z"/></svg>