<svg id="f55eae0b-ed5d-4ef2-9dff-aaa9705df176" data-name="Layer 1" xmlns="http://www.w3.org/2000/svg" viewBox="0 0 100 100"><defs><style>.efdf14d1-eb26-4efc-bbdb-c2d6d1d6b49f{fill:red;}</style></defs><title>ICONS CITY</title><path class="efdf14d1-eb26-4efc-bbdb-c2d6d1d6b49f" d="M28.76,80l-2.05-2.19C35.88,69.22,45.6,60.14,55.24,51H35.79l9.55-26.76,2.82,1L40,48H58.51l1.65,2.47-.92.87C49,61.1,38.55,70.84,28.76,80Z"/><path class="efdf14d1-eb26-4efc-bbdb-c2d6d1d6b49f" d="M78,15.7c2.87,9.48,8.32,17,13.5,24.71,3.59,5.34,5.41,11,3.25,17.32A17.75,17.75,0,1,1,61.09,46.39a2.82,2.82,0,0,1,3.06-2.33C74.42,43.92,80,34.7,75.61,25.43A5.29,5.29,0,0,1,75.45,22,66.53,66.53,0,0,1,78,15.7Zm8.2,47.87c-5.46,1.09-10.47.54-14.85-3s-6.26-8.19-6.46-14c-3.21,5.7-.86,13.57,4.71,17.56C74.56,67.73,83.49,67.36,86.17,63.57Z"/><path class="efdf14d1-eb26-4efc-bbdb-c2d6d1d6b49f" d="M54.42,24.64l-1.23,2.27C44.36,24.36,36,25.35,28.3,30.36A27.69,27.69,0,0,0,16.82,45.73,28.92,28.92,0,0,0,30.38,79.49c13,7.13,29.55,3.49,38.5-9.77l2.17.91C65.3,81.82,48.61,90.4,32.06,83.4A31.54,31.54,0,0,1,15.87,40.5C23.5,24.58,42.1,19.45,54.42,24.64Z"/><path class="efdf14d1-eb26-4efc-bbdb-c2d6d1d6b49f" d="M64.69,11.61c2.68,4.4,5.77,9.4,8.79,14.44,2.35,3.93,2.3,7.91-.41,11.6a9.71,9.71,0,0,1-10.71,4,10,10,0,0,1-7.93-8.28,9.68,9.68,0,0,1,1.39-7.12C58.89,21.14,62,16.06,64.69,11.61ZM57,28.73c-2,3.21-.27,8.46,3.57,10.48,3.06,1.61,7,1.29,8.38-.87C61.84,39.21,58.25,35.57,57,28.73Z"/></svg>