<svg id="aa313ea5-5be4-4958-ad8c-bdcd9103da6e" data-name="Layer 1" xmlns="http://www.w3.org/2000/svg" viewBox="0 0 100 100"><defs><style>.ac78b3a4-042d-42e0-a948-981f291cefe3{fill:red;}</style></defs><title>ICONS CITY 2</title><path class="ac78b3a4-042d-42e0-a948-981f291cefe3" d="M88.93,26.94v1.51c0,.11-.07.22-.09.33a7,7,0,0,1-5.51,5.82,18.67,18.67,0,0,1-3.35.18c-.43,0-.54.11-.54.54q0,16.6,0,33.22c0,3.06,0,6.12,0,9.18a9.43,9.43,0,0,1-7.54,9l-1.07.21H31.21l-.36-.09a15.63,15.63,0,0,1-2.58-.74,9.3,9.3,0,0,1-5.69-9q0-20.82,0-41.65v-.68H22A26.18,26.18,0,0,1,19,34.68a7.1,7.1,0,0,1,1.27-14.1H36.23l.56,0c0-.87,0-1.7,0-2.53a7.08,7.08,0,0,1,7-6.92c4.81,0,9.61,0,14.41,0A7,7,0,0,1,64.85,16a11.71,11.71,0,0,1,.38,2.44c.06.71,0,1.43,0,2.17H81.76a7.08,7.08,0,0,1,7,5.42ZM27.32,34.81V77.32a4.77,4.77,0,0,0,4.88,4.87q18.81,0,37.62,0a4.76,4.76,0,0,0,4.88-4.88c0-1.22,0-2.44,0-3.66V35.27c0-.15,0-.29,0-.46ZM51,30.05H81.64a2.37,2.37,0,1,0,0-4.72H20.3a2.28,2.28,0,0,0-2.22,1.32,2.36,2.36,0,0,0,2.26,3.4Zm-9.44-9.47H60.16c.23,0,.33-.07.33-.31,0-.7,0-1.41,0-2.11a2.32,2.32,0,0,0-2.43-2.32H44a2.28,2.28,0,0,0-2.44,2C41.5,18.7,41.57,19.6,41.57,20.58Z"/><path class="ac78b3a4-042d-42e0-a948-981f291cefe3" d="M60.49,60.83V46.89A2.45,2.45,0,0,1,62,44.46a2.38,2.38,0,0,1,3.26,2.24c0,1.09,0,2.19,0,3.28V74.83a2.41,2.41,0,0,1-2.68,2.59,2.36,2.36,0,0,1-2-2,15.7,15.7,0,0,1,0-1.68C60.48,69.42,60.49,65.12,60.49,60.83Z"/><path class="ac78b3a4-042d-42e0-a948-981f291cefe3" d="M41.53,60.85q0,7,0,14a2.42,2.42,0,0,1-1.45,2.41A2.37,2.37,0,0,1,36.79,75c0-1.16,0-2.33,0-3.49q0-12.28,0-24.56a2.7,2.7,0,0,1,.56-1.77,2.31,2.31,0,0,1,2.45-.79,2.2,2.2,0,0,1,1.69,2c.09,1.26.05,2.53.05,3.79C41.54,53.72,41.53,57.28,41.53,60.85Z"/><path class="ac78b3a4-042d-42e0-a948-981f291cefe3" d="M53.37,60.89c0,4.69,0,9.38,0,14.07a2.39,2.39,0,0,1-2,2.46A2.37,2.37,0,0,1,48.65,75c0-1.72,0-3.45,0-5.18q0-11.45,0-22.91a2.67,2.67,0,0,1,.47-1.67,2.35,2.35,0,0,1,4.26,1.35c0,1.79,0,3.57,0,5.35v8.93Z"/></svg>