<svg id="ac67d765-c66e-4788-945e-2fca4f44ece6" data-name="Layer 1" xmlns="http://www.w3.org/2000/svg" viewBox="0 0 100 100"><defs><style>.a7024af0-283d-4644-b2af-e603d65e8365{fill:red;}</style></defs><title>ICONS CITY</title><path class="a7024af0-283d-4644-b2af-e603d65e8365" d="M29.78,65c3.75-2.72,7.08-5.06,10.31-7.52a3,3,0,0,0,1-2c.05-13.11,0-26.22,0-39.33a4.55,4.55,0,0,0-.17-.85L39,14.85c-.13-1.22-.65-2.51,1.41-2.51H59.59l.11,2.45-1.89.47V58.51c2.51-1.88,4.75-3.47,6.88-5.19a2.64,2.64,0,0,0,.62-1.85c0-12,0-24,0-36.21l-2-.46V12.59H84v2.27l-1.89.33V62.67h10V87.75c-.73,0-1.45.11-2.17.11-26.43,0-52.85,0-79.28.06-2.08,0-2.63-.55-2.58-2.6.15-5.57,0-11.14.1-16.71a3.42,3.42,0,0,1,.94-2.43c6.54-4.86,13.16-9.61,19.76-14.38a8.27,8.27,0,0,1,.94-.44ZM79.13,62.8V20.19H68.21V62.8ZM48.85,51.36V65.14a48.92,48.92,0,0,0,4.81-3.51,4.75,4.75,0,0,0,1.4-2.84c.19-2.71.06-5.43.06-8.15,0-9.51,0-19,0-28.53,0-.65-.5-1.87-.81-1.88-3.49-.13-7-.08-10.47-.08V54.92ZM27.3,56c-5.65,4.12-10.82,7.84-15.92,11.66a2.79,2.79,0,0,0-.71,1.95c-.08,2.78,0,5.57,0,8.35v7.23H27.31c0-4.75-.11-9.36.05-14,.07-2-.45-2.91-2.57-2.6a22.86,22.86,0,0,1-3.11,0l.18-2.18c1.5,0,2.86.08,4.19,0,.45,0,1.19-.6,1.2-.93C27.34,62.52,27.3,59.56,27.3,56Zm19,29.33c0-5.21,0-10.16,0-15.11,0-1.28-.52-1.66-1.7-1.59s-2.39,0-3.49,0c-.6-1.78,0-2.27,1.47-2.19,1.13.06,2.27,0,3.5,0V56.24c-5.33,3.89-10.37,7.54-15.38,11.25A2.2,2.2,0,0,0,29.86,69c-.06,5.4,0,10.81,0,16.31Zm19-28.85a3.28,3.28,0,0,0-.68.21c-4.88,3.54-9.8,7-14.61,10.68A3.73,3.73,0,0,0,48.92,70c-.12,4.13-.05,8.27-.05,12.41v2.91H65.44c0-4.54,0-8.93,0-13.33,0-3.46.61-3.32-3.22-3.32-.66,0-1.32-.06-2.17-.1l.11-2.16h5.16ZM70.74,68H89.61V65.46H68.13V85.18H89.67V82.72H72.49c-.91,0-1.78.1-1.76-1.28C70.77,77.12,70.74,72.78,70.74,68ZM55.05,15H43.8V17.5H55.05Zm24.14.18h-11v2.36h11Zm-6,55.53c.3,1.21-1.07,2.88.94,3.23a36.8,36.8,0,0,0,6,.07v-3.3Zm7,6.08h-7V80h7Zm9.43-6.06H82.92v3.17h6.74Zm0,9.33v-3.2h-6.7V80Z"/><path class="a7024af0-283d-4644-b2af-e603d65e8365" d="M23.16,73v3A20.48,20.48,0,0,1,20,75.35c-.2-.06-.25-1.52-.08-1.58A23.92,23.92,0,0,1,23.16,73Z"/><path class="a7024af0-283d-4644-b2af-e603d65e8365" d="M14.84,75.67V73.3h3C18.32,75.89,18,76.14,14.84,75.67Z"/><path class="a7024af0-283d-4644-b2af-e603d65e8365" d="M23.3,81.07A24.41,24.41,0,0,1,20,80.53c-.16,0-.19-1.51,0-1.6a18.89,18.89,0,0,1,3.18-.75Z"/><path class="a7024af0-283d-4644-b2af-e603d65e8365" d="M14.71,78.6c3.33-.43,3.46-.34,3.23,2.17H14.83Z"/><path class="a7024af0-283d-4644-b2af-e603d65e8365" d="M42.22,73v3.07a17.53,17.53,0,0,1-3.09-.8c-.25-.12-.26-1.57-.11-1.62A20.71,20.71,0,0,1,42.22,73Z"/><path class="a7024af0-283d-4644-b2af-e603d65e8365" d="M33.92,75.64V73.3h3.15v2.34Z"/><path class="a7024af0-283d-4644-b2af-e603d65e8365" d="M42.24,78.2V81A25.53,25.53,0,0,1,39,80.45,2.42,2.42,0,0,1,39,79,28,28,0,0,1,42.24,78.2Z"/><path class="a7024af0-283d-4644-b2af-e603d65e8365" d="M33.8,78.46H37v2.32H33.92Z"/><path class="a7024af0-283d-4644-b2af-e603d65e8365" d="M61.44,73.36c.24,2.54-.09,2.78-3.21,2.31V73.36Z"/><path class="a7024af0-283d-4644-b2af-e603d65e8365" d="M53.1,73.29h3.1v2.37H53.1Z"/><path class="a7024af0-283d-4644-b2af-e603d65e8365" d="M52.9,80.75V78.56h3.32l.1,2.19Z"/><path class="a7024af0-283d-4644-b2af-e603d65e8365" d="M58.25,78.54c3.29-.41,3.34-.38,3.25,2.26l-3.25.14Z"/></svg>