<svg id="ab59c62a-a264-4090-af0b-f394b4e641ee" data-name="Layer 1" xmlns="http://www.w3.org/2000/svg" viewBox="0 0 100 100"><defs><style>.b922a4e1-d3bf-4b7e-9084-2dbd5ebc1376{fill:red;}</style></defs><title>ICONS CITY</title><path class="b922a4e1-d3bf-4b7e-9084-2dbd5ebc1376" d="M32.75,20.06c0,2.05-.07,4.2,0,6.34.17,4,2.07,6,6,6q11,.12,22.07,0c3.89,0,5.85-2.11,6-6,.08-1.95.08-3.9.14-5.85,0-.2.2-.39.42-.79.89-.05,1.9-.16,2.91-.16,4.2,0,5.07.84,5.07,5q0,18.45,0,36.9c0,7.13-.08,14.26,0,21.38,0,3.21-1.25,4.64-4.47,4.64-14.14-.05-28.28,0-42.42,0-3.58,0-4.41-1-4.42-5q0-28.09,0-56.21C24.13,19.71,25.45,18.69,32.75,20.06Zm17.48,54.8H64.88V70.62c-4,0-7.74.16-11.5-.05C50.21,70.4,49.12,71.51,50.23,74.86ZM64.82,62V58.23h-15L50,62Zm.29-17.33c-4.79,0-9.1-.09-13.41.1-.65,0-1.73,1.37-1.73,2.1a2.76,2.76,0,0,0,1.79,2c4.3.18,8.62.09,13.15.09ZM34.77,71.41l4,4.6,7.24-5.76-3-2.77-3.55,3L37,68.82Zm-.21-26.22,4.31,4.68,7.06-5.79-2.87-2.72-3.43,2.92L37.07,43Zm.24,13.34,4.33,4.53,6.78-5.78L43,54.59l-3.32,3-2.58-1.53Z"/><path class="b922a4e1-d3bf-4b7e-9084-2dbd5ebc1376" d="M50,28.57c-3.33,0-6.66,0-10,0-2.46,0-3.61-1.09-3.49-3.57.06-1.14,0-2.29,0-3.44,0-5.7,0-5.63,5.82-6.21a5,5,0,0,0,3.06-1.67c3-3.69,5.64-3.66,8.65-.2a7,7,0,0,0,4.66,1.84c3,.12,4.33,1.22,4.28,4.36-.18,9.88,1,8.82-8.86,8.88Z"/></svg>