<svg id="b6c3b208-3762-4a9b-b720-bc8216acbb5d" data-name="Layer 1" xmlns="http://www.w3.org/2000/svg" viewBox="0 0 100 100"><defs><style>.b4ffd49f-617f-496b-9a50-a621f1a10be6{fill:red;}</style></defs><title>ICONS CITY</title><path class="b4ffd49f-617f-496b-9a50-a621f1a10be6" d="M74.12,26l6.74,13.52a21.88,21.88,0,0,1-2,1.51,10.79,10.79,0,0,1-2.12.92c-1.9.63-2.6,1.95-2.56,3.89s.66,3.65,2.61,4.49c1,.42,2.06.64,3,1.06,1.55.67,1.76,1.08,1.2,2.69-1.31,3.79-2.68,7.55-4.11,11.55-.75-.65-1.38-1.17-2-1.73-2.14-2-4.22-4.07-6.43-6a2.4,2.4,0,0,1-.79-3,21.67,21.67,0,0,0-.68-15.82c-3.44-7.79-9.65-12-17.92-13.34-12.3-2.08-24,7.86-25.21,20-1,9.91,5.36,21.37,17.43,24.1a22.62,22.62,0,0,0,13-.87l2.08-.74,8.91,9.07-10.18,5c-1.58-1-2-2.48-2.68-3.74-.59-1.06-.89-2.41-2.33-2.66a6.67,6.67,0,0,0-4.7.73,4.22,4.22,0,0,0-1.32,1.81c-.49,1-.82,2.16-1.21,3.25a1.5,1.5,0,0,1-2,1.09c-4.28-1.46-8.55-3-12.77-4.48-.26-1.89.61-3.25,1-4.7.74-2.63-.28-4.84-2.85-5.7a4.57,4.57,0,0,0-2.46-.1,17.12,17.12,0,0,0-3,1.27c-1.95.91-2.34.83-3.28-1-1.65-3.23-3.27-6.48-4.83-9.75C11.83,56.37,12,56,13.86,55c1-.51,2-.87,2.9-1.44a4.16,4.16,0,0,0,1.6-1.54,5.06,5.06,0,0,0-2.75-6.43L11.22,44c.23-.91.35-1.58.57-2.21,1.22-3.49,2.44-7,3.71-10.46.62-1.69.86-1.79,2.55-1.3,1,.3,2.06.67,3.06,1.06,1.54.6,2.87.47,3.88-1,0-.06.1-.12.15-.18,2.45-2.75,2.45-2.81.77-6-2.2-4.24-1.35-3.61,1.59-5.09s5.81-2.86,8.73-4.26c1.87-.9,2-.83,3,1.06.57,1.1,1.09,2.22,1.62,3.33a2.17,2.17,0,0,0,2.21,1.36l1.39,0c3-.18,3.5-.56,4.48-3.4.25-.72.49-1.46.79-2.17.59-1.42,1-1.7,2.47-1.25,1.7.51,3.35,1.17,5,1.77,2,.73,4.07,1.42,6.09,2.19,1.39.53,1.57.88,1.21,2.26a20.67,20.67,0,0,1-1,2.84,3.41,3.41,0,0,0,1,4.49c2.74,2.31,2.86,2.41,6.07.74C71.68,27.16,72.71,26.69,74.12,26Z"/><path class="b4ffd49f-617f-496b-9a50-a621f1a10be6" d="M37.72,47.15c1.61.91,2.85,1.7,4.17,2.31a3.83,3.83,0,0,0,2.21.36c2-.44,3-2,3.65-3.84A3.78,3.78,0,0,0,46.5,41.6c-1-.82-2.06-1.54-3.14-2.34,4.9-2.34,10.82,1.34,10.53,6.58a7.12,7.12,0,0,0,2.44,6.1c6.18,5.8,12.22,11.76,18.32,17.65.67.64,1.39,1.23,2.09,1.83a4.53,4.53,0,0,0,3.64,1.15A9.6,9.6,0,0,1,82,72.5c3.85.11,6.61,3.11,6.54,7.25-1-.61-2-1.22-3-1.74-2.55-1.31-4.25-.88-5.76,1.4-1.82,2.75-1.66,4.66.62,6.48.83.67,1.77,1.22,2.83,1.94a5.4,5.4,0,0,1-3.79.73,8.5,8.5,0,0,1-5.83-3.83,5.13,5.13,0,0,1-1-3.93A5,5,0,0,0,71,76c-6.26-6-12.48-12-18.71-17.93-.89-.86-1.76-1.73-2.66-2.58a3.55,3.55,0,0,0-3.18-.94c-4.53.7-7.33-1.25-8.36-5.76C38,48.38,37.87,47.94,37.72,47.15Z"/></svg>