<svg id="b60ae5cd-1588-4c4a-8aab-1ad8fe7c2329" data-name="Layer 1" xmlns="http://www.w3.org/2000/svg" viewBox="0 0 100 100"><defs><style>.ba97944b-169c-4c3a-bdb5-f43502d9cdb8{fill:red;}</style></defs><title>ICONS CITY</title><path class="ba97944b-169c-4c3a-bdb5-f43502d9cdb8" d="M21.05,50.14c.12-3.24,2.55-4.76,4.59-3.37,6.05,4.15,12.2,3.15,18.49.8,5.54-2.06,11-4.36,16.72-5.88,7.86-2.09,15.19-.33,21.68,4.67,1.2.92,1.88,2.14,1.3,3.49a4.66,4.66,0,0,1-2.31,2.22A3.14,3.14,0,0,1,79,51.51c-6.69-5.15-13.9-5.06-21.42-2.33-5.69,2.06-11.28,4.41-17.08,6.07a19.82,19.82,0,0,1-17.69-2.94A8.11,8.11,0,0,1,21.05,50.14Z"/><path class="ba97944b-169c-4c3a-bdb5-f43502d9cdb8" d="M84,62.77c0,2.85-2.33,4.36-4.43,3.46a5.47,5.47,0,0,1-1-.63c-5.72-4.38-12.06-5-18.72-2.82-4.9,1.64-9.66,3.68-14.53,5.44-6.07,2.19-12.24,3.23-18.47.6a25.45,25.45,0,0,1-4.39-2.44,3.11,3.11,0,0,1-.93-4.28,2.86,2.86,0,0,1,4.19-1c5.74,3.94,11.67,3.29,17.72,1,4.52-1.7,9-3.56,13.57-5.12,6.9-2.37,13.84-2.75,20.58.63a34.15,34.15,0,0,1,5.1,3.21A6.36,6.36,0,0,1,84,62.77Z"/><path class="ba97944b-169c-4c3a-bdb5-f43502d9cdb8" d="M84.53,34.7c-.86,1.12-1.35,2.37-2.21,2.71a5.1,5.1,0,0,1-3.39-.18A35.66,35.66,0,0,1,75.34,35a18.07,18.07,0,0,0-14.49-1.1c-5.94,1.92-11.73,4.3-17.63,6.34C36,42.77,29.08,42.4,22.61,38a3.26,3.26,0,0,1-1.2-4.38,3,3,0,0,1,4.36-1.08c5.74,4,11.65,3.23,17.7.94,5-1.9,10-3.95,15.12-5.54,8.49-2.63,16.5-1.54,23.66,4A17.92,17.92,0,0,1,84.53,34.7Z"/></svg>