<svg id="a793c597-48bc-42a0-92ee-4aea562ca5c5" data-name="Layer 1" xmlns="http://www.w3.org/2000/svg" viewBox="0 0 100 100"><defs><style>.aed3ce2b-6a9c-4e41-bb46-ebaf021c2e94{fill:none;}.b617ece2-0594-47f5-9df9-be929a5ed6bc{fill:red;}.abcfa880-5a00-4d8d-8352-26a7aa64a1eb{fill:#fff;}</style></defs><title>ICONS CITY</title><path class="aed3ce2b-6a9c-4e41-bb46-ebaf021c2e94" d="M70.79,66.87l-.37.13h.37Z"/><path class="b617ece2-0594-47f5-9df9-be929a5ed6bc" d="M83.05,32c-5.33.12-4.55.7-4.64-4.91,0-2.34-.57-4.95,2.88-4.7V17.5c-1.08-.07-2-.19-3-.19l-42.86,0c-5.73,0-11.46,0-17.19.07-.84,0-2.34.77-2.37,1.26-.21,3.44-.11,6.9-.11,10.58a80.24,80.24,0,0,1,8.55.07c2.39.26,2.83-.73,2.78-3-.1-3.74,0-3.75,3.51-3.66.59,0,1.18.09,1.69.14.16.33.3.5.3.66q0,25.37.09,50.72c0,1.67-.76,2.12-2.12,2.09-1.82,0-3.65,0-5.56,0v5.25H41.58c4.15,0,4.42-.38,3.4-5.24a45.17,45.17,0,0,0-4.65,0c-2.21.22-2.87-.71-2.85-3.06.09-12.84.11-25.69,0-38.54,0-2.82.49-4,3.44-3.85,4.24.21,6.24-2,6.67-6.58,0-.45.12-.89.21-1.48H75.43c0,2.25-.11,4.4,0,6.53S75,32.23,73,32.07c-2.23-.17-4.48,0-7.39,0,2.3,4.17,4.24,7.72,6.24,11.23a1.81,1.81,0,0,0,1.28.82c4.28.06,8.57,0,13.05,0,0-3.24-.2-6.08,0-8.88S85.37,31.93,83.05,32Zm-3,9H75V36h.7v0L76,36h4Z"/><path class="aed3ce2b-6a9c-4e41-bb46-ebaf021c2e94" d="M75.7,36v0H76Z"/><path class="b617ece2-0594-47f5-9df9-be929a5ed6bc" d="M86.15,60V51.29c-1.08-.07-1.94-.18-2.79-.18-3.18,0-6.35-.09-9.52,0a3.51,3.51,0,0,1-3.78-2.29A86.76,86.76,0,0,0,65.82,41c-.47-.79-1.34-1.82-2.06-1.85-3.76-.19-7.53-.09-11.23-.09a5.18,5.18,0,0,0-.33,1.1q0,24.08-.06,48.15c0,1.56.7,1.92,2,1.89,2.64,0,5.29-.1,7.93,0,1.66.08,2.17-.63,2.11-2.31-.09-2.5,0-5,0-7.55h10v9.84c3.52,0,6.68-.08,9.84,0,1.77.06,2.24-.69,2.23-2.49C86.11,78.49,86.15,69.24,86.15,60ZM63,72H58V67h5ZM60.27,56H63v5H58V56h1.28M63,50H58V45h5Zm9,22H67V67h3.42l.37-.13V67H72Zm0-11H67V56h5Zm4,6.66V67h5v5H76v-.77M76,56.5V56h5v5H76v-.76"/><path class="abcfa880-5a00-4d8d-8352-26a7aa64a1eb" d="M58,50h5V45H58Z"/><path class="abcfa880-5a00-4d8d-8352-26a7aa64a1eb" d="M67,61h5V56H67Z"/><path class="abcfa880-5a00-4d8d-8352-26a7aa64a1eb" d="M58,72h5V67H58Z"/></svg>