<svg id="f5d8f7a5-741a-487b-bd4e-bf070dd66d4f" data-name="Layer 1" xmlns="http://www.w3.org/2000/svg" viewBox="0 0 100 100"><defs><style>.f4750e66-508f-4b79-8a2e-ad0066de9c19{fill:red;}</style></defs><title>ICONS CITY</title><path class="f4750e66-508f-4b79-8a2e-ad0066de9c19" d="M23.77,79.71a45.49,45.49,0,0,0,3.51-4.49c3.38-5.75,6.56-11.61,10-17.33a9.21,9.21,0,0,1,3.51-3.39c3.79-1.93,7.73-3.58,11.67-5.22a3.87,3.87,0,0,0,2.65-3.16c.63-3.35,1.42-6.67,2.28-10a5.14,5.14,0,0,1,1.5-2.77c5.5-4,11.11-7.88,16.83-11.89C86.48,31.76,91,44.07,88,58.49,84.83,73.69,75.4,83.81,60.53,88.13,46.88,92.09,34.52,88.85,23.77,79.71ZM45,68.2a5.74,5.74,0,0,0,5.46,6.08,6,6,0,0,0,5.82-5.81,6.1,6.1,0,0,0-5.8-6.1A5.79,5.79,0,0,0,45,68.2Zm26.67-26c-2.11-.06-3.54,1.08-3.65,2.6a2.94,2.94,0,0,0,3.07,3c1.77,0,3.47-1.33,3.33-2.84A2.93,2.93,0,0,0,71.69,42.18ZM37.07,86.77c1.29-1.37,2.76-2.23,2.86-3.21.16-1.74-1.63-2.12-3-2.08s-3.19.42-2.88,2.2C34.18,84.68,35.7,85.45,37.07,86.77Zm24.68-32.1-1,0L60.16,57l2,.07Z"/><path class="f4750e66-508f-4b79-8a2e-ad0066de9c19" d="M41.67,32.68c-2.9,1.36-5.62,2.65-8.35,3.91q-7.92,3.64-15.85,7.27c-2.57,1.17-3,1-4.3-1.58-.31-.63-.58-1.27-.86-1.91a2.2,2.2,0,0,1,1.21-3.25C21.33,33.51,29.13,29.88,37,26.35a2.17,2.17,0,0,1,2,.51C40,28.67,40.75,30.62,41.67,32.68Z"/><path class="f4750e66-508f-4b79-8a2e-ad0066de9c19" d="M48,44.89c-.79-3.29-1.44-6.53-2.38-9.68-.41-1.39-.12-3.47-2.72-3.54-1,0-2.64-6-2.35-7.11a2.58,2.58,0,0,0-.4-1.83c-2.19-3.26-4.47-6.47-6.69-9.66,4.37-.31,10.62,4.36,14,10.55C51.54,31.05,51.79,39.78,48,44.89Z"/><path class="f4750e66-508f-4b79-8a2e-ad0066de9c19" d="M37.83,44.44c.49.63,1.8,1.55,1.9,2.59a2.31,2.31,0,0,1-3,2.35,3.82,3.82,0,0,1-2.57-2.33C33.91,45.34,35.37,44.59,37.83,44.44Z"/><path class="f4750e66-508f-4b79-8a2e-ad0066de9c19" d="M51,28.89c-1.14-2.48-2-4.26-2.78-6.12-.18-.46.12-1.58.38-1.65.64-.16,1.79-.12,2,.27a18,18,0,0,1,2.22,4.8C53,26.78,51.86,27.69,51,28.89Z"/><path class="f4750e66-508f-4b79-8a2e-ad0066de9c19" d="M46,49.26c-1.1.93-1.78,1.93-2.31,1.85-.75-.11-1.38-1-2.06-1.58.61-.66,1.12-1.65,1.86-1.87C44,47.51,44.78,48.45,46,49.26Z"/><path class="f4750e66-508f-4b79-8a2e-ad0066de9c19" d="M35,56c-1.27.89-1.93,1.71-2.6,1.72s-1.56-1-1.51-1.49a2.42,2.42,0,0,1,1.47-1.77C32.89,54.38,33.65,55.22,35,56Z"/></svg>