<svg id="a611a6aa-fd85-4bf4-869d-08beff0a0d8c" data-name="Layer 1" xmlns="http://www.w3.org/2000/svg" viewBox="0 0 100 100"><defs><style>.f0fd818f-de4f-42f8-b708-694943f30a2d{fill:red;}</style></defs><title>ICONS CITY</title><path class="f0fd818f-de4f-42f8-b708-694943f30a2d" d="M39.16,56l5.19,25.62.34,0c1-6.08,2.11-12.15,3.06-18.24a3.53,3.53,0,0,0-.68-2.54c-1-1.21-1.35-2.22.09-3.49a13.06,13.06,0,0,1-1.85-.84,43.55,43.55,0,0,1-5.58-3.92,79.54,79.54,0,0,1-5.65-6.23,9.4,9.4,0,0,1,0-11.55c.51-.62.47-1.71.79-3,10-3.32,20.35-3.27,31,.07-.25.81-.46,1.53-.68,2.25a9,9,0,0,1,.85,12.16,43.82,43.82,0,0,1-5.72,6.37,78.08,78.08,0,0,1-7,5.06c1.13,1,.61,2.12-.44,3.38a3,3,0,0,0-.6,2.16c.91,5.83,1.93,11.65,2.92,17.47.05.25.17.48.44,1.27,1.8-8.9,3.5-17.27,5.28-26.09,1,1,1.75,1.67,2.45,2.39,3.11,3.2,6.25,6.38,9.3,9.64,3.71,4,5,8.83,4.91,14.15,0,1.19-.53,1.58-1.69,1.58q-25.92,0-51.85,0c-1.55,0-1.7-.83-1.68-2,.11-5,1.38-9.72,4.67-13.51,3.53-4.06,7.47-7.76,11.24-11.6A4.41,4.41,0,0,1,39.16,56ZM35.45,37.43a7,7,0,0,0,.24,6.09A5.83,5.83,0,0,0,37.13,45c.7.66,1.66,1.15,2.09,1.95,2.13,3.84,4.83,6.94,9.48,7.45,5.28.58,9.34-2,12-7.36a4.21,4.21,0,0,1,1.51-1.9,5.34,5.34,0,0,0,2.18-7.67l-1.74.74-.87-1.95a26.67,26.67,0,0,1-23.63,0l-.82,2Zm30.1,37.16a20.31,20.31,0,0,0,3.53-1,2.52,2.52,0,0,0,1.2-1.79c0-.5-.68-1.25-1.24-1.53a7.59,7.59,0,0,0-7,0A1.68,1.68,0,0,0,62,73.44,24,24,0,0,0,65.55,74.59Z"/><path class="f0fd818f-de4f-42f8-b708-694943f30a2d" d="M71,24c-1,1.26-2.17,2.73-3.24,4.3-.84,1.25-1.84.7-2.8.41a52.35,52.35,0,0,0-24.56-1.18A50.87,50.87,0,0,0,34.86,29a1.9,1.9,0,0,1-2.49-.86c-1-1.48-2.1-2.85-3.34-4.52a16.17,16.17,0,0,0,2.14-.81,39.87,39.87,0,0,0,5.72-3.39,7.36,7.36,0,0,1,4.27-1.57c2.58-.24,5.13-.88,7.7-1.28a9.34,9.34,0,0,1,2.64,0c2.83.4,5.65.87,8.47,1.35a7.07,7.07,0,0,1,2.42.61C65.25,20.21,68,22.1,71,24Z"/><path class="f0fd818f-de4f-42f8-b708-694943f30a2d" d="M56.36,48.11H44.13c.28-.59.44-1.63,1-1.87a12.15,12.15,0,0,1,10.23,0C55.85,46.48,56,47.5,56.36,48.11Z"/></svg>