<svg id="fc2397f2-7c8b-4866-afeb-2375156644c3" data-name="Layer 1" xmlns="http://www.w3.org/2000/svg" viewBox="0 0 100 100"><defs><style>.b5cc2bd8-d90d-4846-a483-95cdf3315308{fill:red;}</style></defs><title>ICONS CITY 2</title><path class="b5cc2bd8-d90d-4846-a483-95cdf3315308" d="M31.5,24.5a2,2,0,0,0,2-2V17a2,2,0,0,0-4,0v5.5A2,2,0,0,0,31.5,24.5Z"/><path class="b5cc2bd8-d90d-4846-a483-95cdf3315308" d="M40.86,28.48a2,2,0,0,0,1.39-.56l4-3.82a2,2,0,0,0,0-2.82,2,2,0,0,0-2.83-.06l-4,3.82a2,2,0,0,0,1.39,3.44Z"/><path class="b5cc2bd8-d90d-4846-a483-95cdf3315308" d="M20.6,28.14A2,2,0,0,0,23.43,28a2,2,0,0,0-.11-2.83l-4-3.73a2,2,0,1,0-2.72,2.93Z"/><path class="b5cc2bd8-d90d-4846-a483-95cdf3315308" d="M69.5,24.5a2,2,0,0,0,2-2V17a2,2,0,0,0-4,0v5.5A2,2,0,0,0,69.5,24.5Z"/><path class="b5cc2bd8-d90d-4846-a483-95cdf3315308" d="M78.86,28.48a2,2,0,0,0,1.39-.56l4-3.82a2,2,0,0,0,.05-2.82,2,2,0,0,0-2.83-.06l-4,3.82a2,2,0,0,0,1.39,3.44Z"/><path class="b5cc2bd8-d90d-4846-a483-95cdf3315308" d="M58.6,28.14A2,2,0,0,0,61.43,28a2,2,0,0,0-.11-2.83l-4-3.73a2,2,0,1,0-2.72,2.93Z"/><path class="b5cc2bd8-d90d-4846-a483-95cdf3315308" d="M86.35,83.79H83.58V65a6.4,6.4,0,0,0,3.92-5.89V45.88a6.38,6.38,0,0,0-6.38-6.38H78v-4a8.5,8.5,0,0,0-17,0v4H40v-4a8.5,8.5,0,0,0-17,0v4H19.88a6.38,6.38,0,0,0-6.38,6.38V59.12a6.39,6.39,0,0,0,4.93,6.21V83.79H15.65A1.62,1.62,0,0,0,14,85.41V86a1.61,1.61,0,0,0,1.62,1.62h18.7A1.61,1.61,0,0,0,36,86v-.58a1.62,1.62,0,0,0-1.62-1.62H31.57V65.5H70.42V83.79H67.65A1.62,1.62,0,0,0,66,85.41V86a1.61,1.61,0,0,0,1.62,1.62h18.7A1.61,1.61,0,0,0,88,86v-.58A1.62,1.62,0,0,0,86.35,83.79ZM81.64,61.44l-.14,0H75.61L83.5,50.49v8.63A2.39,2.39,0,0,1,81.64,61.44ZM83,44.4,70.62,61.5H62.53l12.86-18h5.73A2.39,2.39,0,0,1,83,44.4ZM49.53,61.5l12.86-18h8.08l-12.86,18Zm-13,0,12.86-18h8.08l-12.86,18ZM30,61.5a2.09,2.09,0,0,0-.51-.07H23.58L36.39,43.5h8.08l-12.86,18Zm35-26a4.5,4.5,0,0,1,9,0v4H65Zm-38,0a4.5,4.5,0,0,1,9,0v4H27ZM17.5,45.88a2.39,2.39,0,0,1,2.38-2.38H31.47L18.81,61.23a2.36,2.36,0,0,1-1.31-2.11Zm5.07,37.91V65.57h4.86V83.79Zm52-18.21h4.84V83.79H74.58Z"/></svg>