<?xml version="1.0" encoding="utf-8"?>
<!-- Generator: Adobe Illustrator 23.0.0, SVG Export Plug-In . SVG Version: 6.00 Build 0)  -->
<svg version="1.1" id="f8c08278-52b2-49e6-9671-b81e391e1e1c"
	 xmlns="http://www.w3.org/2000/svg" xmlns:xlink="http://www.w3.org/1999/xlink" x="0px" y="0px" viewBox="0 0 100 100"
	 style="enable-background:new 0 0 100 100;" xml:space="preserve">
<style type="text/css">
	.st0{fill:#FF0000;}
</style>
<title>ICONS CITY</title>
<g>
	<path class="st0" d="M66.4,55.4c0.2,0.5,0.4,0.9,0.5,1.3c0.2,1.6,0.8,2.9,1.9,4.1c1.8,1.8,3.6,3.7,5.4,5.5c0.3,0.3,0.4,0.7,0.5,1.1
		c0,5.6,0,11.1,0,16.7c0,1.1-0.5,1.5-1.5,1.5c-13.7,0-27.4,0-41.1,0c-0.7,0-1.3-0.2-1.7-0.7c-3.7-3.7-7.4-7.4-11.1-11.1
		c-0.5-0.5-0.8-1.1-0.8-1.9c0-18.4,0-36.8,0-55.1c0-1.2,0.5-1.6,1.6-1.6c17.7,0,35.4,0,53,0c1.1,0,1.6,0.5,1.6,1.6
		c0,6.1,0,12.2,0,18.3c0,0.1,0,0.2,0,0.3c-0.1,0.2-0.2,0.3-0.3,0.5c-0.1-0.1-0.4-0.2-0.4-0.4c-0.2-0.5-0.3-1-0.5-1.4
		c-2.7-6.8-9.5-11.1-16.8-10.6c-1.3,0.1-2.6,0.5-3.9,0.7c-0.7,0.1-1.4,0.3-2.1,0.3c-6.6,0-13.1,0-19.7,0c-0.3,0-0.7,0-1,0.1
		c-0.7,0.2-1.1,1-1,1.7c0.1,0.7,0.7,1.2,1.5,1.2c2.5,0,4.9,0,7.4,0c2.5,0,4.9,0,7.4,0c0.3,0,0.5,0.2,0.8,0.3
		c-0.1,0.3-0.2,0.6-0.3,0.8c-2.5,2.4-3.9,5.5-4.6,8.9c-0.1,0.7-0.5,1-1.2,0.9c-3,0-6,0-9,0c-0.4,0-0.8,0-1.1,0.2
		c-0.6,0.3-1,1-0.8,1.7c0.1,0.7,0.8,1.1,1.6,1.1c2,0,4,0,5.9,0c1.1,0,2.2,0,3.4,0c0.6,0,0.9,0.3,1,0.9c0.3,2.7,1.1,5.2,2.5,7.5
		c0.3,0.5,0.7,1,1,1.5c0.1,0.2,0.3,0.6,0.2,0.8c-0.1,0.2-0.5,0.3-0.8,0.3c-4.3,0-8.6,0-12.9,0c-0.3,0-0.6,0-0.9,0.1
		c-0.7,0.2-1.1,0.7-1,1.4c0,0.7,0.5,1.3,1.2,1.4c0.3,0.1,0.6,0,0.9,0c5.5,0,11.1,0,16.6,0c0.8,0,1.5,0.2,2.3,0.6
		c5.2,2.7,10.4,2.5,15.6,0C65.7,55.7,66,55.6,66.4,55.4z M29,70c-1.6,0-3.1,0-4.7,0c-0.4,0-0.8,0.2-1,0.5c-0.3,0.4,0.1,0.8,0.4,1.1
		c1.4,1.4,2.9,2.9,4.3,4.3c1.8,1.8,3.5,3.6,5.3,5.3c0.2,0.2,0.7,0.4,1,0.3c0.3-0.1,0.4-0.5,0.6-0.9c0.1-0.1,0-0.2,0-0.3
		c0-3,0-6.1,0-9.1c0-0.9-0.2-1.1-1.2-1.2C32.1,70,30.5,70,29,70z"/>
	<path class="st0" d="M43.6,42.6c0-9.4,5.6-15.1,12.4-15.9c7.7-0.9,14.4,4.5,15.5,11.6c0.6,3.8-0.2,7.2-2.4,10.3
		c-0.6,0.9-0.6,0.9,0.1,1.6c0.7,0.7,1.4,1.5,2.1,2.1c0.3,0.2,0.7,0.4,1.1,0.4c1.2-0.1,2.3,0.2,3.2,1.1c3.6,3.6,7.2,7.2,10.8,10.8
		c1.4,1.4,1.4,3.6,0,5c-1.3,1.4-3.5,1.4-4.9,0c-3.7-3.6-7.3-7.2-11-10.8c-0.8-0.8-1.2-1.8-0.9-3c0.1-0.5,0-0.8-0.4-1.2
		c-0.8-0.7-1.6-1.5-2.3-2.3c-0.4-0.4-0.7-0.4-1.2-0.1C60.3,56,53.1,55.5,48.2,51C45.1,48.2,43.6,44.7,43.6,42.6z M68.8,40.7
		c0-6.1-5-11.2-11.1-11.2c-6.1,0-11.1,5-11.1,11.1c0,6.1,5,11.1,11.1,11.1C63.8,51.7,68.8,46.8,68.8,40.7z"/>
	<path class="st0" d="M74.7,43.5c0,1.6,0,3.1,0,4.7c0,0.1,0,0.3,0,0.4c0,0.4,0,1-0.2,1c-0.5,0.1-1,0.1-1.4-0.1
		c-0.2-0.1-0.5-0.6-0.4-0.8c0.9-1.7,1.5-3.4,1.8-5.3C74.5,43.5,74.6,43.5,74.7,43.5z"/>
</g>
</svg>
