<svg id="f8c08278-52b2-49e6-9671-b81e391e1e1c" data-name="Layer 1" xmlns="http://www.w3.org/2000/svg" viewBox="0 0 100 100"><defs><style>.b08db7fb-e615-4161-bbd2-66a930f2d753{fill:red;}</style></defs><title>ICONS CITY</title><path class="b08db7fb-e615-4161-bbd2-66a930f2d753" d="M42.25,65a35.16,35.16,0,0,0-.09-5.76,4,4,0,0,0-2-2.34C32.06,52.77,27.7,46.25,27.57,37.2A21.41,21.41,0,0,1,46.74,16.06c11.47-1,21.41,6.41,23.35,17.41a21.11,21.11,0,0,1-11.9,23.15c-1.86.86-2.65,1.94-2.45,4,.13,1.37,0,2.76,0,4.43h21c.6,0,1.34-.17,1.76.11A3.44,3.44,0,0,1,80.08,67c.06.46-1,1.16-1.6,1.58-.33.21-.9.06-1.37.06H20.94c-.53,0-1.18.15-1.57-.09-.6-.37-1.44-1-1.42-1.54a2.66,2.66,0,0,1,1.33-1.81A5.64,5.64,0,0,1,21.63,65C28.39,65,35.16,65,42.25,65Zm22-27.56C64.22,28.65,57.59,21.93,49,22a15.37,15.37,0,1,0,.28,30.73A14.93,14.93,0,0,0,64.3,37.44Z"/><path class="b08db7fb-e615-4161-bbd2-66a930f2d753" d="M49.23,73H76.91c.53,0,1.19-.18,1.56.07a12,12,0,0,1,1.79,1.78,9.34,9.34,0,0,1-1.74,1.6,4,4,0,0,1-1.77.13q-27.78,0-55.56,0c-1.4,0-3.32.36-3.35-1.76S19.75,73,21.15,73Q35.19,73,49.23,73Z"/><path class="b08db7fb-e615-4161-bbd2-66a930f2d753" d="M58.69,28.3c-.94,1.31-1.81,2.68-2.84,3.92-1.51,1.8-2.83,3.61-3,6.1-.13,1.87-1.6,2.74-3.26,3a3.68,3.68,0,0,1-4.11-2.11,3.75,3.75,0,0,1,.65-4.58,3,3,0,0,1,1.64-1c3.63-.21,5.87-2.81,8.53-4.7.58-.41,1.23-.72,1.85-1.08Z"/></svg>