<svg id="afdb9584-9450-4d1f-8e58-9e8650f9e0b0" data-name="Layer 1" xmlns="http://www.w3.org/2000/svg" viewBox="0 0 100 100"><defs><style>.a3e88424-adf9-4955-bddd-a1d7c0fc1287{fill:red;}</style></defs><title>ICONS CITY</title><path class="a3e88424-adf9-4955-bddd-a1d7c0fc1287" d="M58.3,61.09,58,59.7a24.53,24.53,0,0,1-8.93,2.12l3.56-3.65c-1.21-.11-2.13-.17-3.05-.27-1.56-.17-3.13-.33-4.69-.55-1-.14-1.91-.28-2.31,1-.54-.66-.89-1.44-1.47-1.7a5.93,5.93,0,0,0-2.29,0C38.46,55.57,37.25,55.3,36,55c-2.72-.75-5.42-1.55-8.11-2.37a1.1,1.1,0,0,0-1.31.35,31.75,31.75,0,0,1-9.24,6.36,5,5,0,0,1-.61.22c.18-.38.27-.61.4-.83a23,23,0,0,0,3-8A4.76,4.76,0,0,0,20,48.5c-1.23-3.65-2.55-7.27-3.84-10.9-.09-.24-.19-.47-.28-.71l.25-.22c1.84,1.69,3.82,3.25,5.49,5.09a79.79,79.79,0,0,1,5.22,6.64,1.94,1.94,0,0,0,1.9,1c3.65-.47,7.33-.82,11-1.48a81,81,0,0,0,8-2.15,1.9,1.9,0,0,0,.94-1,22.63,22.63,0,0,0,1.63-7.53c0-.43,0-.86.06-1.29l.25-.21a15.83,15.83,0,0,1,2.59,2.2,44.56,44.56,0,0,1,3.12,4.78,1.43,1.43,0,0,0,1.27.88c7,.57,14,1.59,20.6,4.27a67.7,67.7,0,0,1,7.08,3.77,7.17,7.17,0,0,1,1,.79c-1.08,2-2.86,2.58-4.8,3a8,8,0,0,0-2.22.79,16.36,16.36,0,0,1-7.93,2.33c-2.55,0-5.1,0-7.65.09a2,2,0,0,0-1.06.39A9.82,9.82,0,0,1,58.3,61.09Z"/></svg>