<svg id="f1e93158-425c-482f-9a0d-cb90acaec2be" data-name="Layer 1" xmlns="http://www.w3.org/2000/svg" viewBox="0 0 100 100"><defs><style>.e56de9de-3fee-48e4-8fb3-5405f29dae5d{fill:red;}</style></defs><title>ICONS CITY</title><path class="e56de9de-3fee-48e4-8fb3-5405f29dae5d" d="M75.94,53V78.33c0,4.83-1.23,6-5.86,7.66-7.59,2.65-15.42,2.23-23.19,2.19-6.2,0-12.4-.69-18.59-1.15a13.87,13.87,0,0,1-3.3-.87c-4.49-1.49-5.59-2.92-5.61-7.67-.05-9.13,0-18.26,0-27.4,0-7.81-.14-15.62-.18-23.43,0-4.94,1.05-6.17,5.81-7.66,14.3-4.48,28.69-4.23,43.14-.9a30.68,30.68,0,0,1,3.94,1.46c2.8,1.08,4,3.09,3.91,6.13C75.87,35.47,75.94,44.26,75.94,53ZM24,30.22a6.14,6.14,0,0,0-.34,1.28c0,2.63.08,5.27,0,7.9-.1,2.14,1,2.8,2.86,2.8a42.93,42.93,0,0,1,5.79.11c.75.1,1.91,1.19,1.9,1.81a2.79,2.79,0,0,1-1.78,2,20.65,20.65,0,0,1-4.46.13c-4.2,0-4.13,0-4.4,4.25-.14,2.18.64,3.07,2.84,3a25.85,25.85,0,0,1,5.77.15c.83.14,1.49,1.31,2.23,2-.79.62-1.5,1.54-2.39,1.78a14,14,0,0,1-3.67.1c-4.78,0-4.78,0-4.68,4.71a3.13,3.13,0,0,1,0,.53c-.09,1.54.55,2.24,2.18,2.16a33,33,0,0,1,6.05.08c.89.12,1.65,1.13,2.47,1.74-.77.77-1.45,2-2.33,2.21a24.78,24.78,0,0,1-5.78.11c-2-.1-2.95.53-2.68,2.72a43.79,43.79,0,0,1,.09,5c0,4.59.05,4.82,4.56,5.83A85.82,85.82,0,0,0,68,82.34c2.76-.68,3.82-2.14,3.8-5-.11-14.59,0-29.18-.06-43.77,0-1-.1-2-.17-3.45A95,95,0,0,1,24,30.22Zm46.68-4.69c-8.29-5.86-40.23-5.64-46.54.32C39.91,30.23,55.28,30.27,70.64,25.53Z"/><path class="e56de9de-3fee-48e4-8fb3-5405f29dae5d" d="M65.16,59.8a11,11,0,0,1-18.77,7.13c-3.18-3.28-4.27-7.33-2.27-11.35,2.32-4.68,5.4-9,8.27-13.38.94-1.44,2.44-1.67,3.44-.1,2.86,4.5,5.63,9.06,8.27,13.69C64.77,57,64.82,58.45,65.16,59.8ZM54.68,47.35l-.93-.21c-1.89,3.29-3.94,6.5-5.63,9.89a6.19,6.19,0,0,0,2.19,7.66,6.38,6.38,0,0,0,8-.27A6.1,6.1,0,0,0,60,56.64C58.37,53.48,56.47,50.44,54.68,47.35Z"/></svg>