<?xml version="1.0" encoding="utf-8"?>
<!-- Generator: Adobe Illustrator 23.0.0, SVG Export Plug-In . SVG Version: 6.00 Build 0)  -->
<svg version="1.1" id="f81ff3da-234a-4220-a68c-7817457d26b6"
	 xmlns="http://www.w3.org/2000/svg" xmlns:xlink="http://www.w3.org/1999/xlink" x="0px" y="0px" viewBox="0 0 100 100"
	 style="enable-background:new 0 0 100 100;" xml:space="preserve">
<style type="text/css">
	.st0{fill:#FF0000;}
</style>
<title>ICONS CITY</title>
<path class="st0" d="M44.4,79.2c-1-0.1-1.9-0.1-2.8-0.1c-7.1,0-14.1,0-21.2,0c-0.5,0.1-1.1,0-1.6-0.1c-0.5-0.2-1.2-0.8-1.2-1.2
	c0.1-0.6,0.4-1.2,1-1.6c0.7-0.3,1.5-0.4,2.2-0.3c8,0,16,0,24,0c2.9,0,4-1.1,4.4-4.3h-2.8c-8.3,0-16.6,0-24.9,0c-1,0-2-0.1-3-0.4
	c-0.6-0.3-1.1-0.8-1.2-1.4c0-0.5,0.7-1.2,1.2-1.4c1-0.2,2.1-0.3,3.1-0.3c9.2,0,18.5,0,27.7,0c3.3,0,4.2-0.8,4.8-4.2
	c-0.4-0.1-0.9-0.2-1.3-0.2c-10.6,0-21.2,0-31.8,0c-0.8,0-1.6-0.1-2.4-0.3c-0.5-0.3-0.9-0.8-1-1.4c0-0.4,0.7-1.1,1.2-1.2
	c1-0.2,2.1-0.3,3.1-0.3c17.4,0,34.8,0,52.3,0c0.6-0.1,1.3,0,1.9,0.2c0.6,0.3,1.4,0.9,1.5,1.5c1.6,8,3.1,16,4.6,24
	c0.1,0.3,0.1,0.7,0.2,1c0.1,0.9,0,1.8-1.1,1.8c-0.7-0.1-1.4-0.6-1.7-1.3c-0.4-1.3-0.8-2.7-1-4.1C77.4,78,76.2,72.3,75,66.7
	c0-0.5-0.2-0.9-0.4-1.3c-0.5-0.6-1.1-1.1-1.7-1.6c-0.3,0.7-1,1.3-1,2c-0.1,6.3-0.1,12.6-0.2,18.9c0,0.6,0,1.2,0,1.8
	c0.1,1.3-0.4,2.4-1.7,2.3c-0.5,0-1.3-1.5-1.4-2.4c-0.2-2.2-0.1-4.3-0.1-6.5c0-4.4,0-8.8,0-13.2c0-1.1,0.1-2.4-1.4-2.7
	s-2,0.9-2.3,2.1c-2.2,7-4.4,14-6.6,21c-0.1,0.4-0.3,0.9-0.5,1.3c-0.4,1-1,1.6-2.2,1.2s-1-1.3-0.7-2.2c2-6.7,4.1-13.4,6.1-20.2
	c0.3-1.1,1.2-2.4-0.2-3.1s-2.3,0.6-3,1.6c-4.1,6.2-8.1,12.4-12.1,18.7c-1,1.8-2.9,2.9-4.9,2.7c-6.5-0.1-13,0-19.4,0
	c-0.2,0-0.4,0-0.5,0c-1.3-0.2-3.1,0.4-3.1-1.6c0-1.9,1.8-1.5,3-1.5c6.2,0,12.4,0,18.5,0C42.5,83.7,43.7,82.6,44.4,79.2z"/>
<path class="st0" d="M57.4,54.3c0.4,0.5,0.8,1,1.2,1.6c0.2,0.6,0.5,1.5,0.3,1.8c-0.5,0.5-1.2,0.7-1.9,0.5c-2.3-0.9-4.4-1.9-6.6-2.9
	c-4.8-2.2-9.6-4.4-14.4-6.6c-1.5-0.7-3.2-0.8-4.8-0.1c-3.4,1.4-6.8,2.7-10.2,4.1c-0.7,0.4-1.4,0.6-2.2,0.7c-0.5,0-1.4-0.3-1.5-0.7
	c-0.1-0.6,0.1-1.3,0.5-1.8c0.2-0.3,0.8-0.5,1.2-0.7c4.1-1.7,8.2-3.3,12.3-5c1.5-0.7,3.3-0.6,4.8,0.1c4.6,2.1,9.2,4.2,13.8,6.3
	c1.8,1,4,1,5.9,0c2.3-1.2,4.8-2.2,7.2-3.3c2-0.9,4.3-1,6.3-0.2c2.5,0.9,5.1,1.5,7.6,2.2c0.3,0.1,0.6,0.1,0.8,0.2
	c0.9,0.4,1.9,0.7,1.5,2s-1.4,1.2-2.3,1c-1.9-0.4-3.7-0.9-5.6-1.6c-3.5-1.4-6.8-1.4-10.1,0.7C59.9,53.3,58.7,53.9,57.4,54.3z"/>
<path class="st0" d="M64.9,28.1c0,3.7-3,6.8-6.7,6.8c-0.1,0-0.2,0-0.3,0c-3.8,0.1-7-3-7.1-6.8c-0.1-3.8,3-7,6.8-7.1
	c0.2,0,0.3,0,0.5,0c3.7,0,6.8,2.9,6.8,6.6C64.9,27.9,64.9,28,64.9,28.1z M61.6,28c0-1.9-1.5-3.5-3.5-3.5c0,0-0.1,0-0.1,0
	c-2,0-3.6,1.6-3.6,3.5c0,0,0,0,0,0c0,2,1.6,3.6,3.6,3.6S61.6,30,61.6,28z"/>
<path class="st0" d="M70.5,16.8c0,1.5-2.8,4.3-3.9,4.3c-0.8,0.1-1.5-0.4-1.7-1.2c-0.1-0.4,0-0.7,0.2-1c0.9-1.2,1.9-2.2,3.1-3.1
	c0.4-0.2,1-0.2,1.4,0C70.1,16,70.3,16.5,70.5,16.8z"/>
<path class="st0" d="M47.1,40.5c-1.1,0-2.1-1.1-1.4-2c0.9-1.3,2.1-2.5,3.4-3.5c0.9-0.7,2.2,0.4,2.1,1.6S48.2,40.4,47.1,40.5z"/>
<path class="st0" d="M70.9,38.8c-0.6,0.8-0.9,1.4-1.4,1.7c-0.5,0.2-1,0.1-1.4-0.2c-1-0.8-1.9-1.7-2.7-2.7c-0.3-0.7-0.2-1.5,0.2-2.2
	c0.2-0.3,1.6-0.3,2,0C68.7,36.4,69.9,37.6,70.9,38.8z"/>
<path class="st0" d="M50.9,20.6c-1.9,0.4-5-1.4-5.3-3.1c0-0.7,0.2-1.3,0.7-1.8c0.5-0.3,1.2-0.2,1.7,0.1C49.4,17.1,51.4,18,50.9,20.6
	z"/>
<path class="st0" d="M44.8,26.3c0.6-0.1,1.3,0,1.9,0.1c0.6,0.3,1.3,1,1.3,1.6s-0.8,1.3-1.4,1.4c-1.1,0.2-2.2,0.2-3.3,0
	c-0.7-0.1-1.2-1-1.8-1.5c0.5-0.6,1.1-1.1,1.7-1.6C43.7,26.2,44.3,26.4,44.8,26.3L44.8,26.3z"/>
<path class="st0" d="M56.4,14.9v-1.4c0-1.1,0.5-2,1.6-1.8c0.6,0.1,1.3,1,1.5,1.7c0.3,0.9,0.3,1.9,0,2.8c-0.2,0.8-1,1.3-1.6,2
	c-0.6-0.6-1.1-1.3-1.6-2C56.2,15.8,56.4,15.3,56.4,14.9L56.4,14.9z"/>
<path class="st0" d="M58.2,44.8c-1.7-1.1-2.5-4.4-1.5-5.9c0.3-0.5,0.8-0.8,1.4-0.8c0.6,0.1,1,0.4,1.3,0.9
	C60.2,40.5,59.5,43.5,58.2,44.8z"/>
<path class="st0" d="M71,29.6c-0.3,0-0.7,0-1,0c-1.1,0-2.2-0.5-1.9-1.7c0.2-0.6,1.2-1.2,2-1.5c0.7-0.3,1.5-0.3,2.2,0
	c0.8,0.3,2,0.9,2.1,1.6c0.3,1.2-0.8,1.6-2,1.6C72,29.6,71.5,29.6,71,29.6z"/>
</svg>
