<svg id="a80abc49-6ded-4e9f-a668-84ccab404c69" data-name="Layer 1" xmlns="http://www.w3.org/2000/svg" viewBox="0 0 100 100"><defs><style>.b6293a84-017c-4936-a0f0-b6f6e8e0729d{fill:red;}</style></defs><title>ICONS CITY</title><path class="b6293a84-017c-4936-a0f0-b6f6e8e0729d" d="M77,73c.29-2-.13-4,.33-5.92.29-1.27,0-2.66.33-4a21.93,21.93,0,0,0,0-2.44,2.17,2.17,0,0,0-.4-1.51c-.87-1.13-.42-2.4-.54-3.61.63-.43.08-1.15.42-1.66s.12-1.27.19-1.91c0-.2-.06-.43,0-.6A11.8,11.8,0,0,0,78,46.68a4,4,0,0,1,.5-2.64c1.07,1.26,1.08,2.78,1,4.31-.73.71-.11,1.68-.51,2.54s-.06,1.8-.11,2.71a4.67,4.67,0,0,1-.22,1.58,4.78,4.78,0,0,0,0,2.22,6.66,6.66,0,0,0,.52,1.92,5.34,5.34,0,0,1,.66,2c0,.17.18.34.43.78a6.83,6.83,0,0,0,.4-1.32c0-1.48,0-2.95,0-4.43,0-.2.08-.49,0-.59-.54-.52,0-1.23-.31-1.71a3.35,3.35,0,0,1-.27-1.88c.07-1.59,0-3.17.22-4.77a15.42,15.42,0,0,0-.23-6,4.31,4.31,0,0,1-.29-1,9.52,9.52,0,0,0-1.23-3.77,2.56,2.56,0,0,0-1.83-1.54,10.36,10.36,0,0,0-2.62-.37c-2.7.21-5.41-.07-8.13.27-3,.36-6-.05-9,.31a16.67,16.67,0,0,1-4.92-.19,40.94,40.94,0,0,0-5.21-.3c-3.91-.2-7.84-.07-11.76-.06a2.52,2.52,0,0,0-.73.08c-1.48.48-3,.09-4.49.22-1-.73-2-.25-2.95,0a4.67,4.67,0,0,1-1.41.26,5.45,5.45,0,0,1-2.66-.58c-.24-.12-.6-.08-.77-.25A16.44,16.44,0,0,1,21,33.24l-1.7.51v1.87l-1.63,1.63a2.7,2.7,0,0,0-.83,1.66,6.63,6.63,0,0,1-.61,2.18c-.45.88-1.19,1.63-1.19,2.71A7.35,7.35,0,0,0,13.78,46c-.11.24-.59.14-.59.66,0,.74.17,1.25.93,1.44.1.71.7.7,1.18.76s1.28.18,1.68-.3A2.13,2.13,0,0,1,19,48a5.33,5.33,0,0,0,3.1-.65,3.74,3.74,0,0,1,2.66-.54,30.11,30.11,0,0,1,2,2.41,4.73,4.73,0,0,1,1,2.29c0,1.38,1.09,2,1.58,3a10,10,0,0,1,2.46,2.16c.53.48,1.22.92,1.47,1.53.32.79,1.26.47,1.58,1.44,0,2,0,4.38,0,6.72a4.7,4.7,0,0,1-.25,1.72,14.91,14.91,0,0,0-.37,2.45,6.45,6.45,0,0,1-.52,1.61c-.37.79-.82,1.54-1.28,2.39h2.19a.73.73,0,0,0,.85-.8v-.71c.66,0,1.13,0,1.22-.72a16.88,16.88,0,0,0,.31-3.69,6.83,6.83,0,0,1,.51-2.39,44.41,44.41,0,0,0,1.33-5.1c0-.23.28-.43.55-.81a18.86,18.86,0,0,1,.34,2.19,9,9,0,0,0,.87,3.32c.39.89,1.14,1.85.39,3-.12.18,0,.5,0,.75,0,.72,0,1.43,0,2.14s-.18,1.34-.94,1.64a1.58,1.58,0,0,0-.81.89c.62-.17,1.19.09,1.82-.1.48-.15,1.14.21,1.77,0a4.41,4.41,0,0,1,.56-2.56,3.42,3.42,0,0,0,.35-2.43c-.11-.55-.37-1.09-.43-1.65a8.11,8.11,0,0,1-.07-2.64,12.35,12.35,0,0,0,.52-3.3c0-1.48,0-3,0-4.43,0-1.17.11-1.29,1.32-1.23.47,0,.93.23,1.4.29,1.18.12,2.36.21,3.54.31.1,0,.25,0,.3,0,.55.59,1.29.08,1.85.32a4.51,4.51,0,0,0,1.87.28c.82,0,1.64,0,2.45,0a9.9,9.9,0,0,0,4-.61c.66-.24,1.34-.46,2-.67a4.61,4.61,0,0,0,2.57-1.56,3.16,3.16,0,0,1,1.05-.76.63.63,0,0,1,.92.18c.58,1.19,1.57,2.21,1.44,3.69a4,4,0,0,0,0,2A5,5,0,0,1,68.84,61a7.79,7.79,0,0,1,.28,1.55c-.07,1.74.2,3.48-.24,5.23a12.65,12.65,0,0,1-.83,2.57,12.93,12.93,0,0,0-1,2.33,1.59,1.59,0,0,1-.51,1c-.55.4-.51.91-.37,1.52.21,0,.46-.08.6,0a1.32,1.32,0,0,0,1.94-.29,5.78,5.78,0,0,1,1.35-.82,11.77,11.77,0,0,1,.26-2.74c.18-.61.52-1.13.66-1.72.21-.94.53-1.83.68-2.8A13.49,13.49,0,0,1,73,63.57c.08-.17.37-.25.61-.39A7.25,7.25,0,0,1,74,64.33c.06.39-.15.93,0,1.19a1.65,1.65,0,0,1,.26,1.12c0,2,0,4,0,6a1.74,1.74,0,0,1-1.24,2c-.4.13-.74.33-.53.91.61,0,1.37-.22,1.78.06.71.48,1-.08,1.51-.25A2.62,2.62,0,0,1,77,73Z"/><path class="b6293a84-017c-4936-a0f0-b6f6e8e0729d" d="M77,73a2.62,2.62,0,0,0-1.14,2.33c-.48.17-.8.73-1.51.25-.41-.28-1.17-.06-1.78-.06-.21-.58.13-.78.53-.91a1.74,1.74,0,0,0,1.24-2c0-2,0-4,0-6a1.65,1.65,0,0,0-.26-1.12c-.2-.26,0-.8,0-1.19a7.25,7.25,0,0,0-.43-1.15c-.24.14-.53.22-.61.39a13.49,13.49,0,0,0-1.33,3.25c-.15,1-.47,1.86-.68,2.8-.14.59-.48,1.11-.66,1.72a11.77,11.77,0,0,0-.26,2.74,5.78,5.78,0,0,0-1.35.82,1.32,1.32,0,0,1-1.94.29c-.14-.09-.39,0-.6,0-.14-.61-.18-1.12.37-1.52a1.59,1.59,0,0,0,.51-1,12.93,12.93,0,0,1,1-2.33,12.65,12.65,0,0,0,.83-2.57c.44-1.75.17-3.49.24-5.23A7.79,7.79,0,0,0,68.84,61a5,5,0,0,0-.25-1.58,4,4,0,0,1,0-2c.13-1.48-.86-2.5-1.44-3.69a.63.63,0,0,0-.92-.18,3.16,3.16,0,0,0-1.05.76,4.61,4.61,0,0,1-2.57,1.56c-.68.21-1.36.43-2,.67a9.9,9.9,0,0,1-4,.61c-.81-.06-1.63,0-2.45,0a4.51,4.51,0,0,1-1.87-.28c-.56-.24-1.3.27-1.85-.32-.05,0-.2,0-.3,0-1.18-.1-2.36-.19-3.54-.31-.47-.06-.93-.27-1.4-.29-1.21-.06-1.31.06-1.32,1.23,0,1.48,0,2.95,0,4.43a12.35,12.35,0,0,1-.52,3.3,8.11,8.11,0,0,0,.07,2.64c.06.56.32,1.1.43,1.65a3.42,3.42,0,0,1-.35,2.43,4.41,4.41,0,0,0-.56,2.56c-.63.17-1.29-.19-1.77,0-.63.19-1.2-.07-1.82.1a1.58,1.58,0,0,1,.81-.89c.76-.3.88-1,.94-1.64s0-1.42,0-2.14c0-.25-.1-.57,0-.75.75-1.11,0-2.07-.39-3a9,9,0,0,1-.87-3.32,18.86,18.86,0,0,0-.34-2.19c-.27.38-.51.58-.55.81a44.41,44.41,0,0,1-1.33,5.1,6.83,6.83,0,0,0-.51,2.39,16.88,16.88,0,0,1-.31,3.69c-.09.67-.56.73-1.22.72v.71a.73.73,0,0,1-.85.8H32.49c.46-.85.91-1.6,1.28-2.39a6.45,6.45,0,0,0,.52-1.61,14.91,14.91,0,0,1,.37-2.45,4.7,4.7,0,0,0,.25-1.72c0-2.34,0-4.67,0-6.72-.32-1-1.26-.65-1.58-1.44-.25-.61-.94-1.05-1.47-1.53a10,10,0,0,0-2.46-2.16c-.49-1-1.58-1.66-1.58-3a4.73,4.73,0,0,0-1-2.29,30.11,30.11,0,0,0-2-2.41,3.74,3.74,0,0,0-2.66.54A5.33,5.33,0,0,1,19,48a2.13,2.13,0,0,0-2.06.58c-.4.48-1.1.37-1.68.3s-1.08-.05-1.18-.76c-.76-.19-.93-.7-.93-1.44,0-.52.48-.42.59-.66a7.35,7.35,0,0,1,1.28-2.22c0-1.08.74-1.83,1.19-2.71a6.63,6.63,0,0,0,.61-2.18,2.7,2.7,0,0,1,.83-1.66l1.63-1.63V33.75l1.7-.51a16.44,16.44,0,0,0,1.08,1.38c.17.17.53.13.77.25a5.45,5.45,0,0,0,2.66.58,4.67,4.67,0,0,0,1.41-.26c.94-.29,2-.77,2.95,0,1.49-.13,3,.26,4.49-.22a2.52,2.52,0,0,1,.73-.08c3.92,0,7.85-.14,11.76.06a40.94,40.94,0,0,1,5.21.3A16.67,16.67,0,0,0,57,35.4c3-.36,6.06.05,9-.31,2.72-.34,5.43-.06,8.13-.27a10.36,10.36,0,0,1,2.62.37,2.56,2.56,0,0,1,1.83,1.54,9.52,9.52,0,0,1,1.23,3.77,4.31,4.31,0,0,0,.29,1,15.42,15.42,0,0,1,.23,6c-.18,1.6-.15,3.18-.22,4.77a3.35,3.35,0,0,0,.27,1.88c.26.48-.23,1.19.31,1.71.1.1,0,.39,0,.59,0,1.48,0,3,0,4.43a6.83,6.83,0,0,1-.4,1.32c-.25-.44-.41-.61-.43-.78a5.34,5.34,0,0,0-.66-2,6.66,6.66,0,0,1-.52-1.92,4.78,4.78,0,0,1,0-2.22,4.67,4.67,0,0,0,.22-1.58c0-.91-.24-2,.11-2.71s-.22-1.83.51-2.54c.06-1.53,0-3.05-1-4.31a4,4,0,0,0-.5,2.64,11.8,11.8,0,0,1-.61,4.64c-.07.17,0,.4,0,.6-.07.64.2,1.31-.19,1.91s.21,1.23-.42,1.66c.12,1.21-.33,2.48.54,3.61a2.17,2.17,0,0,1,.4,1.51,21.93,21.93,0,0,1,0,2.44c-.3,1.33,0,2.72-.33,4C76.88,69,77.3,71,77,73Z"/></svg>