<svg id="ec890015-8b0a-4f80-8b9c-0f8e3b26b72f" data-name="Layer 1" xmlns="http://www.w3.org/2000/svg" viewBox="0 0 100 100"><defs><style>.ba057de6-4412-491c-afb2-dfae726cf0f6{fill:red;}</style></defs><title>ICONS CITY</title><path class="ba057de6-4412-491c-afb2-dfae726cf0f6" d="M62.8,90.69c1.58-.87,2.21-2.34,2.84-3.79,2.41-5.47,3.39-11,.73-16.72-1.23-2.6-2.61-5.14-4-7.68a1.22,1.22,0,0,0-.89-.48,63.82,63.82,0,0,0-6.64.12,53.74,53.74,0,0,0-5.72,1.18c-.17,0-.33.17-.5.16-1.68-.11-2.52,1.16-3.52,2.15a1.19,1.19,0,0,0-.29.91c.34,2.18.69,4.37,1.13,6.54.56,2.82,1.2,5.64,1.84,8.44.21.89.58,1.73.81,2.61.17.65.24,1.33.36,2.09l-.91-.08c-.3,1.38.41,3.27-1.78,3.66-.66.12-1.44.48-2.1-.33,2.36-2.12,2.22-4.77,1.63-7.51a40.23,40.23,0,0,0-4.2-11.32c-.5-.9-.84-1.91-1.35-3.06-1.44.92-3,1.87-4.47,2.86a8.69,8.69,0,0,0-1.58,1.23,6.31,6.31,0,0,0-1.47,2c-.83,2.17-1.52,4.39-2.21,6.6a5.67,5.67,0,0,0-.14,1.65c0,.45.5,1.06-.45,1.2a3.66,3.66,0,0,0,0,1.26,3.19,3.19,0,0,1-.83,3.3c-.66.65-.65.66-1.56.19.09-1.45.19-2.91.28-4.37a1.18,1.18,0,0,0-.09-.62c-.8-1.37,0-2.5.44-3.76a39.53,39.53,0,0,0,1.39-5.26,8.88,8.88,0,0,1,1.75-4c1.82-2.18,3.6-4.4,5.46-6.68-1.57-2.41-3.22-4.85-4.78-7.36a54.29,54.29,0,0,1-3.48-6.11,8.94,8.94,0,0,1,.48-8.62c-1.21.17-2.32.43-3.28-.46a2.31,2.31,0,0,1-.4-3A9.23,9.23,0,0,0,27,35.32a8.69,8.69,0,0,0-.13-2.87c-3-.34-4.75-2.4-6.43-5,2.78-.3,5.29-.05,7.51,1.67l.18-.25a17.13,17.13,0,0,0-2-1.87A15.56,15.56,0,0,1,21,21c-1.09-2.15-.85-4.34-.28-6.56.1,2.08,0,4.19,1,6.37l1.44-4,.16,0a33.54,33.54,0,0,1-.62,3.35c-.51,1.76.34,2.79,1.77,3.75a32.52,32.52,0,0,0-.73-9.62l.28-.06.78,2.43,2-5.47.22.08L25.23,19.9l.35.19,2.24-1.93.16.1c-.5.7-1,1.43-1.5,2.12a3.84,3.84,0,0,0,.7,5.87c.4.31.8.64,1.15.92.32-1.28.61-2.49,1-3.69.07-.23.34-.41.51-.62a1.24,1.24,0,0,1,.2.19c-1.1,2.14-.22,4.19.32,6.24a1,1,0,0,0,.82.53A3.61,3.61,0,0,0,35,26c0-.82,0-1.65,0-2.48l.3-.06,1,4.56c2-.78,4.14-1.54,6.2-2.4a2.24,2.24,0,0,0,1.33-2.43,2.26,2.26,0,0,0-1.69-2.06,4.6,4.6,0,0,1-3-2.43l5.31,2.78a7.09,7.09,0,0,0,.92-2.21,6.1,6.1,0,0,0-.67-2.21l1,.56c.65-1.87.19-3.69,0-5.5l.3-.06c.23,1.13.53,2.26.66,3.4A23.64,23.64,0,0,1,46.44,18a7.26,7.26,0,0,0,.22,1.22l.32,0L47.31,16c1.44,2.85-.38,7-4.82,11,.66-.06,1.27-.12,1.89-.16.78,0,1,.32.78,1.05a6,6,0,0,1-3.76,4,28.72,28.72,0,0,1-3.7.83c-1.33.26-1.38.36-1.13,1.64s.44,2.77.74,4.14a38.13,38.13,0,0,0,1.18,4.25,1.49,1.49,0,0,0,1.1.73c3.18.31,6.38.72,9.57.75a26.43,26.43,0,0,0,6.56-.81c4.08-1,8.05-1.26,11.91.75a15,15,0,0,1,5.8,5.42,10.75,10.75,0,0,1,.94,3.93c.13.83-.12,1.71,0,2.53.18,1.3.52,2.58.81,3.87.1.42.24.83.37,1.25l-.26.16L72.62,58.8A9.92,9.92,0,0,0,75.27,70a6.51,6.51,0,0,1,2.34,4.67,32.62,32.62,0,0,0,2.47,8.91A14.62,14.62,0,0,1,80.57,87L80,86.88A5.08,5.08,0,0,0,79.35,88a2.41,2.41,0,0,1-3.7,1.22c.46-.74.87-1.51,1.38-2.21.8-1.09.52-2.18.17-3.31-.73-2.35-1.32-4.74-2.18-7a19.78,19.78,0,0,0-2.2-3.42C72,76,71.16,78.31,70.44,80.68s-1.27,4.69-2,7a14,14,0,0,1-1.55,2.91C66.21,91.59,63.76,91.68,62.8,90.69Z"/></svg>