<svg id="ad04be37-98c9-4af1-a606-25539e8ad808" data-name="Layer 1" xmlns="http://www.w3.org/2000/svg" viewBox="0 0 100 100"><defs><style>.b279b23c-74a9-4901-8d05-55f2184c3e8a{fill:red;}</style></defs><title>ICONS CITY</title><path class="b279b23c-74a9-4901-8d05-55f2184c3e8a" d="M30.73,38.68,17.88,59.51h6.75l-9.86,16H35.24v9.32h7.43A11,11,0,0,0,42,83a16.3,16.3,0,0,1-2.44-8.78A24.42,24.42,0,0,1,42,64.51c.94-2.09,2-4.14,2.9-6.24a13.67,13.67,0,0,0,.55-9.57c-.32-1.12-.65-2.23-1-3.4,6,2.23,9.24,6.75,11.13,12.66.47-.65.81-1.19,1.21-1.66a1.28,1.28,0,0,0,0-1.76c-3.11-5-6.17-10-9.25-14.95-.16-.24-.29-.5-.53-.93h6.33L38.86,15.19,24.36,38.68Zm48,47.26c2.8-2.09,5.08-4.74,5.67-8.51a29.87,29.87,0,0,0-.46-9.29,29,29,0,0,1,2.28-17.86,4,4,0,0,0,.16-.58c-5.65-.43-10.49,1.74-15.27,4.58a19,19,0,0,0-7.76-16.37c0,2.54.18,4.93,0,7.29A27.69,27.69,0,0,1,58.94,58a16.17,16.17,0,0,1-5.5,5.1,17.37,17.37,0,0,0-4.55-11.56,18.64,18.64,0,0,1-1.82,8.72c-.66,1.43-1.37,2.83-2,4.25a25.36,25.36,0,0,0-2.67,8.7c-.41,5.18,1.81,9.16,5.83,12.41,2.89-8.84,8.48-15.42,16.27-20.42.05,1,.07,1.94.14,2.84A21.17,21.17,0,0,0,67,76.82a1.53,1.53,0,0,0,1.93.92,10.76,10.76,0,0,0,4.88-2.37,20.83,20.83,0,0,1,1.24,2.1C76.31,80.25,77.48,83.06,78.7,85.94ZM68.37,35.86h5.78L61.31,15.06a3.68,3.68,0,0,0-.25.3C58,20.27,55,25.19,52,30.08A.93.93,0,0,0,52,31.22c1.94,3.1,3.85,6.21,5.77,9.32.17.27.31.55.54,1H52l6.73,10.89a31.19,31.19,0,0,0,2-10.37A32.44,32.44,0,0,0,59,31.59C66.27,35.91,72.21,41,73.61,49.7l2.59-1.14Z"/><path class="b279b23c-74a9-4901-8d05-55f2184c3e8a" d="M30.73,38.68H24.36l14.5-23.49L53.35,38.66H47c.24.43.37.69.53.93,3.08,5,6.14,10,9.25,14.95a1.28,1.28,0,0,1,0,1.76c-.4.47-.74,1-1.21,1.66-1.89-5.91-5.15-10.43-11.13-12.66.34,1.17.67,2.28,1,3.4a13.67,13.67,0,0,1-.55,9.57c-.92,2.1-2,4.15-2.9,6.24a24.42,24.42,0,0,0-2.45,9.68A16.3,16.3,0,0,0,42,83a11,11,0,0,1,.69,1.84H35.24V75.49H14.77l9.86-16H17.88Z"/><path class="b279b23c-74a9-4901-8d05-55f2184c3e8a" d="M78.7,85.94c-1.22-2.88-2.39-5.69-3.61-8.47a20.83,20.83,0,0,0-1.24-2.1A10.76,10.76,0,0,1,69,77.74,1.53,1.53,0,0,1,67,76.82a21.17,21.17,0,0,1-2.44-8.75c-.07-.9-.09-1.8-.14-2.84-7.79,5-13.38,11.58-16.27,20.42-4-3.25-6.24-7.23-5.83-12.41A25.36,25.36,0,0,1,45,64.54c.67-1.42,1.38-2.82,2-4.25a18.64,18.64,0,0,0,1.82-8.72,17.37,17.37,0,0,1,4.55,11.56,16.17,16.17,0,0,0,5.5-5.1A27.69,27.69,0,0,0,63.28,45.2c.22-2.36,0-4.75,0-7.29a19,19,0,0,1,7.76,16.37c4.78-2.84,9.62-5,15.27-4.58a4,4,0,0,1-.16.58,29,29,0,0,0-2.28,17.86,29.87,29.87,0,0,1,.46,9.29C83.78,81.2,81.5,83.85,78.7,85.94Z"/><path class="b279b23c-74a9-4901-8d05-55f2184c3e8a" d="M68.37,35.86l7.83,12.7L73.61,49.7C72.21,41,66.27,35.91,59,31.59A32.44,32.44,0,0,1,60.76,42a31.19,31.19,0,0,1-2,10.37L52,41.52h6.32c-.23-.43-.37-.71-.54-1C55.87,37.43,54,34.32,52,31.22A.93.93,0,0,1,52,30.08c3-4.89,6.07-9.81,9.11-14.72a3.68,3.68,0,0,1,.25-.3l12.84,20.8Z"/></svg>