<svg id="a249760c-d44c-40d2-847f-6f5ee86ad960" data-name="Layer 1" xmlns="http://www.w3.org/2000/svg" viewBox="0 0 100 100"><defs><style>.eb82bc01-2d86-4d3f-bb1a-95daea91210a{fill:red;}</style></defs><title>ICONS CITY</title><path class="eb82bc01-2d86-4d3f-bb1a-95daea91210a" d="M22,80.84l4.66-11.59H20.88L37.14,53.83l.13.07L33.1,65.21h6.07l.16.22C33.65,70.64,27.89,75.78,22.18,81Z"/><path class="eb82bc01-2d86-4d3f-bb1a-95daea91210a" d="M56.31,82.45H37.55a5.91,5.91,0,0,1-1.52,0c-.43-.11-1-.38-1.13-.72A2.37,2.37,0,0,1,35,80c.15-.33.79-.52,1.23-.6a10.1,10.1,0,0,1,1.74,0h7.64c1.74,0,2.34-.6,2.37-2.4,0-1.38,0-2.76,0-4.14,0-2.77,0-5.53,0-8.29a5.88,5.88,0,0,0-1.35-3.82c-2.16-2.84-4.4-5.61-6.65-8.37-1.76-2.17-3.45-4.4-5.24-6.55-1.21-1.45-2.24-3-3.56-4.42-.57-.59-.89-.42-1.39.07a32.56,32.56,0,0,0-4.17,5c-.61.93-1.43,1.73-2.14,2.61-2.23,2.77-4.67,5.38-6.65,8.36a33.81,33.81,0,0,1-2.45,2.92,7.25,7.25,0,0,0-1.75,4.72c0,3.86,0,7.71,0,11.57a6.32,6.32,0,0,0,0,.87,1.87,1.87,0,0,0,2.07,1.83c1.74,0,3.49,0,5.23,0,.71,0,1.28.11,1.43.93s0,1.25-.88,1.69a3,3,0,0,1-1.56.47c-2.18-.07-4.37,0-6.55,0A2.14,2.14,0,0,1,10,80c0-5.81,0-11.63,0-17.45a3,3,0,0,1,.4-1.36,19.17,19.17,0,0,1,2.36-3.61c1.46-1.86,3-3.63,4.37-5.59A44,44,0,0,1,20,48.63c.49-.58,1-1.2,1.39-1.82,1.4-2,3.21-3.66,4.52-5.76a28.17,28.17,0,0,1,3-3.54,3.86,3.86,0,0,1,3.16-1.34q12.33.06,24.65,0A4.14,4.14,0,0,1,60.37,38c1.93,2.64,4,5.19,6,7.76,2.17,2.73,4.2,5.58,6.49,8.22a62.11,62.11,0,0,1,4,4.89,7.66,7.66,0,0,1,1.62,4.34c0,5.45,0,10.9,0,16.36,0,1.92-1,2.91-3,2.92Zm6.58-3H73.12c1.76,0,2.31-.52,2.31-2.24,0-3,0-6,0-8.92,0-1.09,0-2.18,0-3.27a2.14,2.14,0,0,0-2.18-2.15c-.22,0-.44,0-.66,0-6.09,0-12.19,0-18.28,0a20.07,20.07,0,0,0-2.43.52,1.2,1.2,0,0,0-.85.77,18.32,18.32,0,0,0-.45,3.3c-.07,1.81-.07,3.63,0,5.44s-.19,3.37.38,5.06c.49,1.45.31,1.53,1.7,1.53Zm-2-19.18A2.8,2.8,0,0,0,63.19,59a2.65,2.65,0,0,0-1.09-2.72c-.51-.2-.77-.7-1.19-.79-1-.23-2-.89-3.21-.53s-1.23.71-.73,1.79a10.47,10.47,0,0,0,.58,1.27A4,4,0,0,0,60.85,60.22Zm-5.33-7.81c.36-.09.93-.07,1.11-.33a4.58,4.58,0,0,0,.47-1.52c.13-.48-.17-.76-.46-1.11a8,8,0,0,0-3.1-1.9A6,6,0,0,0,52,47.11a1.19,1.19,0,0,0-1.46.87c-.21.57-.52.88,0,1.61C51.83,51.29,53.57,51.89,55.52,52.41Zm-6.44-8.32a14.31,14.31,0,0,1,1.49-.47c.53-.11.48-.4.33-.76a8.35,8.35,0,0,0-5-4,3.2,3.2,0,0,0-1.72.49c-.18.09-.17.63-.18,1a2.64,2.64,0,0,0,1.26,2.28A6.23,6.23,0,0,0,49.08,44.09ZM49.74,55c-2.25,0-2.67.68-1.87,2.33.67,1.37,2.94,2.93,4.39,2.87a2.75,2.75,0,0,0,1.67-.58c.47-.45,0-1-.32-1.48-.13-.23-.27-.46-.39-.7A4.92,4.92,0,0,0,49.74,55ZM43,47.1c-.19,0-.47-.09-.62,0A5,5,0,0,0,41,48.29c-.26.41,0,1,.47,1.29.67.49,1.34,1,2,1.53,1.63,1.38,1.78,1.42,3.66.79.66-.22.77-.56.41-1.31a4.69,4.69,0,0,0-.44-.9C46,48.36,45,47,43,47.1ZM39.75,44a6.3,6.3,0,0,1,.87,0c.74.11.87-.31.76-.89-.06-.33-.21-.63-.3-1-.41-1.45-1.82-1.76-2.83-2.53s-2.06-.31-3.09-.42c-.1,0-.3.16-.3.24,0,.63-.12,1.41.19,1.86C36.17,43,37.55,44.25,39.75,44ZM67.65,55c-1.09,0-1.33.3-1.39,1.4a2.41,2.41,0,0,0,.66,1.71,7.48,7.48,0,0,0,3.51,2.09c.82.33,1.62-.31,2.2-.9s-.34-1.06-.5-1.6a3.15,3.15,0,0,0-1.48-1.54C69.72,55.59,68.85,54.82,67.65,55Zm-6-7.85a4.59,4.59,0,0,1-1.35.41c-.93,0-.73.75-.58,1a7.58,7.58,0,0,0,3.09,3.35,2.22,2.22,0,0,0,3-.28,1.43,1.43,0,0,0,.39-1.12C66,49.17,63.27,47.1,61.69,47.1Zm-4.07-2.9,2.06-.77c-.22-.55-.45-1.09-.67-1.63-.06-.12-.1-.25-.16-.37-.92-1.6-2.17-2.56-4.14-2.2-.66.12-1.75,1.08-1.51,1.48a6.6,6.6,0,0,0,1.65,2.09C55.65,43.34,56.32,44.39,57.62,44.2Z"/><circle class="eb82bc01-2d86-4d3f-bb1a-95daea91210a" cx="72.88" cy="30.69" r="8.35"/><rect class="eb82bc01-2d86-4d3f-bb1a-95daea91210a" x="71.21" y="14.55" width="3.34" height="6.68" rx="1.67"/><rect class="eb82bc01-2d86-4d3f-bb1a-95daea91210a" x="80.29" y="18.32" width="3.34" height="6.68" rx="1.67" transform="translate(39.54 -51.73) rotate(45.17)"/><rect class="eb82bc01-2d86-4d3f-bb1a-95daea91210a" x="84.01" y="27.42" width="3.34" height="6.68" rx="1.67" transform="translate(116.95 -54.73) rotate(90.34)"/><rect class="eb82bc01-2d86-4d3f-bb1a-95daea91210a" x="80.18" y="36.48" width="3.34" height="6.68" rx="1.67" transform="translate(168.14 10.86) rotate(135.51)"/><rect class="eb82bc01-2d86-4d3f-bb1a-95daea91210a" x="71.06" y="40.15" width="3.34" height="6.68" rx="1.67" transform="translate(144.93 87.83) rotate(-179.32)"/><rect class="eb82bc01-2d86-4d3f-bb1a-95daea91210a" x="62.02" y="36.26" width="3.34" height="6.68" rx="1.67" transform="translate(79.65 112.89) rotate(-134.15)"/><rect class="eb82bc01-2d86-4d3f-bb1a-95daea91210a" x="58.41" y="27.12" width="3.34" height="6.68" rx="1.67" transform="translate(28.56 89.99) rotate(-88.98)"/><rect class="eb82bc01-2d86-4d3f-bb1a-95daea91210a" x="62.35" y="18.11" width="3.34" height="6.68" rx="1.67" transform="translate(2.97 50.29) rotate(-43.81)"/></svg>