<svg id="e39798df-b933-44ff-80ca-71a3ecaffe06" data-name="Layer 1" xmlns="http://www.w3.org/2000/svg" viewBox="0 0 100 100"><defs><style>.f0b0b74f-8bfe-4974-99ac-1cc18ec3ede1{fill:red;}</style></defs><title>ICONS CITY</title><path class="f0b0b74f-8bfe-4974-99ac-1cc18ec3ede1" d="M77.65,48.53c-1.26-1.07-2.21-1.78-3.06-2.6-4.29-4.18-8.86-4.1-12.7.39-1.27,1.47-2.65,2.16-4.5,1.65a4.84,4.84,0,0,1-3.47-3.76C51.55,35.06,42.41,31,34,35.46c-1.78.94-3.18,2.59-4.84,4-2-1.1-2.41-2.11-.94-4A26.92,26.92,0,0,1,31.63,32c2.5-2.21,3.57-4.73,2.61-8.12-.9-3.16-.16-4,3-4,5.38,0,10.76,0,16.14,0,3.1,0,3.91,1.31,3,4.34-1.06,3.64,1.08,6.6,2.55,9.57.57,1.16,1.6.37,1.83-.8.4-2.07.64-4.17,1.19-6.19a13.55,13.55,0,0,1,1.65-3A14.42,14.42,0,0,1,65,26.85a51.84,51.84,0,0,1,.62,5.57,2.75,2.75,0,0,0,2.57,2.81c1.7.23,3.39.53,5.09.68a3.85,3.85,0,0,1,3.59,2.54A15.5,15.5,0,0,1,77.65,48.53ZM55.5,34.72c-.78-2.57-1.41-4.4-1.89-6.27A4.27,4.27,0,0,0,49.46,25c-2.4-.17-4.82-.19-7.22-.14s-3.13,1.51-2.89,4.56c.18,2.21,1.87,1.75,3.16,1.62,3.87-.38,7.42.17,10.48,2.8A9.17,9.17,0,0,0,55.5,34.72Z"/><path class="f0b0b74f-8bfe-4974-99ac-1cc18ec3ede1" d="M16.93,61.62,33.28,69.4l-8.75,4.8.34,1a15.68,15.68,0,0,0,3.88-.06c2.55-.67,5-1.59,7.51-2.51,6.85-2.56,13.67-5.17,20.51-7.74a2.91,2.91,0,0,1,1.84-.11c-9.74,3.75-19.35,7.69-27.77,14.09,1.42,1.21,4,1.25,6.57,0,4.1-2.06,8.16-4.21,12.2-6.4A116.28,116.28,0,0,1,79.22,61.37a5.61,5.61,0,0,1,3.13.11c-1.44.52-2.86,1.09-4.31,1.57C67.5,66.54,57.23,70.59,48.7,78c-2.4,2.1-4.57,4.48-7,6.53a3.87,3.87,0,0,1-3.08.7C26.18,81.26,17.51,73,11.78,61.4a5,5,0,0,1-.27-1.08c3.19-1.48,24.18,3.9,27.13,7.33a14.44,14.44,0,0,1-3.39-.19C30,65.62,24.72,63.67,19.46,61.78c-.76-.27-1.55-.46-2.33-.68Z"/><path class="f0b0b74f-8bfe-4974-99ac-1cc18ec3ede1" d="M62.42,86.36c6.59-13,18.21-18.9,30.77-24.84a25.66,25.66,0,0,1-1.54,4.23C87.38,72.91,81,77.89,74.05,82.16A26.43,26.43,0,0,1,62.42,86.36Z"/><path class="f0b0b74f-8bfe-4974-99ac-1cc18ec3ede1" d="M40.86,58.71A11.56,11.56,0,1,1,52.33,47.2,11.59,11.59,0,0,1,40.86,58.71Zm8.78-11.44a8.87,8.87,0,1,0-9,8.78A8.82,8.82,0,0,0,49.64,47.27Z"/><path class="f0b0b74f-8bfe-4974-99ac-1cc18ec3ede1" d="M43.7,86.11c7.74-2.3,12.16-8.85,18.37-12.92A93.47,93.47,0,0,1,84.75,62.46a3.93,3.93,0,0,1,.9-.21c.11,0,.25.12.73.39-1,.53-1.88,1-2.74,1.41C77,67.26,70.22,70.38,64.84,75.59a65.17,65.17,0,0,0-7.3,8.74c-2.21,3.07-3.72,3.93-7.45,3.27-1.91-.33-3.83-.61-5.73-.94C44.22,86.64,44.12,86.47,43.7,86.11Z"/><path class="f0b0b74f-8bfe-4974-99ac-1cc18ec3ede1" d="M75.45,52.16A6.64,6.64,0,1,1,69,45.32,6.69,6.69,0,0,1,75.45,52.16Zm-6.77,4.48A4.64,4.64,0,0,0,73.52,52,4.76,4.76,0,0,0,69,47.34,4.67,4.67,0,0,0,64.16,52,4.54,4.54,0,0,0,68.68,56.64Z"/><path class="f0b0b74f-8bfe-4974-99ac-1cc18ec3ede1" d="M24,59.77c4.9,0,20.24,3.54,21.74,5.24a8,8,0,0,1-2.56.29c-6.3-1.58-12.58-3.26-18.87-4.92C24.17,60.35,24.13,60.13,24,59.77Z"/><path class="f0b0b74f-8bfe-4974-99ac-1cc18ec3ede1" d="M52.11,60.47c2.87-1.29,4.87-.83,6.68,1.45Z"/><path class="f0b0b74f-8bfe-4974-99ac-1cc18ec3ede1" d="M50.88,63.4l-7.15-1.8.14-.66,7.24,1.41Z"/><path class="f0b0b74f-8bfe-4974-99ac-1cc18ec3ede1" d="M46.82,47.06a6.05,6.05,0,0,1-12.1.32,6.19,6.19,0,0,1,5.9-6.28A6.11,6.11,0,0,1,46.82,47.06Z"/><path class="f0b0b74f-8bfe-4974-99ac-1cc18ec3ede1" d="M71.43,51.94c-.1,1.64-.88,2.68-2.59,2.68S66,53.53,66.26,52a3.9,3.9,0,0,1,2.43-2.44C70.33,49.11,71.19,50.37,71.43,51.94Z"/></svg>