<svg id="a0064c0d-6a8f-4f77-9661-886dd1acc8e3" data-name="Layer 1" xmlns="http://www.w3.org/2000/svg" viewBox="0 0 100 100"><defs><style>.a5a29ad1-8e82-43c9-a7c3-1924d4dd76c5{fill:red;}</style></defs><title>ICONS CITY</title><path class="a5a29ad1-8e82-43c9-a7c3-1924d4dd76c5" d="M78.64,87.91c-.94-.49-2.13-.77-2.76-1.53-2.49-3-4.89-6.06-7.14-9.23a6.69,6.69,0,0,1-1-3.5c-.11-3.69,0-7.39,0-11.08A10.11,10.11,0,0,0,61.91,53c0,3.42-.1,6.75.08,10.06,0,.82,1,1.61,1.62,2.38.75,1,2,1.91.61,3.18s-2.32.13-3.22-.76c-2.34-2.33-4.65-4.68-7-7-.19-.18-.36-.51-.56-.53-.76-.1-1.77-.41-2.22,0a2.21,2.21,0,0,0-.14,2.13c1.7,2.67,3.54,5.24,5.4,7.8a9.84,9.84,0,0,1,2,6.47,11.54,11.54,0,0,0,2.63,8.09c.81,1,1.19,2,0,2.9s-2,.16-2.64-.76a14,14,0,0,1-1.88-2.77c-.72-1.77-1.94-2.23-3.73-2.21-6,.07-12,0-18,0-4.4,0-6.85-1.49-7.77-4.74a14,14,0,0,1-.38-3.72q0-15.44,0-30.89c0-6,2.43-8.36,8.45-8.34s12,0,18,0a19.59,19.59,0,0,1,3.15.26c3.54.6,5.36,2.82,5.39,6.45a28.55,28.55,0,0,0,.18,4.54,9.48,9.48,0,0,0,4.28,6.16,11.57,11.57,0,0,1,5.06,10.18c0,3.37-.2,6.75.06,10.09A11.71,11.71,0,0,0,73.06,77c1.45,2.34,3.4,4.37,5,6.66a17,17,0,0,1,1.42,3.54ZM58.28,60.15c0-6.76.11-13.13-.06-19.49,0-2.25-1.17-2.94-3.61-2.95q-10.3,0-20.59,0c-2.77,0-3.92,1.16-3.94,4q-.06,16.34,0,32.66c0,3.1,1.16,4.1,4.25,4.11H51.75c3.14,0,4.12-1.32,3.11-4.36a9.32,9.32,0,0,0-1.26-2.23c-1.79-2.61-3.64-5.17-5.41-7.8a4.7,4.7,0,0,1,.54-6.45,4.84,4.84,0,0,1,6.65-.14C56.3,58.26,57.13,59.11,58.28,60.15Z"/><path class="a5a29ad1-8e82-43c9-a7c3-1924d4dd76c5" d="M24.29,20.6c5-5.3,11.17-7.71,18.18-8.22a27.07,27.07,0,0,1,19.79,6.4c.8.66,2.67,1.06,1.42,2.81s-2.37,1-3.65-.05a25.35,25.35,0,0,0-11.14-5.26c-7.67-1.48-14.47.48-20.56,5.25C26.22,23.19,26,23.12,24.29,20.6Z"/><path class="a5a29ad1-8e82-43c9-a7c3-1924d4dd76c5" d="M59.87,25.23c-.54.58-.95,1.39-1.52,1.52a3.85,3.85,0,0,1-2.3-.41c-2.47-1.19-4.76-2.93-7.35-3.64a17.4,17.4,0,0,0-16.12,3.54c-.92.73-1.72,1.22-2.77.31s-1.11-1.63-.08-2.61c7.49-7.09,21.61-7,29.16.14A13.51,13.51,0,0,1,59.87,25.23Z"/><path class="a5a29ad1-8e82-43c9-a7c3-1924d4dd76c5" d="M55.6,30c-1.3,1.63-2.5,2-4.37.68-4.67-3.24-9.49-3.18-14.16.14-1.13.79-2,1.08-3.1,0-.71-.77-.81-1.36,0-2.17C39.47,23.16,50.7,23.8,55.6,30Z"/><path class="a5a29ad1-8e82-43c9-a7c3-1924d4dd76c5" d="M38,47c-2.11-1.3-2.13-1.56-.17-3.56C40,45.17,40,45.42,38,47Z"/><path class="a5a29ad1-8e82-43c9-a7c3-1924d4dd76c5" d="M49,45.44c1.55-1.95,1.67-1.95,3.67,0C50.85,47.52,50.48,47.53,49,45.44Z"/><circle class="a5a29ad1-8e82-43c9-a7c3-1924d4dd76c5" cx="38" cy="45" r="2"/><circle class="a5a29ad1-8e82-43c9-a7c3-1924d4dd76c5" cx="44.5" cy="45" r="2"/><circle class="a5a29ad1-8e82-43c9-a7c3-1924d4dd76c5" cx="51" cy="45" r="2"/><circle class="a5a29ad1-8e82-43c9-a7c3-1924d4dd76c5" cx="38" cy="53" r="2"/><circle class="a5a29ad1-8e82-43c9-a7c3-1924d4dd76c5" cx="44.5" cy="53" r="2"/><circle class="a5a29ad1-8e82-43c9-a7c3-1924d4dd76c5" cx="38" cy="61" r="2"/><circle class="a5a29ad1-8e82-43c9-a7c3-1924d4dd76c5" cx="44.5" cy="61" r="2"/><circle class="a5a29ad1-8e82-43c9-a7c3-1924d4dd76c5" cx="38" cy="68" r="2"/><circle class="a5a29ad1-8e82-43c9-a7c3-1924d4dd76c5" cx="44.5" cy="68" r="2"/><circle class="a5a29ad1-8e82-43c9-a7c3-1924d4dd76c5" cx="51" cy="53" r="2"/></svg>