<svg xmlns="http://www.w3.org/2000/svg" viewBox="0 0 1280 1024" role="img">
  <path fill="#f32735" d="M1280 896H0a725.333 725.333 0 01117.867-323.733A597.333 597.333 0 01313.067 384l21.866-12.267L227.2 189.867a27.2 27.2 0 019.067-37.334 26.667 26.667 0 0136.57 9.21q.117.194.23.39L384 348.8a673.067 673.067 0 01258.133-48 650.667 650.667 0 01253.334 48l110.4-186.667a26.667 26.667 0 0136.472-9.59q.435.253.861.524a27.2 27.2 0 018.533 37.333L944 372.8l26.667 14.933a606.933 606.933 0 01193.6 193.067A772.267 772.267 0 011280 896zM880 657.067a53.333 53.333 0 1053.333-53.334A53.333 53.333 0 00880 657.067zm-586.667 0a53.333 53.333 0 1053.334-53.334 53.333 53.333 0 00-53.334 53.334z"/>
</svg>