<?xml version="1.0" encoding="utf-8"?>
<!-- Generator: Adobe Illustrator 16.0.0, SVG Export Plug-In . SVG Version: 6.00 Build 0)  -->
<!DOCTYPE svg PUBLIC "-//W3C//DTD SVG 1.1//EN" "http://www.w3.org/Graphics/SVG/1.1/DTD/svg11.dtd">
<svg version="1.1" id="Capa_1" xmlns="http://www.w3.org/2000/svg" xmlns:xlink="http://www.w3.org/1999/xlink" x="0px" y="0px"
	 width="451.283px" height="454.784px" viewBox="0 0 451.283 454.784" enable-background="new 0 0 451.283 454.784"
	 xml:space="preserve">
<g>
	<defs>
		<rect id="SVGID_1_" width="451.283" height="454.784"/>
	</defs>
	<clipPath id="SVGID_2_">
		<use xlink:href="#SVGID_1_"  overflow="visible"/>
	</clipPath>
	<path clip-path="url(#SVGID_2_)" d="M299.616,405.465c-10.842,4.527-22.134,8.094-33.946,10.68
		c8.871-10.959,17.896-21.202,26.045-31.971l-11.11-29.934c-12.007,18.708-26.274,35.408-43.269,51.015
		c-1.068-12.289-0.412-23.457-0.538-34.59c-0.128-11.292-0.028-22.586-0.028-34.528h37.118l-9.992-26.922h-26.773v-71.746h81.734
		c-0.577,11.821-2.104,23.371-4.478,34.745l25.088,9.311c3.253-14.566,5.359-29.291,6.181-44.389h74.551
		c-1.491,24.033-7.409,46.424-17.109,68l24.94,9.256c12.326-27.748,19.23-58.536,19.301-91.076
		C446.79,98.792,345.123-1.882,220.02,0.027C100.143,1.854-0.107,99.167,0,223.979c0.107,123.932,101.221,224.701,226.221,223.312
		c29.195-0.323,57.103-6.277,82.67-16.837L299.616,405.465z M210.046,42.833v68.265h-53.087
		C160.297,97.459,195.06,52.616,210.046,42.833 M130.499,49.881c17.363-9.428,43.704-18.644,50.127-17.895
		c-9.933,12.323-20.678,24.382-29.93,37.495c-9.171,12.999-16.837,27.06-25.624,41.409H62.187
		C80.77,84.638,103.305,64.647,130.499,49.881 M46.107,138.481h69.181c-7.575,23.573-12.267,47.11-13.647,72.01
		c-24.807,0.239-49.337,0.125-73.737,0.065C25.5,199.903,34.865,158.584,46.107,138.481 M27.098,237.354h74.069
		c1.647,12.197,2.773,24.255,5.019,36.1c2.243,11.835,5.606,23.456,8.476,35.162c-3.725,1.234-62.195,1.532-68.637,0.276
		C35.242,286.679,29.014,262.996,27.098,237.354 M114.397,387.627c-20.384-13.634-37.593-30.508-52.498-51.585h64.299
		c13.886,29.504,32.369,55.728,54.966,79.345C156.877,410.813,134.784,401.263,114.397,387.627 M128.395,237.235h81.617v71.825
		h-66.287C134.92,285.914,129.814,262.227,128.395,237.235 M209.382,404.782c-21.771-19.938-39.319-42.229-52.938-67.788
		c4.097-1.356,47.247-1.675,53.02-0.545C210.726,340.289,210.866,399.319,209.382,404.782 M209.681,210.063
		c-26.857,0.329-53.862,0.104-81.392,0.102c1.37-25.274,6.618-48.964,15.398-72.149h65.532
		C210.681,141.691,211.131,202.022,209.681,210.063 M420.212,210.101H345.6c-1.465-24.47-5.904-48.05-13.49-70.947
		c3.981-1.526,60.074-2.029,69.083-0.677C412.003,160.801,418.477,184.559,420.212,210.101 M384.478,109.979
		c-0.186,0.426-0.374,0.852-0.56,1.278h-62.943c-13.91-29.643-32.489-55.832-54.995-79.446
		C315.649,42.738,354.834,69.19,384.478,109.979 M237.199,43.097c14.443,9.345,44.461,47.012,53.221,67.303
		c-3.512,1.388-47.341,1.664-53.221,0.235V43.097z M237.332,138.928c3.466-1.255,57.944-1.722,66.142-0.483
		c8.905,22.67,13.696,46.429,15.451,71.693H237.92C236.545,206.528,236.089,146.045,237.332,138.928"/>
	<path clip-path="url(#SVGID_2_)" d="M275.527,278.96c53.671,19.918,107.342,39.836,161.885,60.077
		c-15.758,9.176-30.754,17.906-45.743,26.635c20.092,19.917,40.021,39.672,59.614,59.095c-10.715,10.506-20.399,20.004-30.61,30.017
		c-18.773-19.039-38.581-39.126-58.901-59.734c-9.449,16.227-18.203,31.263-27.396,47.051
		c-20.243-54.546-40.197-108.316-60.152-162.085C274.659,279.662,275.092,279.312,275.527,278.96"/>
</g>
</svg>
