<?xml version="1.0" encoding="utf-8"?>
<!-- Generator: Adobe Illustrator 16.0.0, SVG Export Plug-In . SVG Version: 6.00 Build 0)  -->
<!DOCTYPE svg PUBLIC "-//W3C//DTD SVG 1.1//EN" "http://www.w3.org/Graphics/SVG/1.1/DTD/svg11.dtd">
<svg version="1.1" id="Capa_1" xmlns="http://www.w3.org/2000/svg" xmlns:xlink="http://www.w3.org/1999/xlink" x="0px" y="0px"
	 width="167.748px" height="167.196px" viewBox="0 0 167.748 167.196" enable-background="new 0 0 167.748 167.196"
	 xml:space="preserve">
<g>
	<defs>
		<rect id="SVGID_1_" width="167.748" height="167.196"/>
	</defs>
	<clipPath id="SVGID_2_">
		<use xlink:href="#SVGID_1_"  overflow="visible"/>
	</clipPath>
	<path clip-path="url(#SVGID_2_)" d="M82.498,167.193c-13.826,0.002-27.651,0-41.477,0.003c-8.625,0.001-16.897-1.22-24.244-6.287
		C5.988,153.463,0.294,143.228,0.11,130.174c-0.209-14.822-0.057-29.65-0.056-44.474c0.001-15.66-0.034-31.317,0.024-46.976
		C0.163,15.948,16.058,0.043,38.801,0.018c30.316-0.033,60.633-0.022,90.949,0.039c21.762,0.044,37.961,16.179,37.984,37.876
		c0.033,30.316,0.01,60.633-0.101,90.949c-0.081,22.093-16.084,38.068-38.162,38.307c-0.333,0.004-0.666,0.003-1,0.003
		C113.148,167.192,97.822,167.192,82.498,167.193 M84.294,67.621c-18.974-0.939-34.088-9.564-46.967-23.492
		c-5.299,11.897-2.544,21.388,5.466,30.295c-2.533-0.572-5.066-1.144-8.145-1.839c0.245,11.124,6.596,17.323,15.58,22.267
		c-2.319,0.299-4.636,0.599-7.355,0.948c3.749,9.177,10.731,13.462,20.501,15.247c-9.662,7.512-19.927,9.849-30.986,9.874
		c0.245,0.596,0.279,1.005,0.485,1.131c21.444,13.121,53.817,10.733,73.211-5.57c15.191-12.77,23.469-29.121,24.396-49.017
		c0.163-3.49,0.737-6.324,3.879-8.588c2.511-1.81,4.374-4.517,7.287-7.642c-4.354,1.009-7.361,1.706-10.369,2.404
		c2.194-3.782,5.7-6.244,6.637-10.937c-4.642,1.475-8.964,2.848-12.979,4.125C110.47,32.472,82.872,39.964,84.294,67.621"/>
</g>
</svg>
