<?xml version="1.0" encoding="utf-8"?>
<!-- Generator: Adobe Illustrator 16.0.0, SVG Export Plug-In . SVG Version: 6.00 Build 0)  -->
<!DOCTYPE svg PUBLIC "-//W3C//DTD SVG 1.1//EN" "http://www.w3.org/Graphics/SVG/1.1/DTD/svg11.dtd">
<svg version="1.1" id="Capa_1" xmlns="http://www.w3.org/2000/svg" xmlns:xlink="http://www.w3.org/1999/xlink" x="0px" y="0px"
	 width="167.774px" height="167.365px" viewBox="0 0 167.774 167.365" enable-background="new 0 0 167.774 167.365"
	 xml:space="preserve">
<g>
	<defs>
		<rect id="SVGID_1_" width="167.774" height="167.365"/>
	</defs>
	<clipPath id="SVGID_2_">
		<use xlink:href="#SVGID_1_"  overflow="visible"/>
	</clipPath>
	<path clip-path="url(#SVGID_2_)" d="M89.791,77.706H68.805v24.279c6.872,1.43,13.912-0.157,21.057,1.105v63.858
		c-1.953,0.135-3.558,0.338-5.164,0.342c-15.33,0.04-30.66,0.118-45.989,0.042c-21.62-0.106-37.99-15.638-38.299-37.205
		C-0.042,98.475-0.104,66.81,0.146,35.153C0.297,15.947,17.023,0.241,36.729,0.077C53.391-0.062,70.054,0.031,86.718,0.03
		c14.496-0.002,28.992-0.072,43.488,0.031c18.339,0.131,33.314,12.549,36.895,30.518c0.419,2.104,0.534,4.298,0.54,6.451
		c0.073,30.659,0.142,61.319,0.132,91.978c-0.006,21.703-15.365,37.522-37.105,38.269c-4.624,0.159-9.259,0.022-13.688,0.022
		c-1.246-4.261-1.685-53.965-0.679-64.504h20.492c2.088-8.405,2.72-16.396,3.473-25.002h-24.135
		c-0.648-7.304-0.832-14.087-0.005-20.84c0.47-3.819,2.855-6.449,6.777-7.009c3.606-0.515,7.271-0.646,10.915-0.839
		c2.148-0.114,4.307-0.021,6.593-0.021c1.438-3.771,0.54-7.439,0.693-11.012c0.147-3.48,0.032-6.97,0.032-10.769
		c-1.566-0.275-2.825-0.672-4.092-0.689c-7.147-0.097-14.366-0.758-21.43,0.001c-13.854,1.488-23.419,11.273-24.95,25.178
		c-0.727,6.594-0.393,13.305-0.563,19.962C90.056,73.545,89.918,75.334,89.791,77.706"/>
</g>
</svg>
