<?xml version="1.0" encoding="utf-8"?>
<!-- Generator: Adobe Illustrator 16.0.0, SVG Export Plug-In . SVG Version: 6.00 Build 0)  -->
<!DOCTYPE svg PUBLIC "-//W3C//DTD SVG 1.1//EN" "http://www.w3.org/Graphics/SVG/1.1/DTD/svg11.dtd">
<svg version="1.1" id="Capa_1" xmlns="http://www.w3.org/2000/svg" xmlns:xlink="http://www.w3.org/1999/xlink" x="0px" y="0px"
	 width="167.755px" height="167.364px" viewBox="0 0 167.755 167.364" enable-background="new 0 0 167.755 167.364"
	 xml:space="preserve">
<g>
	<defs>
		<rect id="SVGID_1_" width="167.755" height="167.364"/>
	</defs>
	<clipPath id="SVGID_2_">
		<use xlink:href="#SVGID_1_"  overflow="visible"/>
	</clipPath>
	<path clip-path="url(#SVGID_2_)" d="M83.819,0.031c15.491-0.002,30.982-0.08,46.473,0.017c18.542,0.116,33.67,12.902,36.82,31.063
		c0.422,2.44,0.437,4.972,0.439,7.462c0.029,29.983-0.426,59.976,0.196,89.945c0.359,17.306-12.635,38.495-37.899,38.666
		c-30.814,0.208-61.633,0.26-92.446,0.024c-21.097-0.16-37.142-16.57-37.246-37.711C0.004,98.85-0.043,68.2,0.042,37.552
		C0.101,16.134,16.353,0.119,37.846,0.044C53.169-0.01,68.495,0.033,83.819,0.031 M84.264,145.113c0-0.007-0.001-0.013-0.001-0.02
		c9.327,0,18.666,0.309,27.977-0.079c11.415-0.477,20.97-5.003,27.562-14.719c3.55-5.231,5.379-11.175,5.58-17.397
		c0.43-13.314,0.587-26.641,0.608-39.963c0.011-6.65-0.166-13.34-0.881-19.944c-1.879-17.357-13.802-28.981-31.091-30.291
		c-19.964-1.514-39.968-1.4-59.928-0.032c-11.037,0.757-20.131,5.648-26.232,15.206c-3.484,5.458-5.248,11.593-5.302,17.998
		c-0.157,18.653-0.105,37.309,0.057,55.961c0.027,3.112,0.723,6.3,1.604,9.308c4.189,14.302,15.776,23.223,31.568,23.897
		C65.262,145.444,74.77,145.113,84.264,145.113"/>
	<path clip-path="url(#SVGID_2_)" d="M84.054,33.066c7.996,0,15.992-0.061,23.986,0.036c2.483,0.03,4.993,0.319,7.438,0.778
		c11.257,2.116,18.131,9.338,18.921,20.728c1.337,19.286,1.465,38.611,0.072,57.903c-0.877,12.167-7.87,19.438-20.002,21.313
		c-3.113,0.48-6.295,0.719-9.447,0.728c-15.156,0.043-30.322,0.31-45.466-0.152c-17.878-0.544-25.975-8.962-26.321-26.921
		c-0.292-15.152-0.198-30.313-0.142-45.471c0.012-3.312,0.423-6.646,0.935-9.925c1.441-9.241,7.889-16.076,17.133-17.908
		c3.732-0.74,7.594-1.031,11.406-1.122c7.159-0.171,14.325-0.049,21.487-0.049V33.066z M83.609,115.408
		c17.789,0.227,32.177-13.885,32.271-31.648c0.09-17.109-14.1-31.363-31.396-31.538c-17.882-0.181-31.813,13.333-32.098,31.137
		C52.104,100.971,65.95,115.183,83.609,115.408 M124.406,50.759c0.028-4.16-3.061-7.232-7.235-7.199
		c-4.17,0.033-7.194,3.168-7.099,7.358c0.086,3.813,3.25,7.022,6.991,7.09C121.021,58.08,124.379,54.765,124.406,50.759"/>
	<path clip-path="url(#SVGID_2_)" d="M104.72,84.346c0.567,9.225-7.954,20.5-20.943,20.255c-11.696-0.221-20.91-9.797-20.574-21.312
		c0.335-11.467,9.632-20.382,21.1-20.234C96.031,63.208,104.917,72.473,104.72,84.346"/>
</g>
</svg>
