<?xml version="1.0" encoding="utf-8"?>
<!-- Generator: Adobe Illustrator 16.0.0, SVG Export Plug-In . SVG Version: 6.00 Build 0)  -->
<!DOCTYPE svg PUBLIC "-//W3C//DTD SVG 1.1//EN" "http://www.w3.org/Graphics/SVG/1.1/DTD/svg11.dtd">
<svg version="1.1" id="Capa_1" xmlns="http://www.w3.org/2000/svg" xmlns:xlink="http://www.w3.org/1999/xlink" x="0px" y="0px"
	 width="167.535px" height="167.06px" viewBox="0 0 167.535 167.06" enable-background="new 0 0 167.535 167.06"
	 xml:space="preserve">
<g>
	<defs>
		<rect id="SVGID_1_" width="167.535" height="167.06"/>
	</defs>
	<clipPath id="SVGID_2_">
		<use xlink:href="#SVGID_1_"  overflow="visible"/>
	</clipPath>
	<path clip-path="url(#SVGID_2_)" d="M83.997,0.019c14.989,0,29.978-0.049,44.965,0.012c22.085,0.09,38.321,15.935,38.454,37.971
		c0.188,30.629,0.132,61.26-0.023,91.889c-0.101,19.614-14.721,35.134-34.332,36.876c-1.821,0.162-3.655,0.262-5.484,0.263
		c-29.478,0.015-58.955-0.045-88.432,0.03c-12.984,0.033-23.723-4.553-31.719-14.909c-4.704-6.092-7.352-13.038-7.361-20.808
		C0.028,99.535-0.073,67.725,0.089,35.917C0.188,16.582,16.706,0.413,36.535,0.134c15.818-0.223,31.641-0.045,47.462-0.045V0.019z
		 M89.769,141.621c0.108-2.267,0.265-4.058,0.27-5.849c0.044-12.165-0.094-24.333,0.178-36.491c0.076-3.405,0.848-6.989,2.16-10.131
		c2.277-5.44,8.315-7.951,15.666-7.25c3.852,0.367,8.396,4.138,9.114,8.842c0.895,5.858,1.073,11.86,1.142,17.805
		c0.124,10.635-0.068,21.274-0.102,31.912c-0.001,0.279,0.314,0.561,0.664,1.143h23.242c0.182-1.585,0.466-2.875,0.458-4.162
		c-0.095-14.993-0.077-29.99-0.451-44.977c-0.112-4.444-0.902-8.997-2.196-13.251c-1.433-4.712-3.06-9.623-7.197-12.864
		c-11.701-9.17-30.521-7.65-40.613,3.162c-0.691,0.741-1.513,1.363-2.763,2.477c-0.209-3.499-0.374-6.254-0.546-9.128H66.141
		c-1.169,5.36-1.02,74.591,0.18,78.761H89.769z M25.485,62.79c-1.211,6.809-0.863,75.312,0.431,79.1
		c7.599,0.093,15.331,0.09,22.934,0.016c1.164-7.473,0.793-75.375-0.382-79.116H25.485z M37.266,23.182
		c-8.073-0.098-14.325,5.999-14.374,14.016c-0.047,7.61,6.239,13.94,13.913,14.008c8.265,0.074,14.402-5.74,14.562-13.794
		C51.526,29.385,45.478,23.281,37.266,23.182"/>
</g>
</svg>
