<?xml version="1.0" encoding="utf-8"?>
<!-- Generator: Adobe Illustrator 19.1.0, SVG Export Plug-In . SVG Version: 6.00 Build 0)  -->
<svg version="1.1" id="Capa_1" xmlns="http://www.w3.org/2000/svg" xmlns:xlink="http://www.w3.org/1999/xlink" x="0px" y="0px"
	 width="623.622px" height="93.459px" viewBox="0 0 623.622 93.459" enable-background="new 0 0 623.622 93.459"
	 xml:space="preserve">
<g>
	<g>
		<g>
			<path fill="#2A2A2A" d="M158.642,32.14c-1.506-1.925-3.71-3.533-6.549-4.777c-2.846-1.247-7.587-2.397-12.166-3.419
				c-4.336-0.973-7.455-2.04-9.269-3.172c-1.838-1.146-2.771-2.812-2.771-4.951c0-2.544,1.048-4.558,3.115-5.988
				c2.053-1.419,4.882-2.138,8.407-2.138c4.497,0,9.788,1.304,14.547,3.582V3.19c-1.115-0.525-2.504-1.084-3.646-1.464
				C146.875,0.581,143.207,0,139.411,0c-4.153,0-7.869,0.709-11.046,2.108c-3.172,1.396-5.661,3.365-7.398,5.85
				c-1.736,2.483-2.617,5.336-2.617,8.479c0,3.04,0.724,5.581,2.15,7.554c1.429,1.977,3.579,3.622,6.392,4.889
				c2.825,1.275,6.549,2.413,11.07,3.38c4.387,0.974,8.547,2.015,10.437,3.093c1.919,1.096,2.891,2.711,2.891,4.8
				c0,2.393-1.049,4.278-3.119,5.605c-2.053,1.315-5.988,1.982-9.769,1.982c-3.411,0-6.62-0.468-9.539-1.392
				c-2.784-0.88-7.344-3.48-10.036-5.485v9.203c1.939,1.237,4.848,2.791,7.74,3.679c3.645,1.121,7.601,1.688,11.757,1.688
				c4.411,0,9.276-0.658,12.532-1.955c3.247-1.294,5.76-3.171,7.472-5.579c1.71-2.407,2.577-5.246,2.577-8.44
				C160.906,36.524,160.144,34.061,158.642,32.14z"/>
		</g>
		<polygon fill="#2A2A2A" points="207.796,43.017 196.958,11.289 190.815,11.289 179.674,42.839 169.078,11.289 160.266,11.289 
			175.882,55.353 182.89,55.353 193.667,24.887 204.384,55.353 211.392,55.353 227.072,11.289 218.694,11.289 		"/>
		<rect x="233.386" y="11.289" fill="#2A2A2A" width="8.702" height="44.064"/>
		<path fill="#2A2A2A" d="M277.333,32.627c-2.302-1.008-5.336-1.937-9.018-2.758c-3.413-0.766-5.856-1.599-7.263-2.476
			c-1.346-0.839-2.001-2.008-2.001-3.573c0-1.902,0.75-3.345,2.295-4.412c1.563-1.081,3.736-1.629,6.459-1.629
			c3.516,0,7.837,1.078,11.558,2.882l0.51,0.247v-7.46l-0.203-0.096c-0.914-0.433-2.07-0.899-3.016-1.215
			c-2.791-0.93-5.768-1.401-8.848-1.401c-3.379,0-6.409,0.579-9.003,1.721c-2.611,1.15-4.662,2.773-6.096,4.826
			c-1.44,2.06-2.171,4.425-2.171,7.029c0,2.525,0.606,4.643,1.803,6.296c1.188,1.643,2.966,3.006,5.284,4.051
			c2.285,1.032,5.29,1.95,8.93,2.729c3.459,0.768,5.958,1.582,7.429,2.421c1.401,0.801,2.083,1.927,2.083,3.443
			c0,1.773-0.747,3.113-2.284,4.098c-1.566,1.003-3.847,1.512-6.779,1.512c-2.678,0-5.171-0.45-7.483-1.09
			c-3.004-0.832-7.864-3.81-7.864-3.81l0.007,8.001l0.163,0.104c1.598,1.025,3.218,1.741,5.592,2.471
			c2.954,0.908,6.157,1.368,9.522,1.368c3.581,0,6.742-0.536,9.394-1.594c2.675-1.066,4.75-2.618,6.168-4.613
			c1.421-2,2.142-4.355,2.142-7c0-2.446-0.64-4.505-1.903-6.122C281.487,34.98,279.669,33.651,277.333,32.627z"/>
		<path fill="#2A2A2A" d="M318.414,32.627c-2.302-1.008-5.336-1.937-9.018-2.758c-3.413-0.766-5.856-1.599-7.263-2.476
			c-1.346-0.839-2.001-2.008-2.001-3.573c0-1.902,0.75-3.345,2.295-4.412c1.563-1.081,3.736-1.629,6.459-1.629
			c3.516,0,7.837,1.078,11.558,2.882l0.51,0.247v-7.46l-0.203-0.096c-0.914-0.433-2.07-0.899-3.016-1.215
			c-2.791-0.93-5.768-1.401-8.848-1.401c-3.379,0-6.409,0.579-9.003,1.721c-2.611,1.15-4.662,2.773-6.096,4.826
			c-1.44,2.06-2.171,4.425-2.171,7.029c0,2.525,0.606,4.643,1.803,6.296c1.188,1.643,2.966,3.006,5.284,4.051
			c2.285,1.032,5.29,1.95,8.93,2.729c3.459,0.768,5.958,1.582,7.429,2.421c1.401,0.801,2.083,1.927,2.083,3.443
			c0,1.773-0.747,3.113-2.284,4.098c-1.566,1.003-3.847,1.512-6.779,1.512c-2.678,0-5.171-0.45-7.483-1.09
			c-3.004-0.832-7.864-3.81-7.864-3.81l0.007,8.001l0.163,0.104c1.598,1.025,3.218,1.741,5.592,2.471
			c2.954,0.908,6.157,1.368,9.522,1.368c3.581,0,6.742-0.536,9.394-1.594c2.675-1.066,4.75-2.618,6.168-4.613
			c1.421-2,2.142-4.355,2.142-7c0-2.446-0.64-4.505-1.903-6.122C322.568,34.98,320.75,33.651,318.414,32.627z"/>
		<polygon fill="#2A2A2A" points="371.194,39.233 356.414,11.289 349.526,11.289 349.526,55.353 357.3,55.353 357.24,28.051 
			368.257,48.342 374.009,48.342 384.966,27.762 384.966,55.353 392.739,55.353 392.739,11.289 385.912,11.289 		"/>
		<polygon fill="#2A2A2A" points="401.292,55.353 431.247,55.353 431.247,48.37 409.809,48.37 409.809,36.412 430.007,36.412 
			430.007,29.491 409.809,29.491 409.809,18.271 431.247,18.271 431.247,11.289 401.292,11.289 		"/>
		<path fill="#2A2A2A" d="M454.945,11.289H438.48v44.064h16.464c7.207,0,12.887-1.958,16.883-5.819
			c3.998-3.864,6.025-9.33,6.025-16.244c0-6.914-2.028-12.369-6.026-16.214C467.831,13.236,462.151,11.289,454.945,11.289z
			 M447.183,18.455h7.267c9.892,0,14.701,4.852,14.701,14.834c0,10.024-4.808,14.896-14.701,14.896h-7.267V18.455z"/>
		<rect x="484.853" y="11.289" fill="#2A2A2A" width="8.702" height="44.064"/>
		<path fill="#2A2A2A" d="M522.05,17.902c2.135,0,5.028,0.533,6.956,1.134c3.587,1.119,5.471,2.118,5.471,2.118l-0.059-7.64
			c0,0-2.221-1.039-4.102-1.597c-3.029-0.899-5.431-1.181-8.389-1.181c-4.337,0-8.18,0.936-11.421,2.783
			c-3.248,1.851-5.776,4.507-7.513,7.895c-1.732,3.376-2.61,7.372-2.61,11.877c0,4.506,0.878,8.512,2.61,11.907
			c1.737,3.41,4.265,6.077,7.514,7.926c3.239,1.847,7.081,2.783,11.421,2.783c7.475,0,12.49-2.778,12.49-2.778l0.076-7.64
			c0,0-6.558,3.285-12.442,3.252c-4.084-0.023-7.276-1.323-9.487-3.934c-2.226-2.626-3.355-6.501-3.355-11.516
			c0-4.974,1.129-8.828,3.355-11.455C514.774,19.225,517.966,17.902,522.05,17.902z"/>
		<path fill="#2A2A2A" d="M566.071,11.289h-6.962L539.02,55.353h8.84l4.399-10.147h20.786l4.399,10.147h8.716L566.071,11.289z
			 M570.073,38.346h-14.904l7.452-17.201L570.073,38.346z"/>
		<g>
			<polygon fill="#2A2A2A" points="600.311,1.727 591.763,1.727 591.763,55.353 623.559,55.353 623.559,47.973 600.311,47.973 			
				"/>
		</g>
		<g>
			<path fill="#2A2A2A" d="M134.319,83.359v8.755c-0.869,0.423-1.892,0.753-3.068,0.99c-1.176,0.237-2.386,0.355-3.631,0.355
				c-1.909,0-3.562-0.368-4.96-1.104c-1.398-0.736-2.472-1.793-3.222-3.172c-0.75-1.379-1.125-3.016-1.125-4.91
				c0-1.861,0.371-3.481,1.113-4.86c0.741-1.379,1.802-2.44,3.183-3.185c1.381-0.744,2.991-1.117,4.832-1.117
				c1.296,0,2.501,0.178,3.618,0.533c1.117,0.355,2.041,0.846,2.774,1.472l-1.253,2.817c-0.835-0.592-1.649-1.019-2.441-1.282
				c-0.793-0.262-1.649-0.393-2.57-0.393c-3.477,0-5.216,2.004-5.216,6.014c0,2.064,0.452,3.603,1.355,4.619
				c0.903,1.015,2.267,1.523,4.091,1.523c0.989,0,1.969-0.127,2.941-0.381V86.1h-3.529v-2.741H134.319z"/>
			<path fill="#2A2A2A" d="M258.365,93.231h-4.346l-3.119-5.71c-0.256-0.44-0.563-0.757-0.921-0.951
				c-0.358-0.194-0.81-0.292-1.355-0.292h-1.969v6.953h-3.937V75.34h8.284c2.113,0,3.711,0.461,4.794,1.383
				c1.082,0.922,1.623,2.254,1.623,3.997c0,1.354-0.379,2.487-1.137,3.4c-0.759,0.914-1.828,1.514-3.209,1.802
				c0.937,0.237,1.73,0.905,2.378,2.005L258.365,93.231z M252.894,82.687c0.511-0.397,0.767-1.019,0.767-1.865
				c0-0.863-0.256-1.489-0.767-1.878c-0.511-0.389-1.338-0.584-2.48-0.584h-3.81v4.923h3.81
				C251.556,83.283,252.383,83.084,252.894,82.687z"/>
			<path fill="#2A2A2A" d="M366.467,92.33c-1.322-0.753-2.34-1.818-3.056-3.198c-0.716-1.379-1.074-2.998-1.074-4.859
				c0-1.861,0.358-3.481,1.074-4.86c0.716-1.379,1.734-2.44,3.056-3.185c1.321-0.744,2.876-1.117,4.666-1.117
				s3.345,0.372,4.666,1.117c1.321,0.745,2.34,1.806,3.055,3.185c0.716,1.379,1.074,2.999,1.074,4.86
				c0,1.861-0.358,3.481-1.074,4.859c-0.715,1.379-1.734,2.445-3.055,3.198c-1.321,0.753-2.876,1.129-4.666,1.129
				S367.787,93.083,366.467,92.33z M374.674,88.815c0.861-1.049,1.291-2.563,1.291-4.542s-0.426-3.489-1.278-4.53
				s-2.038-1.561-3.554-1.561c-1.517,0-2.698,0.52-3.541,1.561c-0.844,1.041-1.266,2.55-1.266,4.53s0.426,3.494,1.278,4.542
				c0.852,1.049,2.028,1.574,3.529,1.574C372.632,90.389,373.813,89.864,374.674,88.815z"/>
			<path fill="#2A2A2A" d="M487.975,91.518c-1.322-1.294-1.982-3.185-1.982-5.672V75.34h3.912v10.683
				c0,1.421,0.328,2.504,0.985,3.248c0.656,0.745,1.606,1.117,2.851,1.117c1.244,0,2.199-0.376,2.863-1.129
				c0.665-0.753,0.997-1.831,0.997-3.236V75.34h3.912v10.506c0,2.471-0.664,4.357-1.994,5.659c-1.33,1.303-3.256,1.954-5.778,1.954
				C491.217,93.459,489.296,92.812,487.975,91.518z"/>
			<path fill="#2A2A2A" d="M609.125,75.34h8.284c1.96,0,3.485,0.491,4.577,1.472c1.09,0.981,1.636,2.351,1.636,4.111
				s-0.546,3.13-1.636,4.111c-1.091,0.981-2.617,1.472-4.577,1.472h-4.296v6.725h-3.988V75.34z M616.897,83.512
				c1.995,0,2.992-0.854,2.992-2.563c0-0.88-0.248-1.531-0.742-1.954c-0.494-0.423-1.244-0.635-2.25-0.635h-3.784v5.152H616.897z"/>
		</g>
	</g>
	<g>
		<g>
			<g>
				<rect y="60.109" fill="#C9002C" width="33.151" height="33.151"/>
			</g>
		</g>
		<g>
			<g>
				<rect y="0.443" fill="#C9002C" width="33.151" height="33.151"/>
			</g>
		</g>
		<g>
			<g>
				<rect x="59.672" y="60.109" fill="#C9002C" width="33.151" height="33.151"/>
			</g>
		</g>
		<g>
			<g>
				<rect x="59.672" y="0.443" fill="#C9002C" width="33.151" height="33.151"/>
			</g>
		</g>
	</g>
</g>
</svg>
