<?xml version="1.0" encoding="utf-8"?>
<!-- Generator: Adobe Illustrator 19.0.0, SVG Export Plug-In . SVG Version: 6.00 Build 0)  -->
<svg version="1.1" id="Capa_1" xmlns="http://www.w3.org/2000/svg" xmlns:xlink="http://www.w3.org/1999/xlink" x="0px" y="0px"
	 viewBox="0 0 757.5 136.5" style="enable-background:new 0 0 757.5 136.5;" xml:space="preserve">
<style type="text/css">
	.st0{fill-rule:evenodd;clip-rule:evenodd;}
	.st1{fill-rule:evenodd;clip-rule:evenodd;fill:#A7A9AC;}
	.st2{fill-rule:evenodd;clip-rule:evenodd;fill:#EF3E42;}
</style>
<g>
	<g>
		<path d="M744.2,57.1L744.2,57.1c-4.3,5.5-9.5,9.9-15.4,13.1c-5.9,3.3-11.5,4.9-16.6,4.9c-1.9,0-3.5-0.6-4.8-2
			c-1.3-1.3-1.9-2.9-1.9-4.9V25.4c0-1.9,0.7-3.6,2-4.9c1.3-1.4,2.8-2,4.5-2h2.7v-1.9h-28v1.9h1.5c1.7,0,3.2,0.7,4.4,2
			c1.3,1.3,1.9,3,1.9,4.9v42.9c0,1.9-0.6,3.5-1.9,4.9c-1.3,1.3-2.8,2-4.4,2h-1.5v1.9h53.6l0-0.1c0.3-3.2,0.9-6.3,1.8-9.5
			c0.8-3.1,2-6.3,3.5-9.7l0.1-0.1L744.2,57.1z M695.7,72.6c0.6-0.9,0.9-2,0.9-3.3V25c0-0.5,0.1-1,0.2-1.3c0.1-0.3,0.4-0.6,0.7-0.7
			l0.1,0V22l-4.2-3.6h11.7l-2.5,1.8c-0.5,0.4-0.9,0.8-1.1,1.4c-0.2,0.6-0.3,1.3-0.3,2.2v45.9c0,1.2,0.2,2.1,0.7,2.9
			c0.4,0.7,1.3,1.5,2.6,2.6h-11.2C694.3,74.4,695.2,73.5,695.7,72.6z M735.3,75.2h-13.8c3.7-1.2,7.1-2.7,10.2-4.5
			c3.1-1.8,6-4,8.7-6.6c-1.3,2.3-2.3,4.3-3.2,6.1C736.4,72.2,735.7,73.8,735.3,75.2z"/>
		<path d="M197.4,45.8c-2.5-2.1-6.7-4.3-12.5-6.4c-1.8-0.6-3.1-1.1-3.9-1.5c-3.5-1.4-6-2.9-7.5-4.5c-1.4-1.6-2.2-3.6-2.2-6
			c0-2.5,1-4.7,3-6.4c2-1.7,4.6-2.5,7.7-2.5c3.3,0,6.3,1.2,8.9,3.7c2.6,2.5,5.1,6.4,7.4,11.6l0,0.1l1.9-0.5l0-0.1
			c-0.5-2.8-0.9-5.4-1.2-8c-0.4-3.2-0.8-6.2-1.1-9.2l0-0.2l-0.2,0.1c-0.6,0.4-1.3,0.6-2,0.8c-0.7,0.2-1.5,0.2-2.3,0.2
			c-0.9,0-2.4-0.1-4.7-0.3c-2.3-0.2-4.1-0.3-5.5-0.3c-5.8,0-10.6,1.5-14.3,4.6c-3.8,3-5.7,6.9-5.7,11.5c0,1.7,0.3,3.4,0.9,4.9
			c0.6,1.5,1.5,2.9,2.6,4.1c2.5,2.5,6.7,4.9,12.6,7.2c1.6,0.6,2.6,1,3.1,1.2c0.4,0.1,0.8,0.3,1.2,0.4c4.7,1.9,7.9,3.9,9.4,6.2
			c0.6,0.9,1.1,1.8,1.4,2.8c0.3,1,0.4,2,0.4,3.1c0,3.7-1.2,6.8-3.7,9.3c-2.4,2.5-5.5,3.8-9,3.8c-4.1,0-7.9-1.8-11.5-5.4
			c-3.5-3.6-6.3-8.6-8.3-14.9l0-0.1l-1.9,0.4l1.7,19.4l0.1,0c2.4,0.9,5.1,1.6,7.9,2.1c2.9,0.5,5.9,0.7,9,0.7c6.6,0,12.2-2,16.6-5.9
			c4.4-3.9,6.7-8.8,6.7-14.5c0-2.4-0.4-4.5-1.3-6.5C200.4,49,199.1,47.3,197.4,45.8z M195.7,67.3c0.6-1.7,0.9-3.3,0.9-4.9
			c0-1.9-0.3-3.7-0.9-5.1c-0.6-1.5-1.5-2.7-2.7-3.8c-2-1.8-5.5-3.6-10.2-5.4c-1.5-0.6-2.6-1-3.4-1.3c-5.2-2.1-8.9-4.3-11.1-6.4
			c-2.1-2.1-3.2-4.7-3.2-7.6c0-2.7,0.7-5.1,2.1-7.4c1.2-1.9,2.9-3.5,5.1-4.7c-1.3,1.4-2.4,2.9-3.1,4.3c-0.8,1.6-1.2,3.2-1.2,4.9
			c0,1.4,0.3,2.8,0.9,4.1c0.6,1.3,1.4,2.4,2.5,3.3c2,1.7,5.5,3.5,10.3,5.2c1.5,0.5,2.5,0.9,3.1,1.1c5.4,2.1,9.2,4.3,11.4,6.6
			c2.1,2.2,3.2,5.1,3.2,8.5c0,2.6-0.6,5-1.7,7.4c-0.9,2-2.3,3.8-3.9,5.3C194.5,70,195.2,68.6,195.7,67.3z M189.1,18.4
			c0.6,0.1,1.2,0.2,1.7,0.2c0.6,0.1,1.2,0.1,1.8,0.1c0.6,0,1,0,1.1,0c0.2,0,0.4,0,0.5,0l1.2,6.2c-0.7-1-1.5-2-2.4-2.9
			C192.1,20.9,190.7,19.7,189.1,18.4z M173.5,75.3c-1.3-0.2-2.7-0.4-4.2-0.7c-1.7-0.4-3.5-0.8-5.2-1.4l-0.7-6.7
			c1.3,1.8,2.8,3.5,4.5,5C169.5,73,171.4,74.2,173.5,75.3z"/>
		<path d="M254.8,31.5h1.4c1.3,0,2.7,0.7,4,2.2c1.4,1.5,2,2.9,2,4.3c0,0.3,0,0.7-0.1,1.1c-0.1,0.4-0.2,0.8-0.4,1.3L253.7,65l-8.4-26
			c-0.2-0.6-0.3-1-0.4-1.3c-0.1-0.3-0.1-0.6-0.1-0.9c0-1,0.5-2.2,1.7-3.4c1.1-1.2,2.2-1.8,3.3-1.8h0.3V30h-21.2v1.5h1.8
			c1.1,0,2.4,0.6,3.6,1.8c1.3,1.2,2.2,2.7,2.9,4.5l1.7,4.7l-7.5,22.6l-8.4-26.2c-0.1-0.4-0.2-0.8-0.3-1.2c-0.1-0.4-0.1-0.7-0.1-1
			c0-1,0.5-2.2,1.6-3.4c1.1-1.2,2.2-1.8,3.3-1.8h0.3V30h-21.2v1.5h1.8c1.1,0,2.4,0.6,3.7,1.9c1.3,1.3,2.3,2.8,2.8,4.5L227.6,77
			l0,0.1h1l10.8-32.2L250,77l0,0.1h0.9l12-35.7c0.8-2.5,2.1-4.7,3.9-6.4c1.8-1.8,3.8-2.9,5.9-3.4l0.1,0V30h-18.1V31.5z M266.7,31.5
			c-0.9,0.9-1.6,1.7-2.1,2.5c-0.5,0.7-0.9,1.4-1.2,2c-0.2-0.6-0.4-1.2-0.8-1.8c-0.5-0.7-1.2-1.6-2.3-2.7H266.7z M234.7,31.5h10.2
			c-2.1,1.9-3.2,3.5-3.2,4.6c0,0.3,0.1,0.8,0.2,1.5c0.1,0.7,0.4,1.4,0.6,2.2l9.7,29.8l-1.7,5l-11.8-37.2c0-0.1,0-0.1,0-0.2
			c0-0.2-0.1-0.4-0.1-0.4c0-0.1,0-0.3,0.1-0.3c0-0.1,0.1-0.1,0.3-0.2l0.1,0l0-1.2L234.7,31.5z M212.3,31.5h10.2l-0.1,0.1
			c-2.1,1.9-3.1,3.4-3.1,4.5c0,0.4,0.1,0.9,0.2,1.5c0.1,0.6,0.3,1.4,0.6,2.2l9.7,30.1l-1.7,4.8l-11.8-37.3c0-0.1-0.1-0.2-0.1-0.3
			l0,0c0-0.1-0.1-0.2-0.1-0.3c0-0.1,0-0.2,0.1-0.3c0.1-0.1,0.2-0.2,0.3-0.2l0.1,0v-1.2L212.3,31.5z"/>
		<path d="M274.3,31.5h1.7c1.3,0,2.4,0.5,3.4,1.6c1,1.1,1.5,2.3,1.5,3.8v33.3c0,1.5-0.5,2.7-1.5,3.8c-1,1-2.1,1.6-3.4,1.6h-1.7v1.5
			h21.9v-1.5h-1.7c-1.4,0-2.6-0.5-3.6-1.6c-1-1.1-1.5-2.3-1.5-3.8V36.9c0-1.5,0.5-2.7,1.5-3.8c1-1,2.2-1.6,3.5-1.6h1.8V30h-21.9
			V31.5z M287,32.9c-0.4,0.3-0.7,0.7-0.9,1.1c-0.2,0.5-0.3,1-0.3,1.7v35.7c0,0.9,0.2,1.7,0.5,2.2c0.3,0.5,0.9,1.1,1.9,1.9h-8.5
			c0.9-0.6,1.5-1.3,1.9-1.9c0.5-0.7,0.7-1.6,0.7-2.6V36.6c0-0.4,0.1-0.7,0.2-1c0.1-0.2,0.3-0.4,0.5-0.5l0.1,0v-0.8l-3.2-2.7h8.8
			L287,32.9z"/>
		<path d="M328.7,52.9c-2-1.6-5.4-3.3-10-5c-1.4-0.5-2.4-0.9-3.1-1.1c-2.8-1.1-4.8-2.3-6-3.5c-1.1-1.2-1.7-2.8-1.7-4.6
			c0-2,0.8-3.6,2.4-4.9c1.6-1.3,3.7-1.9,6.1-1.9c2.6,0,5,1,7.1,2.9c2.1,1.9,4.1,4.9,5.9,9l0,0.1l1.5-0.4l0-0.1
			c-0.4-2.2-0.7-4.2-1-6.2c-0.3-2.5-0.6-4.8-0.9-7.2l0-0.2l-0.2,0.1c-0.5,0.3-1.1,0.5-1.6,0.6c-0.6,0.1-1.2,0.2-1.8,0.2
			c-0.7,0-1.9-0.1-3.7-0.2c-1.9-0.1-3.3-0.2-4.4-0.2c-4.6,0-8.5,1.2-11.5,3.5c-3,2.4-4.5,5.4-4.5,8.9c0,1.3,0.2,2.6,0.7,3.8
			c0.5,1.2,1.2,2.3,2.1,3.2c2,2,5.4,3.8,10.1,5.6c1,0.4,1.9,0.7,2.5,1c0.3,0.1,0.6,0.2,1,0.3c3.8,1.4,6.3,3,7.5,4.8
			c0.5,0.7,0.9,1.4,1.1,2.2c0.2,0.8,0.4,1.6,0.4,2.4c0,2.8-1,5.3-2.9,7.2c-1.9,1.9-4.4,2.9-7.2,2.9c-3.3,0-6.3-1.4-9.2-4.2
			c-2.8-2.8-5.1-6.7-6.6-11.6l0-0.1l-1.5,0.3l1.4,15l0,0.1l0.1,0c1.9,0.7,4.1,1.3,6.3,1.7c2.3,0.4,4.7,0.6,7.2,0.6
			c5.3,0,9.8-1.5,13.3-4.6c3.6-3.1,5.4-6.8,5.4-11.3c0-1.8-0.4-3.5-1-5C331.1,55.4,330.1,54.1,328.7,52.9z M327.3,69.6
			c0.5-1.3,0.7-2.6,0.7-3.8c0-1.5-0.2-2.8-0.7-4c-0.5-1.1-1.2-2.1-2.2-3c-1.6-1.4-4.4-2.8-8.2-4.2c-1.2-0.4-2.1-0.8-2.7-1
			c-4.2-1.6-7.2-3.3-8.9-5c-1.7-1.7-2.6-3.6-2.6-5.9c0-2.1,0.5-4,1.7-5.7c1-1.5,2.3-2.6,3.9-3.5c-1,1.1-1.8,2.1-2.3,3.2
			c-0.6,1.3-1,2.5-1,3.8c0,1.1,0.2,2.2,0.7,3.2c0.5,1,1.1,1.9,2,2.6c1.6,1.4,4.4,2.7,8.2,4.1c1.2,0.4,2,0.7,2.5,0.9
			c4.3,1.6,7.4,3.4,9.1,5.1c1.7,1.7,2.6,3.9,2.6,6.6c0,2-0.4,3.9-1.3,5.7c-0.7,1.5-1.7,2.8-3,3.9C326.5,71.6,327,70.6,327.3,69.6z
			 M322.1,31.7c0.5,0.1,0.9,0.1,1.2,0.2c0.5,0.1,1,0.1,1.5,0.1c0.5,0,0.8,0,0.9,0c0.1,0,0.3,0,0.4,0l0.9,4.7
			c-0.5-0.7-1.1-1.5-1.8-2.2C324.5,33.6,323.4,32.7,322.1,31.7z M309.4,75.8c-1-0.1-2-0.3-3.2-0.5c-1.4-0.3-2.8-0.6-4.2-1l-0.6-5.1
			c1,1.4,2.2,2.7,3.6,3.8C306.3,74,307.8,75,309.4,75.8z"/>
		<path d="M366.6,52.9c-2-1.6-5.4-3.3-10-5c-1.4-0.5-2.4-0.9-3.1-1.1c-2.8-1.1-4.8-2.3-6-3.5c-1.1-1.2-1.7-2.8-1.7-4.6
			c0-2,0.8-3.6,2.4-4.9c1.6-1.3,3.7-1.9,6.1-1.9c2.6,0,5,1,7.1,2.9c2.1,1.9,4.1,4.9,5.9,9l0,0.1l1.5-0.4l0-0.1
			c-0.4-2.2-0.7-4.2-1-6.2c-0.3-2.5-0.6-4.8-0.9-7.2l0-0.2l-0.2,0.1c-0.5,0.3-1.1,0.5-1.6,0.6c-0.6,0.1-1.2,0.2-1.8,0.2
			c-0.7,0-1.9-0.1-3.7-0.2c-1.9-0.1-3.3-0.2-4.4-0.2c-4.6,0-8.5,1.2-11.5,3.5c-3,2.4-4.5,5.4-4.5,8.9c0,1.3,0.2,2.6,0.7,3.8
			c0.5,1.2,1.2,2.3,2.1,3.2c2,2,5.4,3.8,10.1,5.6c1.3,0.5,2.1,0.8,2.5,1c0.3,0.1,0.6,0.2,1,0.3c3.8,1.4,6.3,3,7.5,4.8
			c0.5,0.7,0.9,1.4,1.1,2.2c0.2,0.8,0.4,1.6,0.4,2.4c0,2.8-1,5.3-2.9,7.2c-1.9,1.9-4.4,2.9-7.2,2.9c-3.3,0-6.3-1.4-9.2-4.2
			c-2.8-2.8-5.1-6.7-6.6-11.6l0-0.1l-1.5,0.3l1.4,15l0,0.1l0.1,0c1.9,0.7,4.1,1.3,6.3,1.7c2.3,0.4,4.7,0.6,7.2,0.6
			c5.3,0,9.8-1.5,13.3-4.6c3.6-3.1,5.4-6.8,5.4-11.3c0-1.8-0.4-3.5-1-5C369,55.4,367.9,54.1,366.6,52.9z M365.2,69.6
			c0.5-1.3,0.7-2.6,0.7-3.8c0-1.5-0.2-2.8-0.7-4c-0.5-1.1-1.2-2.1-2.2-3c-1.6-1.4-4.4-2.8-8.2-4.2c-1-0.4-2.1-0.8-2.7-1
			c-4.2-1.6-7.2-3.3-8.9-5c-1.7-1.7-2.6-3.6-2.6-5.9c0-2.1,0.5-4,1.7-5.7c1-1.5,2.3-2.6,3.9-3.5c-1,1.1-1.8,2.1-2.3,3.2
			c-0.6,1.3-1,2.5-1,3.8c0,1.1,0.2,2.2,0.7,3.2c0.5,1,1.1,1.9,2,2.6c1.6,1.4,4.4,2.7,8.2,4.1c1.2,0.4,2,0.7,2.5,0.9
			c4.3,1.6,7.4,3.4,9.1,5.1c1.7,1.7,2.6,3.9,2.6,6.6c0,2-0.4,3.9-1.3,5.7c-0.7,1.5-1.7,2.8-3,3.9C364.4,71.6,364.9,70.6,365.2,69.6z
			 M360,31.7c0.5,0.1,0.9,0.1,1.2,0.2c0.5,0.1,1,0.1,1.5,0.1c0.5,0,0.8,0,0.9,0c0.1,0,0.3,0,0.4,0l0.9,4.7c-0.5-0.7-1.1-1.5-1.8-2.2
			C362.3,33.6,361.3,32.7,360,31.7z M347.3,75.8c-1-0.1-2-0.3-3.2-0.5c-1.4-0.3-2.8-0.6-4.2-1l-0.6-5.1c1,1.4,2.2,2.7,3.6,3.8
			C344.2,74,345.6,75,347.3,75.8z"/>
		<path d="M445.6,73.7c-1.3-1.3-2.1-2.7-2.2-4.3l-2.7-32.1V37c0-1.5,0.6-2.7,1.7-3.7c1.2-1,2.6-1.6,4.3-1.6h2.3v-1.5h-16.8l0.2,2.5
			L421,59l-11.9-28.7l0-0.1h-15.2v1.5h2.6c1.6,0,3,0.6,4.3,1.8c1.3,1.2,1.9,2.4,1.9,3.7c0,0,0,0.2,0,0.5c0,0.3-0.1,0.6-0.1,1
			L400,66.2c-0.2,2.4-1.2,4.6-3,6.5c-1.7,1.9-3.6,2.9-5.6,2.9H391v1.5h18.9v-1.5h-3.1c-1.5,0-2.8-0.7-3.9-2.1
			c-1-1.4-1.6-3.3-1.6-5.5c0-0.3,0-0.6,0-1l0-0.2c0-0.4,0.1-0.8,0.1-1.4l2.4-26.8l13.4,31.9l0.1,0.3l15.3-34.9l2.8,33.3v0.6
			c0,1.6-0.6,3-1.8,4.2c-1.2,1.1-2.6,1.7-4.3,1.7h-1.1v1.5h23v-1.5h-2.1C448.2,75.6,447,74.9,445.6,73.7z M436.3,73
			c0.5-0.9,0.7-1.8,0.7-2.8v-0.5l-3.3-37.9h7.4c-1.2,0.6-2.1,1.3-2.7,2c-0.6,0.8-1,1.8-1,2.9c0,0.1,0,0.2,0,0.4c0,0.1,0,0.3,0,0.4
			l2.5,31.2c0.1,1.6,0.5,2.9,1.1,4c0.6,1,1.5,2,2.7,3h-9.9C435.1,74.6,435.9,73.8,436.3,73z M395.9,75.6c0.8-0.7,1.5-1.4,2.2-2.1
			c0.6-0.7,1.1-1.4,1.6-2.2c0,0.8,0.1,1.5,0.2,2.1c0.1,0.7,0.2,1.4,0.3,2.1H395.9z M406.2,31.7l13,31.2l-1.7,4.2L405,37.6
			c-0.6-1.3-1.3-2.5-2.1-3.5c-0.7-0.9-1.5-1.7-2.4-2.3H406.2z"/>
		<path d="M499.6,61.6c-3.2,4.1-7.2,7.6-11.8,10.1c-4.6,2.6-8.8,3.9-12.6,3.9c-1.4,0-2.6-0.5-3.6-1.6c-1-1-1.5-2.3-1.5-3.8V52.6h5.4
			c2.7,0,5.1,0.9,7.1,2.6c2,1.7,3,3.7,3,6v2.4h1.6V41.8h-1.6V43c0,0.9-0.3,1.8-0.9,2.7c-0.6,1-1.6,2-2.9,3.1
			c-1.1,0.9-2.1,1.5-2.9,1.8c-0.9,0.3-1.9,0.5-3.1,0.5h-5.7V36.9c0-1.5,0.5-2.7,1.5-3.8c1-1,2.1-1.6,3.5-1.6h3.2
			c2.9,0,6.1,1.1,9.4,3.2c3.3,2.1,5.8,4.8,7.4,7.8l0.1,0.1l1.4-0.3l0-0.1c-0.4-1.6-0.7-3.4-0.9-5.2c-0.2-1.9-0.3-3.9-0.3-5.9V30
			h-39.8v1.5h1.2c1.3,0,2.4,0.5,3.4,1.6c1,1.1,1.5,2.3,1.5,3.8v33.3c0,1.5-0.5,2.7-1.5,3.8c-1,1-2.1,1.6-3.4,1.6h-1.2v1.5h41.1
			l0-0.1c0.3-2.4,0.7-4.9,1.4-7.3c0.7-2.4,1.6-5,2.7-7.5l0.1-0.1L499.6,61.6L499.6,61.6z M493.4,37.5c-1.1-1.2-2.5-2.3-3.9-3.3
			c-1.5-1-3.2-1.9-5-2.7h7.7c0.1,1,0.3,2,0.5,3C492.9,35.4,493.1,36.4,493.4,37.5z M462.6,73.6c0.5-0.7,0.7-1.6,0.7-2.6V36.6
			c0-0.4,0.1-0.7,0.2-1c0.1-0.2,0.3-0.4,0.5-0.5l0.1,0v-0.8l-3.2-2.7h8.7l-1.8,1.3c-0.4,0.3-0.7,0.7-0.9,1.1c-0.2,0.5-0.3,1-0.3,1.7
			v35.7c0,0.9,0.2,1.7,0.5,2.2c0.3,0.5,0.9,1.1,1.9,1.9h-8.4C461.5,74.9,462.2,74.3,462.6,73.6z M492.9,75.6h-10.4
			c2.7-0.9,5.3-2.1,7.6-3.5c2.3-1.4,4.5-3.1,6.5-5c-0.9,1.7-1.7,3.2-2.3,4.6C493.7,73.2,493.2,74.5,492.9,75.6z M479.9,51.9
			c0.8-0.5,1.6-1,2.3-1.6c0.7-0.5,1.4-1.1,2.1-1.8v6c-0.6-0.5-1.4-1-2.1-1.4C481.5,52.7,480.7,52.3,479.9,51.9z"/>
		<path d="M536.9,32.8c-1.7-1-3.6-1.7-5.8-2.1c-2.1-0.4-4.9-0.7-8.2-0.7h-21.4v1.5h1.2c1.3,0,2.4,0.5,3.4,1.6c1,1.1,1.5,2.3,1.5,3.8
			v33.3c0,1.5-0.5,2.7-1.5,3.8c-1,1-2.1,1.6-3.4,1.6h-1.2v1.5h16.6c1.1,0,2.4,0.1,4,0.3c1.6,0.2,2.6,0.3,3.2,0.3
			c2.3,0,4.7-0.4,7-1.2c2.4-0.8,4.5-1.9,6.2-3.2c3.4-2.6,6-5.5,7.7-8.8c1.7-3.2,2.6-6.9,2.6-10.9c0-4.5-1-8.5-3.1-12
			C543.8,38,540.8,35.1,536.9,32.8z M508.5,73.6c0.5-0.7,0.7-1.6,0.7-2.5V36.6c0-0.4,0.1-0.7,0.2-1c0.1-0.2,0.3-0.4,0.5-0.5l0.1,0
			v-0.8l-3.2-2.7h8.8l-1.8,1.3c-0.4,0.3-0.7,0.7-0.9,1.1c-0.2,0.5-0.3,1-0.3,1.7v35.7c0,0.9,0.2,1.7,0.5,2.2
			c0.3,0.5,0.9,1.1,1.9,1.9h-8.4C507.5,74.9,508.1,74.3,508.5,73.6z M516.1,36.9c0-1.8,0.7-3.2,2-4c1.4-0.9,3.5-1.3,6.5-1.3
			c5.2,0,9.1,1.8,11.6,5.3c2.5,3.5,3.8,9,3.8,16.3c0,7.4-1.3,13.2-3.9,17.1c-2.6,3.9-6.3,5.8-11.2,5.8c-2.9,0-5.2-0.5-6.7-1.5
			c-1.5-1-2.2-2.4-2.2-4.4V36.9z M539.7,65.9c1.2-3.4,1.8-7.7,1.8-12.7c0-5-0.6-9.2-1.8-12.7c-1-2.9-2.5-5.2-4.3-6.9
			c2.9,1.7,5.2,4.2,6.9,7.3c2,3.6,3,7.7,3,12.3c0,4.5-1,8.6-2.9,12.2c-1.7,3.2-4,5.9-7,7.9C537.3,71.4,538.7,68.9,539.7,65.9z"/>
		<path d="M553.5,31.5h1.7c1.3,0,2.4,0.5,3.4,1.6c1,1.1,1.5,2.3,1.5,3.8v33.3c0,1.5-0.5,2.7-1.5,3.8c-1,1-2.1,1.6-3.4,1.6h-1.7v1.5
			h21.8v-1.5h-1.7c-1.4,0-2.6-0.5-3.6-1.6c-1-1.1-1.5-2.3-1.5-3.8V36.9c0-1.5,0.5-2.7,1.5-3.8c1-1,2.1-1.6,3.5-1.6h1.8V30h-21.8
			V31.5z M566.2,32.9c-0.4,0.3-0.7,0.7-0.9,1.1c-0.2,0.5-0.3,1-0.3,1.7v35.7c0,0.9,0.2,1.7,0.5,2.2c0.3,0.5,0.9,1.1,1.9,1.9h-8.4
			c0.8-0.6,1.5-1.3,1.9-1.9c0.5-0.7,0.7-1.6,0.7-2.6V36.6c0-0.4,0.1-0.7,0.2-1c0.1-0.2,0.3-0.4,0.5-0.5l0.1,0v-0.8l-3.2-2.7h8.8
			L566.2,32.9z"/>
		<path d="M625.9,64.3c-2,3.7-4.7,6.6-7.9,8.7c-3.2,2.1-6.7,3.1-10.4,3.1c-5.4,0-9.6-2-12.6-6c-3-4-4.6-9.7-4.6-16.8
			c0-7,1.2-12.3,3.6-16c2.4-3.6,5.9-5.4,10.5-5.4c4.3,0,8.3,1.3,12,3.8c3.7,2.5,6.8,6.1,9.1,10.6l0.1,0.1l1.4-0.5l-0.1-0.1
			c-0.9-2.3-1.6-4.7-2.1-7.1c-0.5-2.4-0.7-4.9-0.7-7.5v-1.2L624,30c-1,0.5-2.1,0.8-3.3,1c-1.2,0.2-2.7,0.3-4.3,0.3
			c-1.6,0-3.7-0.2-6.3-0.5c-2.7-0.4-4.5-0.5-5.4-0.5c-3,0-6,0.6-8.8,1.9c-2.8,1.3-5.4,3.1-7.6,5.5c-2.1,2.2-3.7,4.7-4.8,7.5
			c-1.1,2.8-1.6,5.8-1.6,8.8c0,4.3,1,8.3,2.9,11.8c1.9,3.5,4.8,6.4,8.4,8.6c1.9,1.1,3.9,2,6.2,2.5c2.2,0.6,4.6,0.9,7.2,0.9
			c4.5,0,8.6-1.1,12.2-3.3c3.6-2.2,6.4-5.4,8.5-9.4l0.1-0.1l-1.2-0.8L625.9,64.3z M586.5,53.8c0,5.2,1.2,9.7,3.5,13.3
			c2.1,3.4,5.2,6.2,9.3,8.4c-4.7-1.3-8.5-3.7-11.4-7.3c-3.1-3.9-4.7-8.6-4.7-14c0-4.2,1-8.2,3-11.7c1.8-3.2,4.4-5.7,7.5-7.6
			c-2.2,2.3-3.9,4.9-5.2,7.9C587.2,46.1,586.5,49.8,586.5,53.8z M622.1,38.5c-1-1.2-2.1-2.2-3.2-3.1c-1.2-0.9-2.4-1.7-3.8-2.4
			c0.2,0,0.3,0,0.5,0.1c0.5,0.1,1,0.1,1.7,0.1c0.6,0,1.3,0,1.9-0.1c0.6-0.1,1.2-0.2,1.7-0.2c0.1,1.2,0.3,2.2,0.6,3.2
			C621.5,36.9,621.8,37.7,622.1,38.5z"/>
		<path d="M677.7,73.2c-1.4-1.6-2.8-4.1-4.2-7.3l-15.9-35.8l-0.1-0.3l-16.9,36.4c-0.4,0.9-1,1.9-1.8,2.9c-0.8,1.1-1.8,2.3-3.1,3.7
			c-1,1-1.9,1.8-2.6,2.2c-0.7,0.4-1.5,0.6-2.3,0.6h-1.4v1.5h18.5v-1.5h-2.4c-1.4,0-2.4-0.5-3.1-1.5c-0.8-1-1.1-2.5-1.1-4.3
			c0-0.4,0.1-0.8,0.2-1.3c0.1-0.5,0.3-1,0.6-1.5l2.9-6.4h17.6l3.3,7.4c0.1,0.3,0.2,0.5,0.3,0.9c0.1,0.3,0.1,0.6,0.1,0.9
			c0,1.5-0.5,2.8-1.5,4c-1,1.1-2.2,1.7-3.6,1.7H659v1.5h24.9v-1.5h-2.3C680.3,75.6,679.1,74.8,677.7,73.2z M639.5,71.8
			c0,0.4,0,0.9,0,1.3c0,0.5,0,0.9,0,1.3c0,0.4,0.1,0.8,0.1,1.2H635c0.8-0.7,1.6-1.5,2.3-2.3c0.7-0.8,1.5-1.7,2.3-2.7
			C639.5,71.1,639.5,71.4,639.5,71.8z M667.7,69.8c0-0.4,0-0.8-0.1-1.2c-0.1-0.4-0.2-0.7-0.3-0.9l-12.6-28.3l1.8-3.8l14.3,32.4
			c0.8,1.9,1.7,3.5,2.6,4.7c0.8,1.1,1.6,2,2.6,2.8h-10.9c0.8-0.9,1.4-1.8,1.8-2.7C667.5,71.8,667.7,70.8,667.7,69.8z M661.9,59.1
			h-16.2l0.7-1.6h14.8L661.9,59.1z M647,56.1l6.9-14.8l6.6,14.8H647z"/>
	</g>
	<g>
		<path class="st0" d="M177.3,114.2c1.1,0.1,1.9,0.3,2.2,0.7c0.4,0.4,0.6,1,0.6,1.9v2.4c0,1-0.2,1.7-0.6,2.1
			c-0.4,0.4-1.1,0.6-2.1,0.6c-1.8,0-3.3-0.8-4.3-2.4c-1.1-1.6-1.6-3.7-1.6-6.5c0-2.6,0.6-4.6,1.7-6.2c1.1-1.5,2.6-2.3,4.5-2.3
			c1.2,0,2.4,0.4,3.4,1.1c1,0.8,1.8,1.8,2.4,3.2h1.1l-0.4-5.5H183c0,0.3-0.1,0.5-0.3,0.7c-0.1,0.2-0.3,0.3-0.6,0.3
			c-0.1,0-0.8-0.2-2-0.6c-1.2-0.4-2.4-0.6-3.5-0.6c-1.2,0-2.4,0.2-3.5,0.6c-1.1,0.4-2.1,0.9-3.1,1.7c-1.3,1-2.3,2.2-3,3.5
			c-0.6,1.3-1,2.7-1,4.3c0,1.8,0.4,3.4,1.2,4.8c0.8,1.4,2,2.6,3.6,3.6c0.9,0.6,1.9,1,3,1.3c1.1,0.3,2.3,0.4,3.5,0.4
			c1.3,0,2.6-0.2,3.8-0.5c1.3-0.3,2.6-0.8,3.9-1.5c-0.1-0.2-0.1-0.4-0.2-0.6c0-0.2-0.1-0.4-0.1-0.6v-3.8c0-0.8,0.1-1.3,0.4-1.6
			c0.2-0.3,0.7-0.5,1.4-0.6l0-1h-9.4V114.2z"/>
		<path class="st0" d="M320.9,121.6c-0.4-0.3-0.8-0.8-1.2-1.4l-4.2-6.9c1.4-0.5,2.5-1.1,3.2-1.9c0.7-0.8,1-1.9,1-3.1
			c0-1.7-0.7-3-2-3.9c-1.3-0.9-3.2-1.4-5.7-1.4h-10.1v1c0.9,0,1.5,0.2,1.9,0.5c0.4,0.3,0.5,0.9,0.5,1.7v13.6c0,0.8-0.2,1.3-0.5,1.7
			c-0.4,0.3-1,0.5-1.9,0.5v1.1h9.5l0-1.1c-0.9,0-1.5-0.2-1.8-0.6c-0.3-0.3-0.5-0.9-0.5-1.7v-5.8h1.7l5.3,9.1h6.2V122h-0.1
			C321.7,122,321.3,121.8,320.9,121.6z M313.3,111.3c-0.8,0.7-1.9,1.1-3.3,1.1c-0.2,0-0.4,0-0.5,0c-0.1,0-0.3,0-0.4,0v-8.1h1.1
			c1.4,0,2.5,0.3,3.2,1c0.8,0.7,1.1,1.7,1.1,3C314.5,109.6,314.1,110.6,313.3,111.3z"/>
		<path class="st0" d="M460.3,105.7c-0.9-0.9-2-1.6-3.2-2.1c-1.2-0.5-2.4-0.7-3.8-0.7c-1.3,0-2.6,0.2-3.8,0.7
			c-1.2,0.5-2.3,1.2-3.2,2.1c-1,1-1.7,2.1-2.3,3.3c-0.5,1.3-0.8,2.6-0.8,4c0,1.4,0.3,2.8,0.8,4c0.5,1.3,1.3,2.4,2.3,3.3
			c0.9,0.9,2,1.6,3.2,2.1c1.2,0.5,2.5,0.7,3.8,0.7s2.6-0.2,3.8-0.7c1.2-0.5,2.2-1.2,3.2-2.1c1-1,1.7-2.1,2.3-3.3
			c0.5-1.3,0.8-2.6,0.8-4c0-1.4-0.3-2.8-0.8-4C462,107.8,461.3,106.6,460.3,105.7z M456.9,119.5c-0.8,1.6-2,2.3-3.5,2.3
			c-1.5,0-2.7-0.8-3.5-2.3c-0.8-1.5-1.3-3.7-1.3-6.5c0-2.8,0.4-4.9,1.3-6.5c0.8-1.5,2-2.3,3.5-2.3c1.5,0,2.7,0.8,3.5,2.3
			c0.8,1.5,1.3,3.7,1.3,6.5C458.1,115.8,457.7,118,456.9,119.5z"/>
		<path class="st0" d="M599,103.9L599,103.9c0.9,0,1.4,0.2,1.8,0.6c0.4,0.4,0.6,1,0.6,1.8v9c0,2.2-0.4,3.8-1.2,4.8
			c-0.8,1-2,1.6-3.7,1.6c-1.5,0-2.7-0.5-3.5-1.5c-0.8-1-1.2-2.5-1.2-4.4v-9.7c0-0.8,0.2-1.4,0.5-1.7c0.4-0.3,1-0.5,1.8-0.5v-1h-8.9
			v1c0.8,0,1.4,0.2,1.7,0.6c0.3,0.3,0.5,0.9,0.5,1.7v8.8c0,3,0.6,5.2,1.9,6.5c1.3,1.3,3.3,2,6.1,2c2.5,0,4.3-0.7,5.5-2.1
			c1.2-1.4,1.9-3.4,1.9-6.1v-8.9c0-0.8,0.2-1.4,0.5-1.8c0.4-0.4,0.9-0.6,1.7-0.6v-1H599V103.9z"/>
		<path class="st0" d="M737.8,104.4c-1.3-1-3.2-1.5-5.7-1.5h-8.9v1c0.9,0,1.5,0.2,1.8,0.5c0.4,0.3,0.5,0.9,0.5,1.7v13.6
			c0,0.8-0.2,1.3-0.5,1.7c-0.4,0.3-1,0.5-1.8,0.5v1.1h9.5v-1.1c-0.9,0-1.6-0.2-2-0.5c-0.4-0.3-0.6-0.9-0.6-1.7v-5c0.4,0,0.7,0,0.9,0
			c0.2,0,0.4,0,0.5,0c2.6,0,4.6-0.5,6.1-1.5c1.4-1,2.2-2.5,2.2-4.3C739.7,106.9,739.1,105.4,737.8,104.4z M733.7,112
			c-0.7,0.8-1.6,1.2-2.8,1.2c-0.2,0-0.3,0-0.4,0c-0.1,0-0.2,0-0.4,0v-8.8h0.9c1.2,0,2.1,0.4,2.7,1.1c0.6,0.8,1,1.8,1,3.2
			C734.7,110.1,734.4,111.3,733.7,112z"/>
	</g>
	<rect x="17.3" y="21.7" class="st1" width="34.5" height="34.5"/>
	<rect x="24.5" y="15.6" class="st2" width="35.4" height="35.4"/>
	<rect x="17.3" y="88.6" class="st1" width="34.5" height="34.5"/>
	<rect x="24.5" y="82.5" class="st2" width="35.4" height="35.4"/>
	<rect x="88" y="88.6" class="st1" width="34.5" height="34.5"/>
	<rect x="95.2" y="82.5" class="st2" width="35.4" height="35.4"/>
	<rect x="88" y="21.7" class="st1" width="34.5" height="34.5"/>
	<rect x="95.2" y="15.6" class="st2" width="35.4" height="35.4"/>
</g>
</svg>
