<?xml version="1.0" encoding="utf-8"?>
<!-- Generator: Adobe Illustrator 23.0.0, SVG Export Plug-In . SVG Version: 6.00 Build 0)  -->
<svg version="1.1" id="Layer_1" xmlns="http://www.w3.org/2000/svg" xmlns:xlink="http://www.w3.org/1999/xlink" x="0px" y="0px"
	 viewBox="0 0 100 100" style="enable-background:new 0 0 100 100;" xml:space="preserve">
<style type="text/css">
	.st0{fill:#FF0000;}
	.st1{fill:#FFFFFF;}
	.st2{fill:none;}
	.st3{fill:none;stroke:#000000;stroke-width:4;stroke-miterlimit:10;}
	.st4{fill:none;stroke:#000000;stroke-width:4;stroke-linecap:round;stroke-linejoin:round;stroke-miterlimit:10;}
	.st5{fill:none;stroke:#000000;stroke-width:4.7042;stroke-miterlimit:10;}
	.st6{fill:none;stroke:#000000;stroke-width:4.7042;stroke-linecap:round;stroke-linejoin:round;stroke-miterlimit:10;}
	.st7{fill:none;stroke:#000000;stroke-width:10;stroke-linecap:round;stroke-linejoin:round;stroke-miterlimit:10;}
	.st8{fill:none;stroke:#FFFFFF;stroke-width:2.5502;stroke-linecap:round;stroke-linejoin:round;stroke-miterlimit:10;}
	.st9{fill:none;stroke:#000000;stroke-width:1.2703;stroke-miterlimit:10;}
	.st10{fill:none;stroke:#000000;stroke-width:1.2703;stroke-linecap:round;stroke-linejoin:round;stroke-miterlimit:10;}
</style>
<g>
	<path class="st1" d="M48.7,84.8c0.2-0.5,0.3-0.7,0.3-0.9c0-3.8,0-7.6,0-11.5c0-1.1-0.2-1.3-1.4-1.6c-1.7-0.4-3.5-0.6-5.2-1.3
		c-1.9-0.8-3.6-1.9-5.3-2.9c-1.5-0.9-1.9-1-3.2,0.3c-2.4,2.3-4.7,4.6-7.1,6.9c-0.1,0.1-0.2,0.2-0.3,0.3c-0.1,0.3-0.4,0.6-0.3,0.8
		c0.1,0.2,0.5,0.4,0.7,0.4c1.4,0.1,2.8,0.1,4.2,0.3c0.7,0.1,1.8-0.3,1.8,0.8c0,0.9-1.1,0.6-1.8,0.6c-2.2-0.1-4.4-0.1-6.7-0.3
		c-1.1-0.1-1.4-0.3-1.4-1.3c-0.1-2.5-0.1-5-0.1-7.4c0-0.2,0-0.5,0.1-0.7c0.1-0.2,0.3-0.4,0.4-0.4c0.2,0.1,0.5,0.2,0.5,0.4
		c0.2,0.9,0.3,1.7,0.4,2.6c0.1,1.2,0.1,2.4,0.1,3.9c0.6-0.5,1-0.7,1.3-1c2.3-2.3,4.7-4.7,7-7c1.4-1.4,1.4-1.4,0.3-3
		c-2-2.7-3.2-5.8-3.9-9c-0.1-0.5-0.2-1-0.3-1.5c-0.2-0.9-0.7-1.4-1.6-1.4c-3.9,0-7.9,0.1-11.8,0.1c0,0-0.1,0.1-0.2,0.2
		c0.8,1.4,2.1,2.4,3.2,3.7c0.4,0.5,0.8,1.1,1.1,1.7c0.1,0.1,0,0.6-0.2,0.6c-0.2,0.1-0.5,0-0.7-0.1c-1.9-2-3.8-3.9-5.6-6
		c-0.6-0.6-0.5-1.5,0.1-2.1c1.6-1.8,3.3-3.5,5-5.2c0.2-0.2,0.7-0.2,1-0.3c-0.1,0.4,0,0.9-0.2,1.2c-0.9,0.9-1.8,1.7-2.8,2.6
		c-0.3,0.3-0.6,0.5-0.8,0.8c-0.5,0.5-0.4,0.9,0.3,1.1c0.5,0.1,1,0.2,1.5,0.2c3.1,0,6.2,0.1,9.4,0.1c1.9,0,2.3-0.4,2.6-2.3
		c0.5-3.7,1.8-7,4.1-9.9c0.5-0.6,0.8-1.2,0.1-2c-2.8-2.8-5.6-5.6-8.4-8.4c-0.1-0.1-0.2-0.1-0.6-0.1c0,1.1,0,2.2,0,3.2
		c-0.1,0.9-0.2,1.8-0.4,2.6c0,0.1-0.3,0.4-0.4,0.4c-0.2-0.1-0.4-0.3-0.5-0.4C23,32.1,23,31.7,23,31.4c0-2.2,0-4.3,0-6.5
		c0-1.5,0.3-1.8,1.8-1.8c2.2,0,4.5,0,6.7,0c0.5,0,1,0.2,1.5,0.3c-0.3,0.9-0.9,1-1.5,1c-1,0-2,0-3.1,0c-0.6,0-1.2,0.1-2.1,0.1
		c0.3,0.6,0.5,1,0.8,1.2c2.5,2.5,5.1,5,7.7,7.4c1.1,1,1.2,1.1,2.4,0.1c3-2.3,6.4-3.6,10.1-4.1c1.4-0.2,1.7-0.5,1.7-1.8
		c0-3.8,0-7.5,0-11.3c0-0.2-0.1-0.5-0.2-1c-1.1,1-2.1,1.9-3,2.8c-0.6,0.6-1.2,1.1-1.9,1.6c-0.2,0.1-0.6,0-0.9,0c0-0.3,0-0.6,0.1-0.9
		c0-0.1,0.1-0.1,0.1-0.2c1.9-1.8,3.7-3.7,5.6-5.5c0.6-0.5,1.4-0.6,1.9-0.1c2,1.8,3.8,3.7,5.7,5.6c0.2,0.2,0.1,0.7,0.1,1
		c-0.3-0.1-0.8,0-1-0.2c-1.1-0.9-2.2-2-3.2-3c-0.4-0.4-0.9-0.8-1.7-1.5c-0.1,1-0.2,1.6-0.2,2.2c0,2.9-0.1,5.9-0.1,8.8
		c0,2.3,0.3,2.8,2.6,3.2c3.8,0.7,7.1,2.2,10.2,4.5c1.4,1,1.4,1,2.7-0.3c2.4-2.4,4.7-4.8,7.1-7.2c0.1-0.1,0.3-0.3,0.4-0.4
		c0.5-0.7,0.3-1.3-0.5-1.4c-1-0.1-2,0-3-0.1c-0.8,0-1.6,0-2.5-0.1c-0.2,0-0.4-0.3-0.6-0.5c0.2-0.2,0.4-0.6,0.6-0.6
		c0.5-0.1,1-0.1,1.5-0.1c2,0,4.1,0,6.1,0c1.3,0,1.7,0.3,1.7,1.5c0.1,2.5,0,5,0,7.4c0,0.2,0,0.6-0.2,0.7c-0.2,0.1-0.7,0.1-0.7,0.1
		c-0.2-0.5-0.4-0.9-0.4-1.4c0-1.6,0-3.2,0-5c-0.5,0.3-0.8,0.3-1,0.5c-2.7,2.6-5.3,5.3-8,7.9c-0.7,0.7-0.8,1.2-0.2,1.9
		c2,2.3,2.7,5.2,3.6,7.9c0.3,1,0.5,2,0.8,2.9c0.4,1.4,0.7,1.6,2.2,1.7c2.5,0,5,0,7.4,0c1.3,0,2.6,0,4.3,0c-0.5-0.7-0.6-1.2-0.9-1.5
		C82.8,46.9,81.9,46,81,45c-0.4-0.4-0.7-0.9-1-1.4c-0.1-0.1,0-0.5,0.1-0.5c0.2-0.1,0.5-0.2,0.7-0.1c0.4,0.2,0.7,0.5,1,0.8
		c1.6,1.6,3.2,3.3,4.8,4.9c0.8,0.9,0.9,1.5,0.1,2.3c-1.7,1.8-3.5,3.6-5.2,5.3c-0.2,0.2-0.4,0.3-0.7,0.4c-0.2,0-0.6,0-0.7-0.1
		c-0.1-0.1-0.1-0.5,0.1-0.7c0.6-0.7,1.2-1.5,1.8-2.2c0.6-0.6,1.2-1.2,1.7-1.8c0.2-0.3,0.3-0.6,0.5-1.1c-0.4-0.1-0.7-0.2-1-0.2
		c-3.4,0-6.9,0-10.3,0c-1.6,0-2.1,0.4-2.3,1.9c-0.5,3.8-2,7.2-4.3,10.3c-0.9,1.3-0.9,1.3,0.1,2.4c2.6,2.6,5.2,5.2,7.9,7.8
		c0.2,0.2,0.4,0.3,0.8,0.5c0.1-0.6,0.2-0.9,0.2-1.3c0-1.5,0-3.1,0.1-4.6c0-0.3,0.5-0.6,0.8-0.9c0.2,0.3,0.5,0.6,0.5,0.9
		c0,2.5,0,5.1,0,7.6c0,0.9-0.6,1.4-1.4,1.5c-2.4,0.1-4.8,0.2-7.2,0.3c-0.4,0-0.7-0.1-1.1-0.3c-0.2-0.1-0.4-0.3-0.3-0.4
		c0.1-0.2,0.3-0.5,0.4-0.5c0.7-0.1,1.5-0.2,2.3-0.2c1.4-0.1,2.8-0.2,4.2-0.3c-0.2-1-0.8-1.5-1.4-2c-2.1-2.2-4.3-4.3-6.5-6.5
		c-1.2-1.2-1.7-1.3-2.9-0.3c-3,2.3-6.4,3.6-10.1,4.3c-1.9,0.3-2.1,0.7-2.2,2.5c-0.1,3.2,0,6.4,0,9.5c0,0.2,0,0.4,0,0.6
		c0.1,0.3,0.3,0.7,0.5,0.9c0.1,0.1,0.6-0.2,0.8-0.4c1-0.9,2-2,3-2.9c0.5-0.4,1-1.5,1.6-0.9c0.6,0.6-0.4,1.1-0.8,1.6
		c-1.4,1.6-2.9,3.2-4.4,4.7c-1.1,1.1-1.7,1.1-2.8,0.1c-1.7-1.6-3.3-3.2-4.9-4.8c-0.1-0.1-0.2-0.2-0.3-0.3c-0.1-0.3-0.2-0.7-0.2-1
		c0.4,0,0.8,0,1.2,0.2c0.4,0.2,0.7,0.6,1,0.9C46.3,82.6,47.4,83.6,48.7,84.8z M69.3,50c0.5-9.9-8.3-19.7-19.6-19.6
		c-10.1,0.1-19.5,8.2-19.4,19.7c0.1,11.2,8.9,19.5,19.4,19.5C61.6,69.6,69.6,59.8,69.3,50z"/>
	<path class="st1" d="M63.9,57.9c-0.7,0.1-1.3,0.4-2,0.4c-0.8,0-1.5,0.2-1.8,1.1c-0.1,0.3-0.3,0.7-0.5,0.7c-1.3,0.3-1.2,1.3-1.2,2.3
		c0,0.3,0.1,0.5,0,0.8c-0.2,0.4-0.4,1.1-0.7,1.1c-0.7,0-0.6-0.6-0.7-1.1c-0.1-0.6-0.1-1.3-0.4-1.8c-0.1-0.3-0.7-0.7-1-0.7
		c-0.3,0-0.8,0.5-0.9,0.8c-0.2,0.6-0.2,1.4-0.4,2c-0.1,0.3-0.3,0.5-0.5,0.8c-0.2-0.3-0.5-0.5-0.6-0.8c-0.1-0.5,0-1-0.1-1.5
		c-0.1-0.6-0.3-1.3-1.1-1.4c-0.8-0.1-1.2,0.5-1.4,1.3c-0.1,0.4-0.1,0.9-0.1,1.3c-0.1,0.5,0,1.2-0.6,1.2c-0.7,0-0.7-0.7-0.7-1.3
		c0-0.4,0.1-0.8,0-1.1c-0.1-0.4-0.3-0.8-0.5-1.2c-0.3-0.5-0.7-0.4-1.1-0.1c-0.7,0.5-0.8,1.3-0.8,2c0,0.6,0.3,1.6-0.6,1.6
		c-0.9,0-0.7-1-0.8-1.7c0-0.4-0.1-0.9-0.3-1.3c-0.2-0.3-0.7-0.7-1.1-0.6c-0.3,0-0.7,0.5-0.9,0.8c-0.2,0.4-0.1,0.9-0.2,1.3
		c-0.1,0.6,0.1,1.5-0.7,1.6c-0.8,0-0.6-0.9-0.7-1.5c-0.1-0.7-0.2-1.4-0.6-2c-0.8-1.5-2-2.5-3.8-2.4c-0.1,0-0.1,0-0.2,0
		c-0.5-0.1-1.4,0-1.3-0.7c0-0.7,0.8-0.7,1.4-0.7c0.5,0,1.1,0.1,1.5-0.2c0.4-0.2,1-0.8,1-1.2c0-0.4-0.6-0.9-1.1-1.1
		c-0.6-0.2-1.4-0.1-2.1-0.2c-0.2,0-0.4-0.4-0.7-0.6c0.2-0.2,0.4-0.5,0.7-0.6c0.4-0.1,0.9-0.1,1.3-0.1c0.4,0,0.8,0,1.1-0.2
		c0.4-0.3,0.8-0.8,0.7-1.2c0-0.4-0.6-0.8-1-0.9c-0.7-0.2-1.4-0.1-2.1-0.2c-0.3-0.1-0.5-0.5-0.7-0.7c0.3-0.2,0.5-0.4,0.8-0.5
		c0.6-0.1,1.2,0,1.7-0.1c0.7-0.2,1.5-0.5,1.4-1.3c0-0.8-0.8-1-1.6-1.1c-0.6,0-1.2,0-1.7-0.2c-0.2-0.1-0.4-0.4-0.6-0.6
		c0.2-0.2,0.4-0.5,0.7-0.5c0.7-0.1,1.4-0.1,2.1-0.2c0.6-0.1,1.3-0.3,1.1-1c-0.1-0.5-0.5-1-1-1.3c-0.5-0.3-1.1-0.2-1.7-0.3
		c-0.4-0.1-0.8-0.2-1.3-0.4c0.6-1.1,1.4-1.1,2.3-1.1c0.8,0,1.5,0,1.8-1c0.1-0.5,1.7-3.7,1.8-4.2c0.1-0.3,0.4-0.6,0.6-0.8
		c0.2,0.3,0.5,0.5,0.6,0.8c0.1,0.5,0.1,1,0.1,1.5c0.1,1,0.7,1.7,1.3,1.6c0.8-0.2,1.1-0.8,1.1-1.6c0-0.6,0-1.2,0.1-1.7
		c0.1-0.2,0.4-0.4,0.7-0.5c0.1,0,0.4,0.3,0.4,0.5c0.1,0.6,0,1.3,0.1,1.9c0.1,0.5,0.2,1,0.6,1.4c0.6,0.6,1.8,0.2,1.9-0.7
		c0.1-0.8,0-1.5,0.1-2.3c0-0.3,0.4-0.6,0.6-0.9c0.2,0.3,0.6,0.5,0.6,0.8c0.1,0.6,0.1,1.3,0.2,1.9c0.1,0.6,0.3,1.1,1.1,1.2
		c0.8,0.1,1.2-0.5,1.3-1.1c0.1-0.7,0.1-1.4,0.3-2.1c0-0.2,0.2-0.4,0.4-0.7c0.6,0.5,1,1.1,0.9,1.8c0,0.1,0,0.1,0,0.2
		c0.1,1.2,0.5,1.9,1.2,1.9c0.6,0,1.1-0.8,1.3-1.9c0.1-0.5,0.1-1,0.2-1.5c0-0.2,0.3-0.4,0.4-0.4c0.2,0,0.5,0.2,0.6,0.4
		c0.1,0.6,0.3,1.2,0.3,1.8c0,0.9,0.5,1.4,1,2.1c1.1,1.3,2.3,1.8,3.9,1.7c0.2,0,0.4,0.1,0.5,0.2c0.2,0.1,0.4,0.3,0.5,0.5
		c-0.2,0.2-0.3,0.4-0.5,0.5c-0.4,0.1-0.8,0.1-1.1,0.2c-0.4,0.1-0.9,0.1-1.3,0.3c-0.4,0.2-0.9,0.7-0.9,1.1c0,0.3,0.5,0.9,0.9,1
		c0.6,0.2,1.3,0.2,1.9,0.3c0.4,0.1,0.7,0.4,1.1,0.6c-0.4,0.3-0.7,0.6-1.2,0.8c-0.5,0.1-1,0-1.5,0.1c-0.3,0.1-0.7,0.2-1,0.5
		c-0.7,0.7-0.3,1.7,0.6,1.9c0.7,0.1,1.5,0.1,2.3,0.2c0.3,0,0.5,0.3,0.7,0.5c-0.2,0.2-0.4,0.5-0.6,0.6c-0.4,0.1-0.9,0.1-1.3,0.1
		c-0.4,0-0.8,0.1-1.1,0.2c-0.9,0.4-1,1.4-0.1,1.9c0.5,0.3,1.1,0.3,1.6,0.4c0.4,0.1,0.8,0,1.1,0.1c0.2,0,0.4,0.2,0.4,0.4
		c0,0.1-0.1,0.4-0.2,0.5c-0.4,0.2-0.8,0.3-1.2,0.4c-0.5,0.1-1,0-1.5,0.1c-0.7,0.2-1.1,0.6-1,1.4c0.1,0.7,0.5,1,1.2,1
		c0.6,0,1.3,0,1.9,0.1c0.2,0,0.4,0.3,0.6,0.4C63.9,57.6,63.9,57.8,63.9,57.9z M49.8,41.1C49.8,41.1,49.8,41.1,49.8,41.1
		c-2.3,0-4.6,0-6.9,0c-1.6,0-2,0.4-2.1,2c0,0.6,0,1.3,0,1.9c0,3.8,0,7.5,0,11.3c0,2.1,0.4,2.6,2.5,2.6c4,0,8,0,12,0
		c3.4,0,3.4,0,3.4-3.4c0-4.2-0.1-8.4-0.1-12.6c0-1.4-0.4-1.8-1.9-1.8C54.5,41.1,52.1,41.1,49.8,41.1z"/>
	<path class="st1" d="M43.6,55.5c0-0.5-0.2-1.1,0-1.5c0.8-2.9,1.7-5.7,2.7-8.5c0.1-0.4,0.5-0.8,0.8-1.2c0.4,0.4,1,0.7,1.1,1.1
		c0.8,2,1.4,4.1,2.1,6.1c0.3,1,0.6,1.9,0.9,2.9c0.2,0.5,0.3,1-0.3,1.1c-0.3,0.1-0.8-0.3-1-0.6c-0.3-0.4-0.4-0.9-0.5-1.4
		c-0.5-1.6-1-2-2.1-2c-1.3,0-1.7,0.8-2,1.9c-0.2,0.8-0.7,1.5-1,2.2C44.1,55.5,43.8,55.5,43.6,55.5z"/>
	<path class="st1" d="M54.4,49.8c0-1.5,0-2.9,0-4.4c0-0.3,0.4-0.7,0.6-1c0.2,0.3,0.6,0.7,0.6,1c0.1,1.1,0.1,2.2,0.1,3.2
		c0,1.6,0,3.2,0,4.8c0,0.4,0,0.8-0.1,1.1c-0.1,0.3-0.5,0.5-0.7,0.8c-0.2-0.3-0.4-0.5-0.4-0.8C54.4,53,54.4,51.4,54.4,49.8
		C54.4,49.8,54.4,49.8,54.4,49.8z"/>
</g>
</svg>
