<?xml version="1.0" encoding="utf-8"?>
<!-- Generator: Adobe Illustrator 23.0.0, SVG Export Plug-In . SVG Version: 6.00 Build 0)  -->
<svg version="1.1" id="Layer_1" xmlns="http://www.w3.org/2000/svg" xmlns:xlink="http://www.w3.org/1999/xlink" x="0px" y="0px"
	 viewBox="0 0 100 100" style="enable-background:new 0 0 100 100;" xml:space="preserve">
<style type="text/css">
	.st0{fill:#FF0000;}
	.st1{fill:#FFFFFF;}
	.st2{fill:none;}
	.st3{fill:none;stroke:#000000;stroke-width:4;stroke-miterlimit:10;}
	.st4{fill:none;stroke:#000000;stroke-width:4;stroke-linecap:round;stroke-linejoin:round;stroke-miterlimit:10;}
	.st5{fill:none;stroke:#000000;stroke-width:4.7042;stroke-miterlimit:10;}
	.st6{fill:none;stroke:#000000;stroke-width:4.7042;stroke-linecap:round;stroke-linejoin:round;stroke-miterlimit:10;}
	.st7{fill:none;stroke:#000000;stroke-width:10;stroke-linecap:round;stroke-linejoin:round;stroke-miterlimit:10;}
	.st8{fill:none;stroke:#FFFFFF;stroke-width:2.5502;stroke-linecap:round;stroke-linejoin:round;stroke-miterlimit:10;}
	.st9{fill:none;stroke:#000000;stroke-width:1.2703;stroke-miterlimit:10;}
	.st10{fill:none;stroke:#000000;stroke-width:1.2703;stroke-linecap:round;stroke-linejoin:round;stroke-miterlimit:10;}
</style>
<g>
	<path class="st1" d="M67.4,10.7c5.3,0,10.6,0,15.9,0c6.7,0,10.3,3.4,10.3,10c0.1,10.8,0.1,21.6,0,32.4c0,6.4-3.5,9.8-9.9,9.8
		c-7.9,0-15.7,0-23.6,0c-1.7,0-3.5-0.1-3.5-2.3c-0.1-2.5,1.9-2.4,3.6-2.4c7.5,0,15,0,22.5,0c4.9,0,6.2-1.3,6.2-6.3
		c0-10.1,0-20.3,0-30.4c0-4.6-1.3-5.9-5.9-5.9c-10.5,0-21,0-31.6,0c-4.2,0-5.1,1-5.2,5.2c0,7.5,0,15,0,22.5c0,0.7,0.2,1.5-0.1,2
		c-0.6,1-1.5,1.8-2.3,2.7c-0.8-0.9-2.1-1.7-2.2-2.7c-0.3-3.1-0.1-6.2-0.1-9.4c0-5.2,0-10.4,0-15.6c0-6.5,3-9.5,9.6-9.5
		C56.5,10.7,62,10.7,67.4,10.7z"/>
	<path class="st1" d="M75.3,25.4c-3.1,0-5.6,0.2-8-0.1c-1-0.1-2.5-1.2-2.7-2.1c-0.4-1.7,1-2.5,2.6-2.5c4.5,0,8.9,0,13.4,0
		c2,0,3.1,1,3.1,2.9c0.1,4.4,0.1,8.7,0,13.1c0,1.6-0.6,3.1-2.6,3c-1.9-0.1-2.2-1.5-2.2-3c0-2.3,0-4.5,0-7.5
		c-1.3,1.2-2.1,1.9-2.9,2.7C61.2,46.6,46.5,61.4,31.8,76.1c-0.1,0.1-0.3,0.3-0.4,0.4c-1.3,1.2-2.8,2-4.2,0.5
		c-1.3-1.4-0.5-2.7,0.7-3.9C37,64,46.1,54.9,55.2,45.8c6.2-6.2,12.5-12.5,18.7-18.7C74.2,26.8,74.5,26.4,75.3,25.4z"/>
	<path class="st1" d="M35,87.9c-3.6,0-7.2,0-10.8,0c-4.8-0.1-7.6-2.8-7.7-7.6c-0.1-7.3-0.1-14.6,0-21.9c0.1-4.9,2.8-7.7,7.8-7.8
		c4.1-0.1,8.1,0,12.2,0c1.7,0,3.4,0.3,3.4,2.5c0,2.2-1.6,2.4-3.4,2.4c-3.9,0-7.8,0-11.6,0c-2.5,0-3.6,1.1-3.6,3.6
		c0,6.8,0.1,13.6,0,20.4c0,2.6,1.1,3.5,3.6,3.5c6.7-0.1,13.4,0,20.2,0c3.4,0,3.8-0.6,3.9-4.1c0-3.6,0-7.2,0-10.8
		c0-1.8,0.1-3.7,2.5-3.6c2.3,0,2.2,1.9,2.2,3.5c0,4.2,0.1,8.3,0,12.5c-0.1,4.5-2.8,7.2-7.3,7.3C42.6,88,38.8,87.9,35,87.9
		C35,87.9,35,87.9,35,87.9z"/>
</g>
</svg>
