<?xml version="1.0" encoding="utf-8"?>
<!-- Generator: Adobe Illustrator 23.0.0, SVG Export Plug-In . SVG Version: 6.00 Build 0)  -->
<svg version="1.1" id="Layer_1" xmlns="http://www.w3.org/2000/svg" xmlns:xlink="http://www.w3.org/1999/xlink" x="0px" y="0px"
	 viewBox="0 0 100 100" style="enable-background:new 0 0 100 100;" xml:space="preserve">
<style type="text/css">
	.st0{fill:#FF0000;}
	.st1{fill:#FFFFFF;}
	.st2{fill:none;}
	.st3{fill:none;stroke:#000000;stroke-width:4;stroke-miterlimit:10;}
	.st4{fill:none;stroke:#000000;stroke-width:4;stroke-linecap:round;stroke-linejoin:round;stroke-miterlimit:10;}
	.st5{fill:none;stroke:#000000;stroke-width:4.7042;stroke-miterlimit:10;}
	.st6{fill:none;stroke:#000000;stroke-width:4.7042;stroke-linecap:round;stroke-linejoin:round;stroke-miterlimit:10;}
	.st7{fill:none;stroke:#000000;stroke-width:10;stroke-linecap:round;stroke-linejoin:round;stroke-miterlimit:10;}
	.st8{fill:none;stroke:#FFFFFF;stroke-width:2.5502;stroke-linecap:round;stroke-linejoin:round;stroke-miterlimit:10;}
	.st9{fill:none;stroke:#000000;stroke-width:1.2703;stroke-miterlimit:10;}
	.st10{fill:none;stroke:#000000;stroke-width:1.2703;stroke-linecap:round;stroke-linejoin:round;stroke-miterlimit:10;}
</style>
<g>
	<path class="st1" d="M74.2,25.1c2.3,4.6,4.5,9,6.7,13.5c-0.7,0.6-1.3,1.1-2,1.5c-0.7,0.4-1.4,0.7-2.1,0.9c-1.9,0.6-2.6,2-2.6,3.9
		c0,2,0.7,3.6,2.6,4.5c1,0.4,2.1,0.6,3,1.1c1.6,0.7,1.8,1.1,1.2,2.7c-1.3,3.8-2.7,7.5-4.1,11.6c-0.7-0.7-1.4-1.2-2-1.7
		c-2.1-2-4.2-4.1-6.4-6c-1-0.9-1.2-1.7-0.8-3c1.7-5.3,1.6-10.7-0.7-15.8c-3.4-7.8-9.7-11.9-17.9-13.3c-12.3-2.1-24,7.9-25.2,20
		c-1,9.9,5.4,21.4,17.4,24.1c4.4,1,8.7,0.7,13-0.9c0.7-0.3,1.4-0.5,2.1-0.7c3,3,5.9,6,8.9,9.1c-3.3,1.6-6.8,3.3-10.2,5
		c-1.6-1-2-2.5-2.7-3.7c-0.6-1.1-0.9-2.4-2.3-2.7c-1.6-0.3-3.3-0.1-4.7,0.7c-0.6,0.4-1,1.1-1.3,1.8c-0.5,1-0.8,2.2-1.2,3.2
		c-0.3,1-1.1,1.4-2,1.1c-4.3-1.5-8.6-3-12.8-4.5c-0.3-1.9,0.6-3.3,1-4.7c0.7-2.6-0.3-4.8-2.9-5.7c-0.8-0.3-1.7-0.3-2.5-0.1
		c-1,0.3-2,0.8-3,1.3c-2,0.9-2.3,0.8-3.3-1c-1.6-3.2-3.3-6.5-4.8-9.7c-0.9-1.9-0.8-2.3,1.1-3.3c1-0.5,2-0.9,2.9-1.4
		c0.6-0.4,1.3-0.9,1.6-1.5c1.1-2.3-0.4-5.5-2.7-6.4c-1.4-0.5-2.8-1.1-4.4-1.7c0.2-0.9,0.3-1.6,0.6-2.2c1.2-3.5,2.4-7,3.7-10.5
		c0.6-1.7,0.9-1.8,2.6-1.3c1,0.3,2.1,0.7,3.1,1.1c1.5,0.6,2.9,0.5,3.9-1c0-0.1,0.1-0.1,0.1-0.2c2.5-2.8,2.5-2.8,0.8-6
		c-2.2-4.2-1.4-3.6,1.6-5.1c2.9-1.5,5.8-2.9,8.7-4.3c1.9-0.9,2-0.8,3,1.1c0.6,1.1,1.1,2.2,1.6,3.3c0.4,0.9,1.2,1.4,2.2,1.4
		c0.5,0,0.9,0,1.4,0c3-0.2,3.5-0.6,4.5-3.4c0.3-0.7,0.5-1.5,0.8-2.2c0.6-1.4,1-1.7,2.5-1.3c1.7,0.5,3.3,1.2,5,1.8
		c2,0.7,4.1,1.4,6.1,2.2c1.4,0.5,1.6,0.9,1.2,2.3c-0.3,1-0.6,1.9-1,2.8c-0.8,1.8-0.5,3.2,1,4.5c2.7,2.3,2.9,2.4,6.1,0.7
		C71.8,26.2,72.8,25.8,74.2,25.1z"/>
	<path class="st1" d="M37.8,46.2c1.6,0.9,2.9,1.7,4.2,2.3c0.7,0.3,1.5,0.5,2.2,0.4c2-0.4,3-2.1,3.6-3.8c0.6-1.7,0.2-3.2-1.2-4.4
		c-1-0.8-2.1-1.5-3.1-2.3c4.9-2.3,10.8,1.3,10.5,6.6c-0.1,2.5,0.6,4.4,2.4,6.1c6.2,5.8,12.2,11.8,18.3,17.7c0.7,0.6,1.4,1.2,2.1,1.8
		c1,0.9,2.2,1.3,3.6,1.2c0.5-0.1,1.1-0.1,1.6-0.1c3.8,0.1,6.6,3.1,6.5,7.2c-1-0.6-2-1.2-3-1.7c-2.5-1.3-4.2-0.9-5.8,1.4
		c-1.8,2.7-1.7,4.7,0.6,6.5c0.8,0.7,1.8,1.2,2.8,1.9c-1.3,0.8-2.5,0.9-3.8,0.7c-2.5-0.4-4.4-1.8-5.8-3.8c-0.8-1.2-1.3-2.4-1-3.9
		c0.4-1.9-0.2-3.4-1.7-4.8c-6.3-5.9-12.5-11.9-18.7-17.9c-0.9-0.9-1.8-1.7-2.7-2.6c-0.9-0.9-1.9-1.1-3.2-0.9
		c-4.5,0.7-7.3-1.3-8.4-5.8C38.1,47.5,38,47,37.8,46.2z"/>
</g>
</svg>
