<?xml version="1.0" encoding="utf-8"?>
<!-- Generator: Adobe Illustrator 23.0.0, SVG Export Plug-In . SVG Version: 6.00 Build 0)  -->
<svg version="1.1" id="Layer_1" xmlns="http://www.w3.org/2000/svg" xmlns:xlink="http://www.w3.org/1999/xlink" x="0px" y="0px"
	 viewBox="0 0 100 100" style="enable-background:new 0 0 100 100;" xml:space="preserve">
<style type="text/css">
	.st0{fill:#FF0000;}
	.st1{fill:#FFFFFF;}
	.st2{fill:none;}
	.st3{fill:none;stroke:#000000;stroke-width:4;stroke-miterlimit:10;}
	.st4{fill:none;stroke:#000000;stroke-width:4;stroke-linecap:round;stroke-linejoin:round;stroke-miterlimit:10;}
	.st5{fill:none;stroke:#000000;stroke-width:4.7042;stroke-miterlimit:10;}
	.st6{fill:none;stroke:#000000;stroke-width:4.7042;stroke-linecap:round;stroke-linejoin:round;stroke-miterlimit:10;}
	.st7{fill:none;stroke:#000000;stroke-width:10;stroke-linecap:round;stroke-linejoin:round;stroke-miterlimit:10;}
	.st8{fill:none;stroke:#FFFFFF;stroke-width:2.5502;stroke-linecap:round;stroke-linejoin:round;stroke-miterlimit:10;}
	.st9{fill:none;stroke:#000000;stroke-width:1.2703;stroke-miterlimit:10;}
	.st10{fill:none;stroke:#000000;stroke-width:1.2703;stroke-linecap:round;stroke-linejoin:round;stroke-miterlimit:10;}
</style>
<g>
	<path class="st1" d="M19.6,58.1L19.6,58.1c16.8-16.8,44-16.8,60.8,0l0,0c3.8-3.8,3.3-10.3-1.2-13.3C61.6,33,38.4,33,20.8,44.8
		C16.3,47.8,15.7,54.3,19.6,58.1z M45.3,83.8l4.7,4.7l4.1-4.1c3.7-3.7,1.2-10.3-4-10.3c-0.5,0-0.9,0-1.4,0.1
		C43.9,74.7,41.9,80.5,45.3,83.8z M33.1,71.6L33.1,71.6c9.3-9.3,24.5-9.3,33.8,0l0,0c4-4,2.9-10.7-2.2-13.1
		c-9.3-4.5-20.2-4.5-29.5,0C30.2,60.9,29.1,67.6,33.1,71.6z"/>
	<path class="st1" d="M13.1,42.1L13.1,42.1C33.5,20,66.5,20,86.9,42.1l0,0c4.7-5,4-13.5-1.5-17.5C64.1,9.1,36,9.1,14.6,24.6
		C9.1,28.6,8.5,37,13.1,42.1z"/>
</g>
</svg>
