<?xml version="1.0" encoding="utf-8"?>
<!-- Generator: Adobe Illustrator 23.0.0, SVG Export Plug-In . SVG Version: 6.00 Build 0)  -->
<svg version="1.1" id="Layer_1" xmlns="http://www.w3.org/2000/svg" xmlns:xlink="http://www.w3.org/1999/xlink" x="0px" y="0px"
	 viewBox="0 0 100 100" style="enable-background:new 0 0 100 100;" xml:space="preserve">
<style type="text/css">
	.st0{fill:#FF0000;}
	.st1{fill:#FFFFFF;}
	.st2{fill:none;}
	.st3{fill:none;stroke:#000000;stroke-width:4;stroke-miterlimit:10;}
	.st4{fill:none;stroke:#000000;stroke-width:4;stroke-linecap:round;stroke-linejoin:round;stroke-miterlimit:10;}
	.st5{fill:none;stroke:#000000;stroke-width:4.7042;stroke-miterlimit:10;}
	.st6{fill:none;stroke:#000000;stroke-width:4.7042;stroke-linecap:round;stroke-linejoin:round;stroke-miterlimit:10;}
	.st7{fill:none;stroke:#000000;stroke-width:10;stroke-linecap:round;stroke-linejoin:round;stroke-miterlimit:10;}
	.st8{fill:none;stroke:#FFFFFF;stroke-width:2.5502;stroke-linecap:round;stroke-linejoin:round;stroke-miterlimit:10;}
	.st9{fill:none;stroke:#000000;stroke-width:1.2703;stroke-miterlimit:10;}
	.st10{fill:none;stroke:#000000;stroke-width:1.2703;stroke-linecap:round;stroke-linejoin:round;stroke-miterlimit:10;}
</style>
<g>
	<g>
		<path class="st1" d="M76.8,87.7c-0.9-0.5-2.1-0.8-2.8-1.5c-2.5-3-4.9-6.1-7.1-9.2c-0.7-0.9-1-2.3-1-3.5c-0.1-3.7,0-7.4,0-11.1
			c0.1-4.1-2-7.6-5.8-9.5c0,3.4-0.1,6.7,0.1,10.1c0,0.8,1,1.6,1.6,2.4c0.7,1,2,1.9,0.6,3.2c-1.3,1.2-2.3,0.1-3.2-0.8
			c-2.3-2.3-4.7-4.7-7-7c-0.2-0.2-0.4-0.5-0.6-0.5c-0.8-0.1-1.8-0.4-2.2,0c-0.4,0.3-0.5,1.6-0.1,2.1c1.7,2.7,3.5,5.2,5.4,7.8
			c1.4,1.9,2.1,4,2,6.5c-0.1,3,0.7,5.7,2.6,8.1c0.8,1,1.2,2,0,2.9c-1.1,0.9-2,0.2-2.6-0.8C56,85.8,55.2,85,54.8,84
			c-0.7-1.8-1.9-2.2-3.7-2.2c-6,0.1-12,0-18,0c-4.4,0-6.9-1.5-7.8-4.7c-0.3-1.2-0.4-2.5-0.4-3.7c0-10.3,0-20.6,0-30.9
			c0-6,2.4-8.4,8.5-8.3c6,0,12,0,18,0c1.1,0,2.1,0.1,3.1,0.3c3.5,0.6,5.4,2.8,5.4,6.5c0,1.5-0.1,3.1,0.2,4.5
			c0.4,2.7,2.1,4.6,4.3,6.2c3.5,2.5,5.1,5.9,5.1,10.2c0,3.4-0.2,6.7,0.1,10.1c0.1,1.7,0.8,3.6,1.8,5.1c1.5,2.3,3.4,4.4,5,6.7
			c0.7,1,1,2.4,1.4,3.5C77.3,87.3,77,87.5,76.8,87.7z M56.4,60c0-6.8,0.1-13.1-0.1-19.5c-0.1-2.2-1.2-2.9-3.6-3
			c-6.9,0-13.7,0-20.6,0c-2.8,0-3.9,1.2-3.9,4.1c0,10.9-0.1,21.8,0,32.7c0,3.1,1.2,4.1,4.2,4.1c5.8,0,11.6,0,17.4,0
			C53,78.3,54,77,53,74c-0.3-0.8-0.8-1.5-1.3-2.2c-1.8-2.6-3.6-5.2-5.4-7.8c-1.5-2.3-1.3-4.7,0.5-6.4c1.9-1.8,4.4-1.9,6.6-0.1
			C54.4,58.1,55.3,58.9,56.4,60z"/>
		<path class="st1" d="M22.4,20.4c5-5.3,11.2-7.7,18.2-8.2c7.4-0.5,14.1,1.7,19.8,6.4c0.8,0.7,2.7,1.1,1.4,2.8c-1.2,1.7-2.4,1-3.6,0
			c-3.3-2.6-7-4.5-11.1-5.3c-7.7-1.5-14.5,0.5-20.6,5.2C24.4,23,24.1,22.9,22.4,20.4z"/>
		<path class="st1" d="M58,25c-0.5,0.6-1,1.4-1.5,1.5c-0.7,0.2-1.6-0.1-2.3-0.4c-2.5-1.2-4.8-2.9-7.4-3.6
			c-5.9-1.6-11.3-0.3-16.1,3.5c-0.9,0.7-1.7,1.2-2.8,0.3c-1-0.9-1.1-1.6-0.1-2.6c7.5-7.1,21.6-7,29.2,0.1C57.3,24.2,57.6,24.6,58,25
			z"/>
		<path class="st1" d="M53.7,29.8c-1.3,1.6-2.5,2-4.4,0.7c-4.7-3.2-9.5-3.2-14.2,0.1c-1.1,0.8-2,1.1-3.1,0c-0.7-0.8-0.8-1.4,0-2.2
			C37.6,23,48.8,23.6,53.7,29.8z"/>
		<path class="st1" d="M36.2,46.8C34,45.5,34,45.2,36,43.2C38.1,45,38.1,45.2,36.2,46.8z"/>
		<path class="st1" d="M47.1,45.3c1.6-2,1.7-2,3.7,0C49,47.3,48.6,47.3,47.1,45.3z"/>
	</g>
	<circle class="st1" cx="36.1" cy="44.8" r="2"/>
	<circle class="st1" cx="42.6" cy="44.8" r="2"/>
	<circle class="st1" cx="49.1" cy="44.8" r="2"/>
	<circle class="st1" cx="36.1" cy="52.8" r="2"/>
	<circle class="st1" cx="42.6" cy="52.8" r="2"/>
	<circle class="st1" cx="36.1" cy="60.8" r="2"/>
	<circle class="st1" cx="42.6" cy="60.8" r="2"/>
	<circle class="st1" cx="36.1" cy="67.8" r="2"/>
	<circle class="st1" cx="42.6" cy="67.8" r="2"/>
	<circle class="st1" cx="49.1" cy="52.8" r="2"/>
</g>
</svg>
