<?xml version="1.0" encoding="utf-8"?>
<!-- Generator: Adobe Illustrator 23.0.0, SVG Export Plug-In . SVG Version: 6.00 Build 0)  -->
<svg version="1.1" id="Layer_1" xmlns="http://www.w3.org/2000/svg" xmlns:xlink="http://www.w3.org/1999/xlink" x="0px" y="0px"
	 viewBox="0 0 100 100" style="enable-background:new 0 0 100 100;" xml:space="preserve">
<style type="text/css">
	.st0{fill:#FF0000;}
	.st1{fill:#FFFFFF;}
	.st2{fill:none;}
	.st3{fill:none;stroke:#000000;stroke-width:4;stroke-miterlimit:10;}
	.st4{fill:none;stroke:#000000;stroke-width:4;stroke-linecap:round;stroke-linejoin:round;stroke-miterlimit:10;}
	.st5{fill:none;stroke:#000000;stroke-width:4.7042;stroke-miterlimit:10;}
	.st6{fill:none;stroke:#000000;stroke-width:4.7042;stroke-linecap:round;stroke-linejoin:round;stroke-miterlimit:10;}
	.st7{fill:none;stroke:#000000;stroke-width:10;stroke-linecap:round;stroke-linejoin:round;stroke-miterlimit:10;}
	.st8{fill:none;stroke:#FFFFFF;stroke-width:2.5502;stroke-linecap:round;stroke-linejoin:round;stroke-miterlimit:10;}
	.st9{fill:none;stroke:#000000;stroke-width:1.2703;stroke-miterlimit:10;}
	.st10{fill:none;stroke:#000000;stroke-width:1.2703;stroke-linecap:round;stroke-linejoin:round;stroke-miterlimit:10;}
</style>
<g>
	<path class="st1" d="M27,64.1c-4,0-7.8,0-11.6,0c-2.3,0-4.3-0.6-4.2-3.3c0.1-2.7,2-3,4.2-3c5.4,0.1,10.8,0,16.3,0
		c3.9,11.7,10,21.2,23.7,22.2C64.2,80.6,73,77,78,70.6c-2.7,0.1-5,0.2-7.2,0.4c-2,0.2-3.7-0.1-3.8-2.5c-0.1-2.1,1.6-2.6,3.4-2.7
		c4.2-0.3,8.5-0.8,12.7-1.1c4.1-0.3,4.5,0.1,4.9,4.1c0.4,4.3,0.9,8.7,1,13c0,1.2-1.1,3.1-2.1,3.4c-2.1,0.7-2.8-1.1-3-2.9
		c-0.2-2.1-0.4-4.3-0.7-7.1c-8.9,9.2-19.4,12.6-31.5,10.7C38.9,84,31.9,75.4,27,64.1z"/>
	<path class="st1" d="M42.9,52.6c0-7.1,5.5-12.8,12.4-12.8c7.3,0,13,5.5,13.1,12.6c0,7.3-5.7,12.9-13,12.9
		C48.4,65.3,42.9,59.7,42.9,52.6z"/>
	<path class="st1" d="M31.8,48.9c-6,0-11.7,0-17.4,0c-1.9,0-3.2-1-3.3-3c-0.1-2.2,1.2-3.3,3.2-3.4c4.1-0.1,8.3,0,12.5,0
		c1.4-2.7,2.7-5.3,4.2-7.7c5.2-8.2,12.4-13.5,22.4-14.4c2.3-0.2,4.3,0.2,4.5,2.9c0.2,2.5-1.6,3.2-3.8,3.4C42.8,28,36.9,35.4,33,45.1
		C32.6,46.2,32.2,47.4,31.8,48.9z"/>
	<path class="st1" d="M70.2,24.3c2.8-1.4,5.3-2.8,8-3.8c1.2-0.4,3.4-0.4,3.9,0.3c1.3,1.8-0.5,2.6-2,3.3c-2.7,1.3-5.3,2.7-8.2,4.2
		c1.5,3,3,5.7,4.1,8.5c0.4,1-0.2,2.4-0.3,3.6c-1.1-0.5-2.8-0.8-3.4-1.7c-1.6-2.6-2.9-5.5-4.4-8.4c-2.9,1.3-5.6,2.8-8.5,3.8
		c-1,0.4-2.4-0.4-3.7-0.6c0.7-1.1,1.1-2.6,2-3.2c2.6-1.5,5.4-2.6,8.4-4c-1.4-3.1-2.8-5.9-3.9-8.9c-0.4-1-0.1-2.9,0.6-3.4
		c1.6-1.1,2.6,0.2,3.2,1.7C67.5,18.5,68.8,21.3,70.2,24.3z"/>
</g>
</svg>
