<?xml version="1.0" encoding="utf-8"?>
<!-- Generator: Adobe Illustrator 23.0.0, SVG Export Plug-In . SVG Version: 6.00 Build 0)  -->
<svg version="1.1" id="Layer_1" xmlns="http://www.w3.org/2000/svg" xmlns:xlink="http://www.w3.org/1999/xlink" x="0px" y="0px"
	 viewBox="0 0 100 100" style="enable-background:new 0 0 100 100;" xml:space="preserve">
<style type="text/css">
	.st0{fill:#FF0000;}
	.st1{fill:#FFFFFF;}
	.st2{fill:none;}
	.st3{fill:none;stroke:#000000;stroke-width:4;stroke-miterlimit:10;}
	.st4{fill:none;stroke:#000000;stroke-width:4;stroke-linecap:round;stroke-linejoin:round;stroke-miterlimit:10;}
	.st5{fill:none;stroke:#000000;stroke-width:4.7042;stroke-miterlimit:10;}
	.st6{fill:none;stroke:#000000;stroke-width:4.7042;stroke-linecap:round;stroke-linejoin:round;stroke-miterlimit:10;}
	.st7{fill:none;stroke:#000000;stroke-width:10;stroke-linecap:round;stroke-linejoin:round;stroke-miterlimit:10;}
	.st8{fill:none;stroke:#FFFFFF;stroke-width:2.5502;stroke-linecap:round;stroke-linejoin:round;stroke-miterlimit:10;}
	.st9{fill:none;stroke:#000000;stroke-width:1.2703;stroke-miterlimit:10;}
	.st10{fill:none;stroke:#000000;stroke-width:1.2703;stroke-linecap:round;stroke-linejoin:round;stroke-miterlimit:10;}
</style>
<g>
	<path class="st1" d="M23.6,54.9c1.4-2.1,2.4-4,3.8-5.5c0.6-0.7,2-0.7,3-1.1c0.2,1,0.8,2.3,0.4,3c-2.2,3.8-4.7,7.4-6.9,10.8
		c-2.6,0.2-12.1-5.6-13.8-8.4c0.4-0.6,0.9-1.4,1.6-2.5c2.2,1.2,4.2,2.3,6.5,3.6c-0.3-1.8-0.6-3.3-0.8-4.9
		c-2.1-18.7,9.7-35.5,28.1-39.8C59.8,6.8,75,12.7,83.3,24.8C92,37.2,92.2,53,84,65.6c-0.9,1.4-2,2.1-3.4,1.2
		c-1.4-0.8-1.4-2.1-0.9-3.6c1.6-4.1,3.9-8.2,4.6-12.5C87.7,30.4,71.6,13,51.1,14.4C31.4,15.7,17.6,35.7,23.6,54.9z"/>
	<path class="st1" d="M45.6,63.3c-0.8-1.2-1.3-2.1-1.9-2.9c-4.4-6.1-6.5-12.7-4.8-20.2c1.7-7.5,8.4-12,16-11.2
		c8,0.8,13.3,6.4,13.7,14.2c0.4,6.4-1.6,12-5.3,17.1c-0.8,1-1.2,2.3-1.9,3.7c2.9,1.3,5.4,2,7.6,3.4c3.2,2,6.6,4,9.1,6.8
		c3.9,4.2,2.6,10.4-2.5,12.9c-2.8,1.4-5.9,2.4-9,2.8C56.8,91,46.9,91.3,37,89.1c-1.7-0.4-3.3-0.9-4.8-1.6c-6-2.7-7.3-9.5-2.9-14.3
		c3.5-3.8,8.1-5.9,12.7-8C43.2,64.8,44.2,64.1,45.6,63.3z M51.9,87.1c5.8-0.5,10.6-0.7,15.5-1.4c2.1-0.3,4.3-1.1,6.2-2.1
		c3.1-1.5,3.8-4.5,1.6-7.1c-1.7-2-4-3.6-6.2-4.9c-2.4-1.4-5-2.3-7.5-3.4c-2.7-1.2-3.9-3.2-3.3-6c0.4-1.5,1.1-3,2.1-4.3
		c3-4.2,4.8-8.8,4.6-14.1c-0.3-6.4-4.9-11-11-11.1c-6.5,0-11.1,4.3-11.5,10.8c-0.3,5.8,1.7,10.8,5.2,15.3c2.8,3.7,1.9,7.4-2.3,9.4
		c-1,0.5-2,0.7-2.9,1.3c-3.3,2-6.8,3.8-9.8,6.2c-3.2,2.6-2.3,6.5,1.4,8.2c1.2,0.6,2.6,1.1,3.9,1.3C42.8,86,47.8,86.6,51.9,87.1z"/>
</g>
</svg>
