<?xml version="1.0" encoding="utf-8"?>
<!-- Generator: Adobe Illustrator 23.0.0, SVG Export Plug-In . SVG Version: 6.00 Build 0)  -->
<svg version="1.1" id="Layer_1" xmlns="http://www.w3.org/2000/svg" xmlns:xlink="http://www.w3.org/1999/xlink" x="0px" y="0px"
	 viewBox="0 0 100 100" style="enable-background:new 0 0 100 100;" xml:space="preserve">
<style type="text/css">
	.st0{fill:#FF0000;}
	.st1{fill:#FFFFFF;}
	.st2{fill:none;}
	.st3{fill:none;stroke:#000000;stroke-width:4;stroke-miterlimit:10;}
	.st4{fill:none;stroke:#000000;stroke-width:4;stroke-linecap:round;stroke-linejoin:round;stroke-miterlimit:10;}
	.st5{fill:none;stroke:#000000;stroke-width:4.7042;stroke-miterlimit:10;}
	.st6{fill:none;stroke:#000000;stroke-width:4.7042;stroke-linecap:round;stroke-linejoin:round;stroke-miterlimit:10;}
	.st7{fill:none;stroke:#000000;stroke-width:10;stroke-linecap:round;stroke-linejoin:round;stroke-miterlimit:10;}
	.st8{fill:none;stroke:#FFFFFF;stroke-width:2.5502;stroke-linecap:round;stroke-linejoin:round;stroke-miterlimit:10;}
	.st9{fill:none;stroke:#000000;stroke-width:1.2703;stroke-miterlimit:10;}
	.st10{fill:none;stroke:#000000;stroke-width:1.2703;stroke-linecap:round;stroke-linejoin:round;stroke-miterlimit:10;}
</style>
<g>
	<path class="st1" d="M24,76.8c1.5-3.8,3.1-7.7,4.7-11.6c-1.9,0-3.7,0-5.8,0c5.5-5.2,10.9-10.3,16.3-15.4c0,0,0.1,0,0.1,0.1
		c-1.4,3.7-2.8,7.5-4.2,11.3c2.1,0,4.1,0,6.1,0c0.1,0.1,0.1,0.1,0.2,0.2C35.6,66.6,29.9,71.8,24.2,77C24.1,76.9,24,76.9,24,76.8z"/>
</g>
<g>
	<path class="st1" d="M58.3,78.5c-6.3,0-12.5,0-18.8,0c-0.5,0-1,0.1-1.5,0c-0.4-0.1-1-0.4-1.1-0.7c-0.2-0.5-0.2-1.2,0.1-1.7
		c0.2-0.3,0.8-0.5,1.2-0.6c0.6-0.1,1.2,0,1.7,0c2.5,0,5.1,0,7.6,0c1.7,0,2.3-0.6,2.4-2.4c0-1.4,0-2.8,0-4.1c0-2.8,0-5.5,0-8.3
		c0-1.4-0.4-2.6-1.3-3.8c-2.2-2.8-4.4-5.6-6.6-8.4c-1.8-2.2-3.4-4.4-5.2-6.6c-1.2-1.4-2.2-3-3.6-4.4c-0.6-0.6-0.9-0.4-1.4,0.1
		c-1.5,1.6-3,3.2-4.2,5c-0.6,0.9-1.4,1.7-2.1,2.6c-2.2,2.8-4.7,5.4-6.7,8.4c-0.7,1-1.6,1.9-2.4,2.9c-1.1,1.4-1.7,2.9-1.8,4.7
		c0,3.9,0,7.7,0,11.6c0,0.3,0,0.6,0,0.9c0.2,1.2,0.8,1.8,2.1,1.8c1.7,0,3.5,0,5.2,0c0.7,0,1.3,0.1,1.4,0.9c0.2,0.9,0,1.2-0.9,1.7
		c-0.5,0.3-0.9,0.5-1.6,0.5c-2.2-0.1-4.4,0-6.5,0c-1.6,0-2.4-0.8-2.4-2.4c0-5.8,0-11.6,0-17.5c0-0.5,0.2-0.9,0.4-1.4
		c0.6-1.3,1.4-2.5,2.4-3.6c1.5-1.9,3-3.6,4.4-5.6c0.8-1.2,1.9-2.3,2.9-3.4c0.5-0.6,1-1.2,1.4-1.8c1.4-2,3.2-3.7,4.5-5.8
		c0.8-1.3,2-2.4,3-3.5c0.8-1,1.9-1.3,3.2-1.3c8.2,0,16.4,0.1,24.6,0c1.6,0,2.8,0.6,3.6,1.8c1.9,2.6,4,5.2,6,7.8
		c2.2,2.7,4.2,5.6,6.5,8.2c1.4,1.6,2.8,3.2,4,4.9c0.9,1.3,1.6,2.7,1.6,4.3c0,5.5,0,10.9,0,16.4c0,1.9-1,2.9-3,2.9
		C71.1,78.5,64.7,78.5,58.3,78.5z M64.9,75.4c3.4,0,6.8,0,10.2,0c1.8,0,2.3-0.5,2.3-2.2c0-3,0-6,0-8.9c0-1.1,0-2.2,0-3.3
		c0-1.3-0.9-2.1-2.2-2.2c-0.2,0-0.4,0-0.7,0c-6.1,0-12.2,0-18.3,0c-0.9,0-1.6,0.4-2.4,0.5c-0.3,0-0.8,0.5-0.9,0.8
		c-0.2,1.1-0.4,2.2-0.5,3.3c-0.1,1.8-0.1,3.6,0,5.4c0.1,1.7-0.2,3.4,0.4,5.1c0.5,1.5,0.3,1.5,1.7,1.5C58.1,75.4,61.5,75.4,64.9,75.4
		z M62.8,56.2c1-0.1,1.9-0.3,2.3-1.2c0.4-0.6-0.3-2.4-1.1-2.7c-0.5-0.2-0.8-0.7-1.2-0.8c-1.1-0.2-2.1-0.9-3.2-0.5
		c-1.1,0.3-1.2,0.7-0.7,1.8c0.2,0.4,0.3,0.9,0.6,1.3C60.3,55.3,61.3,56.2,62.8,56.2z M57.5,48.4c0.4-0.1,0.9-0.1,1.1-0.3
		c0.3-0.4,0.3-1,0.5-1.5c0.1-0.5-0.2-0.8-0.5-1.1c-0.8-1-2-1.4-3.1-1.9c-0.5-0.2-1-0.4-1.5-0.4c-0.7-0.1-1.2,0.1-1.5,0.9
		c-0.2,0.6-0.5,0.9,0,1.6C53.8,47.3,55.6,47.9,57.5,48.4z M51.1,40.1c0.3-0.1,0.9-0.3,1.5-0.5c0.5-0.1,0.5-0.4,0.3-0.8
		c-0.7-1.6-3.2-3.7-5-4c-0.5-0.1-1.2,0.2-1.7,0.5C46,35.4,46,36,46,36.3c0,1,0.5,1.6,1.3,2.3C48.4,39.5,49.5,40,51.1,40.1z M51.7,51
		c-2.3,0-2.7,0.7-1.9,2.3c0.7,1.4,2.9,2.9,4.4,2.9c0.6,0,1.3-0.2,1.7-0.6c0.5-0.4,0-1-0.3-1.5c-0.1-0.2-0.3-0.5-0.4-0.7
		C54.4,51.8,52.9,51.3,51.7,51z M45,43.1c-0.2,0-0.5-0.1-0.6,0c-0.5,0.3-1.1,0.7-1.4,1.2c-0.3,0.4,0,0.9,0.5,1.3
		c0.7,0.5,1.3,1,2,1.5c1.6,1.4,1.8,1.4,3.7,0.8c0.7-0.2,0.8-0.6,0.4-1.3c-0.1-0.3-0.2-0.6-0.4-0.9C48,44.4,47,42.9,45,43.1z
		 M41.7,40c0.3,0,0.6,0,0.9,0c0.7,0.1,0.9-0.3,0.8-0.9c-0.1-0.3-0.2-0.6-0.3-1c-0.4-1.5-1.8-1.8-2.8-2.5c-1-0.7-2.1-0.3-3.1-0.4
		c-0.1,0-0.3,0.2-0.3,0.2c0,0.6-0.1,1.4,0.2,1.9C38.2,39,39.6,40.3,41.7,40z M69.6,51c-1.1,0-1.3,0.3-1.4,1.4c0,0.7,0.2,1.2,0.7,1.7
		c0.9,1.2,2.3,1.6,3.5,2.1c0.8,0.3,1.6-0.3,2.2-0.9c0.7-0.7-0.3-1.1-0.5-1.6c-0.2-0.6-0.9-1.2-1.5-1.5C71.7,51.6,70.8,50.8,69.6,51z
		 M63.7,43.1c-0.3,0.1-0.8,0.4-1.3,0.4c-0.9,0-0.7,0.8-0.6,1c0.7,1.4,1.7,2.6,3.1,3.3c1.2,0.7,2.1,0.6,3-0.3
		c0.3-0.2,0.5-0.8,0.4-1.1C68,45.2,65.3,43.1,63.7,43.1z M59.6,40.2c0.7-0.3,1.4-0.5,2.1-0.8c-0.2-0.5-0.5-1.1-0.7-1.6
		c-0.1-0.1-0.1-0.3-0.2-0.4c-0.9-1.6-2.2-2.6-4.1-2.2c-0.7,0.1-1.7,1.1-1.5,1.5c0.5,0.8,0.9,1.6,1.6,2.1
		C57.7,39.3,58.3,40.4,59.6,40.2z"/>
</g>
<circle class="st1" cx="74.9" cy="26.7" r="8.3"/>
<path class="st1" d="M74.9,17.2L74.9,17.2c-0.9,0-1.7-0.7-1.7-1.7v-3.3c0-0.9,0.7-1.7,1.7-1.7h0c0.9,0,1.7,0.7,1.7,1.7v3.3
	C76.5,16.5,75.8,17.2,74.9,17.2z"/>
<path class="st1" d="M81.6,20L81.6,20c-0.7-0.7-0.6-1.7,0-2.4l2.4-2.4c0.7-0.7,1.7-0.6,2.4,0v0c0.7,0.7,0.6,1.7,0,2.4L84,20
	C83.3,20.7,82.2,20.7,81.6,20z"/>
<path class="st1" d="M84.3,26.7L84.3,26.7c0-0.9,0.8-1.7,1.7-1.7l3.3,0c0.9,0,1.7,0.8,1.7,1.7v0c0,0.9-0.8,1.7-1.7,1.7l-3.3,0
	C85.1,28.4,84.3,27.7,84.3,26.7z"/>
<path class="st1" d="M81.5,33.4L81.5,33.4c0.7-0.6,1.7-0.6,2.4,0l2.3,2.4c0.6,0.7,0.6,1.7,0,2.4v0c-0.7,0.6-1.7,0.6-2.4,0l-2.3-2.4
	C80.8,35.1,80.9,34.1,81.5,33.4z"/>
<path class="st1" d="M74.8,36.1L74.8,36.1c0.9,0,1.7,0.8,1.6,1.7l0,3.3c0,0.9-0.8,1.7-1.7,1.6h0c-0.9,0-1.7-0.8-1.6-1.7l0-3.3
	C73.1,36.9,73.8,36.1,74.8,36.1z"/>
<path class="st1" d="M68.1,33.3L68.1,33.3c0.6,0.7,0.6,1.7,0,2.4L65.7,38c-0.7,0.6-1.7,0.6-2.4,0v0c-0.6-0.7-0.6-1.7,0-2.4l2.4-2.3
	C66.4,32.6,67.4,32.6,68.1,33.3z"/>
<path class="st1" d="M65.4,26.5L65.4,26.5c0,0.9-0.8,1.7-1.7,1.6l-3.3-0.1c-0.9,0-1.7-0.8-1.6-1.7v0c0-0.9,0.8-1.7,1.7-1.6l3.3,0.1
	C64.7,24.8,65.4,25.6,65.4,26.5z"/>
<path class="st1" d="M68.3,19.9L68.3,19.9c-0.7,0.6-1.7,0.6-2.4,0l-2.3-2.4c-0.6-0.7-0.6-1.7,0-2.4v0c0.7-0.6,1.7-0.6,2.4,0l2.3,2.4
	C69,18.2,69,19.2,68.3,19.9z"/>
</svg>
