<?xml version="1.0" encoding="utf-8"?>
<!-- Generator: Adobe Illustrator 23.0.0, SVG Export Plug-In . SVG Version: 6.00 Build 0)  -->
<svg version="1.1" id="Layer_1" xmlns="http://www.w3.org/2000/svg" xmlns:xlink="http://www.w3.org/1999/xlink" x="0px" y="0px"
	 viewBox="0 0 100 100" style="enable-background:new 0 0 100 100;" xml:space="preserve">
<style type="text/css">
	.st0{fill:#FF0000;}
	.st1{fill:#FFFFFF;}
	.st2{fill:none;}
	.st3{fill:none;stroke:#000000;stroke-width:4;stroke-miterlimit:10;}
	.st4{fill:none;stroke:#000000;stroke-width:4;stroke-linecap:round;stroke-linejoin:round;stroke-miterlimit:10;}
	.st5{fill:none;stroke:#000000;stroke-width:4.7042;stroke-miterlimit:10;}
	.st6{fill:none;stroke:#000000;stroke-width:4.7042;stroke-linecap:round;stroke-linejoin:round;stroke-miterlimit:10;}
	.st7{fill:none;stroke:#000000;stroke-width:10;stroke-linecap:round;stroke-linejoin:round;stroke-miterlimit:10;}
	.st8{fill:none;stroke:#FFFFFF;stroke-width:2.5502;stroke-linecap:round;stroke-linejoin:round;stroke-miterlimit:10;}
	.st9{fill:none;stroke:#000000;stroke-width:1.2703;stroke-miterlimit:10;}
	.st10{fill:none;stroke:#000000;stroke-width:1.2703;stroke-linecap:round;stroke-linejoin:round;stroke-miterlimit:10;}
</style>
<g>
	<path class="st1" d="M34.8,20.8c3.7,0,7.5,0.1,11.2,0c1.9-0.1,2.8,0.5,2.6,2.5c-0.1,0.7-0.1,1.5,0,2.2c0.2,1.8-0.4,2.6-2.3,2.8
		c-3.8,0.5-6,3-6,6.5c0.1,3.3,2.3,5.9,5.9,6.3c1.7,0.2,2.5,0.8,2.4,2.5c-0.1,1-0.1,2,0,3c0.1,1.5-0.7,2.1-2.2,2.1
		c-1.9,0-3.8,0-5.7,0c-2,0-2.6,0.8-2.5,2.9c0.1,1.5-0.5,3.4-1.5,4.5c-0.6,0.7-2.6,0.6-3.7,0.2c-1.9-0.7-2.3-2.5-1.9-4.3
		c0.5-2.7-0.7-3.3-3.1-3.3c-7.3-0.1-7.3-0.1-7.3-7.4c0-5.9,0.1-11.8,0-17.8c0-2,0.7-2.7,2.7-2.7C27.2,20.9,31,20.8,34.8,20.8z"/>
	<path class="st1" d="M20.7,65c0-3.6,0.1-7.3,0-10.9c-0.1-2,0.6-2.7,2.7-2.7c4,0.1,4-0.1,5.2,3.8c0.8,2.6,3.7,4.7,6.4,4.6
		c2.9-0.1,5.4-2.2,6.1-5c0.3-1.1,0.6-2.9,1.2-3c1.7-0.4,3.6-0.3,5.4-0.1c0.4,0,0.9,1.2,0.9,1.9c0.1,1.8,0.1,3.6,0.1,5.5
		c0,2.1,0.9,3,3.3,2.7c1.4-0.1,3.5,0.6,4.4,1.7c1.9,2.4-0.3,5.8-3.4,5.4c-3.9-0.5-4.1,0.2-4.2,4.3c-0.2,6-0.2,6-6.2,6
		c-6,0-12,0-18,0c-3.4,0-3.6-0.2-3.6-3.5C20.7,72.1,20.7,68.6,20.7,65z"/>
	<path class="st1" d="M79.3,34.6c0,3.5,0,6.9,0,10.4c0,1.6,0.5,3.6-2.3,3.8c-4.4,0.3-4.7,0.2-5.4-3c-0.6-2.9-2.2-4.7-5.1-5.4
		c-2.7-0.6-4.9,0.5-6.5,2.6c-0.7,0.9-1,2.1-1.2,3.2c-0.5,2.7-1,2.9-5.5,2.6c-2.2-0.1-2.2-1.4-2.2-3c0-1.6,0-3.3,0-4.9
		c0-2.1-0.8-2.9-3-2.6c-1.3,0.2-3.2-0.1-3.9-0.9c-0.8-0.9-1.3-3.1-0.7-4.1c0.6-1.1,2.5-2.1,3.9-2.1c3.5,0,3.7,0.1,3.8-3.4
		c0.1-6.9,0.1-6.9,7-6.9c5.8,0,11.7-0.1,17.5-0.1c3.4,0,3.6,0.2,3.6,3.5C79.3,27.6,79.3,31.1,79.3,34.6z"/>
	<path class="st1" d="M65,79.2c-3.4,0-6.7,0-10.1,0c-3.7,0-3.7,0-3.7-3.8c0-0.5,0-0.9,0-1.4c-0.1-1.6,0.7-2.2,2.3-2.3
		c3.4-0.2,6.3-3.2,6.3-6.3c0-3-2.7-6-5.9-6.5c-2.9-0.5-2.9-0.8-2.7-5.2c0.1-2.4,1.6-2.3,3.2-2.3c0.9,0,1.8,0,2.7,0
		c4.4,0,4.4,0,4.4-4.3c0-2.4,1.3-3.8,3.6-3.9c2.3,0,3.7,1.4,3.8,3.7c0.2,4.5,0.2,4.4,4.7,4.5c5.8,0.1,5.7-1.1,5.7,5.7
		c0,6.3-0.1,12.6,0,18.9c0,2.5-0.9,3.4-3.4,3.3c-3.6-0.1-7.3,0-10.9,0C65,79.2,65,79.2,65,79.2z"/>
</g>
</svg>
