<?xml version="1.0" encoding="utf-8"?>
<!-- Generator: Adobe Illustrator 23.0.0, SVG Export Plug-In . SVG Version: 6.00 Build 0)  -->
<svg version="1.1" id="Layer_1" xmlns="http://www.w3.org/2000/svg" xmlns:xlink="http://www.w3.org/1999/xlink" x="0px" y="0px"
	 viewBox="0 0 100 100" style="enable-background:new 0 0 100 100;" xml:space="preserve">
<style type="text/css">
	.st0{fill:#FF0000;}
	.st1{fill:#FFFFFF;}
	.st2{fill:none;}
	.st3{fill:none;stroke:#000000;stroke-width:4;stroke-miterlimit:10;}
	.st4{fill:none;stroke:#000000;stroke-width:4;stroke-linecap:round;stroke-linejoin:round;stroke-miterlimit:10;}
	.st5{fill:none;stroke:#000000;stroke-width:4.7042;stroke-miterlimit:10;}
	.st6{fill:none;stroke:#000000;stroke-width:4.7042;stroke-linecap:round;stroke-linejoin:round;stroke-miterlimit:10;}
	.st7{fill:none;stroke:#000000;stroke-width:10;stroke-linecap:round;stroke-linejoin:round;stroke-miterlimit:10;}
	.st8{fill:none;stroke:#FFFFFF;stroke-width:2.5502;stroke-linecap:round;stroke-linejoin:round;stroke-miterlimit:10;}
	.st9{fill:none;stroke:#000000;stroke-width:1.2703;stroke-miterlimit:10;}
	.st10{fill:none;stroke:#000000;stroke-width:1.2703;stroke-linecap:round;stroke-linejoin:round;stroke-miterlimit:10;}
</style>
<g>
	<path class="st1" d="M48.3,61.8c-5.7-0.1-10.2-4.8-10.1-10.3c0.1-5.5,4.9-10.2,10.4-10.2c5.5,0.1,10.3,4.9,10.2,10.3
		C58.7,57.4,54,62,48.3,61.8z"/>
	<path class="st1" d="M68.4,49.7c2.1,0.1,3.8,0.2,5.6,0.3c0,1.1,0,2.1,0,3.3c-1.7,0.1-3.5,0.2-5.4,0.3c0,6.5,0,13,0,19.5
		c-1.2,0-2.2,0-3.5,0c0-6.4,0-12.7,0-19.4c-2.7,0-3.3-1.3-2.5-3.6c2.3,0.1,2.4-1.4,2.4-3.2c-0.1-5.3,0-10.6,0-16.1
		c1.2,0,2.2,0,3.4,0C68.4,37.1,68.4,43.2,68.4,49.7z"/>
	<path class="st1" d="M34.5,50.1c0.8,2.3,0.2,3.6-2.4,3.6c0,5.8,0,11.5,0,17.2c0,1.1,0.4,2.4-1.6,2.5c-2.1,0-1.8-1.3-1.8-2.6
		c0-4.7,0-9.5,0-14.2c0-0.9,0-1.8,0-2.9c-2,0-3.7,0-5.6,0c0-1.2,0-2.2,0-3.5c1.7,0,3.4,0,5.4,0c0-3.6,0-6.9,0-10.3c0-2,0-4.1,0-6.1
		c0-3.1,0-3.1,3.6-2.6c0,2.9,0,6,0,9c0,2.3,0.1,4.6-0.1,6.9C31.9,48.9,32.3,50.2,34.5,50.1z"/>
	<path class="st1" d="M12.7,58.1c-3.6,0-6.4-2.9-6.4-6.5c0-3.6,2.9-6.5,6.4-6.6c3.6,0,6.6,3,6.6,6.7C19.3,55.4,16.4,58.2,12.7,58.1z
		"/>
	<path class="st1" d="M67,14.3c3.6,0.1,6.3,2.8,6.3,6.6c0,3.6-3,6.4-6.6,6.3c-3.7-0.1-6.4-2.8-6.4-6.5C60.3,16.9,63.1,14.2,67,14.3z
		"/>
	<path class="st1" d="M30.6,14.3c3.6,0,6.4,2.9,6.4,6.5c0,3.7-3,6.5-6.8,6.4c-3.7-0.1-6.2-2.7-6.2-6.3C24.1,17,26.9,14.2,30.6,14.3z
		"/>
	<path class="st1" d="M77.8,51.5c0.1-3.5,3-6.5,6.5-6.4c3.6,0.1,6.5,3.2,6.4,6.8c-0.1,3.5-3.1,6.3-6.7,6.2
		C80.5,58.1,77.7,55.1,77.8,51.5z"/>
	<path class="st1" d="M66.8,89.7c-3.7,0-6.5-2.7-6.5-6.3c0-3.7,2.9-6.7,6.6-6.6c3.5,0,6.3,2.8,6.4,6.3
		C73.3,86.9,70.6,89.7,66.8,89.7z"/>
	<path class="st1" d="M30.6,89.7c-3.7,0-6.4-2.7-6.5-6.4c0-3.7,2.9-6.6,6.6-6.6c3.6,0.1,6.4,2.9,6.4,6.5
		C37.1,86.9,34.2,89.7,30.6,89.7z"/>
	<path class="st1" d="M26.8,73.8c-1.1,0.6-1.9,1.2-3,1.8c-2.8-4.8-5.4-9.5-8.2-14.2c1.1-0.6,2.1-1,3.2-1.6
		C21.5,64.5,24.1,69,26.8,73.8z"/>
	<path class="st1" d="M73.2,75.5c-1.1-0.7-2-1.3-3-1.9c2.6-4.6,5.2-9.1,7.9-13.8c1.1,0.5,2,0.9,3.3,1.5C78.6,66.1,76,70.7,73.2,75.5
		z"/>
	<path class="st1" d="M40.6,21.8c-0.1-1.3-0.1-2.2-0.2-3.2c5.5,0,10.8,0,16.1,0c0.6,3.1,0.5,3.2-2.5,3.2
		C49.7,21.8,45.3,21.8,40.6,21.8z"/>
	<path class="st1" d="M23.4,28.1c1.1,0.7,2,1.3,3,2c-2.6,4.5-5.1,8.9-7.7,13.4c-1.1-0.5-2-0.9-3.3-1.5
		C18.1,37.4,20.8,32.8,23.4,28.1z"/>
	<path class="st1" d="M81.3,41.8c-1.2,0.6-2.1,1-3.2,1.6c-2.6-4.5-5-8.8-7.6-13.3c1-0.7,1.9-1.3,3-2.1
		C76.1,32.6,78.6,37.1,81.3,41.8z"/>
	<path class="st1" d="M40.6,84.8c0-1.1,0-2,0-3.1c5.3,0,10.4,0,15.8,0c0,1,0,1.9,0,3.1C51.1,84.8,46,84.8,40.6,84.8z"/>
	<path class="st1" d="M40.2,62.6c1.1,0.6,1.9,1.2,3,1.8c-2.1,3.6-4.1,7.2-6.2,10.9c-1.1-0.6-2-1.1-3.2-1.8
		C35.9,69.9,37.9,66.4,40.2,62.6z"/>
	<path class="st1" d="M57,40.6c-1.1-0.6-2.1-1.1-3.2-1.7c2.1-3.6,4-7,6.2-10.6c1.1,0.6,2,1.2,3.1,1.9C61,33.6,59.1,37,57,40.6z"/>
	<path class="st1" d="M63.2,73.8c-1.1,0.6-1.8,1-2.8,1.6c-2.1-3.7-4.3-7.3-6.5-11.1c1-0.6,1.8-1.1,3-1.8
		C59.1,66.3,61.1,70,63.2,73.8z"/>
	<path class="st1" d="M43.2,38.7c-1.1,0.7-1.9,1.2-3,1.9c-2-3.4-4-6.8-6.1-10.3c1-0.7,1.9-1.2,3-2C39.2,31.8,41.1,35.1,43.2,38.7z"
		/>
</g>
</svg>
