<?xml version="1.0" encoding="utf-8"?>
<!-- Generator: Adobe Illustrator 23.0.0, SVG Export Plug-In . SVG Version: 6.00 Build 0)  -->
<svg version="1.1" id="Layer_1" xmlns="http://www.w3.org/2000/svg" xmlns:xlink="http://www.w3.org/1999/xlink" x="0px" y="0px"
	 viewBox="0 0 100 100" style="enable-background:new 0 0 100 100;" xml:space="preserve">
<style type="text/css">
	.st0{fill:#FF0000;}
	.st1{fill:#FFFFFF;}
	.st2{fill:none;}
	.st3{fill:none;stroke:#000000;stroke-width:4;stroke-miterlimit:10;}
	.st4{fill:none;stroke:#000000;stroke-width:4;stroke-linecap:round;stroke-linejoin:round;stroke-miterlimit:10;}
	.st5{fill:none;stroke:#000000;stroke-width:4.7042;stroke-miterlimit:10;}
	.st6{fill:none;stroke:#000000;stroke-width:4.7042;stroke-linecap:round;stroke-linejoin:round;stroke-miterlimit:10;}
	.st7{fill:none;stroke:#000000;stroke-width:10;stroke-linecap:round;stroke-linejoin:round;stroke-miterlimit:10;}
	.st8{fill:none;stroke:#FFFFFF;stroke-width:2.5502;stroke-linecap:round;stroke-linejoin:round;stroke-miterlimit:10;}
	.st9{fill:none;stroke:#000000;stroke-width:1.2703;stroke-miterlimit:10;}
	.st10{fill:none;stroke:#000000;stroke-width:1.2703;stroke-linecap:round;stroke-linejoin:round;stroke-miterlimit:10;}
</style>
<g>
	<path class="st1" d="M74.5,75.9c1,1.6,2.1,3,2.9,4.5c0.7,1.2,0.8,2.4,0.2,3.7c-1.3,2.6-4.5,3.1-6.4,0.9c-0.3-0.3-0.5-0.6-0.7-1
		c-0.8-1.6-2.2-2.5-3.9-3.1c-2.5-0.8-4.8-1.9-6.4-4.1C59.6,76,59,75,58.5,74c-0.6-1.1-1.3-1.8-2.6-1.7c-2,0.2-3.8-0.4-5.5-1.3
		c-0.9-0.5-2-0.5-3-0.6c-2-0.1-4,0-6-0.3c-2.8-0.4-5.4-1.7-7.6-3.5c-0.9-0.7-1.9-1.1-3.1-1.2c-5.4-0.5-10.1-2.5-13.5-7
		c-0.8-1.1-2-1.8-3.1-2.6C9.9,52.6,7.7,48.3,7.8,43c0.1-4.1,1.7-7.8,4.9-10.3c2.4-1.8,4.1-3.9,5.3-6.7c2-4.7,6.1-6.9,10.8-8
		c1.8-0.4,3.6-0.7,5.5-0.3c0.7,0.2,1.8-0.2,2.5-0.6c4.9-2.7,10.2-3.8,15.8-3.5c10.5,0.7,19.5,4.5,26,13.1c1.1,1.5,1.9,3.2,2.6,4.8
		c0.5,1.2,1.2,2,2.5,2.3c7.4,1.4,10.9,11.3,6.1,17.3c-1.2,1.5-1.5,3-1.1,4.7c0.9,4.7-0.6,8.7-3.7,12.2c-1.4,1.6-3,3.2-4.6,4.6
		c-1.2,1-2.7,1.7-4.1,2.5C75.8,75.5,75.1,75.7,74.5,75.9z M40.4,20.9c-0.6,1.3-1.4,0.9-2.1,0.4c-3.3-2.3-6.9-2.1-10.4-1.2
		c-6.2,1.7-9.5,6.3-9.2,11.9c0,0.9,0.1,1.8,0,2.7c0,0.4-0.4,0.8-0.5,1.1c-1.7-0.5-0.7-2.5-2.2-3.3c-4.1,2.3-6,5.9-6,10.6
		c0,4.8,2.1,9,5.5,10.5c0.1-0.5,0.1-1,0.1-1.4c0.1-1.4,0.3-2.7,0.5-4.1c0-0.3,0.5-0.7,0.8-0.7c0.3,0,0.7,0.4,0.8,0.7
		c0.1,0.5-0.1,1.1-0.1,1.7c-0.1,3.2,0.4,6.2,2.6,8.8c4.2,5,13.7,6.1,18.2,2.9c0.3-0.2,0.7-0.5,1.1-0.6c0.3,0,0.8,0.1,1,0.4
		c0.1,0.1,0.1,0.7-0.1,0.9c-0.7,0.6-1.4,1.1-2.2,1.5c-0.7,0.4-1.5,0.7-2.5,1.2c1.8,1.9,3.8,2.6,5.9,3c2,0.3,4.1,1.2,6-0.1
		c0.3-1.5-1.3-2.8,0-4.1c1.2,0.1,1.3,1.1,1.5,1.8c1.4,5.3,8.8,6,11.6,2.8c0.4-0.5,1-0.8,1.4-1.2c0.9,0.6,1,1.2,0.3,1.9
		c-0.8,0.8-1.5,1.6-2.3,2.4c0.8,3.4,2.8,5.6,5.9,6.8c0.5,0.2,1.1,0.4,1.6,0.6c2.1,0.8,4.1,1.9,5,4.2c0.1,0.3,0.3,0.7,0.6,0.7
		c0.6,0.2,1.3,0.5,1.8,0.3c0.5-0.2,1-0.8,1.1-1.4c0.1-0.6-0.1-1.3-0.4-1.8c-1.1-2.5-3.1-4-5.6-5c-1-0.4-2.1-0.8-3.1-1.2
		c-0.7-0.3-1.7-0.7-1.2-1.7c0.5-1,1.3-0.2,1.9,0c3.8,1.7,7.4,1,10.8-1.1c1.7-1.1,2.8-2.7,2.6-4.9c-0.1-1-0.3-1.9-0.4-2.8
		c-0.1-0.7-0.2-1.5,0.8-1.7c1.9,0.8,0.7,3.2,2.1,4.3c3.6-3.3,4.9-9.1,2.9-12.4c-1.3-0.3-2.5,1.8-4-0.3c1.1-0.6,2-1.1,3-1.6
		c2.4-1.2,4.1-2.9,4.6-5.6c0.2-1.2,0.2-2.4,0.2-3.6c-0.2-5.1-4.6-8.6-9.6-7.7c-0.9,0.2-1.9,0.4-2.8,0.6c-0.9,0.2-1.3-0.2-1.6-1.2
		c1.3-0.6,2.5-1.1,3.8-1.7c-0.3-0.8-0.5-1.5-0.8-2.1c-1.5-3.4-3.8-6.2-6.7-8.4c-7.4-5.8-15.9-8-25.1-7.1c-2.4,0.2-4.7,1.1-7,1.8
		c-0.6,0.2-1.2,0.7-1.9,1.1C39.2,19.7,39.8,20.3,40.4,20.9z"/>
	<path class="st1" d="M41.5,36.3c0-1.7,1.2-2.4,2.4-2.8c0.2-2.6,0.1-2.7-2.1-2.8c-1.2,0-2.4,0.1-3.6-0.1c-0.4-0.1-1.1-0.6-1.2-0.9
		c-0.1-0.8,0.5-1.1,1.2-1.1c2.3,0,4.5,0,6.8,0c0.8,0,1.2,0.5,1.2,1.2c0,0.6,0,1.3,0,1.9c0.1,2.1,0.2,2.2,2.7,1.9
		c0.1-0.6,0.3-1.2,0.3-1.8c0-1.2,0-2.4,0-3.6c0.1-1.8-0.1-3.4-1.7-4.8c-1.3-1.1-1-3.3,0.4-4.5c1.4-1.2,3-1.3,4.4-0.1
		c1.4,1.2,1.7,3.2,0.5,4.5c-1.4,1.4-1.7,3-1.6,4.8c0,1.1,0,2.3,0,3.4c0,0.5,0.1,1,0.2,1.4c0.2,0.6,0.7,0.9,1.3,0.8
		c0.7,0,1.1-0.4,1.1-1.1c0-1.2,0-2.4,0-3.6c0.1-2,0.4-2.4,2.4-2.5c2.7,0,5.5,0,8.2,0c0.9,0,1.9-0.1,2.1,1.1c0.2,0.7-0.5,1.1-2,1.1
		c-1.9,0-3.9,0-5.8,0c-0.8,0-1.6,0.1-2.6,0.1c0,1.3-0.1,2.4-0.1,3.5c0,0.4,0.3,1,0.4,1c2,0.1,1.6,2.5,3,3c0.5,0.2,1.1,0.1,1.7,0.1
		c1.9,0,3.7,0,5.6,0c0.6,0,1.2,0,1.7,0.2c0.3,0.1,0.5,0.6,0.6,0.9c0,0.2-0.3,0.6-0.5,0.7c-0.5,0.1-1.1,0.2-1.7,0.2
		c-1.9,0-3.9,0-5.8,0c-0.6,0-1.2,0-1.6,0.2c-0.4,0.2-0.8,0.9-0.8,1.3c0,0.4,0.5,1,0.9,1.2c0.5,0.2,1.1,0.2,1.7,0.2
		c4.3,0,8.5,0,12.8,0c1.4,0,2.5-0.4,3.4-1.4c1-1.2,2.2-1.2,3.5-0.7c1.3,0.5,2.1,1.6,2.1,3c0,1.4-0.9,2.4-2.1,3.1
		c-1,0.6-2.4,0.6-3.1-0.3c-1.6-2-3.7-1.7-5.7-1.7c-3.5,0-7.1,0-10.6,0c-0.7,0-1.4,0.1-2.1,0.3c-0.3,0.1-0.7,0.6-0.6,0.9
		c0,0.4,0.3,0.9,0.7,1.1c0.5,0.2,1.1,0.2,1.6,0.2c2.1,0,4.2,0,6.3,0c0.8,0,1.6,0.1,2.4,0.1c0.8,2.8-0.1,5.6,0.6,8.4
		c0.7,0.1,1.3,0.2,1.9,0.2c1.7,0.1,2,0.5,2.1,2.2c0,0.6,0,1.3,0,1.9c-0.1,1.4,0.1,2.6,1.3,3.7c1.1,1,0.9,2.4,0.5,3.6
		c-0.5,1.2-1.5,1.8-2.8,1.9c-1.4,0.1-2.7-0.7-3.3-2c-0.5-1.2-0.4-2.5,0.6-3.3c1.7-1.5,1.8-3.3,1.3-5.5c-0.7-0.1-1.3-0.2-2-0.2
		c-1.8-0.1-2-0.3-2-2.2c0-1.7,0-3.4,0-5.1c0-0.3-0.1-0.6-0.1-0.9c-1.7-0.7-6.3-0.8-8.9-0.2c-0.2,0.5-0.4,1.1-0.6,1.9
		c-0.5,0.3-1.2,0.6-1.9,0.9c-0.4,1.3-0.5,2.7,0.1,3.9c0.2,0.4,1.1,0.7,1.7,0.7c1.4,0.1,2.7,0.1,4.1,0.1c0.9,0,1.8,0,2.9,0
		c0.4,2.2,0.3,4.3,0.1,6.3c0,0.3-0.5,0.7-0.8,0.7c-0.3,0-0.8-0.3-0.9-0.6C63,62,63,61.4,63,60.9c-0.1-0.9-0.1-1.7-0.1-2.6
		C61,57.7,59.3,58,57.6,58c-3.9-0.1-3.9,0-3.9-3.8c0-0.5,0-1,0-1.4c-0.1-1.6-0.2-1.7-2.4-1.4c-0.1,1.1-0.1,2.3-0.2,3.5
		c0,0.9-0.2,1.6-1.5,1.5c-1-1.5,0-3.3-0.8-5.1c-0.6,0-1.4-0.1-2.2-0.1c-0.9,3.2,0.2,6.5-0.9,9.6c-1.5-0.4-1.7-1.3-1.7-2.3
		c0-2.3,0-4.7,0-7.1c-1.5-0.4-2.9-0.9-2.5-2.8c-2.3-0.4-4.4-0.3-6.8-0.1c-0.1,2-0.3,4-0.5,6.2c-2.2,0-4.2,0-6.2,0
		c-0.6,0-1.1-0.3-1.1-1c0-0.7,0.4-1,1.1-1.1c1,0,1.9,0,2.9-0.1c0.3,0,0.6-0.1,1.2-0.2c0.1-1.2,0.1-2.3,0.2-3.5
		c0-2.4,0.2-2.6,2.7-2.6c1.7,0,3.4,0,5.1,0c1.2-0.1,1.3-0.3,1.1-2.1c-0.9-0.1-1.8-0.4-2.8-0.4c-3.3,0-6.6,0-9.9,0
		c-1.3,0-2.3,0.2-3.3,1.2c-1,1.1-2.3,1.4-3.7,0.7c-1.4-0.7-2-1.8-1.9-3.3c0.1-1.4,0.9-2.4,2.4-3c1.2-0.5,2.2,0,2.8,0.8
		c1.4,1.6,3.1,1.8,5,1.7c3-0.1,6,0,8.9,0c0.8,0,1.6-0.1,2.5-0.2c0-0.9,0-1.6,0-2.4c-2-0.5-4.1-0.2-6-0.3c-2-0.1-4,0-6.1,0
		c-0.1-0.9-0.2-1.5-0.3-2.1c0-1.6,0-3.2,0-4.8c0-1.3-0.1-2.4-1.3-3.4c-1.3-1.1-1.4-2.5-0.8-3.7c0.8-1.5,2.2-2.1,3.8-1.8
		c1.3,0.2,2.4,1.4,2.6,2.8c0.2,1.1-0.3,2.1-1.2,2.8c-0.9,0.8-1.1,1.7-1.1,2.8c0,1.3,0,2.6,0,3.9c0,0.7,0.3,1.2,1.1,1.3
		C34.5,36.8,39,36.8,41.5,36.3z M56.3,36.3C52.6,35.8,45.7,36,44,36.5c-0.5,2.8-0.4,10.4,0.2,12.3c3.9,0.2,7.9,0.1,12,0
		C56.6,44.5,56.6,40.4,56.3,36.3z M73,66.1c0.7,0,1.4-0.6,1.4-1.4c0-0.8-0.6-1.4-1.3-1.4c-0.8-0.1-1.3,0.5-1.3,1.4
		C71.7,65.5,72.2,66,73,66.1z M50.3,20.1c-0.8,0-1.4,0.5-1.5,1.2c0,0.7,0.5,1.3,1.3,1.4c0.8,0.1,1.4-0.4,1.4-1.2
		C51.6,20.8,51,20.2,50.3,20.1z M24.5,42.3c0-0.7-0.6-1.3-1.4-1.3c-0.8,0-1.4,0.6-1.4,1.3c0,0.7,0.6,1.3,1.4,1.3
		C23.9,43.6,24.5,43,24.5,42.3z M79.2,43.8c0.9,0,1.5-0.5,1.5-1.3c0-0.7-0.6-1.4-1.3-1.4c-0.7,0-1.3,0.6-1.3,1.4
		C78.1,43.3,78.5,43.7,79.2,43.8z"/>
	<path class="st1" d="M46.5,38.8c2.2,0,4,0,5.9,0c1,0,1.5,0.6,1.5,1.5c0,1.4,0.1,2.9,0,4.3c-0.1,1.1-0.5,1.5-1.7,1.6
		c-1.4,0.1-2.9,0-4.3,0c-0.9,0-1.3-0.4-1.3-1.3C46.5,43,46.5,41,46.5,38.8z M52.4,40.2c-1.6-0.3-3.1-0.4-4.8,0.2
		c0,1.1-0.1,2.2,0,3.3c0.1,0.4,0.5,1.1,0.9,1.2c2.7,0.9,4.2-0.2,4.1-3C52.7,41.3,52.5,40.8,52.4,40.2z"/>
</g>
</svg>
