<svg id="e19cb147-9226-4567-a6df-74f761c5da39" data-name="Layer 1" xmlns="http://www.w3.org/2000/svg" viewBox="0 0 100 100"><defs><style>.aaa0b1d9-a1e7-4232-ad16-daa138b5fba8{fill:#fff;}</style></defs><title>ICONS CITY</title><path class="aaa0b1d9-a1e7-4232-ad16-daa138b5fba8" d="M45.65,66.83c-9.61,0-13.3-5.65-13.52-11.61h9.74c0,1.59.37,4.19,3.78,4.41V53.21c-1.23-.36-2.5-.63-3.92-1.14-5-1.73-8.33-3.46-8.33-8.65C33.4,36,40,32.77,45.65,32.77V29.13H48v3.64c6.37,0,12,3.19,12,10.61h-8.7C51.11,41,50.34,40.46,48,40v5.1c11.79,2.55,13.25,6.15,13.25,11.25,0,4.92-3.6,10.52-13.25,10.52v4.5H45.65Zm0-26.87c-1.64,0-3.23.28-3.23,2.1,0,1.23,1.09,2,3.23,2.46ZM48,59.63c2.14-.18,3.78-1,3.78-2.77,0-1.6-1.41-2.24-3.78-3Z"/><path class="aaa0b1d9-a1e7-4232-ad16-daa138b5fba8" d="M69.14,66.33c1.11-.07,2.56.25,3.22-.33s.47-2,.5-3.11.51-1.46,1.5-1.45c4,0,7.89,0,11.84,0,1,0,1.35.45,1.33,1.36,0,.22,0,.45,0,.67,0,3.12-.1,2.78,3,2.8,1,0,2.08,0,3.12,0a4.3,4.3,0,0,1,.84.21,3.13,3.13,0,0,1-.34,1c-2,2.51-4,5-6,7.51-2.36,3-4.75,5.93-7.06,8.93-.72.94-1.09.86-1.78,0C75.09,78.44,70.76,73,66.47,67.61A3.94,3.94,0,0,1,66,66.43c.36-.05.72-.14,1.09-.16.67,0,1.34,0,2,0Z"/><path class="aaa0b1d9-a1e7-4232-ad16-daa138b5fba8" d="M80,54.51c2,0,4,0,6,0,1,0,1.43.34,1.52,1.39.36,4.14.36,4.18-3.81,4.18-3,0-6.09,0-9.13,0C73,60,72.87,60,72.88,58.49c0-4.78-.48-3.89,3.8-4C77.79,54.49,78.9,54.51,80,54.51Z"/><path class="aaa0b1d9-a1e7-4232-ad16-daa138b5fba8" d="M80.47,53.21c-1.93,0-3.87,0-5.8,0-1.45,0-1.69-.31-1.71-1.44s.69-1.3,1.6-1.29c3.79,0,7.59,0,11.38,0,.91,0,1.63.13,1.6,1.3s-.28,1.4-1.71,1.43C84,53.24,82.26,53.21,80.47,53.21Z"/><path class="aaa0b1d9-a1e7-4232-ad16-daa138b5fba8" d="M47.5,87A38,38,0,1,1,84.73,41.34l-3.92.81a34,34,0,1,0-17.54,37l1.86,3.54A38.14,38.14,0,0,1,47.5,87Z"/></svg>