<svg id="b913b32f-983e-4a9d-b6ca-a03abcbba4ff" data-name="Layer 1" xmlns="http://www.w3.org/2000/svg" viewBox="0 0 100 100"><defs><style>.b4781fdd-44b6-40c2-b540-8ac02a81d8b3{fill:#fff;}</style></defs><title>ICONS CITY</title><path class="b4781fdd-44b6-40c2-b540-8ac02a81d8b3" d="M41.44,83.06c0,1.61,0,3.22,0,4.83s-.36,2-2.06,2-3.53,0-5.3,0a3.63,3.63,0,0,0-3.22,1.35,2.57,2.57,0,0,1-4-.11A3.15,3.15,0,0,1,27,86.82a2.73,2.73,0,0,1,4.06.14,3.91,3.91,0,0,0,3.25,1.35c1.54,0,3.07,0,4.6,0,.74,0,1.16-.31,1.16-1.09V76.85c0-1-.85-1.39-1.57-1.79-1.21-.66-2.48-1.22-3.68-1.89A27.58,27.58,0,0,1,23.28,60.78a3.05,3.05,0,0,0-3-2c-.92,0-1.84,0-2.76,0-1.13.07-1.4.31-1.45,1.36-.05,1.38,0,2.76,0,4.14,0,1.22,1,1.82,1.62,2.69a2.43,2.43,0,0,1,0,3.16,2.7,2.7,0,0,1-3.78,1c-1.54-1-2.26-2.88-1.12-4.09,1.78-1.88,1.55-4,1.55-6.24,0-3.31,0-3.35,3.35-3.35,1,0,2,0,3,0,.51,0,.87-.24.73-.87-.33-1.57-.59-3.16-1-4.71-.32-1.31-.56-1.42-1.9-1.44a5.68,5.68,0,0,0-3.2,1.14,11.33,11.33,0,0,1-1.33.88,2.74,2.74,0,0,1-3.58-1.18A3.43,3.43,0,0,1,11,47.37c1.24-1,3-1.15,3.9.07,1.26,1.68,2.86,1.51,4.54,1.23a1.32,1.32,0,0,0,.82-.88c.24-1.51.4-3,.5-4.56s-.06-1.55-1.54-1.57c-2.31,0-4.61,0-6.91,0-3,0-3,0-3.08-3,0-1.31,0-2.61,0-3.91a4.06,4.06,0,0,0-1.39-3.47,2.71,2.71,0,0,1,.26-4.34,2.82,2.82,0,0,1,3.95.15,3,3,0,0,1,0,4.13,3.32,3.32,0,0,0-1.24,2.12c-.09,2-.14,4-.17,6,0,.62.43,1,1,1a5.07,5.07,0,0,0,.68,0c2.31,0,4.61,0,6.91,0a2.41,2.41,0,0,0,2.6-1.78c.31-.87.68-1.71,1.05-2.54A28.75,28.75,0,0,1,38.2,21.11,3.15,3.15,0,0,0,40.1,17a.9.9,0,0,0-1-.74,44.09,44.09,0,0,0-4.6.06,3.69,3.69,0,0,0-1.68,1c-1.48,1.25-2.57,1.42-3.92.54a3.07,3.07,0,0,1-1-3.87A2.77,2.77,0,0,1,32,12.88a6.68,6.68,0,0,1,.89.72,4,4,0,0,0,2.95,1c1.38-.05,2.76-.05,4.14,0a1.55,1.55,0,0,1,1.76,1.67c.06.84,0,1.68,0,2.53a.75.75,0,0,0,.91.78c1.52-.16,3.05-.3,4.56-.55a1.69,1.69,0,0,0,1.18-2.49,6.21,6.21,0,0,0-1.1-1.43,2.92,2.92,0,0,1-.08-4.1,2.71,2.71,0,0,1,3.9-.32,3,3,0,0,1,.5,4.29c-.36.49-.88.87-1.21,1.38a1.48,1.48,0,0,0,1.06,2.49c1.49.31,3,.52,4.52.75.74.11,1.2-.19,1.14-1-.15-1.82.58-3.63.06-5.46a4.54,4.54,0,0,1,0-1.38c.06-2,1.07-3,3.09-2.61S64.26,9,66.24,9c.54,0,1.12-.67,1.63-1.09a3.34,3.34,0,0,1,3.43-.49,3.12,3.12,0,0,1,1.38,3.38,2.81,2.81,0,0,1-2.56,2.25,2.32,2.32,0,0,1-2.25-.86,3.85,3.85,0,0,0-3.46-1.42c-1.22.06-2.45,0-3.68,0-1.83,0-1.85,0-1.87,1.76,0,1.92.06,3.84,0,5.75a2.56,2.56,0,0,0,1.83,2.83,29.19,29.19,0,0,1,6.53,3.79,24.24,24.24,0,0,1,7.23,8.21A46.09,46.09,0,0,1,77,38.77a2,2,0,0,0,2.2,1.55c.85,0,1.69,0,2.53,0a1.08,1.08,0,0,0,1.16-1.16,27.56,27.56,0,0,0-.09-4.36,5.17,5.17,0,0,0-1.32-2.06c-1.31-1.62-1.12-3.41.53-4.54a2.92,2.92,0,0,1,3.93.55c.8.94,1,3.15,0,3.82-1.74,1.16-1.68,2.75-1.64,4.45,0,.92,0,1.84,0,2.76-.06,1.72-.28,1.93-2.07,2-.84,0-1.69,0-2.53,0-1.33.05-1.52.18-1.45,1.45.08,1.53.29,3,.45,4.56.07.66.5.9,1.1.94,1.55.11,3,.14,4.19-1.24a2.3,2.3,0,0,1,3.46-.49,3.06,3.06,0,0,1,1.29,3.6,3.56,3.56,0,0,1-3.32,2,2.26,2.26,0,0,1-1.31-.81c-1.13-1.59-2.74-1.48-4.36-1.41a1.1,1.1,0,0,0-1.18.88c-.41,1.79-.82,3.57-1.15,5.38,0,.21.36.66.64.75a4.36,4.36,0,0,0,1.36.09h5.76c.53,0,1.07,0,1.61,0,2.22.11,2.85.72,2.93,2.9,0,1.31.09,2.61,0,3.91a3.9,3.9,0,0,0,1.4,3.66,2.53,2.53,0,0,1,.53,3.33A3.06,3.06,0,0,1,85.85,70a3.29,3.29,0,0,1,.93-2,3.87,3.87,0,0,0,1.31-3.48c-.06-1.54,0-3.07,0-4.6,0-.62-.19-.86-.75-.86H77.49c-.93,0-1.27.64-1.68,1.33A64.16,64.16,0,0,1,72.25,66a26.64,26.64,0,0,1-10.7,8.46c-.42.18-.82.41-1.24.58a2.14,2.14,0,0,0-1.49,2.31c0,1.38,0,2.76,0,4.15,0,.81.26,1.3,1.19,1.28,1.38,0,2.76,0,4.14,0,1.08,0,1.6-.76,2.31-1.32a2.93,2.93,0,0,1,4.82,1.71,2.82,2.82,0,0,1-1,2.89,3,3,0,0,1-3,.43,1.41,1.41,0,0,1-.6-.33c-1.7-1.87-3.92-1.8-6.17-1.74-3.22.09-3.25,0-3.26-3.11,0-1.31,0-2.61,0-3.92,0-.7-.18-1.14-1.1-1a39.15,39.15,0,0,1-4.31.59,1.52,1.52,0,0,0-1.5,1.46c-.24,1.83-.43,3.69,1.09,5.18a3.85,3.85,0,0,1,.68.92,2.67,2.67,0,0,1-.74,3.66,2.49,2.49,0,0,1-3.33.27A2.78,2.78,0,0,1,46.78,85a3.33,3.33,0,0,1,.75-1.14c1.7-1.59,1.37-3.62,1.24-5.6a1.22,1.22,0,0,0-1.23-1.15c-1.59-.2-3.18-.43-4.77-.62-.92-.11-1.26.12-1.29,1.09-.06,1.84,0,3.68,0,5.52ZM22,47.94A27.25,27.25,0,0,0,49.49,75.6c16,0,27.3-12.8,27.49-27.27a27.5,27.5,0,1,0-55-.39Z"/><path class="b4781fdd-44b6-40c2-b540-8ac02a81d8b3" d="M65,49.83a41.63,41.63,0,0,1-.42,5.72c-2.23,10.58-14,16-23.73,9.68A13.85,13.85,0,0,1,34.1,54.31c-.22-2.89-.28-5.81-.31-8.71a3.49,3.49,0,0,1,2.65-3.82c.71-.19.92-.65,1-1.33a26,26,0,0,1,.91-4c1.26-3.63,3.36-6.54,7.27-7.68,4.69-1.37,9.65-.36,12.52,3.3a15.1,15.1,0,0,1,3,7.37c.17,1.22.35,2.09,1.82,2.5a3,3,0,0,1,2,3.07c0,1.61,0,3.22,0,4.83ZM49.43,41.69c1.38,0,2.75,0,4.12,0,1.56,0,1.85-.36,1.78-2A5.47,5.47,0,0,0,53,35.28a5.61,5.61,0,0,0-6.42-.35,5.14,5.14,0,0,0-2.92,5.24c.09,1.29.21,1.47,1.47,1.51C46.54,41.73,48,41.69,49.43,41.69Zm0,17.09c1.7,0,1.86-.14,1.5-1.8a4,4,0,0,1,.84-3.83c1.08-1.21.9-2.48-.19-3.69a3,3,0,0,0-4-.24,2.62,2.62,0,0,0-.52,3.83,3.81,3.81,0,0,1,.9,4C47.54,58.48,47.87,58.76,49.41,58.78Z"/></svg>