<svg id="b101fe7a-cc64-489a-9aab-c6ee3960e4af" data-name="Layer 1" xmlns="http://www.w3.org/2000/svg" viewBox="0 0 100 100"><defs><style>.e98814e3-0699-40ee-924f-46ce6d48c245{fill:#fff;}</style></defs><title>ICONS CITY</title><path class="e98814e3-0699-40ee-924f-46ce6d48c245" d="M87.24,53.28c0,7.23-3.88,15.71-10.85,22.86-1.25,1.29-2.12,2.4-1.71,4.46.52,2.61-.8,4.69-3.18,5.93A5.47,5.47,0,0,1,65,85.9a3.06,3.06,0,0,0-3.47-.52A36.78,36.78,0,0,1,35.27,84.2a6.42,6.42,0,0,0-3.47-.37c-4.81.84-7.67-1.29-8.22-6.06a6.19,6.19,0,0,0-1.49-3.1,37.14,37.14,0,0,1,9.75-57.09,36,36,0,0,1,28.22-3.45,5.62,5.62,0,0,0,3.81-.5A6.3,6.3,0,0,1,73.35,19a5.14,5.14,0,0,0,1.48,3.21C83.15,29.8,87.16,39.23,87.24,53.28Zm-30.94.38c-1.81-2-3.61-3.42-6.33-3.69-3.75-.38-7.45-1.2-11.2-1.64a9.87,9.87,0,0,0-4.4.33c-2.07.76-4.11,1.2-5.9-.14A4.53,4.53,0,0,0,24.12,48c-1.07.3-2.15.59-3.24.84C15.87,50,15.79,50,16.38,55A29.89,29.89,0,0,0,24.7,72.75c6.75.21,9.71-4.39,13.21-8.23a5.57,5.57,0,0,1,.5-.59,5.39,5.39,0,0,0,1.85-4.52,5.9,5.9,0,0,1,8.87-5C51.7,55.94,53.81,55.19,56.3,53.66Zm-.49,3.94c-1.64.17-3.25.71-3.5,3.65-.26,3.09-4,5.28-7,4.6a25.6,25.6,0,0,1-3.48-1.31c-2.31,2.55-4.64,5.07-6.88,7.67A2.37,2.37,0,0,0,34.67,74c.49,2.25,1.1,4.48,1.81,7.28a32.58,32.58,0,0,0,23.9,1.2c2.14-.67,3.72-4.51,2.84-6.68C60.8,69.87,58.39,63.93,55.81,57.6ZM48.48,47.07c2,.11,3.12-.5,3.83-2.59.43-1.29,2-2.16,3-3.28a11.16,11.16,0,0,0,2.34-3c1.18-2.94,1.88-6.08,3.13-9s2.14-5.16.69-8.67c-1.19-2.91-2.7-3.66-5.09-4.16-1.34-.28-2.72-.37-4.08-.59-1.69-.28-2.56.36-2.76,2.12a28.85,28.85,0,0,1-.82,4.3,37,37,0,0,1-9.62,16.81c-3.07,3.16-2.48,5.44,1.8,6.54C43.4,46.23,46,46.59,48.48,47.07Zm-1.84-31c-9.72,1.28-17.42,5.35-23.23,12.75-.71.9-1.52,2.69-1.11,3.29a47.07,47.07,0,0,0,5.2,5.94c.11.12.75-.39,1.15-.4,1.83-.06,3.66,0,5.49-.07.76,0,1.8.12,2.23-.31A33.93,33.93,0,0,0,46.64,16.08ZM60,56.88a42.86,42.86,0,0,0,5.53,16.59c1.15,1.78,6.33,2.71,7.87,1.3a33.62,33.62,0,0,0,9.06-14.32C75.61,56.71,66.19,55.2,60,56.88ZM80.69,35.16c-3.88,3.22-7.18,7-11.35,9.13s-6,6.17-9.74,9.2a43.87,43.87,0,0,1,23.79,3.63C84.83,49.12,84.2,41.85,80.69,35.16Zm-9.6-11.52c-1.75.9-4.5,1.39-5.3,2.91a77,77,0,0,0-5.08,13.16c-.26.85,1.15,2.42,2.09,3.35a2.71,2.71,0,0,0,2.42.11A31,31,0,0,0,77.34,33a3,3,0,0,0,.21-2.72,65.79,65.79,0,0,0-4.83-5.72A6.92,6.92,0,0,0,71.09,23.64ZM19.41,35.11a27.69,27.69,0,0,0-3.14,11.38,23.51,23.51,0,0,0,2.67-.2c1.26-.25,2.5-.58,3.73-.95,2.77-.85,3.68-3.55,1.76-5.68C23,38,21.16,36.68,19.41,35.11ZM70.28,19.88C70,17.2,69.06,16,67.15,16A2.86,2.86,0,0,0,64.05,19a2.7,2.7,0,0,0,3.14,2.92C68.41,21.73,69.46,20.45,70.28,19.88ZM71.78,81c-.25-1.69-1.22-3-3.1-3a2.91,2.91,0,0,0-3.09,3.09,2.81,2.81,0,0,0,2.91,3C70.37,84.15,71.49,83,71.78,81ZM54.65,47c.41,1.7,1.34,3,3.3,2.9a2.85,2.85,0,0,0,2.86-3.06,2.81,2.81,0,0,0-2.92-3C56,43.86,55,45.1,54.65,47Zm-8.21,9.68a3,3,0,0,0-3.09,3,2.76,2.76,0,0,0,2.78,3.08,2.8,2.8,0,0,0,3.25-2.6C49.58,58.23,48.47,57.14,46.44,56.71ZM29.07,81.58h1.18c.82-1.12,2.14-2.17,2.33-3.38a2.66,2.66,0,0,0-3-3.11c-1.89,0-3.27,1.26-2.9,3.15C27,79.45,28.25,80.47,29.07,81.58Zm5.61-39.11c-.85-.64-1.85-1.94-3.07-2.2A2.69,2.69,0,0,0,28.34,43a2.82,2.82,0,0,0,2.83,3.07C33,46.22,34.16,45.1,34.68,42.47Z"/></svg>