<svg id="f72c5e18-eef9-4c10-b6b1-89ea64420c9e" data-name="Layer 1" xmlns="http://www.w3.org/2000/svg" viewBox="0 0 100 100"><defs><style>.e1a6f2d1-801b-40c0-992a-5f56599ce16c{fill:#fff;}</style></defs><title>ICONS CITY</title><path class="e1a6f2d1-801b-40c0-992a-5f56599ce16c" d="M48.73,83.74a4.37,4.37,0,0,0,.31-.88c0-3.82,0-7.64,0-11.45,0-1.15-.24-1.35-1.43-1.65a36.59,36.59,0,0,1-5.15-1.29,40.06,40.06,0,0,1-5.35-2.89c-1.55-.92-1.86-1-3.15.26-2.4,2.28-4.75,4.6-7.12,6.91a1.37,1.37,0,0,0-.26.28c-.14.27-.39.58-.33.81s.47.38.74.4c1.39.12,2.79.15,4.18.28.68.07,1.83-.28,1.79.79,0,.85-1.12.61-1.78.59q-3.33-.08-6.66-.27c-1.14-.07-1.42-.32-1.45-1.35-.08-2.48-.08-5-.1-7.44a2.12,2.12,0,0,1,.14-.75c.06-.16.27-.4.35-.38s.51.21.54.37a21.28,21.28,0,0,1,.35,2.63c.08,1.18.07,2.36.11,3.86.63-.5,1-.74,1.29-1,2.34-2.34,4.69-4.67,7-7,1.39-1.42,1.38-1.44.26-3a22.55,22.55,0,0,1-3.85-9.05c-.1-.5-.21-1-.32-1.49a1.59,1.59,0,0,0-1.6-1.38c-3.94,0-7.87.06-11.81.11,0,0-.1.07-.24.19a27,27,0,0,0,3.19,3.65,10.71,10.71,0,0,1,1.12,1.71.64.64,0,0,1-.15.63.73.73,0,0,1-.67-.12c-1.89-2-3.78-4-5.61-6a1.48,1.48,0,0,1,.08-2.09q2.46-2.66,5-5.23c.21-.21.68-.18,1-.26-.05.4,0,.93-.19,1.17-.87.92-1.84,1.75-2.78,2.61-.28.25-.58.49-.84.77-.47.52-.39.93.25,1.12a5.48,5.48,0,0,0,1.5.25c3.12,0,6.24.09,9.35.08,1.9,0,2.34-.38,2.59-2.3A19.76,19.76,0,0,1,33.23,36c.51-.64.85-1.2.08-2-2.82-2.76-5.59-5.56-8.38-8.35-.07-.07-.23-.06-.56-.13,0,1.1,0,2.17,0,3.23A21.36,21.36,0,0,1,24,31.45c0,.15-.3.39-.35.37a.93.93,0,0,1-.51-.44A3.9,3.9,0,0,1,23,30.25c0-2.16,0-4.33,0-6.49,0-1.5.31-1.77,1.81-1.8,2.23,0,4.45,0,6.68,0a8,8,0,0,1,1.53.29,1.35,1.35,0,0,1-1.52,1H28.42c-.62,0-1.24.06-2.11.1a7.45,7.45,0,0,0,.8,1.24c2.54,2.49,5.09,5,7.66,7.44,1.1,1,1.17,1,2.41.1A20.79,20.79,0,0,1,47.31,28c1.44-.19,1.73-.48,1.74-1.77,0-3.75,0-7.51,0-11.26a6.42,6.42,0,0,0-.23-1c-1.11,1-2.07,1.92-3,2.8a22.12,22.12,0,0,1-1.85,1.64c-.18.14-.56,0-.86,0,0-.29,0-.59.08-.88,0-.05.06-.11.11-.15,1.86-1.83,3.7-3.68,5.59-5.47a1.42,1.42,0,0,1,1.94,0c1.95,1.82,3.84,3.71,5.71,5.61.19.19.09.67.12,1-.35-.06-.8,0-1-.19-1.11-.94-2.16-2-3.24-2.95l-1.66-1.5c-.1,1-.2,1.61-.21,2.21,0,2.93-.08,5.85-.11,8.78,0,2.29.32,2.81,2.58,3.23a24.3,24.3,0,0,1,10.2,4.47c1.36,1,1.42,1,2.67-.28,2.39-2.39,4.75-4.79,7.12-7.19a5,5,0,0,0,.39-.41c.51-.66.33-1.28-.48-1.37-1-.1-2,0-3-.06-.82,0-1.65,0-2.47-.13-.2,0-.37-.3-.55-.47.19-.21.36-.56.59-.62a7,7,0,0,1,1.52-.09c2,0,4.07,0,6.11,0,1.3,0,1.66.32,1.69,1.53.06,2.48,0,5,0,7.44,0,.24,0,.59-.19.7a.91.91,0,0,1-.72.07,4,4,0,0,1-.37-1.43c-.05-1.57,0-3.15,0-5a4.78,4.78,0,0,0-1,.53c-2.67,2.64-5.31,5.31-8,7.93-.69.67-.77,1.24-.15,1.95,2,2.28,2.69,5.15,3.56,7.93.31,1,.53,2,.83,2.93.42,1.37.73,1.64,2.17,1.67,2.48,0,5,0,7.45,0h4.33a12,12,0,0,0-.94-1.52c-.86-.94-1.79-1.82-2.65-2.76a8.67,8.67,0,0,1-1-1.39.54.54,0,0,1,.09-.51.8.8,0,0,1,.67-.13,4.53,4.53,0,0,1,1,.82c1.61,1.63,3.22,3.26,4.8,4.92.83.88.92,1.46.12,2.32-1.69,1.82-3.46,3.56-5.21,5.31a1.32,1.32,0,0,1-.65.36.91.91,0,0,1-.7-.14.72.72,0,0,1,.07-.66c.59-.75,1.21-1.47,1.85-2.18s1.17-1.17,1.7-1.8a4.64,4.64,0,0,0,.52-1.07,6.47,6.47,0,0,0-1-.19c-3.43,0-6.87,0-10.31,0-1.61,0-2.12.43-2.31,1.94A21.41,21.41,0,0,1,66.4,61.79c-.94,1.26-.94,1.31.11,2.36,2.61,2.61,5.24,5.19,7.88,7.78a6,6,0,0,0,.77.53,11.5,11.5,0,0,0,.22-1.34c0-1.53,0-3.06.06-4.58,0-.32.5-.61.77-.91.17.31.5.62.5.92,0,2.55,0,5.09,0,7.64a1.36,1.36,0,0,1-1.44,1.45c-2.41.11-4.83.2-7.24.26a2.82,2.82,0,0,1-1.08-.27c-.15,0-.37-.31-.34-.39s.26-.49.44-.52c.75-.11,1.51-.15,2.27-.21l4.24-.28a3.76,3.76,0,0,0-1.35-2Q68.94,69,65.68,65.75c-1.18-1.17-1.68-1.29-3-.3a22.85,22.85,0,0,1-10.07,4.29c-1.88.35-2.14.66-2.17,2.5-.05,3.18,0,6.36,0,9.54a1.54,1.54,0,0,0,0,.57,2.11,2.11,0,0,0,.53.91c.11.09.58-.16.8-.35,1-1,2-2,3-2.89.48-.44,1-1.47,1.62-.92s-.44,1.15-.84,1.6c-1.43,1.62-2.94,3.17-4.44,4.72-1.06,1.09-1.69,1.13-2.76.1-1.66-1.58-3.26-3.22-4.88-4.83-.09-.09-.23-.17-.26-.28-.1-.33-.17-.68-.25-1a3.74,3.74,0,0,1,1.18.17,5.16,5.16,0,0,1,1,.9ZM69.3,48.87C69.77,39,61,29.2,49.69,29.29a19.57,19.57,0,0,0,0,39.14A19.32,19.32,0,0,0,69.3,48.87Z"/><path class="e1a6f2d1-801b-40c0-992a-5f56599ce16c" d="M63.89,56.78a11.65,11.65,0,0,1-2,.42,1.74,1.74,0,0,0-1.82,1.08c-.12.28-.31.68-.54.74-1.26.33-1.23,1.29-1.2,2.27a1.87,1.87,0,0,1,0,.75c-.18.42-.43,1.13-.68,1.14-.66,0-.61-.63-.67-1.13a6.47,6.47,0,0,0-.37-1.83,1.3,1.3,0,0,0-1-.69,1.38,1.38,0,0,0-.94.8,20.09,20.09,0,0,0-.41,2.05,3,3,0,0,1-.47.75c-.2-.26-.51-.51-.59-.81-.12-.48,0-1-.12-1.51S52.74,59.48,52,59.4s-1.24.53-1.4,1.27A11.59,11.59,0,0,0,50.45,62c-.06.49,0,1.22-.65,1.19s-.74-.73-.71-1.33a4.72,4.72,0,0,0,0-1.13,3.87,3.87,0,0,0-.53-1.19c-.31-.45-.71-.4-1.13-.06a2.56,2.56,0,0,0-.84,2c0,.57.3,1.57-.56,1.56s-.74-1-.78-1.69a2.6,2.6,0,0,0-.28-1.26,1.5,1.5,0,0,0-1.08-.63,1.49,1.49,0,0,0-.91.81,3.66,3.66,0,0,0-.19,1.3c-.07.61.13,1.53-.66,1.57s-.62-.9-.73-1.49a6.86,6.86,0,0,0-.55-2A3.88,3.88,0,0,0,37,57.35a.62.62,0,0,1-.19,0c-.52-.14-1.36,0-1.33-.74s.8-.66,1.38-.68a3.46,3.46,0,0,0,1.49-.17c.43-.24,1-.81.95-1.19s-.65-.93-1.11-1.07a14.12,14.12,0,0,0-2.08-.17c-.25,0-.45-.36-.67-.56.22-.2.41-.5.67-.58A8.2,8.2,0,0,1,37.43,52c.38,0,.84,0,1.09-.25s.79-.81.75-1.18-.6-.82-1-.93c-.66-.19-1.4-.06-2.08-.2-.28-.06-.49-.47-.73-.71a2.46,2.46,0,0,1,.78-.47c.56-.11,1.16,0,1.71-.15.7-.16,1.46-.51,1.41-1.32s-.8-1-1.56-1.07a9.6,9.6,0,0,1-1.7-.16c-.25-.06-.43-.42-.63-.65.23-.17.44-.47.69-.51.69-.1,1.4-.06,2.09-.16s1.27-.3,1.14-1a2,2,0,0,0-1-1.25,6.12,6.12,0,0,0-1.66-.31,13,13,0,0,1-1.31-.38,2.19,2.19,0,0,1,2.32-1.06c.78,0,1.51,0,1.83-1,.14-.46,1.7-3.74,1.84-4.17a3.46,3.46,0,0,1,.59-.82c.22.28.55.53.63.84a14.85,14.85,0,0,1,.12,1.52c.13,1,.7,1.7,1.32,1.57.82-.17,1.07-.82,1.13-1.57A9.48,9.48,0,0,1,45.38,35c0-.23.42-.43.69-.54.07,0,.4.33.43.54.08.63,0,1.28.12,1.89a2.75,2.75,0,0,0,.55,1.37A1.13,1.13,0,0,0,49,37.53c.09-.76,0-1.54.11-2.29,0-.31.41-.57.63-.85.21.27.55.52.62.83.14.61.08,1.27.2,1.89s.34,1.13,1,1.18,1.15-.48,1.28-1.15.15-1.38.26-2.06a2.93,2.93,0,0,1,.42-.74,2,2,0,0,1,.89,1.82,1.23,1.23,0,0,0,0,.19c.07,1.16.54,1.92,1.17,1.91s1.13-.79,1.28-1.91c.07-.5.12-1,.22-1.5,0-.16.26-.41.36-.39s.53.19.57.36a7.72,7.72,0,0,1,.27,1.84,3.12,3.12,0,0,0,1,2.06,4.13,4.13,0,0,0,3.87,1.69,1,1,0,0,1,.54.17,4,4,0,0,1,.52.49c-.17.16-.31.41-.51.48a8.52,8.52,0,0,1-1.13.15,3.63,3.63,0,0,0-1.3.27c-.39.24-.89.69-.91,1.06s.5.87.89,1a13.88,13.88,0,0,0,1.86.32,5.43,5.43,0,0,1,1.1.56,4.92,4.92,0,0,1-1.15.77,15,15,0,0,1-1.52.08,1.87,1.87,0,0,0-1,.49,1.06,1.06,0,0,0,.64,1.85c.74.13,1.52.06,2.27.16.26,0,.47.34.71.53-.21.21-.38.53-.63.61a7,7,0,0,1-1.31.14,4,4,0,0,0-1.11.22,1,1,0,0,0-.12,1.91,5.33,5.33,0,0,0,1.63.38c.37.06.76,0,1.13.09a.59.59,0,0,1,.39.36A.52.52,0,0,1,64,53a4.92,4.92,0,0,1-1.23.4c-.5.09-1,0-1.52.15a1.18,1.18,0,0,0-1,1.39c.07.7.53,1,1.18,1s1.27,0,1.9.07c.21,0,.4.26.61.4ZM49.79,40h0c-2.29,0-4.58,0-6.87,0-1.63,0-2,.37-2.06,2,0,.64,0,1.27,0,1.91,0,3.75,0,7.5,0,11.26,0,2.14.38,2.58,2.53,2.58l12,0c3.36,0,3.42,0,3.4-3.4,0-4.19-.09-8.38-.14-12.58,0-1.37-.39-1.76-1.85-1.78C54.5,40,52.14,40,49.79,40Z"/><path class="e1a6f2d1-801b-40c0-992a-5f56599ce16c" d="M43.63,54.39a4.93,4.93,0,0,1,0-1.53q1.27-4.28,2.67-8.53a5.55,5.55,0,0,1,.83-1.21c.39.38,1,.69,1.13,1.15.76,2,1.41,4.07,2.09,6.12.32,1,.57,1.94.91,2.9.16.47.27,1-.26,1.1-.29.07-.81-.28-1-.59a4.86,4.86,0,0,1-.54-1.41c-.51-1.56-1-2-2.11-2s-1.71.82-2,1.89a17.19,17.19,0,0,1-1,2.19Z"/><path class="e1a6f2d1-801b-40c0-992a-5f56599ce16c" d="M54.37,48.74c0-1.46,0-2.92,0-4.38,0-.34.41-.66.63-1,.22.35.59.68.62,1,.09,1.07.05,2.15.05,3.23,0,1.59,0,3.17,0,4.76a3,3,0,0,1-.09,1.13c-.12.3-.47.51-.72.76-.15-.27-.42-.53-.43-.79,0-1.59,0-3.18,0-4.76Z"/></svg>