<svg id="e7bae3a4-a8f7-4e9b-93a8-7d012e5b324b" data-name="Layer 1" xmlns="http://www.w3.org/2000/svg" viewBox="0 0 100 100"><defs><style>.bcbb277a-dde1-4d18-8ab0-f1642cc5938b{fill:#fff;}</style></defs><title>ICONS CITY</title><path class="bcbb277a-dde1-4d18-8ab0-f1642cc5938b" d="M52.12,10.25A35.19,35.19,0,0,1,58.33,80a44.05,44.05,0,0,1-7.26.56,5,5,0,0,0-3.51,1.19c-2.31,2-4.71,3.85-7.11,5.71a9.54,9.54,0,0,1-13.35-1c-2.6-2.77-5.08-5.66-7.5-8.59a9.59,9.59,0,0,1-1.56-10c.59-1.57,1.15-3.15,1.87-4.65a3.94,3.94,0,0,0-.05-3.67,32.69,32.69,0,0,1-3-13.93,35.17,35.17,0,0,1,28-34.47C47.27,10.63,49.71,10.53,52.12,10.25ZM84,45.41A29.56,29.56,0,0,0,81.19,32.3C73.47,14.77,51,8,34.93,18.49c-9.15,6-14,14.49-14.89,25.33a28.62,28.62,0,0,0,1.69,11.87,3.2,3.2,0,0,0,.48.65c.2-.21.48-.37.58-.62.8-2,1.54-4,2.36-5.92a28.35,28.35,0,0,1,2-4.33A5.08,5.08,0,0,1,32.61,43a5.71,5.71,0,0,1,4.66,4.44c.11.52.14,1.06.2,1.58s.41.78.91.43.83-.67,1.23-1c3.32-2.9,6.6-5.85,10-8.65A8.81,8.81,0,0,1,53.18,38a4.94,4.94,0,0,1,5.28,2.75,5.06,5.06,0,0,1-.76,5.92c-1.31,1.37-2.81,2.55-4.16,3.88-.45.44-1.09,1.21-1,1.62.72,2.36.76,5,2.78,6.85a4.4,4.4,0,0,1,1.59,3.63,5.86,5.86,0,0,0,1.21,3.81c1.85,2.76,1.47,5.22-1,7.51-.73.67-1.52,1.26-2.28,1.89-.35.3-.72.57-1,.89a1.9,1.9,0,0,0-.25.6,3.38,3.38,0,0,0,.6.17,5.05,5.05,0,0,0,.68-.06A32,32,0,0,0,84,45.41ZM21,71.74a7.55,7.55,0,0,0,.86,2.67c2.82,3.38,5.63,6.8,8.74,9.9,2.28,2.27,4.79,2.1,7.36.17.24-.18.47-.38.71-.57L53.41,72c1.21-1,1.88-2.46,1.36-3s-2.14-.13-3.3.82c-.76.62-1.48,1.31-2.29,1.87a1.56,1.56,0,0,1-2.24-.31,1.7,1.7,0,0,1-.08-2.29,9.71,9.71,0,0,1,1.31-1.25c1.33-1.25,2.72-2.44,3.95-3.77.4-.43.36-1.25.52-1.89a8.28,8.28,0,0,0-2-.1,3.34,3.34,0,0,0-1.35.81c-.88.71-1.72,1.49-2.61,2.19a3.55,3.55,0,0,1-1.54.9,2.29,2.29,0,0,1-1.8-.51,2.1,2.1,0,0,1-.06-1.81,5,5,0,0,1,1.3-1.54c1.44-1.35,2.91-2.67,4.37-4,.7-.62,1.11-1.46.47-2.18a1.61,1.61,0,0,0-2.27,0c-1.12.9-2.2,1.87-3.31,2.8a18.3,18.3,0,0,1-2,1.54,1.58,1.58,0,0,1-2.24-.37,1.61,1.61,0,0,1,0-2.27,16.43,16.43,0,0,1,1.47-1.42c4-3.46,7.9-6.9,11.84-10.37a7.57,7.57,0,0,0,1.54-1.66,1.78,1.78,0,0,0,.14-1.5,1.55,1.55,0,0,0-1.37-.35,5.47,5.47,0,0,0-2,1C49.48,44.87,47.72,46.45,46,48L34.78,57.74a2.08,2.08,0,0,1-2.7.42,2.06,2.06,0,0,1-.73-2.79c.63-1.62,1.18-3.28,1.74-4.93.68-2,.42-3.07-.79-3.46s-1.93.09-2.71,2.07Q25.65,59,21.78,69C21.46,69.81,21.3,70.71,21,71.74Z"/><path class="bcbb277a-dde1-4d18-8ab0-f1642cc5938b" d="M70.74,41.31c-.29,5.38-2.34,9.54-6.9,12.3-1,.58-2,1.16-3,1.71-.7.39-1.32.34-1.69-.47s0-1.15.61-1.48c1-.54,2-1,3-1.64A12,12,0,0,0,68,38.26a12.44,12.44,0,0,0-23.85-1.12c-.32.85-.52,1.75-.84,2.59a4.09,4.09,0,0,1-.8,1.35c-.22.24-.65.28-1,.41a2.6,2.6,0,0,1-.35-1,13.08,13.08,0,0,1,2.09-6.89c3.54-5.05,8.29-7.79,14.59-6.89A14.52,14.52,0,0,1,70.34,38.1,24.65,24.65,0,0,1,70.74,41.31Z"/></svg>