<svg id="e726fe91-01ef-4ed5-a766-1b038f319e03" data-name="Layer 1" xmlns="http://www.w3.org/2000/svg" viewBox="0 0 100 100"><defs><style>.ee0453c9-f2c8-4ccf-8f60-fbb722b3f1df{fill:#fff;}</style></defs><title>ICONS CITY</title><path class="ee0453c9-f2c8-4ccf-8f60-fbb722b3f1df" d="M34.82,20.81c3.74,0,7.47.07,11.2,0,1.87-.06,2.75.54,2.55,2.48a10.59,10.59,0,0,0,0,2.18c.2,1.77-.39,2.56-2.31,2.79-3.85.47-6,3-6,6.53a6.32,6.32,0,0,0,5.94,6.3c1.69.2,2.49.81,2.36,2.55a23.09,23.09,0,0,0,0,3c.06,1.54-.7,2.11-2.16,2.08-1.91,0-3.83,0-5.74,0s-2.6.8-2.47,2.91a6.8,6.8,0,0,1-1.51,4.49c-.59.68-2.59.62-3.73.23C31,55.66,30.71,53.8,31.07,52c.53-2.68-.73-3.31-3.13-3.33-7.26,0-7.26-.1-7.26-7.44,0-5.92.06-11.84,0-17.75,0-2,.68-2.75,2.7-2.69C27.17,20.89,31,20.8,34.82,20.81Z"/><path class="ee0453c9-f2c8-4ccf-8f60-fbb722b3f1df" d="M20.68,65c0-3.65.07-7.29,0-10.93,0-2,.6-2.74,2.68-2.71,4,.06,4-.06,5.15,3.84a6.75,6.75,0,0,0,6.43,4.57,6.73,6.73,0,0,0,6.1-5c.29-1.09.57-2.9,1.18-3a15.71,15.71,0,0,1,5.39-.07c.39,0,.87,1.24.92,1.94.15,1.81.06,3.64.1,5.46,0,2.14.87,3,3.26,2.74a5.71,5.71,0,0,1,4.38,1.67c1.87,2.37-.27,5.79-3.42,5.42-3.93-.45-4.1.24-4.24,4.26-.21,6-.19,6-6.25,6l-18,0c-3.4,0-3.61-.22-3.62-3.5C20.67,72.13,20.68,68.58,20.68,65Z"/><path class="ee0453c9-f2c8-4ccf-8f60-fbb722b3f1df" d="M79.32,34.57c0,3.46,0,6.92,0,10.38,0,1.64.45,3.59-2.3,3.76-4.37.27-4.73.19-5.38-3a6.39,6.39,0,0,0-5.1-5.4c-2.73-.64-4.86.5-6.46,2.55a7.91,7.91,0,0,0-1.23,3.23c-.55,2.68-1,2.87-5.45,2.6-2.17-.13-2.19-1.44-2.16-3s0-3.28,0-4.92c0-2.11-.79-2.88-3-2.63-1.3.16-3.19-.09-3.93-.93a4.47,4.47,0,0,1-.73-4.1,5.16,5.16,0,0,1,3.89-2.09c3.54,0,3.74.07,3.78-3.37.09-6.87.09-6.85,7-6.88,5.83,0,11.66-.11,17.49-.13,3.38,0,3.61.23,3.63,3.51C79.34,27.65,79.32,31.11,79.32,34.57Z"/><path class="ee0453c9-f2c8-4ccf-8f60-fbb722b3f1df" d="M65,79.16c-3.37,0-6.74,0-10.11,0-3.72,0-3.72,0-3.7-3.82,0-.46,0-.92,0-1.37-.1-1.64.7-2.19,2.29-2.28a6.83,6.83,0,0,0,6.32-6.3c0-3-2.69-6-5.93-6.54-2.87-.5-2.92-.8-2.72-5.17.11-2.37,1.6-2.25,3.18-2.26h2.74c4.37,0,4.37,0,4.38-4.31,0-2.41,1.34-3.84,3.62-3.86a3.52,3.52,0,0,1,3.81,3.69c.21,4.47.21,4.44,4.7,4.51,5.83.08,5.71-1.15,5.7,5.73,0,6.28-.07,12.57,0,18.85,0,2.51-.92,3.4-3.39,3.31-3.64-.15-7.28,0-10.92,0Z"/></svg>