<svg id="a761cb6d-2594-4158-8265-1a143c7ff0b3" data-name="Layer 1" xmlns="http://www.w3.org/2000/svg" viewBox="0 0 100 100"><defs><style>.fabe32e5-f9d7-4379-a43a-d1dee61bdd92{fill:#fff;}</style></defs><title>ICONS CITY</title><path class="fabe32e5-f9d7-4379-a43a-d1dee61bdd92" d="M79.41,39.24c-9.37,4.82-18.3,9.45-27.28,14a3.05,3.05,0,0,1-2.39,0c-8.78-4.44-17.51-9-26.25-13.49a8.21,8.21,0,0,1-.9-.7l13.42-7c4.36-2.28,8.7-4.59,13.09-6.79A3.39,3.39,0,0,1,51.68,25C60.79,29.58,69.85,34.3,79.41,39.24Zm-8,.08a11.26,11.26,0,0,0-1.2-.85c-6-3.24-11.9-6.55-17.94-9.64a4.56,4.56,0,0,0-3.45.17c-2.48,1.14-4.79,2.62-7.19,3.93C38,35,34.19,37,30,39.25c6.77,3.36,13.07,6.57,19.47,9.57a4.87,4.87,0,0,0,3.56-.35c4.39-2,8.7-4.24,13-6.4C67.81,41.21,69.5,40.32,71.46,39.32Z"/><path class="fabe32e5-f9d7-4379-a43a-d1dee61bdd92" d="M23.29,60.72c2.27-1.74,4.2-1.6,6.46-.39,6.39,3.42,12.91,6.6,19.34,10a3.51,3.51,0,0,0,3.68,0c6.49-3.42,13.08-6.63,19.51-10.15,2.37-1.3,4.33-1.43,6.44.44a11.1,11.1,0,0,1-1.26.9c-8.11,4.35-16.25,8.66-24.33,13.06a4,4,0,0,1-4.34,0C40.93,70.21,33,66,25.09,61.77,24.55,61.48,24,61.16,23.29,60.72Z"/><path class="fabe32e5-f9d7-4379-a43a-d1dee61bdd92" d="M78.9,50,69.68,54.9c-5.57,3-11.12,6-16.74,8.9a4.17,4.17,0,0,1-3.24.36c-8.8-4.56-17.51-9.28-26.46-14.07,1.9-1.39,3.46-2,5.65-.8C35.43,52.76,42.13,56,48.7,59.37a4.12,4.12,0,0,0,4.33.05c6.54-3.49,13.24-6.69,19.73-10.27C75.12,47.85,76.77,48.4,78.9,50Z"/><path class="fabe32e5-f9d7-4379-a43a-d1dee61bdd92" d="M51,93.9A43.9,43.9,0,1,1,94.9,50,43.95,43.95,0,0,1,51,93.9Zm0-84A40.12,40.12,0,1,0,91.12,50,40.17,40.17,0,0,0,51,9.88Z"/></svg>