<svg id="baa5e571-7db1-4c6d-bce0-48f4d4841936" data-name="Layer 1" xmlns="http://www.w3.org/2000/svg" viewBox="0 0 100 100"><defs><style>.bfe43d7a-3d8a-4d9a-9d2f-694cf8ed7cd8{fill:#fff;}</style></defs><title>ICONS CITY</title><path class="bfe43d7a-3d8a-4d9a-9d2f-694cf8ed7cd8" d="M68.66,62.44c-1.69-2.89-3.45-5.74-5-8.68a3.1,3.1,0,0,0-3.07-1.93q-10.61,0-21.19-.11a2.77,2.77,0,0,0-2.79,1.69q-5.46,10-11.07,19.88a7.35,7.35,0,0,1-1.63,1.5A14.5,14.5,0,0,1,22.68,73c-1.54-3.37-1.33-6.39.66-9.8C30.39,51.07,36.86,38.65,44,26.64a17.36,17.36,0,0,0,2.76-10.28c-.14-2.93,2.34-4.67,4.65-3.32A3.89,3.89,0,0,1,53.2,16c-.42,4.52,1.16,8.15,3.54,11.91,4,6.34,7.43,13.07,11.12,19.63,1.16,2.07,2.29,2.59,4.55,2,.42-.1.65-.88,1.1-1.09s1.38-.43,1.61-.18c.76.82.17,4.76-.82,5.73-1-1-1.45-3.21-3.83-1.88.8,1.48,1.58,3,2.4,4.45,1.6,2.89,3.15,5.8,4.85,8.62a5.09,5.09,0,0,1,.56,4.7,39,39,0,0,1-1.9,4.93c-3.61-3.59-5.52-8.14-7.79-12.45l2.31.51L75.52,71c1.47-1.88,1.22-3.54.24-5.28Q68.35,52.52,61,39.28l-5.41-9.71c-1.61,1.31-1.85,2.52-.87,4.24C58.85,41.08,62.89,48.43,67,55.76,68.11,57.83,69.66,59.81,68.66,62.44ZM61,49.65c0-.24.1-.4,0-.49C58.25,44,55.46,38.89,52.53,33.82c-.89-1.55-4.44-1.2-5.34.4-1.6,2.8-3.17,5.62-4.74,8.44-1.25,2.26-2.49,4.54-3.83,7ZM24.43,70.93a12.2,12.2,0,0,0,.82-1.17q10.06-18,20.1-36.12c1.13-2,1.06-2.27-1-3.92-2,3.64-4,7.26-6.07,10.87Q31.46,52.85,24.58,65.1C23.52,67,23,68.83,24.43,70.93ZM50,23.87a3.69,3.69,0,0,0,0,7.37,3.69,3.69,0,0,0,0-7.37Zm-1.57-5.41h.12A10.14,10.14,0,0,0,48.62,21a1.75,1.75,0,0,0,1.34.94c.49,0,1.43-.47,1.45-.77a38.27,38.27,0,0,0-.15-5.46c0-.42-.81-1.11-1.15-1.05a2,2,0,0,0-1.37,1.09A11.49,11.49,0,0,0,48.44,18.46Z"/><path class="bfe43d7a-3d8a-4d9a-9d2f-694cf8ed7cd8" d="M49.72,87.43a39.31,39.31,0,0,1-22.87-8c-1-.75-2-1.66-1.21-3,.85-1.49,2.08-1.08,3.19-.21a33,33,0,0,0,13.24,6.45,33.54,33.54,0,0,0,28.35-5.86l.63-.48c1.07-.85,2.27-1.47,3.26-.09.87,1.21.09,2.2-.94,3a36.33,36.33,0,0,1-19,7.74C52.6,87.18,50.82,87.33,49.72,87.43Z"/><path class="bfe43d7a-3d8a-4d9a-9d2f-694cf8ed7cd8" d="M87.72,51.91a37,37,0,0,1-4.2,15.14c-.61,1.17-1.39,2.27-2.91,1.44s-1-2-.41-3.1a34,34,0,0,0,3.93-15.13c0-1.3.28-2.48,1.87-2.44s1.75,1.29,1.72,2.56C87.71,50.77,87.72,51.17,87.72,51.91Z"/><path class="bfe43d7a-3d8a-4d9a-9d2f-694cf8ed7cd8" d="M12.34,51.86c0-1-.18-1.59,0-2,.42-.76,1-1.8,1.64-2,1.25-.31,1.74.66,1.91,1.9.43,3.25.83,6.53,1.58,9.72a34.17,34.17,0,0,0,2.43,6c.55,1.2.92,2.3-.54,3s-2.23-.26-2.82-1.39A37.38,37.38,0,0,1,12.34,51.86Z"/><path class="bfe43d7a-3d8a-4d9a-9d2f-694cf8ed7cd8" d="M77.32,28.72,77,26.08h2l-.45,2.78Z"/><path class="bfe43d7a-3d8a-4d9a-9d2f-694cf8ed7cd8" d="M60.73,15.19l-2.8.58,0-1.95,2.79.25Z"/><path class="bfe43d7a-3d8a-4d9a-9d2f-694cf8ed7cd8" d="M63.25,18.14c-.59-1-1.17-1.52-1.2-2.11,0-.37.79-1.09,1.22-1.09s1.22.74,1.2,1.11C64.44,16.63,63.85,17.18,63.25,18.14Z"/><path class="bfe43d7a-3d8a-4d9a-9d2f-694cf8ed7cd8" d="M28.24,22.3l-.53-2.77,2,0-.39,2.7Z"/><path class="bfe43d7a-3d8a-4d9a-9d2f-694cf8ed7cd8" d="M23.86,27.07c-.81.5-1.38,1.12-1.79,1s-.93-.81-1.39-1.26c.48-.45,1-1.25,1.42-1.24S23.09,26.38,23.86,27.07Z"/><path class="bfe43d7a-3d8a-4d9a-9d2f-694cf8ed7cd8" d="M82.49,31.48l-2.78.29.06-2,2.78.54Z"/><path class="bfe43d7a-3d8a-4d9a-9d2f-694cf8ed7cd8" d="M82.82,36.67c-.57-.83-1.18-1.36-1.21-1.91,0-.38.87-1.21,1.17-1.13.59.16,1.06.8,1.58,1.24Z"/><path class="bfe43d7a-3d8a-4d9a-9d2f-694cf8ed7cd8" d="M84.48,37.33c.61.84,1.29,1.38,1.21,1.76-.12.56-.78,1-1.21,1.5-.46-.46-1.24-.89-1.3-1.4S83.85,38.18,84.48,37.33Z"/><path class="bfe43d7a-3d8a-4d9a-9d2f-694cf8ed7cd8" d="M41.09,12.73c.64.92,1.29,1.46,1.29,2s-.73,1.09-1.24,1.22c-.3.08-1.15-.71-1.14-1.11C40,14.26,40.56,13.69,41.09,12.73Z"/><path class="bfe43d7a-3d8a-4d9a-9d2f-694cf8ed7cd8" d="M21.12,30.62c-.7.6-1.26,1.37-1.54,1.27a6,6,0,0,1-1.65-1.3c.51-.42,1-1.06,1.57-1.18C19.86,29.33,20.39,30,21.12,30.62Z"/><path class="bfe43d7a-3d8a-4d9a-9d2f-694cf8ed7cd8" d="M25.79,21.57c.28.58.9,1.26.76,1.71A3.07,3.07,0,0,1,25,24.69c-.16.09-1.09-.69-1.06-1A5,5,0,0,1,24.87,22Z"/><path class="bfe43d7a-3d8a-4d9a-9d2f-694cf8ed7cd8" d="M18.92,34.77l-1.7,1.48A9,9,0,0,1,16,34.49c-.06-.15.78-1,1.09-.93C17.66,33.67,18.15,34.22,18.92,34.77Z"/><path class="bfe43d7a-3d8a-4d9a-9d2f-694cf8ed7cd8" d="M14.6,45.44c-.62-.87-1.23-1.38-1.29-1.93,0-.38.82-1.23,1.11-1.16a2.14,2.14,0,0,1,1.45,1.19C16,44,15.21,44.58,14.6,45.44Z"/><path class="bfe43d7a-3d8a-4d9a-9d2f-694cf8ed7cd8" d="M38.67,16c-.83.59-1.39,1.27-1.77,1.19-.54-.13-1-.82-1.43-1.26.45-.37.89-1,1.36-1S37.82,15.41,38.67,16Z"/><path class="bfe43d7a-3d8a-4d9a-9d2f-694cf8ed7cd8" d="M17.59,39c-.92.66-1.48,1.34-1.84,1.25-.56-.14-1-.81-1.47-1.26.41-.4.82-1.12,1.24-1.13S16.61,38.44,17.59,39Z"/><path class="bfe43d7a-3d8a-4d9a-9d2f-694cf8ed7cd8" d="M73.14,20.42c-.77.74-1.27,1.57-1.7,1.54s-1-.84-1.42-1.31c.44-.43.83-1.09,1.35-1.22S72.32,19.93,73.14,20.42Z"/><path class="bfe43d7a-3d8a-4d9a-9d2f-694cf8ed7cd8" d="M85.58,42.12c.55.63,1.25,1.14,1.16,1.39A5.53,5.53,0,0,1,85.56,45l-1.49-1.26Z"/><path class="bfe43d7a-3d8a-4d9a-9d2f-694cf8ed7cd8" d="M69.22,18l-1.78,1.56c-.41-.51-1-1-1.15-1.56-.06-.29.74-1,1.2-1.08S68.42,17.48,69.22,18Z"/><path class="bfe43d7a-3d8a-4d9a-9d2f-694cf8ed7cd8" d="M73.27,23.4c1-1.15,1.93-1.5,2.9,0C75,25.39,74.48,25.39,73.27,23.4Z"/><path class="bfe43d7a-3d8a-4d9a-9d2f-694cf8ed7cd8" d="M32.43,16.12c.66.94,1.22,1.43,1.31,2,0,.31-.68.75-1.07,1.14-.43-.46-1-.85-1.24-1.39C31.32,17.57,31.89,17,32.43,16.12Z"/></svg>